<?xml version="1.0" standalone="no"?>
  <!DOCTYPE svg PUBLIC "-//W3C//DTD SVG 1.1//EN" "http://www.w3.org/Graphics/SVG/1.1/DTD/svg11.dtd" >
  <svg>
  <metadata>
  Created by font-carrier
  </metadata>
  <defs>
  <font id="HeroNew-Regular" horiz-adv-x="1360" vert-adv-y="1360" >
    <font-face
      
      font-family="Hero New"
      
      font-weight="400"
      
      font-stretch="normal"
      
      units-per-em="1000"
      
      ascent="1053"
      
      descent="-346"
      
    />
      <missing-glyph />

      

      
      <glyph glyph-name="uni41" unicode="&#x41;" d="M703 0L409 744L304 744L12 0L110 0L197 226L516 226L603 0ZM356 640L485 309L227 309Z"  horiz-adv-x="714" vert-adv-y="1000"  />

      
      <glyph glyph-name="uni42" unicode="&#x42;" d="M457 384C521 409 570 462 570 551C570 661 487 744 328 744L102 744L102 0L340 0C510 0 594 93 594 205C594 291 548 356 457 384ZM194 660L335 660C424 660 478 616 478 542C478 471 425 418 328 418L194 418ZM338 84L194 84L194 341L343 341C434 341 501 295 501 213C501 138 444 84 338 84Z"  horiz-adv-x="649" vert-adv-y="1000"  />

      
      <glyph glyph-name="uni43" unicode="&#x43;" d="M620 36L620 135C561 98 506 74 427 74C288 74 149 186 149 372C149 560 288 670 427 670C506 670 561 647 620 610L620 708C573 736 508 759 423 759C229 759 54 610 54 373C54 135 229-15 423-15C508-15 572 8 620 36Z"  horiz-adv-x="667" vert-adv-y="1000"  />

      
      <glyph glyph-name="uni44" unicode="&#x44;" d="M282 744L102 744L102 0L282 0C517 0 677 147 677 372C677 596 522 744 282 744ZM195 657L287 657C458 657 582 555 582 371C582 190 458 87 286 87L195 87Z"  horiz-adv-x="732" vert-adv-y="1000"  />

      
      <glyph glyph-name="uni45" unicode="&#x45;" d="M102 0L510 0L510 86L195 86L195 338L487 338L487 420L195 420L195 657L510 657L510 744L102 744Z"  horiz-adv-x="578" vert-adv-y="1000"  />

      
      <glyph glyph-name="uni46" unicode="&#x46;" d="M102 0L195 0L195 314L495 314L495 399L195 399L195 657L510 657L510 744L102 744Z"  horiz-adv-x="565" vert-adv-y="1000"  />

      
      <glyph glyph-name="uni47" unicode="&#x47;" d="M149 371C149 547 272 668 427 668C502 668 571 647 637 606L637 705C578 739 502 759 423 759C222 759 54 606 54 371C54 137 225-15 421-15C514-15 587 9 657 49L657 402L568 402L568 107C524 85 483 74 422 74C270 74 149 195 149 371Z"  horiz-adv-x="726" vert-adv-y="1000"  />

      
      <glyph glyph-name="uni48" unicode="&#x48;" d="M588 0L681 0L681 744L588 744L588 421L195 421L195 744L102 744L102 0L195 0L195 334L588 334Z"  horiz-adv-x="783" vert-adv-y="1000"  />

      
      <glyph glyph-name="uni49" unicode="&#x49;" d="M102 0L195 0L195 744L102 744Z"  horiz-adv-x="297" vert-adv-y="1000"  />

      
      <glyph glyph-name="uni4a" unicode="&#x4a;" d="M29 140L29 39C64 7 117-12 168-12C294-12 371 78 371 204L371 744L278 744L278 217C278 123 231 76 158 76C102 76 60 106 29 140Z"  horiz-adv-x="466" vert-adv-y="1000"  />

      
      <glyph glyph-name="uni4b" unicode="&#x4b;" d="M654 0L301 374L649 744L533 744L195 382L195 744L102 744L102 0L195 0L195 364L535 0Z"  horiz-adv-x="661" vert-adv-y="1000"  />

      
      <glyph glyph-name="uni4c" unicode="&#x4c;" d="M102 0L523 0L523 87L195 87L195 744L102 744Z"  horiz-adv-x="546" vert-adv-y="1000"  />

      
      <glyph glyph-name="uni4d" unicode="&#x4d;" d="M233 606L235 606L443 0L526 0L732 611L734 611L824 0L916 0L803 744L688 744L487 140L486 140L279 744L166 744L52 0L144 0Z"  horiz-adv-x="968" vert-adv-y="1000"  />

      
      <glyph glyph-name="uni4e" unicode="&#x4e;" d="M691 744L601 744L601 160L600 160L196 744L102 744L102 0L193 0L193 594L194 594L605 0L691 0Z"  horiz-adv-x="793" vert-adv-y="1000"  />

      
      <glyph glyph-name="uni4f" unicode="&#x4f;" d="M424-15C636-15 793 151 793 372C793 591 636 759 424 759C211 759 54 591 54 372C54 150 211-15 424-15ZM424 73C283 73 149 182 149 372C149 561 281 671 424 671C565 671 698 561 698 372C698 183 565 73 424 73Z"  horiz-adv-x="847" vert-adv-y="1000"  />

      
      <glyph glyph-name="uni50" unicode="&#x50;" d="M102 0L195 0L195 252L287 252C463 252 575 351 575 502C575 654 460 744 284 744L102 744ZM292 338L195 338L195 657L292 657C408 657 481 601 481 500C481 398 408 338 292 338Z"  horiz-adv-x="612" vert-adv-y="1000"  />

      
      <glyph glyph-name="uni51" unicode="&#x51;" d="M812 7L705 115C761 183 793 272 793 372C793 591 636 759 424 759C211 759 54 591 54 372C54 150 211-15 424-15C507-15 581 10 641 54L749-55ZM424 73C283 73 149 182 149 372C149 561 281 671 424 671C565 671 698 561 698 372C698 295 676 231 640 182L493 331L430 269L576 120C532 89 478 73 424 73Z"  horiz-adv-x="852" vert-adv-y="1000"  />

      
      <glyph glyph-name="uni52" unicode="&#x52;" d="M316 303C478 312 561 402 561 523C561 653 471 744 299 744L102 744L102 0L195 0L195 302L205 302L473 0L592 0ZM195 380L195 657L293 657C406 657 466 605 466 520C466 436 414 380 285 380Z"  horiz-adv-x="623" vert-adv-y="1000"  />

      
      <glyph glyph-name="uni53" unicode="&#x53;" d="M301 760C170 760 66 686 66 557C66 439 154 394 263 345C367 298 422 264 422 195C422 115 350 71 267 71C192 71 114 105 63 157L63 53C108 18 184-16 271-16C406-16 518 64 518 200C518 322 427 370 314 420C212 466 160 497 160 562C160 636 226 673 302 673C360 673 426 652 478 615L478 711C434 738 370 760 301 760Z"  horiz-adv-x="567" vert-adv-y="1000"  />

      
      <glyph glyph-name="uni54" unicode="&#x54;" d="M257 0L350 0L350 657L584 657L584 744L22 744L22 657L257 657Z"  horiz-adv-x="606" vert-adv-y="1000"  />

      
      <glyph glyph-name="uni55" unicode="&#x55;" d="M372-15C547-15 659 106 659 282L659 744L566 744L566 278C566 151 489 73 372 73C257 73 186 151 186 276L186 744L93 744L93 281C93 106 199-15 372-15Z"  horiz-adv-x="752" vert-adv-y="1000"  />

      
      <glyph glyph-name="uni56" unicode="&#x56;" d="M699 744L601 744L356 104L109 744L10 744L306 0L405 0Z"  horiz-adv-x="710" vert-adv-y="1000"  />

      
      <glyph glyph-name="uni57" unicode="&#x57;" d="M733 0L831 0L1050 744L955 744L782 121L781 121L582 744L492 744L295 122L294 122L118 744L20 744L242 0L341 0L537 613Z"  horiz-adv-x="1072" vert-adv-y="1000"  />

      
      <glyph glyph-name="uni58" unicode="&#x58;" d="M18 0L124 0L328 304L535 0L642 0L387 376L636 744L530 744L331 444L130 744L22 744L271 374Z"  horiz-adv-x="658" vert-adv-y="1000"  />

      
      <glyph glyph-name="uni59" unicode="&#x59;" d="M281 0L372 0L372 315L644 744L541 744L328 400L327 400L112 744L7 744L281 314Z"  horiz-adv-x="652" vert-adv-y="1000"  />

      
      <glyph glyph-name="uni5a" unicode="&#x5a;" d="M567 744L53 744L53 657L416 657L22 0L542 0L542 87L173 87Z"  horiz-adv-x="591" vert-adv-y="1000"  />

      
      <glyph glyph-name="unic1" unicode="&#xc1;" d="M395 994L279 826L355 826L494 994ZM703 0L409 744L304 744L12 0L110 0L197 226L516 226L603 0ZM356 640L485 309L227 309Z"  horiz-adv-x="714" vert-adv-y="1000"  />

      
      <glyph glyph-name="uni0102" unicode="&#x0102;" d="M520 991L449 991C448 944 414 906 356 906C297 906 264 944 262 991L191 991C188 892 273 839 356 839C439 839 523 892 520 991ZM703 0L409 744L304 744L12 0L110 0L197 226L516 226L603 0ZM356 640L485 309L227 309Z"  horiz-adv-x="714" vert-adv-y="1000"  />

      
      <glyph glyph-name="unic2" unicode="&#xc2;" d="M390 994L321 994L188 826L274 826L356 933L437 826L525 826ZM703 0L409 744L304 744L12 0L110 0L197 226L516 226L603 0ZM356 640L485 309L227 309Z"  horiz-adv-x="714" vert-adv-y="1000"  />

      
      <glyph glyph-name="unic4" unicode="&#xc4;" d="M253 848C283 848 308 872 308 901C308 930 283 953 253 953C224 953 200 930 200 901C200 872 224 848 253 848ZM459 848C489 848 512 872 512 901C512 930 489 953 459 953C429 953 405 930 405 901C405 872 429 848 459 848ZM703 0L409 744L304 744L12 0L110 0L197 226L516 226L603 0ZM356 640L485 309L227 309Z"  horiz-adv-x="714" vert-adv-y="1000"  />

      
      <glyph glyph-name="unic0" unicode="&#xc0;" d="M320 994L221 994L359 826L436 826ZM703 0L409 744L304 744L12 0L110 0L197 226L516 226L603 0ZM356 640L485 309L227 309Z"  horiz-adv-x="714" vert-adv-y="1000"  />

      
      <glyph glyph-name="uni0100" unicode="&#x0100;" d="M189 867L522 867L522 935L189 935ZM703 0L409 744L304 744L12 0L110 0L197 226L516 226L603 0ZM356 640L485 309L227 309Z"  horiz-adv-x="714" vert-adv-y="1000"  />

      
      <glyph glyph-name="uni0104" unicode="&#x0104;" d="M604-103C604-68 642-32 703 0L409 744L304 744L12 0L110 0L197 226L516 226L602 4C551-36 530-76 530-118C530-185 587-222 655-222C677-222 698-217 703-214L703-153C698-156 680-159 668-159C633-159 604-139 604-103ZM227 309L356 640L485 309Z"  horiz-adv-x="714" vert-adv-y="1000"  />

      
      <glyph glyph-name="unic5" unicode="&#xc5;" d="M356 1024C297 1024 250 981 250 925C250 869 297 825 356 825C415 825 462 869 462 925C462 981 415 1024 356 1024ZM356 976C387 976 409 954 409 925C409 896 387 873 356 873C325 873 303 896 303 925C303 954 325 976 356 976ZM703 0L409 744L304 744L12 0L110 0L197 226L516 226L603 0ZM356 640L485 309L227 309Z"  horiz-adv-x="714" vert-adv-y="1000"  />

      
      <glyph glyph-name="unic3" unicode="&#xc3;" d="M542 961L478 961C479 934 465 903 428 903C374 903 350 964 278 964C221 964 165 929 170 841L234 841C233 867 247 898 284 898C338 898 362 838 434 838C491 838 547 873 542 961ZM703 0L409 744L304 744L12 0L110 0L197 226L516 226L603 0ZM356 640L485 309L227 309Z"  horiz-adv-x="714" vert-adv-y="1000"  />

      
      <glyph glyph-name="unic6" unicode="&#xc6;" d="M942 657L942 744L481 744L-8 0L103 0L254 229L538 229L538 0L942 0L942 87L631 87L631 338L920 338L920 420L631 420L631 657ZM308 311L537 658L538 658L538 311Z"  horiz-adv-x="1010" vert-adv-y="1000"  />

      
      <glyph glyph-name="uni0106" unicode="&#x0106;" d="M458 994L342 826L418 826L557 994ZM620 36L620 135C561 98 506 74 427 74C288 74 149 186 149 372C149 560 288 670 427 670C506 670 561 647 620 610L620 708C573 736 508 759 423 759C229 759 54 610 54 373C54 135 229-15 423-15C508-15 572 8 620 36Z"  horiz-adv-x="667" vert-adv-y="1000"  />

      
      <glyph glyph-name="uni010C" unicode="&#x010C;" d="M587 994L500 994L419 887L338 994L250 994L385 826L452 826ZM620 36L620 135C561 98 506 74 427 74C288 74 149 186 149 372C149 560 288 670 427 670C506 670 561 647 620 610L620 708C573 736 508 759 423 759C229 759 54 610 54 373C54 135 229-15 423-15C508-15 572 8 620 36Z"  horiz-adv-x="667" vert-adv-y="1000"  />

      
      <glyph glyph-name="unic7" unicode="&#xc7;" d="M427 670C506 670 561 647 620 610L620 708C573 736 508 759 423 759C229 759 54 610 54 373C54 163 191 21 356-9C348-74 313-122 272-171L368-171C403-128 427-79 433-15C513-13 574 9 620 36L620 135C561 98 506 74 427 74C288 74 149 186 149 372C149 560 288 670 427 670Z"  horiz-adv-x="667" vert-adv-y="1000"  />

      
      <glyph glyph-name="uni010A" unicode="&#x010A;" d="M418 848C448 848 472 872 472 901C472 930 448 953 418 953C389 953 364 930 364 901C364 872 389 848 418 848ZM620 36L620 135C561 98 506 74 427 74C288 74 149 186 149 372C149 560 288 670 427 670C506 670 561 647 620 610L620 708C573 736 508 759 423 759C229 759 54 610 54 373C54 135 229-15 423-15C508-15 572 8 620 36Z"  horiz-adv-x="667" vert-adv-y="1000"  />

      
      <glyph glyph-name="unid0" unicode="&#xd0;" d="M293 744L113 744L113 410L17 410L17 337L113 337L113 0L293 0C528 0 688 147 688 372C688 596 533 744 293 744ZM297 87L206 87L206 337L400 337L400 410L206 410L206 657L298 657C469 657 593 555 593 371C593 190 469 87 297 87Z"  horiz-adv-x="743" vert-adv-y="1000"  />

      
      <glyph glyph-name="uni010E" unicode="&#x010E;" d="M523 994L436 994L355 887L274 994L186 994L321 826L388 826ZM282 744L102 744L102 0L282 0C517 0 677 147 677 372C677 596 522 744 282 744ZM195 657L287 657C458 657 582 555 582 371C582 190 458 87 286 87L195 87Z"  horiz-adv-x="732" vert-adv-y="1000"  />

      
      <glyph glyph-name="uni0110" unicode="&#x0110;" d="M293 744L113 744L113 410L17 410L17 337L113 337L113 0L293 0C528 0 688 147 688 372C688 596 533 744 293 744ZM297 87L206 87L206 337L400 337L400 410L206 410L206 657L298 657C469 657 593 555 593 371C593 190 469 87 297 87Z"  horiz-adv-x="743" vert-adv-y="1000"  />

      
      <glyph glyph-name="unic9" unicode="&#xc9;" d="M344 994L228 826L304 826L443 994ZM102 0L510 0L510 86L195 86L195 338L487 338L487 420L195 420L195 657L510 657L510 744L102 744Z"  horiz-adv-x="578" vert-adv-y="1000"  />

      
      <glyph glyph-name="uni011A" unicode="&#x011A;" d="M473 994L386 994L305 887L224 994L136 994L271 826L338 826ZM102 0L510 0L510 86L195 86L195 338L487 338L487 420L195 420L195 657L510 657L510 744L102 744Z"  horiz-adv-x="578" vert-adv-y="1000"  />

      
      <glyph glyph-name="unica" unicode="&#xca;" d="M339 994L270 994L137 826L223 826L305 933L386 826L474 826ZM102 0L510 0L510 86L195 86L195 338L487 338L487 420L195 420L195 657L510 657L510 744L102 744Z"  horiz-adv-x="578" vert-adv-y="1000"  />

      
      <glyph glyph-name="unicb" unicode="&#xcb;" d="M202 848C232 848 257 872 257 901C257 930 232 953 202 953C173 953 149 930 149 901C149 872 173 848 202 848ZM408 848C438 848 461 872 461 901C461 930 438 953 408 953C378 953 354 930 354 901C354 872 378 848 408 848ZM102 0L510 0L510 86L195 86L195 338L487 338L487 420L195 420L195 657L510 657L510 744L102 744Z"  horiz-adv-x="578" vert-adv-y="1000"  />

      
      <glyph glyph-name="uni0116" unicode="&#x0116;" d="M304 848C334 848 358 872 358 901C358 930 334 953 304 953C275 953 250 930 250 901C250 872 275 848 304 848ZM102 0L510 0L510 86L195 86L195 338L487 338L487 420L195 420L195 657L510 657L510 744L102 744Z"  horiz-adv-x="578" vert-adv-y="1000"  />

      
      <glyph glyph-name="unic8" unicode="&#xc8;" d="M269 994L170 994L308 826L385 826ZM102 0L510 0L510 86L195 86L195 338L487 338L487 420L195 420L195 657L510 657L510 744L102 744Z"  horiz-adv-x="578" vert-adv-y="1000"  />

      
      <glyph glyph-name="uni0112" unicode="&#x0112;" d="M138 867L471 867L471 935L138 935ZM102 0L510 0L510 86L195 86L195 338L487 338L487 420L195 420L195 657L510 657L510 744L102 744Z"  horiz-adv-x="578" vert-adv-y="1000"  />

      
      <glyph glyph-name="uni0118" unicode="&#x0118;" d="M510 657L510 744L102 744L102 0L400 0C353-38 333-78 333-118C333-185 390-222 458-222C480-222 501-217 506-214L506-153C501-156 483-159 471-159C436-159 407-139 407-103C407-68 445-32 506 0L510 0L510 86L195 86L195 338L487 338L487 420L195 420L195 657Z"  horiz-adv-x="578" vert-adv-y="1000"  />

      
      <glyph glyph-name="uni011E" unicode="&#x011E;" d="M579 991L508 991C507 944 473 906 415 906C356 906 323 944 321 991L250 991C247 892 332 839 415 839C498 839 582 892 579 991ZM149 371C149 547 272 668 427 668C502 668 571 647 637 606L637 705C578 739 502 759 423 759C222 759 54 606 54 371C54 137 225-15 421-15C514-15 587 9 657 49L657 402L568 402L568 107C524 85 483 74 422 74C270 74 149 195 149 371Z"  horiz-adv-x="726" vert-adv-y="1000"  />

      
      <glyph glyph-name="uni0122" unicode="&#x0122;" d="M149 371C149 547 272 668 427 668C502 668 571 647 637 606L637 705C578 739 502 759 423 759C222 759 54 606 54 371C54 137 225-15 421-15C514-15 587 9 657 49L657 402L568 402L568 107C524 85 483 74 422 74C270 74 149 195 149 371ZM438-79L352-79C368-140 360-212 331-281L397-281C434-215 450-144 438-79Z"  horiz-adv-x="726" vert-adv-y="1000"  />

      
      <glyph glyph-name="uni0120" unicode="&#x0120;" d="M414 848C444 848 468 872 468 901C468 930 444 953 414 953C385 953 360 930 360 901C360 872 385 848 414 848ZM149 371C149 547 272 668 427 668C502 668 571 647 637 606L637 705C578 739 502 759 423 759C222 759 54 606 54 371C54 137 225-15 421-15C514-15 587 9 657 49L657 402L568 402L568 107C524 85 483 74 422 74C270 74 149 195 149 371Z"  horiz-adv-x="726" vert-adv-y="1000"  />

      
      <glyph glyph-name="uni0126" unicode="&#x0126;" d="M753 614L686 614L686 744L593 744L593 614L200 614L200 744L107 744L107 614L29 614L29 541L107 541L107 0L200 0L200 334L593 334L593 0L686 0L686 541L753 541ZM593 421L200 421L200 541L593 541Z"  horiz-adv-x="792" vert-adv-y="1000"  />

      
      <glyph glyph-name="uni0132" unicode="&#x0132;" d="M102 0L195 0L195 744L102 744ZM325 140L325 39C360 7 413-12 464-12C590-12 667 78 667 204L667 744L574 744L574 217C574 123 527 76 454 76C398 76 356 106 325 140Z"  horiz-adv-x="762" vert-adv-y="1000"  />

      
      <glyph glyph-name="unicd" unicode="&#xcd;" d="M187 994L71 826L147 826L286 994ZM102 0L195 0L195 744L102 744Z"  horiz-adv-x="297" vert-adv-y="1000"  />

      
      <glyph glyph-name="unice" unicode="&#xce;" d="M182 994L113 994L-20 826L66 826L148 933L229 826L317 826ZM102 0L195 0L195 744L102 744Z"  horiz-adv-x="297" vert-adv-y="1000"  />

      
      <glyph glyph-name="unicf" unicode="&#xcf;" d="M45 848C75 848 100 872 100 901C100 930 75 953 45 953C16 953-8 930-8 901C-8 872 16 848 45 848ZM251 848C281 848 304 872 304 901C304 930 281 953 251 953C221 953 197 930 197 901C197 872 221 848 251 848ZM102 0L195 0L195 744L102 744Z"  horiz-adv-x="297" vert-adv-y="1000"  />

      
      <glyph glyph-name="uni0130" unicode="&#x0130;" d="M147 848C177 848 201 872 201 901C201 930 177 953 147 953C118 953 93 930 93 901C93 872 118 848 147 848ZM102 0L195 0L195 744L102 744Z"  horiz-adv-x="297" vert-adv-y="1000"  />

      
      <glyph glyph-name="unicc" unicode="&#xcc;" d="M112 994L13 994L151 826L228 826ZM102 0L195 0L195 744L102 744Z"  horiz-adv-x="297" vert-adv-y="1000"  />

      
      <glyph glyph-name="uni012A" unicode="&#x012A;" d="M-19 867L314 867L314 935L-19 935ZM102 0L195 0L195 744L102 744Z"  horiz-adv-x="297" vert-adv-y="1000"  />

      
      <glyph glyph-name="uni012E" unicode="&#x012E;" d="M195 0L195 744L102 744L102 10C46-31 22-74 22-118C22-185 79-222 147-222C169-222 190-217 195-214L195-153C190-156 172-159 160-159C125-159 96-139 96-103C96-68 134-32 195 0Z"  horiz-adv-x="297" vert-adv-y="1000"  />

      
      <glyph glyph-name="uni0136" unicode="&#x0136;" d="M301 374L649 744L533 744L195 382L195 744L102 744L102 0L195 0L195 364L535 0L654 0ZM305-79C321-140 313-212 284-281L350-281C387-215 403-144 391-79Z"  horiz-adv-x="661" vert-adv-y="1000"  />

      
      <glyph glyph-name="uni0139" unicode="&#x0139;" d="M187 994L71 826L147 826L286 994ZM102 0L523 0L523 87L195 87L195 744L102 744Z"  horiz-adv-x="546" vert-adv-y="1000"  />

      
      <glyph glyph-name="uni013D" unicode="&#x013D;" d="M272 605L334 605C359 670 362 709 362 743C362 763 359 783 356 800L271 800C279 773 284 747 284 713C284 662 276 631 272 605ZM102 0L523 0L523 87L195 87L195 744L102 744Z"  horiz-adv-x="547" vert-adv-y="1000"  />

      
      <glyph glyph-name="uni013B" unicode="&#x013B;" d="M102 0L523 0L523 87L195 87L195 744L102 744ZM353-79L267-79C283-140 275-212 246-281L312-281C349-215 365-144 353-79Z"  horiz-adv-x="546" vert-adv-y="1000"  />

      
      <glyph glyph-name="uni013F" unicode="&#x013F;" d="M102 0L523 0L523 87L195 87L195 744L102 744ZM423 326C458 326 485 353 485 388C485 424 458 451 423 451C387 451 361 424 361 388C361 353 387 326 423 326Z"  horiz-adv-x="570" vert-adv-y="1000"  />

      
      <glyph glyph-name="uni0141" unicode="&#x0141;" d="M216 87L216 309L401 416L401 505L216 398L216 744L123 744L123 345L25 288L25 198L123 255L123 0L544 0L544 87Z"  horiz-adv-x="567" vert-adv-y="1000"  />

      
      <glyph glyph-name="uni0143" unicode="&#x0143;" d="M443 994L327 826L403 826L542 994ZM691 744L601 744L601 160L600 160L196 744L102 744L102 0L193 0L193 594L194 594L605 0L691 0Z"  horiz-adv-x="793" vert-adv-y="1000"  />

      
      <glyph glyph-name="uni0147" unicode="&#x0147;" d="M572 994L485 994L404 887L323 994L235 994L370 826L437 826ZM691 744L601 744L601 160L600 160L196 744L102 744L102 0L193 0L193 594L194 594L605 0L691 0Z"  horiz-adv-x="793" vert-adv-y="1000"  />

      
      <glyph glyph-name="uni0145" unicode="&#x0145;" d="M691 744L601 744L601 160L600 160L196 744L102 744L102 0L193 0L193 594L194 594L605 0L691 0ZM442-79L356-79C372-140 364-212 335-281L401-281C438-215 454-144 442-79Z"  horiz-adv-x="793" vert-adv-y="1000"  />

      
      <glyph glyph-name="uni014A" unicode="&#x014A;" d="M699 744L609 744L609 154L608 154L196 744L102 744L102 0L192 0L192 600L193 600L609 7C609-87 559-134 487-134C431-134 388-105 358-70L358-172C393-204 445-222 496-222C623-222 699-132 699-7Z"  horiz-adv-x="801" vert-adv-y="1000"  />

      
      <glyph glyph-name="unid1" unicode="&#xd1;" d="M590 961L526 961C527 934 513 903 476 903C422 903 398 964 326 964C269 964 213 929 218 841L282 841C281 867 295 898 332 898C386 898 410 838 482 838C539 838 595 873 590 961ZM691 744L601 744L601 160L600 160L196 744L102 744L102 0L193 0L193 594L194 594L605 0L691 0Z"  horiz-adv-x="793" vert-adv-y="1000"  />

      
      <glyph glyph-name="unid3" unicode="&#xd3;" d="M463 994L347 826L423 826L562 994ZM424-15C636-15 793 151 793 372C793 591 636 759 424 759C211 759 54 591 54 372C54 150 211-15 424-15ZM424 73C283 73 149 182 149 372C149 561 281 671 424 671C565 671 698 561 698 372C698 183 565 73 424 73Z"  horiz-adv-x="847" vert-adv-y="1000"  />

      
      <glyph glyph-name="unid4" unicode="&#xd4;" d="M458 994L389 994L256 826L342 826L424 933L505 826L593 826ZM424-15C636-15 793 151 793 372C793 591 636 759 424 759C211 759 54 591 54 372C54 150 211-15 424-15ZM424 73C283 73 149 182 149 372C149 561 281 671 424 671C565 671 698 561 698 372C698 183 565 73 424 73Z"  horiz-adv-x="847" vert-adv-y="1000"  />

      
      <glyph glyph-name="unid6" unicode="&#xd6;" d="M321 848C351 848 376 872 376 901C376 930 351 953 321 953C292 953 268 930 268 901C268 872 292 848 321 848ZM527 848C557 848 580 872 580 901C580 930 557 953 527 953C497 953 473 930 473 901C473 872 497 848 527 848ZM424-15C636-15 793 151 793 372C793 591 636 759 424 759C211 759 54 591 54 372C54 150 211-15 424-15ZM424 73C283 73 149 182 149 372C149 561 281 671 424 671C565 671 698 561 698 372C698 183 565 73 424 73Z"  horiz-adv-x="847" vert-adv-y="1000"  />

      
      <glyph glyph-name="unid2" unicode="&#xd2;" d="M388 994L289 994L427 826L504 826ZM424-15C636-15 793 151 793 372C793 591 636 759 424 759C211 759 54 591 54 372C54 150 211-15 424-15ZM424 73C283 73 149 182 149 372C149 561 281 671 424 671C565 671 698 561 698 372C698 183 565 73 424 73Z"  horiz-adv-x="847" vert-adv-y="1000"  />

      
      <glyph glyph-name="uni0150" unicode="&#x0150;" d="M515 994L412 994L263 826L343 826ZM688 994L585 994L437 826L516 826ZM424-15C636-15 793 151 793 372C793 591 636 759 424 759C211 759 54 591 54 372C54 150 211-15 424-15ZM424 73C283 73 149 182 149 372C149 561 281 671 424 671C565 671 698 561 698 372C698 183 565 73 424 73Z"  horiz-adv-x="847" vert-adv-y="1000"  />

      
      <glyph glyph-name="uni014C" unicode="&#x014C;" d="M257 867L590 867L590 935L257 935ZM424-15C636-15 793 151 793 372C793 591 636 759 424 759C211 759 54 591 54 372C54 150 211-15 424-15ZM424 73C283 73 149 182 149 372C149 561 281 671 424 671C565 671 698 561 698 372C698 183 565 73 424 73Z"  horiz-adv-x="847" vert-adv-y="1000"  />

      
      <glyph glyph-name="unid8" unicode="&#xd8;" d="M711 626L787 706L739 753L664 674C601 728 520 759 428 759C214 759 57 591 57 372C57 275 87 189 138 123L54 35L102-10L183 75C247 18 332-15 428-15C640-15 797 151 797 372C797 471 765 559 711 626ZM152 372C152 562 283 672 428 672C491 672 553 650 601 609L203 191C171 238 152 299 152 372ZM428 72C361 72 296 96 246 141L647 559C681 511 702 448 702 372C702 182 569 72 428 72Z"  horiz-adv-x="852" vert-adv-y="1000"  />

      
      <glyph glyph-name="unid5" unicode="&#xd5;" d="M610 961L546 961C547 934 533 903 496 903C442 903 418 964 346 964C289 964 233 929 238 841L302 841C301 867 315 898 352 898C406 898 430 838 502 838C559 838 615 873 610 961ZM424-15C636-15 793 151 793 372C793 591 636 759 424 759C211 759 54 591 54 372C54 150 211-15 424-15ZM424 73C283 73 149 182 149 372C149 561 281 671 424 671C565 671 698 561 698 372C698 183 565 73 424 73Z"  horiz-adv-x="847" vert-adv-y="1000"  />

      
      <glyph glyph-name="uni0152" unicode="&#x0152;" d="M920 744L533 744C499 753 462 759 424 759C211 759 54 591 54 372C54 150 211-15 424-15C462-15 499-10 533 1L920 0L920 86L609 86L609 338L898 338L898 420L609 420L609 657L920 657ZM517 654L517 89C487 79 456 73 424 73C283 73 149 182 149 372C149 561 281 671 424 671C456 671 487 665 517 654Z"  horiz-adv-x="988" vert-adv-y="1000"  />

      
      <glyph glyph-name="unide" unicode="&#xde;" d="M102 0L195 0L195 134L311 134C476 134 590 229 590 384C590 540 473 625 308 625L195 625L195 744L102 744ZM316 220L195 220L195 538L316 538C425 538 495 479 495 381C495 285 424 220 316 220Z"  horiz-adv-x="629" vert-adv-y="1000"  />

      
      <glyph glyph-name="uni0154" unicode="&#x0154;" d="M455 994L356 994L240 826L316 826ZM316 303C478 312 561 402 561 523C561 653 471 744 299 744L102 744L102 0L195 0L195 302L205 302L473 0L592 0ZM195 380L195 657L293 657C406 657 466 605 466 520C466 436 414 380 285 380Z"  horiz-adv-x="623" vert-adv-y="1000"  />

      
      <glyph glyph-name="uni0158" unicode="&#x0158;" d="M350 826L485 994L398 994L317 887L236 994L148 994L283 826ZM316 303C478 312 561 402 561 523C561 653 471 744 299 744L102 744L102 0L195 0L195 302L205 302L473 0L592 0ZM195 380L195 657L293 657C406 657 466 605 466 520C466 436 414 380 285 380Z"  horiz-adv-x="623" vert-adv-y="1000"  />

      
      <glyph glyph-name="uni0156" unicode="&#x0156;" d="M316 303C478 312 561 402 561 523C561 653 471 744 299 744L102 744L102 0L195 0L195 302L205 302L473 0L592 0ZM195 380L195 657L293 657C406 657 466 605 466 520C466 436 414 380 285 380ZM280-79C296-140 288-212 259-281L325-281C362-215 378-144 366-79Z"  horiz-adv-x="623" vert-adv-y="1000"  />

      
      <glyph glyph-name="uni015A" unicode="&#x015A;" d="M334 994L218 826L294 826L433 994ZM301 760C170 760 66 686 66 557C66 439 154 394 263 345C367 298 422 264 422 195C422 115 350 71 267 71C192 71 114 105 63 157L63 53C108 18 184-16 271-16C406-16 518 64 518 200C518 322 427 370 314 420C212 466 160 497 160 562C160 636 226 673 302 673C360 673 426 652 478 615L478 711C434 738 370 760 301 760Z"  horiz-adv-x="567" vert-adv-y="1000"  />

      
      <glyph glyph-name="uni0160" unicode="&#x0160;" d="M463 994L376 994L295 887L214 994L126 994L261 826L328 826ZM301 760C170 760 66 686 66 557C66 439 154 394 263 345C367 298 422 264 422 195C422 115 350 71 267 71C192 71 114 105 63 157L63 53C108 18 184-16 271-16C406-16 518 64 518 200C518 322 427 370 314 420C212 466 160 497 160 562C160 636 226 673 302 673C360 673 426 652 478 615L478 711C434 738 370 760 301 760Z"  horiz-adv-x="567" vert-adv-y="1000"  />

      
      <glyph glyph-name="uni015E" unicode="&#x015E;" d="M518 200C518 322 427 370 314 420C212 466 160 497 160 562C160 636 226 673 302 673C360 673 426 652 478 615L478 711C434 738 370 760 301 760C170 760 66 686 66 557C66 439 154 394 263 345C367 298 422 264 422 195C422 115 350 71 267 71C192 71 114 105 63 157L63 53C102 22 165-7 239-14C229-77 195-123 155-171L251-171C286-128 311-78 317-13C430 3 518 80 518 200Z"  horiz-adv-x="567" vert-adv-y="1000"  />

      
      <glyph glyph-name="uni0218" unicode="&#x0218;" d="M301 760C170 760 66 686 66 557C66 439 154 394 263 345C367 298 422 264 422 195C422 115 350 71 267 71C192 71 114 105 63 157L63 53C108 18 184-16 271-16C406-16 518 64 518 200C518 322 427 370 314 420C212 466 160 497 160 562C160 636 226 673 302 673C360 673 426 652 478 615L478 711C434 738 370 760 301 760ZM319-79L233-79C249-140 241-212 212-281L278-281C315-215 331-144 319-79Z"  horiz-adv-x="567" vert-adv-y="1000"  />

      
      <glyph glyph-name="uni1E9E" unicode="&#x1E9E;" d="M476 413L663 657C597 719 509 759 405 759C222 759 93 642 93 468L93 0L186 0L186 459C186 593 278 671 398 671C466 671 512 647 544 624L338 355L438 355C544 355 607 295 607 217C607 140 547 71 444 71C376 71 313 103 270 148L270 50C315 11 378-13 453-13C616-13 700 95 700 210C700 331 606 413 476 413Z"  horiz-adv-x="748" vert-adv-y="1000"  />

      
      <glyph glyph-name="uni0166" unicode="&#x0166;" d="M594 657L594 744L32 744L32 657L267 657L267 399L117 399L117 317L267 317L267 0L360 0L360 317L509 317L509 399L360 399L360 657Z"  horiz-adv-x="626" vert-adv-y="1000"  />

      
      <glyph glyph-name="uni0164" unicode="&#x0164;" d="M471 994L384 994L303 887L222 994L134 994L269 826L336 826ZM257 0L350 0L350 657L584 657L584 744L22 744L22 657L257 657Z"  horiz-adv-x="606" vert-adv-y="1000"  />

      
      <glyph glyph-name="uni0162" unicode="&#x0162;" d="M22 744L22 657L257 657L257 0L265 0C260-70 223-120 180-171L276-171C314-125 339-72 343 0L350 0L350 657L584 657L584 744Z"  horiz-adv-x="606" vert-adv-y="1000"  />

      
      <glyph glyph-name="uni021A" unicode="&#x021A;" d="M257 0L350 0L350 657L584 657L584 744L22 744L22 657L257 657ZM344-79L258-79C274-140 266-212 237-281L303-281C340-215 356-144 344-79Z"  horiz-adv-x="606" vert-adv-y="1000"  />

      
      <glyph glyph-name="unida" unicode="&#xda;" d="M415 994L299 826L375 826L514 994ZM372-15C547-15 659 106 659 282L659 744L566 744L566 278C566 151 489 73 372 73C257 73 186 151 186 276L186 744L93 744L93 281C93 106 199-15 372-15Z"  horiz-adv-x="752" vert-adv-y="1000"  />

      
      <glyph glyph-name="unidb" unicode="&#xdb;" d="M410 994L341 994L208 826L294 826L376 933L457 826L545 826ZM372-15C547-15 659 106 659 282L659 744L566 744L566 278C566 151 489 73 372 73C257 73 186 151 186 276L186 744L93 744L93 281C93 106 199-15 372-15Z"  horiz-adv-x="752" vert-adv-y="1000"  />

      
      <glyph glyph-name="unidc" unicode="&#xdc;" d="M273 848C303 848 328 872 328 901C328 930 303 953 273 953C244 953 220 930 220 901C220 872 244 848 273 848ZM479 848C509 848 532 872 532 901C532 930 509 953 479 953C449 953 425 930 425 901C425 872 449 848 479 848ZM372-15C547-15 659 106 659 282L659 744L566 744L566 278C566 151 489 73 372 73C257 73 186 151 186 276L186 744L93 744L93 281C93 106 199-15 372-15Z"  horiz-adv-x="752" vert-adv-y="1000"  />

      
      <glyph glyph-name="unid9" unicode="&#xd9;" d="M340 994L241 994L379 826L456 826ZM372-15C547-15 659 106 659 282L659 744L566 744L566 278C566 151 489 73 372 73C257 73 186 151 186 276L186 744L93 744L93 281C93 106 199-15 372-15Z"  horiz-adv-x="752" vert-adv-y="1000"  />

      
      <glyph glyph-name="uni0170" unicode="&#x0170;" d="M467 994L364 994L215 826L295 826ZM640 994L537 994L389 826L468 826ZM372-15C547-15 659 106 659 282L659 744L566 744L566 278C566 151 489 73 372 73C257 73 186 151 186 276L186 744L93 744L93 281C93 106 199-15 372-15Z"  horiz-adv-x="752" vert-adv-y="1000"  />

      
      <glyph glyph-name="uni016A" unicode="&#x016A;" d="M209 867L542 867L542 935L209 935ZM372-15C547-15 659 106 659 282L659 744L566 744L566 278C566 151 489 73 372 73C257 73 186 151 186 276L186 744L93 744L93 281C93 106 199-15 372-15Z"  horiz-adv-x="752" vert-adv-y="1000"  />

      
      <glyph glyph-name="uni0172" unicode="&#x0172;" d="M566 744L566 278C566 151 489 73 372 73C257 73 186 151 186 276L186 744L93 744L93 281C93 106 199-15 372-15C382-15 392-15 401-14C367-47 352-82 352-116C352-179 403-220 475-220C490-220 518-217 525-212L525-152C520-154 502-157 490-157C454-157 425-140 425-102C425-62 466-22 543 36C625 95 659 186 659 282L659 744Z"  horiz-adv-x="752" vert-adv-y="1000"  />

      
      <glyph glyph-name="uni016E" unicode="&#x016E;" d="M376 1024C317 1024 270 981 270 925C270 869 317 825 376 825C435 825 482 869 482 925C482 981 435 1024 376 1024ZM376 976C407 976 429 954 429 925C429 896 407 873 376 873C345 873 323 896 323 925C323 954 345 976 376 976ZM372-15C547-15 659 106 659 282L659 744L566 744L566 278C566 151 489 73 372 73C257 73 186 151 186 276L186 744L93 744L93 281C93 106 199-15 372-15Z"  horiz-adv-x="752" vert-adv-y="1000"  />

      
      <glyph glyph-name="uni1E82" unicode="&#x1E82;" d="M576 994L460 826L536 826L675 994ZM733 0L831 0L1050 744L955 744L782 121L781 121L582 744L492 744L295 122L294 122L118 744L20 744L242 0L341 0L537 613Z"  horiz-adv-x="1072" vert-adv-y="1000"  />

      
      <glyph glyph-name="uni0174" unicode="&#x0174;" d="M571 994L502 994L369 826L455 826L537 933L618 826L706 826ZM733 0L831 0L1050 744L955 744L782 121L781 121L582 744L492 744L295 122L294 122L118 744L20 744L242 0L341 0L537 613Z"  horiz-adv-x="1072" vert-adv-y="1000"  />

      
      <glyph glyph-name="uni1E84" unicode="&#x1E84;" d="M434 848C464 848 489 872 489 901C489 930 464 953 434 953C405 953 381 930 381 901C381 872 405 848 434 848ZM640 848C670 848 693 872 693 901C693 930 670 953 640 953C610 953 586 930 586 901C586 872 610 848 640 848ZM733 0L831 0L1050 744L955 744L782 121L781 121L582 744L492 744L295 122L294 122L118 744L20 744L242 0L341 0L537 613Z"  horiz-adv-x="1072" vert-adv-y="1000"  />

      
      <glyph glyph-name="uni1E80" unicode="&#x1E80;" d="M501 994L402 994L540 826L617 826ZM733 0L831 0L1050 744L955 744L782 121L781 121L582 744L492 744L295 122L294 122L118 744L20 744L242 0L341 0L537 613Z"  horiz-adv-x="1072" vert-adv-y="1000"  />

      
      <glyph glyph-name="unidd" unicode="&#xdd;" d="M365 994L249 826L325 826L464 994ZM281 0L372 0L372 315L644 744L541 744L328 400L327 400L112 744L7 744L281 314Z"  horiz-adv-x="652" vert-adv-y="1000"  />

      
      <glyph glyph-name="uni0176" unicode="&#x0176;" d="M360 994L291 994L158 826L244 826L326 933L407 826L495 826ZM281 0L372 0L372 315L644 744L541 744L328 400L327 400L112 744L7 744L281 314Z"  horiz-adv-x="652" vert-adv-y="1000"  />

      
      <glyph glyph-name="uni0178" unicode="&#x0178;" d="M223 848C253 848 278 872 278 901C278 930 253 953 223 953C194 953 170 930 170 901C170 872 194 848 223 848ZM429 848C459 848 482 872 482 901C482 930 459 953 429 953C399 953 375 930 375 901C375 872 399 848 429 848ZM281 0L372 0L372 315L644 744L541 744L328 400L327 400L112 744L7 744L281 314Z"  horiz-adv-x="652" vert-adv-y="1000"  />

      
      <glyph glyph-name="uni1EF2" unicode="&#x1EF2;" d="M290 994L191 994L329 826L406 826ZM281 0L372 0L372 315L644 744L541 744L328 400L327 400L112 744L7 744L281 314Z"  horiz-adv-x="652" vert-adv-y="1000"  />

      
      <glyph glyph-name="uni0179" unicode="&#x0179;" d="M343 994L227 826L303 826L442 994ZM567 744L53 744L53 657L416 657L22 0L542 0L542 87L173 87Z"  horiz-adv-x="591" vert-adv-y="1000"  />

      
      <glyph glyph-name="uni017D" unicode="&#x017D;" d="M472 994L385 994L304 887L223 994L135 994L270 826L337 826ZM567 744L53 744L53 657L416 657L22 0L542 0L542 87L173 87Z"  horiz-adv-x="591" vert-adv-y="1000"  />

      
      <glyph glyph-name="uni017B" unicode="&#x017B;" d="M303 848C333 848 357 872 357 901C357 930 333 953 303 953C274 953 249 930 249 901C249 872 274 848 303 848ZM567 744L53 744L53 657L416 657L22 0L542 0L542 87L173 87Z"  horiz-adv-x="591" vert-adv-y="1000"  />

      
      <glyph glyph-name="uni61" unicode="&#x61;" d="M295-12C373-12 447 26 488 99L499 0L574 0L574 541L499 541L488 441C447 514 373 553 295 553C168 553 49 443 49 270C49 99 168-12 295-12ZM314 74C217 74 142 154 142 270C142 387 217 467 314 467C409 467 485 387 485 271C485 154 409 74 314 74Z"  horiz-adv-x="658" vert-adv-y="1000"  />

      
      <glyph glyph-name="uni62" unicode="&#x62;" d="M176 800L84 800L84 0L159 0L170 99C211 26 284-12 362-12C489-12 608 98 608 270C608 444 491 553 364 553C289 553 213 515 176 446ZM344 467C441 467 516 387 516 270C516 154 441 74 344 74C249 74 174 154 174 271C174 387 249 467 344 467Z"  horiz-adv-x="659" vert-adv-y="1000"  />

      
      <glyph glyph-name="uni63" unicode="&#x63;" d="M142 271C142 393 232 467 327 467C383 467 427 454 472 421L472 515C429 542 378 553 322 553C166 553 49 431 49 271C49 109 166-12 322-12C381-12 432 2 472 25L472 118C427 83 373 74 328 74C232 74 142 147 142 271Z"  horiz-adv-x="525" vert-adv-y="1000"  />

      
      <glyph glyph-name="uni64" unicode="&#x64;" d="M296-12C373-12 448 26 489 99L500 0L575 0L575 800L483 800L483 447C446 515 371 553 296 553C168 553 50 444 50 270C50 98 169-12 296-12ZM315 74C218 74 142 154 142 270C142 387 218 467 315 467C410 467 485 387 485 271C485 154 410 74 315 74Z"  horiz-adv-x="658" vert-adv-y="1000"  />

      
      <glyph glyph-name="uni65" unicode="&#x65;" d="M544 281C544 459 439 553 311 553C171 553 50 443 50 268C50 101 156-12 324-12C394-12 458 8 513 48L513 139C457 91 393 68 331 68C229 68 153 133 140 240L541 240C543 252 544 265 544 281ZM140 309C154 410 227 473 310 473C384 473 453 421 455 309Z"  horiz-adv-x="592" vert-adv-y="1000"  />

      
      <glyph glyph-name="uni66" unicode="&#x66;" d="M113 0L205 0L205 461L360 461L360 541L204 541L204 610C204 686 241 719 308 719C335 719 368 713 387 705L387 790C359 799 328 805 297 805C187 805 113 729 113 622L113 541L35 541L35 461L113 461Z"  horiz-adv-x="377" vert-adv-y="1000"  />

      
      <glyph glyph-name="uni67" unicode="&#x67;" d="M295 552C168 552 49 441 49 280C49 118 167 9 295 9C371 9 441 48 481 111L481 29C481-71 400-136 303-136C231-136 161-107 105-56L105-155C161-197 234-222 307-222C448-222 573-131 573 44L573 541L498 541L487 447C446 515 372 552 295 552ZM313 467C409 467 484 390 484 283C484 174 409 93 313 93C217 93 142 173 142 279C142 387 217 467 313 467Z"  horiz-adv-x="657" vert-adv-y="1000"  />

      
      <glyph glyph-name="uni68" unicode="&#x68;" d="M176 800L84 800L84 0L176 0L176 335C176 425 239 467 311 467C394 467 435 421 435 326L435 0L527 0L527 358C527 485 451 553 332 553C266 553 208 522 177 476L176 476Z"  horiz-adv-x="606" vert-adv-y="1000"  />

      
      <glyph glyph-name="uni69" unicode="&#x69;" d="M132 665C165 665 189 689 189 721C189 753 165 777 132 777C99 777 75 753 75 721C75 689 99 665 132 665ZM86 0L178 0L178 541L86 541Z"  horiz-adv-x="264" vert-adv-y="1000"  />

      
      <glyph glyph-name="uni6a" unicode="&#x6a;" d="M133 665C166 665 190 689 190 721C190 753 166 777 133 777C100 777 76 753 76 721C76 689 100 665 133 665ZM-14-210L95-210C156-133 179-47 179 72L179 541L87 541L87 70C87-60 53-140-14-210Z"  horiz-adv-x="265" vert-adv-y="1000"  />

      
      <glyph glyph-name="uni6b" unicode="&#x6b;" d="M541 0L283 284L532 541L415 541L176 290L176 800L84 800L84 0L176 0L176 275L422 0Z"  horiz-adv-x="548" vert-adv-y="1000"  />

      
      <glyph glyph-name="uni6c" unicode="&#x6c;" d="M86 0L178 0L178 800L86 800Z"  horiz-adv-x="264" vert-adv-y="1000"  />

      
      <glyph glyph-name="uni6d" unicode="&#x6d;" d="M619 553C547 553 495 515 463 458C437 518 390 553 313 553C245 553 195 513 168 461L165 461L155 541L84 541L84 0L176 0L176 341C176 405 215 465 288 465C360 465 391 424 391 346L391 0L483 0L483 346C483 408 524 465 596 465C668 465 698 424 698 346L698 0L790 0L790 361C790 474 737 553 619 553Z"  horiz-adv-x="869" vert-adv-y="1000"  />

      
      <glyph glyph-name="uni6e" unicode="&#x6e;" d="M334 553C257 553 199 509 168 459L165 459L155 541L84 541L84 0L176 0L176 330C176 409 234 465 311 465C392 465 435 420 435 325L435 0L527 0L527 358C527 477 451 553 334 553Z"  horiz-adv-x="605" vert-adv-y="1000"  />

      
      <glyph glyph-name="uni6f" unicode="&#x6f;" d="M319-12C472-12 587 108 587 270C587 433 472 553 319 553C165 553 49 433 49 270C49 107 165-12 319-12ZM319 74C228 74 142 145 142 270C142 395 228 467 319 467C409 467 495 395 495 270C495 146 409 74 319 74Z"  horiz-adv-x="637" vert-adv-y="1000"  />

      
      <glyph glyph-name="uni70" unicode="&#x70;" d="M84-210L176-210L176 94C212 28 288-12 363-12C491-12 608 97 608 271C608 443 490 553 362 553C285 553 211 514 170 441L159 541L84 541ZM344 74C249 74 174 154 174 270C174 387 249 467 344 467C441 467 516 387 516 271C516 153 441 74 344 74Z"  horiz-adv-x="659" vert-adv-y="1000"  />

      
      <glyph glyph-name="uni71" unicode="&#x71;" d="M294 553C166 553 50 443 50 269C50 99 167-12 294-12C370-12 444 25 483 94L483-210L575-210L575 541L499 541L488 441C447 514 373 553 294 553ZM314 467C410 467 485 387 485 270C485 154 410 74 314 74C217 74 142 154 142 270C142 387 217 467 314 467Z"  horiz-adv-x="658" vert-adv-y="1000"  />

      
      <glyph glyph-name="uni72" unicode="&#x72;" d="M84 0L176 0L176 308C176 414 249 460 321 460C334 460 347 458 359 456L359 544C348 546 337 547 323 547C275 547 205 525 168 455L167 455L157 541L84 541Z"  horiz-adv-x="376" vert-adv-y="1000"  />

      
      <glyph glyph-name="uni73" unicode="&#x73;" d="M254 553C134 553 59 485 59 394C59 299 138 270 227 243C305 219 356 202 356 150C356 102 314 70 241 70C163 70 99 104 57 147L57 48C107 8 174-12 244-12C369-12 446 52 446 151C446 260 352 287 269 311C196 332 149 350 149 398C149 442 187 471 255 471C319 471 378 448 417 415L417 506C379 535 316 553 254 553Z"  horiz-adv-x="493" vert-adv-y="1000"  />

      
      <glyph glyph-name="uni74" unicode="&#x74;" d="M197 668L109 668L109 541L26 541L26 461L107 461L107 189C107 63 183-7 300-7C330-7 354-3 364-1L364 79C347 76 331 74 316 74C247 74 197 109 197 193L197 461L352 461L352 541L197 541Z"  horiz-adv-x="390" vert-adv-y="1000"  />

      
      <glyph glyph-name="uni75" unicode="&#x75;" d="M297-12C436-12 521 78 521 208L521 541L429 541L429 206C429 123 378 74 297 74C218 74 169 123 169 206L169 541L77 541L77 208C77 78 159-12 297-12Z"  horiz-adv-x="598" vert-adv-y="1000"  />

      
      <glyph glyph-name="uni76" unicode="&#x76;" d="M221 0L321 0L518 541L423 541L274 102L271 102L122 541L24 541Z"  horiz-adv-x="540" vert-adv-y="1000"  />

      
      <glyph glyph-name="uni77" unicode="&#x77;" d="M566 0L671 0L823 541L732 541L617 103L614 103L477 541L381 541L243 103L241 103L128 541L32 541L185 0L290 0L427 424L430 424Z"  horiz-adv-x="855" vert-adv-y="1000"  />

      
      <glyph glyph-name="uni78" unicode="&#x78;" d="M502 541L402 541L266 337L264 337L128 541L25 541L211 271L23 0L125 0L264 207L265 207L404 0L509 0L318 275Z"  horiz-adv-x="530" vert-adv-y="1000"  />

      
      <glyph glyph-name="uni79" unicode="&#x79;" d="M519 541L423 541L274 129L272 129L123 541L23 541L225 19L132-210L226-210Z"  horiz-adv-x="540" vert-adv-y="1000"  />

      
      <glyph glyph-name="uni7a" unicode="&#x7a;" d="M481 541L58 541L58 456L331 456L22 0L452 0L452 85L172 85Z"  horiz-adv-x="505" vert-adv-y="1000"  />

      
      <glyph glyph-name="unie1" unicode="&#xe1;" d="M377 791L261 623L337 623L476 791ZM295-12C373-12 447 26 488 99L499 0L574 0L574 541L499 541L488 441C447 514 373 553 295 553C168 553 49 443 49 270C49 99 168-12 295-12ZM314 74C217 74 142 154 142 270C142 387 217 467 314 467C409 467 485 387 485 271C485 154 409 74 314 74Z"  horiz-adv-x="658" vert-adv-y="1000"  />

      
      <glyph glyph-name="uni0103" unicode="&#x0103;" d="M502 788L431 788C430 741 396 703 338 703C279 703 246 741 244 788L173 788C170 689 255 636 338 636C421 636 505 689 502 788ZM295-12C373-12 447 26 488 99L499 0L574 0L574 541L499 541L488 441C447 514 373 553 295 553C168 553 49 443 49 270C49 99 168-12 295-12ZM314 74C217 74 142 154 142 270C142 387 217 467 314 467C409 467 485 387 485 271C485 154 409 74 314 74Z"  horiz-adv-x="658" vert-adv-y="1000"  />

      
      <glyph glyph-name="unie2" unicode="&#xe2;" d="M372 791L303 791L170 623L256 623L338 730L419 623L507 623ZM295-12C373-12 447 26 488 99L499 0L574 0L574 541L499 541L488 441C447 514 373 553 295 553C168 553 49 443 49 270C49 99 168-12 295-12ZM314 74C217 74 142 154 142 270C142 387 217 467 314 467C409 467 485 387 485 271C485 154 409 74 314 74Z"  horiz-adv-x="658" vert-adv-y="1000"  />

      
      <glyph glyph-name="unie4" unicode="&#xe4;" d="M235 645C265 645 290 669 290 698C290 727 265 750 235 750C206 750 182 727 182 698C182 669 206 645 235 645ZM441 645C471 645 494 669 494 698C494 727 471 750 441 750C411 750 387 727 387 698C387 669 411 645 441 645ZM295-12C373-12 447 26 488 99L499 0L574 0L574 541L499 541L488 441C447 514 373 553 295 553C168 553 49 443 49 270C49 99 168-12 295-12ZM314 74C217 74 142 154 142 270C142 387 217 467 314 467C409 467 485 387 485 271C485 154 409 74 314 74Z"  horiz-adv-x="658" vert-adv-y="1000"  />

      
      <glyph glyph-name="unie0" unicode="&#xe0;" d="M302 791L203 791L341 623L418 623ZM295-12C373-12 447 26 488 99L499 0L574 0L574 541L499 541L488 441C447 514 373 553 295 553C168 553 49 443 49 270C49 99 168-12 295-12ZM314 74C217 74 142 154 142 270C142 387 217 467 314 467C409 467 485 387 485 271C485 154 409 74 314 74Z"  horiz-adv-x="658" vert-adv-y="1000"  />

      
      <glyph glyph-name="uni0101" unicode="&#x0101;" d="M171 664L504 664L504 732L171 732ZM295-12C373-12 447 26 488 99L499 0L574 0L574 541L499 541L488 441C447 514 373 553 295 553C168 553 49 443 49 270C49 99 168-12 295-12ZM314 74C217 74 142 154 142 270C142 387 217 467 314 467C409 467 485 387 485 271C485 154 409 74 314 74Z"  horiz-adv-x="658" vert-adv-y="1000"  />

      
      <glyph glyph-name="uni0105" unicode="&#x0105;" d="M574 0L574 541L499 541L488 441C447 514 373 553 295 553C168 553 49 443 49 270C49 99 168-12 295-12C373-12 447 26 488 99L497 21C429-24 401-70 401-118C401-185 458-222 526-222C548-222 569-217 574-214L574-153C569-156 551-159 539-159C504-159 475-139 475-103C475-68 513-32 574 0ZM314 74C217 74 142 154 142 270C142 387 217 467 314 467C409 467 485 387 485 271C485 154 409 74 314 74Z"  horiz-adv-x="658" vert-adv-y="1000"  />

      
      <glyph glyph-name="unie5" unicode="&#xe5;" d="M338 821C279 821 232 778 232 722C232 666 279 622 338 622C397 622 444 666 444 722C444 778 397 821 338 821ZM338 773C369 773 391 751 391 722C391 693 369 670 338 670C307 670 285 693 285 722C285 751 307 773 338 773ZM295-12C373-12 447 26 488 99L499 0L574 0L574 541L499 541L488 441C447 514 373 553 295 553C168 553 49 443 49 270C49 99 168-12 295-12ZM314 74C217 74 142 154 142 270C142 387 217 467 314 467C409 467 485 387 485 271C485 154 409 74 314 74Z"  horiz-adv-x="658" vert-adv-y="1000"  />

      
      <glyph glyph-name="unie3" unicode="&#xe3;" d="M524 758L460 758C461 731 447 700 410 700C356 700 332 761 260 761C203 761 147 726 152 638L216 638C215 664 229 695 266 695C320 695 344 635 416 635C473 635 529 670 524 758ZM295-12C373-12 447 26 488 99L499 0L574 0L574 541L499 541L488 441C447 514 373 553 295 553C168 553 49 443 49 270C49 99 168-12 295-12ZM314 74C217 74 142 154 142 270C142 387 217 467 314 467C409 467 485 387 485 271C485 154 409 74 314 74Z"  horiz-adv-x="658" vert-adv-y="1000"  />

      
      <glyph glyph-name="unie6" unicode="&#xe6;" d="M890 281C890 459 785 553 659 553C580 553 508 517 462 453C432 512 370 553 276 553C201 553 136 529 89 495L89 407C131 442 198 471 267 471C356 471 403 422 403 351L403 308C360 317 304 327 250 327C108 327 41 246 41 157C41 56 125-12 237-12C333-12 409 35 450 101C493 30 569-12 670-12C740-12 804 8 859 48L859 139C803 91 739 68 678 68C575 68 499 133 487 240L888 240C889 252 890 265 890 281ZM489 309C503 410 573 473 656 473C730 473 799 421 801 309ZM250 65C179 65 128 104 128 163C128 219 174 262 270 262C315 262 361 257 403 244L403 203C403 123 332 65 250 65Z"  horiz-adv-x="938" vert-adv-y="1000"  />

      
      <glyph glyph-name="uni0107" unicode="&#x0107;" d="M346 791L230 623L306 623L445 791ZM142 271C142 393 232 467 327 467C383 467 427 454 472 421L472 515C429 542 378 553 322 553C166 553 49 431 49 271C49 109 166-12 322-12C381-12 432 2 472 25L472 118C427 83 373 74 328 74C232 74 142 147 142 271Z"  horiz-adv-x="525" vert-adv-y="1000"  />

      
      <glyph glyph-name="uni010D" unicode="&#x010D;" d="M475 791L388 791L307 684L226 791L138 791L273 623L340 623ZM142 271C142 393 232 467 327 467C383 467 427 454 472 421L472 515C429 542 378 553 322 553C166 553 49 431 49 271C49 109 166-12 322-12C381-12 432 2 472 25L472 118C427 83 373 74 328 74C232 74 142 147 142 271Z"  horiz-adv-x="525" vert-adv-y="1000"  />

      
      <glyph glyph-name="unie7" unicode="&#xe7;" d="M327 467C383 467 427 454 472 421L472 515C429 542 378 553 322 553C166 553 49 431 49 271C49 128 140 17 269-7C261-73 226-121 184-171L280-171C316-127 340-78 346-11C395-8 437 5 472 25L472 118C427 83 373 74 328 74C232 74 142 147 142 271C142 393 232 467 327 467Z"  horiz-adv-x="525" vert-adv-y="1000"  />

      
      <glyph glyph-name="uni010B" unicode="&#x010B;" d="M306 645C336 645 360 669 360 698C360 727 336 750 306 750C277 750 252 727 252 698C252 669 277 645 306 645ZM142 271C142 393 232 467 327 467C383 467 427 454 472 421L472 515C429 542 378 553 322 553C166 553 49 431 49 271C49 109 166-12 322-12C381-12 432 2 472 25L472 118C427 83 373 74 328 74C232 74 142 147 142 271Z"  horiz-adv-x="525" vert-adv-y="1000"  />

      
      <glyph glyph-name="unif0" unicode="&#xf0;" d="M405 702L492 745L469 791L371 743C355 761 339 781 321 800L208 800C241 767 270 736 297 706L211 663L234 617L331 665C396 587 437 524 452 487L450 486C416 519 371 548 305 548C162 548 49 430 49 269C49 108 165-12 319-12C473-12 588 108 588 285C588 432 519 561 405 702ZM319 74C229 74 142 145 142 270C142 394 228 466 319 466C409 466 495 394 495 274C495 147 409 74 319 74Z"  horiz-adv-x="640" vert-adv-y="1000"  />

      
      <glyph glyph-name="uni010F" unicode="&#x010F;" d="M296-12C373-12 448 26 489 99L500 0L575 0L575 800L483 800L483 447C446 515 371 553 296 553C168 553 50 444 50 270C50 98 169-12 296-12ZM653 605L715 605C740 670 743 709 743 743C743 763 740 783 737 800L652 800C660 773 665 747 665 713C665 662 657 631 653 605ZM315 74C218 74 142 154 142 270C142 387 218 467 315 467C410 467 485 387 485 271C485 154 410 74 315 74Z"  horiz-adv-x="686" vert-adv-y="1000"  />

      
      <glyph glyph-name="uni0111" unicode="&#x0111;" d="M653 706L575 706L575 800L483 800L483 706L326 706L326 634L483 634L483 447C446 515 371 553 296 553C168 553 50 444 50 270C50 98 169-12 296-12C373-12 448 26 489 99L500 0L575 0L575 634L653 634ZM315 74C218 74 142 154 142 270C142 387 218 467 315 467C410 467 485 387 485 271C485 154 410 74 315 74Z"  horiz-adv-x="658" vert-adv-y="1000"  />

      
      <glyph glyph-name="unie9" unicode="&#xe9;" d="M448 791L349 791L233 623L309 623ZM544 281C544 459 439 553 311 553C171 553 50 443 50 268C50 101 156-12 324-12C394-12 458 8 513 48L513 139C457 91 393 68 331 68C229 68 153 133 140 240L541 240C543 252 544 265 544 281ZM140 309C154 410 227 473 310 473C384 473 453 421 455 309Z"  horiz-adv-x="592" vert-adv-y="1000"  />

      
      <glyph glyph-name="uni011B" unicode="&#x011B;" d="M343 623L478 791L391 791L310 684L229 791L141 791L276 623ZM544 281C544 459 439 553 311 553C171 553 50 443 50 268C50 101 156-12 324-12C394-12 458 8 513 48L513 139C457 91 393 68 331 68C229 68 153 133 140 240L541 240C543 252 544 265 544 281ZM140 309C154 410 227 473 310 473C384 473 453 421 455 309Z"  horiz-adv-x="592" vert-adv-y="1000"  />

      
      <glyph glyph-name="uniea" unicode="&#xea;" d="M310 730L391 623L479 623L344 791L275 791L142 623L228 623ZM544 281C544 459 439 553 311 553C171 553 50 443 50 268C50 101 156-12 324-12C394-12 458 8 513 48L513 139C457 91 393 68 331 68C229 68 153 133 140 240L541 240C543 252 544 265 544 281ZM140 309C154 410 227 473 310 473C384 473 453 421 455 309Z"  horiz-adv-x="592" vert-adv-y="1000"  />

      
      <glyph glyph-name="unieb" unicode="&#xeb;" d="M207 645C237 645 262 669 262 698C262 727 237 750 207 750C178 750 154 727 154 698C154 669 178 645 207 645ZM413 645C443 645 466 669 466 698C466 727 443 750 413 750C383 750 359 727 359 698C359 669 383 645 413 645ZM544 281C544 459 439 553 311 553C171 553 50 443 50 268C50 101 156-12 324-12C394-12 458 8 513 48L513 139C457 91 393 68 331 68C229 68 153 133 140 240L541 240C543 252 544 265 544 281ZM140 309C154 410 227 473 310 473C384 473 453 421 455 309Z"  horiz-adv-x="592" vert-adv-y="1000"  />

      
      <glyph glyph-name="uni0117" unicode="&#x0117;" d="M309 645C339 645 363 669 363 698C363 727 339 750 309 750C280 750 255 727 255 698C255 669 280 645 309 645ZM544 281C544 459 439 553 311 553C171 553 50 443 50 268C50 101 156-12 324-12C394-12 458 8 513 48L513 139C457 91 393 68 331 68C229 68 153 133 140 240L541 240C543 252 544 265 544 281ZM140 309C154 410 227 473 310 473C384 473 453 421 455 309Z"  horiz-adv-x="592" vert-adv-y="1000"  />

      
      <glyph glyph-name="unie8" unicode="&#xe8;" d="M390 623L274 791L175 791L313 623ZM544 281C544 459 439 553 311 553C171 553 50 443 50 268C50 101 156-12 324-12C394-12 458 8 513 48L513 139C457 91 393 68 331 68C229 68 153 133 140 240L541 240C543 252 544 265 544 281ZM140 309C154 410 227 473 310 473C384 473 453 421 455 309Z"  horiz-adv-x="592" vert-adv-y="1000"  />

      
      <glyph glyph-name="uni0113" unicode="&#x0113;" d="M476 732L143 732L143 664L476 664ZM544 281C544 459 439 553 311 553C171 553 50 443 50 268C50 101 156-12 324-12C394-12 458 8 513 48L513 139C457 91 393 68 331 68C229 68 153 133 140 240L541 240C543 252 544 265 544 281ZM140 309C154 410 227 473 310 473C384 473 453 421 455 309Z"  horiz-adv-x="592" vert-adv-y="1000"  />

      
      <glyph glyph-name="uni0119" unicode="&#x0119;" d="M544 281C544 459 439 553 311 553C171 553 50 443 50 268C50 101 156-12 324-12C336-12 347-11 358-10C321-47 305-82 305-118C305-185 362-222 429-222C451-222 472-217 477-214L477-153C473-156 455-159 443-159C408-159 379-139 379-103C379-58 434-8 513 48L513 139C457 91 393 68 331 68C229 68 153 133 141 240L541 240C543 252 544 265 544 281ZM143 309C157 410 227 473 310 473C384 473 453 421 455 309Z"  horiz-adv-x="592" vert-adv-y="1000"  />

      
      <glyph glyph-name="uni011F" unicode="&#x011F;" d="M506 788L435 788C434 741 400 703 342 703C283 703 250 741 248 788L177 788C174 689 259 636 342 636C425 636 509 689 506 788ZM295 552C168 552 49 441 49 280C49 118 167 9 295 9C371 9 441 48 481 111L481 29C481-71 400-136 303-136C231-136 161-107 105-56L105-155C161-197 234-222 307-222C448-222 573-131 573 44L573 541L498 541L487 447C446 515 372 552 295 552ZM313 467C409 467 484 390 484 283C484 174 409 93 313 93C217 93 142 173 142 279C142 387 217 467 313 467Z"  horiz-adv-x="657" vert-adv-y="1000"  />

      
      <glyph glyph-name="uni0123" unicode="&#x0123;" d="M301 620L387 620C371 681 379 753 408 822L342 822C305 756 289 685 301 620ZM295 552C168 552 49 441 49 280C49 118 167 9 295 9C371 9 441 48 481 111L481 29C481-71 400-136 303-136C231-136 161-107 105-56L105-155C161-197 234-222 307-222C448-222 573-131 573 44L573 541L498 541L487 447C446 515 372 552 295 552ZM313 467C409 467 484 390 484 283C484 174 409 93 313 93C217 93 142 173 142 279C142 387 217 467 313 467Z"  horiz-adv-x="657" vert-adv-y="1000"  />

      
      <glyph glyph-name="uni0121" unicode="&#x0121;" d="M341 645C371 645 395 669 395 698C395 727 371 750 341 750C312 750 287 727 287 698C287 669 312 645 341 645ZM295 552C168 552 49 441 49 280C49 118 167 9 295 9C371 9 441 48 481 111L481 29C481-71 400-136 303-136C231-136 161-107 105-56L105-155C161-197 234-222 307-222C448-222 573-131 573 44L573 541L498 541L487 447C446 515 372 552 295 552ZM313 467C409 467 484 390 484 283C484 174 409 93 313 93C217 93 142 173 142 279C142 387 217 467 313 467Z"  horiz-adv-x="657" vert-adv-y="1000"  />

      
      <glyph glyph-name="uni0127" unicode="&#x0127;" d="M332 553C266 553 208 522 177 476L176 476L176 634L332 634L332 706L176 706L176 800L84 800L84 706L5 706L5 634L84 634L84 0L176 0L176 335C176 425 239 467 311 467C394 467 435 421 435 326L435 0L527 0L527 358C527 485 451 553 332 553Z"  horiz-adv-x="606" vert-adv-y="1000"  />

      
      <glyph glyph-name="uni0131" unicode="&#x0131;" d="M86 0L178 0L178 541L86 541Z"  horiz-adv-x="264" vert-adv-y="1000"  />

      
      <glyph glyph-name="uni0133" unicode="&#x0133;" d="M132 665C165 665 189 689 189 721C189 753 165 777 132 777C99 777 75 753 75 721C75 689 99 665 132 665ZM399 665C432 665 456 689 456 721C456 753 432 777 399 777C366 777 342 753 342 721C342 689 366 665 399 665ZM86 0L178 0L178 541L86 541ZM252-210L361-210C422-133 445-47 445 72L445 541L353 541L353 70C353-60 319-140 252-210Z"  horiz-adv-x="530" vert-adv-y="1000"  />

      
      <glyph glyph-name="unied" unicode="&#xed;" d="M193 816L77 648L153 648L292 816ZM86 0L178 0L178 541L86 541Z"  horiz-adv-x="264" vert-adv-y="1000"  />

      
      <glyph glyph-name="uniee" unicode="&#xee;" d="M166 816L97 816L-36 648L50 648L132 755L213 648L301 648ZM86 0L178 0L178 541L86 541Z"  horiz-adv-x="264" vert-adv-y="1000"  />

      
      <glyph glyph-name="unief" unicode="&#xef;" d="M30 670C60 670 85 694 85 723C85 752 60 775 30 775C1 775-23 752-23 723C-23 694 1 670 30 670ZM236 670C266 670 289 694 289 723C289 752 266 775 236 775C206 775 182 752 182 723C182 694 206 670 236 670ZM86 0L178 0L178 541L86 541Z"  horiz-adv-x="264" vert-adv-y="1000"  />

      
      <glyph glyph-name="uniec" unicode="&#xec;" d="M96 816L-3 816L135 648L212 648ZM86 0L178 0L178 541L86 541Z"  horiz-adv-x="264" vert-adv-y="1000"  />

      
      <glyph glyph-name="uni012B" unicode="&#x012B;" d="M-34 689L299 689L299 757L-34 757ZM86 0L178 0L178 541L86 541Z"  horiz-adv-x="264" vert-adv-y="1000"  />

      
      <glyph glyph-name="uni012F" unicode="&#x012F;" d="M133 665C166 665 190 689 190 721C190 753 166 777 133 777C100 777 76 753 76 721C76 689 100 665 133 665ZM87 11C30-31 6-74 6-118C6-185 63-222 131-222C153-222 174-217 179-214L179-153C174-156 156-159 144-159C109-159 80-139 80-103C80-68 118-32 179 0L179 541L87 541Z"  horiz-adv-x="265" vert-adv-y="1000"  />

      
      <glyph glyph-name="uni0137" unicode="&#x0137;" d="M283 284L532 541L415 541L176 290L176 800L84 800L84 0L176 0L176 275L422 0L541 0ZM237-79C253-140 245-212 216-281L282-281C319-215 335-144 323-79Z"  horiz-adv-x="548" vert-adv-y="1000"  />

      
      <glyph glyph-name="uni013A" unicode="&#x013A;" d="M171 1050L55 882L131 882L270 1050ZM86 0L178 0L178 800L86 800Z"  horiz-adv-x="264" vert-adv-y="1000"  />

      
      <glyph glyph-name="uni013E" unicode="&#x013E;" d="M86 0L178 0L178 800L86 800ZM256 605L318 605C343 670 346 709 346 743C346 763 343 783 340 800L255 800C263 773 268 747 268 713C268 662 260 631 256 605Z"  horiz-adv-x="288" vert-adv-y="1000"  />

      
      <glyph glyph-name="uni013C" unicode="&#x013C;" d="M86 0L178 0L178 800L86 800ZM173-79L87-79C103-140 95-212 66-281L132-281C169-215 185-144 173-79Z"  horiz-adv-x="264" vert-adv-y="1000"  />

      
      <glyph glyph-name="uni0140" unicode="&#x0140;" d="M86 0L178 0L178 800L86 800ZM320 337C355 337 382 364 382 399C382 435 355 462 320 462C284 462 258 435 258 399C258 364 284 337 320 337Z"  horiz-adv-x="376" vert-adv-y="1000"  />

      
      <glyph glyph-name="uni0142" unicode="&#x0142;" d="M370 553L248 482L248 800L156 800L156 429L34 358L34 267L156 338L156 0L248 0L248 392L370 463Z"  horiz-adv-x="394" vert-adv-y="1000"  />

      
      <glyph glyph-name="uni0144" unicode="&#x0144;" d="M350 791L234 623L310 623L449 791ZM334 553C257 553 199 509 168 459L165 459L155 541L84 541L84 0L176 0L176 330C176 409 234 465 311 465C392 465 435 420 435 325L435 0L527 0L527 358C527 477 451 553 334 553Z"  horiz-adv-x="605" vert-adv-y="1000"  />

      
      <glyph glyph-name="uni0148" unicode="&#x0148;" d="M479 791L392 791L311 684L230 791L142 791L277 623L344 623ZM334 553C257 553 199 509 168 459L165 459L155 541L84 541L84 0L176 0L176 330C176 409 234 465 311 465C392 465 435 420 435 325L435 0L527 0L527 358C527 477 451 553 334 553Z"  horiz-adv-x="605" vert-adv-y="1000"  />

      
      <glyph glyph-name="uni0146" unicode="&#x0146;" d="M334 553C257 553 199 509 168 459L165 459L155 541L84 541L84 0L176 0L176 330C176 409 234 465 311 465C392 465 435 420 435 325L435 0L527 0L527 358C527 477 451 553 334 553ZM346-79L260-79C276-140 268-212 239-281L305-281C342-215 358-144 346-79Z"  horiz-adv-x="605" vert-adv-y="1000"  />

      
      <glyph glyph-name="uni014B" unicode="&#x014B;" d="M527 358C527 477 451 553 334 553C257 553 199 509 168 459L165 459L155 541L84 541L84 0L176 0L176 330C176 409 234 465 311 465C392 465 435 420 435 325L435 70C435-60 402-140 335-210L443-210C504-133 527-47 527 72Z"  horiz-adv-x="605" vert-adv-y="1000"  />

      
      <glyph glyph-name="unif1" unicode="&#xf1;" d="M497 758L433 758C434 731 420 700 383 700C329 700 305 761 233 761C176 761 120 726 125 638L189 638C188 664 202 695 239 695C293 695 317 635 389 635C446 635 502 670 497 758ZM334 553C257 553 199 509 168 459L165 459L155 541L84 541L84 0L176 0L176 330C176 409 234 465 311 465C392 465 435 420 435 325L435 0L527 0L527 358C527 477 451 553 334 553Z"  horiz-adv-x="605" vert-adv-y="1000"  />

      
      <glyph glyph-name="unif3" unicode="&#xf3;" d="M358 791L242 623L318 623L457 791ZM319-12C472-12 587 108 587 270C587 433 472 553 319 553C165 553 49 433 49 270C49 107 165-12 319-12ZM319 74C228 74 142 145 142 270C142 395 228 467 319 467C409 467 495 395 495 270C495 146 409 74 319 74Z"  horiz-adv-x="637" vert-adv-y="1000"  />

      
      <glyph glyph-name="unif4" unicode="&#xf4;" d="M353 791L284 791L151 623L237 623L319 730L400 623L488 623ZM319-12C472-12 587 108 587 270C587 433 472 553 319 553C165 553 49 433 49 270C49 107 165-12 319-12ZM319 74C228 74 142 145 142 270C142 395 228 467 319 467C409 467 495 395 495 270C495 146 409 74 319 74Z"  horiz-adv-x="637" vert-adv-y="1000"  />

      
      <glyph glyph-name="unif6" unicode="&#xf6;" d="M216 645C246 645 271 669 271 698C271 727 246 750 216 750C187 750 163 727 163 698C163 669 187 645 216 645ZM422 645C452 645 475 669 475 698C475 727 452 750 422 750C392 750 368 727 368 698C368 669 392 645 422 645ZM319-12C472-12 587 108 587 270C587 433 472 553 319 553C165 553 49 433 49 270C49 107 165-12 319-12ZM319 74C228 74 142 145 142 270C142 395 228 467 319 467C409 467 495 395 495 270C495 146 409 74 319 74Z"  horiz-adv-x="637" vert-adv-y="1000"  />

      
      <glyph glyph-name="unif2" unicode="&#xf2;" d="M283 791L184 791L322 623L399 623ZM319-12C472-12 587 108 587 270C587 433 472 553 319 553C165 553 49 433 49 270C49 107 165-12 319-12ZM319 74C228 74 142 145 142 270C142 395 228 467 319 467C409 467 495 395 495 270C495 146 409 74 319 74Z"  horiz-adv-x="637" vert-adv-y="1000"  />

      
      <glyph glyph-name="uni0151" unicode="&#x0151;" d="M410 791L307 791L158 623L238 623ZM583 791L480 791L332 623L411 623ZM319-12C472-12 587 108 587 270C587 433 472 553 319 553C165 553 49 433 49 270C49 107 165-12 319-12ZM319 74C228 74 142 145 142 270C142 395 228 467 319 467C409 467 495 395 495 270C495 146 409 74 319 74Z"  horiz-adv-x="637" vert-adv-y="1000"  />

      
      <glyph glyph-name="uni014D" unicode="&#x014D;" d="M152 664L485 664L485 732L152 732ZM319-12C472-12 587 108 587 270C587 433 472 553 319 553C165 553 49 433 49 270C49 107 165-12 319-12ZM319 74C228 74 142 145 142 270C142 395 228 467 319 467C409 467 495 395 495 270C495 146 409 74 319 74Z"  horiz-adv-x="637" vert-adv-y="1000"  />

      
      <glyph glyph-name="unif8" unicode="&#xf8;" d="M593 506L551 548L495 489C449 530 388 553 320 553C166 553 51 433 51 270C51 199 73 136 110 88L57 32L100-9L152 45C197 9 255-12 320-12C474-12 589 108 589 270C589 338 569 398 535 445ZM138 270C138 399 227 472 320 472C362 472 404 457 436 428L171 151C150 182 138 222 138 270ZM502 270C502 143 413 69 320 69C281 69 242 82 211 107L474 382C492 352 502 314 502 270Z"  horiz-adv-x="641" vert-adv-y="1000"  />

      
      <glyph glyph-name="unif5" unicode="&#xf5;" d="M505 758L441 758C442 731 428 700 391 700C337 700 313 761 241 761C184 761 128 726 133 638L197 638C196 664 210 695 247 695C301 695 325 635 397 635C454 635 510 670 505 758ZM319-12C472-12 587 108 587 270C587 433 472 553 319 553C165 553 49 433 49 270C49 107 165-12 319-12ZM319 74C228 74 142 145 142 270C142 395 228 467 319 467C409 467 495 395 495 270C495 146 409 74 319 74Z"  horiz-adv-x="637" vert-adv-y="1000"  />

      
      <glyph glyph-name="uni0153" unicode="&#x0153;" d="M987 281C987 459 881 553 754 553C653 553 582 504 538 435C490 504 410 553 319 553C165 553 49 432 49 270C49 107 164-12 319-12C415-12 491 38 538 107C590 29 664-12 766-12C837-12 900 8 956 48L956 139C899 91 836 68 774 68C671 68 595 133 584 240L984 240C985 252 987 265 987 281ZM585 309C599 410 670 473 753 473C827 473 895 421 898 309ZM319 73C228 73 141 145 141 270C141 396 227 467 319 467C409 467 495 396 495 270C495 145 409 73 319 73Z"  horiz-adv-x="1034" vert-adv-y="1000"  />

      
      <glyph glyph-name="unife" unicode="&#xfe;" d="M176 800L84 800L84-210L176-210L176 96C218 22 289-8 363-8C491-8 608 99 608 271C608 442 491 549 363 549C289 549 213 513 176 446ZM342 465C437 465 512 388 512 271C512 153 437 76 342 76C247 76 174 154 174 270C174 387 247 465 342 465Z"  horiz-adv-x="658" vert-adv-y="1000"  />

      
      <glyph glyph-name="uni0155" unicode="&#x0155;" d="M270 791L154 623L230 623L369 791ZM84 0L176 0L176 308C176 414 249 460 321 460C334 460 347 458 359 456L359 544C348 546 337 547 323 547C275 547 205 525 168 455L167 455L157 541L84 541Z"  horiz-adv-x="376" vert-adv-y="1000"  />

      
      <glyph glyph-name="uni0159" unicode="&#x0159;" d="M399 791L312 791L231 684L150 791L62 791L197 623L264 623ZM84 0L176 0L176 308C176 414 249 460 321 460C334 460 347 458 359 456L359 544C348 546 337 547 323 547C275 547 205 525 168 455L167 455L157 541L84 541Z"  horiz-adv-x="376" vert-adv-y="1000"  />

      
      <glyph glyph-name="uni0157" unicode="&#x0157;" d="M84 0L176 0L176 308C176 414 249 460 321 460C334 460 347 458 359 456L359 544C348 546 337 547 323 547C275 547 205 525 168 455L167 455L157 541L84 541ZM171-79L85-79C101-140 93-212 64-281L130-281C167-215 183-144 171-79Z"  horiz-adv-x="376" vert-adv-y="1000"  />

      
      <glyph glyph-name="uni015B" unicode="&#x015B;" d="M296 791L180 623L256 623L395 791ZM254 553C134 553 59 485 59 394C59 299 138 270 227 243C305 219 356 202 356 150C356 102 314 70 241 70C163 70 99 104 57 147L57 48C107 8 174-12 244-12C369-12 446 52 446 151C446 260 352 287 269 311C196 332 149 350 149 398C149 442 187 471 255 471C319 471 378 448 417 415L417 506C379 535 316 553 254 553Z"  horiz-adv-x="493" vert-adv-y="1000"  />

      
      <glyph glyph-name="uni0161" unicode="&#x0161;" d="M425 791L338 791L257 684L176 791L88 791L223 623L290 623ZM254 553C134 553 59 485 59 394C59 299 138 270 227 243C305 219 356 202 356 150C356 102 314 70 241 70C163 70 99 104 57 147L57 48C107 8 174-12 244-12C369-12 446 52 446 151C446 260 352 287 269 311C196 332 149 350 149 398C149 442 187 471 255 471C319 471 378 448 417 415L417 506C379 535 316 553 254 553Z"  horiz-adv-x="493" vert-adv-y="1000"  />

      
      <glyph glyph-name="uni015F" unicode="&#x015F;" d="M446 151C446 260 352 287 269 311C196 332 149 350 149 398C149 442 187 471 255 471C319 471 378 448 417 415L417 506C379 535 316 553 254 553C134 553 59 485 59 394C59 299 138 270 227 243C305 219 356 202 356 150C356 102 314 70 241 70C163 70 99 104 57 147L57 48C97 16 148-3 203-10C195-74 160-122 119-171L215-171C251-127 275-77 281-10C384 1 446 62 446 151Z"  horiz-adv-x="493" vert-adv-y="1000"  />

      
      <glyph glyph-name="uni0219" unicode="&#x0219;" d="M254 553C134 553 59 485 59 394C59 299 138 270 227 243C305 219 356 202 356 150C356 102 314 70 241 70C163 70 99 104 57 147L57 48C107 8 174-12 244-12C369-12 446 52 446 151C446 260 352 287 269 311C196 332 149 350 149 398C149 442 187 471 255 471C319 471 378 448 417 415L417 506C379 535 316 553 254 553ZM283-79L197-79C213-140 205-212 176-281L242-281C279-215 295-144 283-79Z"  horiz-adv-x="493" vert-adv-y="1000"  />

      
      <glyph glyph-name="unidf" unicode="&#xdf;" d="M84 559L84 0L176 0L176 570C176 667 233 722 312 722C387 722 440 671 440 599C440 525 386 471 298 471L275 471L275 398L334 398C444 398 516 343 516 242C516 130 433 78 337 78C309 78 281 82 261 88L261 5C282-1 315-5 346-5C489-5 607 79 607 237C607 367 525 433 431 455L431 457C489 483 529 541 529 617C529 718 450 805 316 805C175 805 84 709 84 559Z"  horiz-adv-x="655" vert-adv-y="1000"  />

      
      <glyph glyph-name="uni0167" unicode="&#x0167;" d="M321 74C252 74 202 109 202 193L202 246L357 246L357 317L202 317L202 461L357 461L357 541L202 541L202 668L114 668L114 541L31 541L31 461L112 461L112 317L31 317L31 246L112 246L112 189C112 63 188-7 305-7C335-7 359-3 369-1L369 79C352 76 336 74 321 74Z"  horiz-adv-x="398" vert-adv-y="1000"  />

      
      <glyph glyph-name="uni0165" unicode="&#x0165;" d="M276 617L340 617C361 674 365 713 365 745C365 765 363 784 359 800L275 800C281 775 287 748 287 716C287 671 279 639 276 617ZM197 668L109 668L109 541L26 541L26 461L107 461L107 189C107 63 183-7 300-7C330-7 354-3 364-1L364 79C347 76 331 74 316 74C247 74 197 109 197 193L197 461L352 461L352 541L197 541Z"  horiz-adv-x="390" vert-adv-y="1000"  />

      
      <glyph glyph-name="uni0163" unicode="&#x0163;" d="M317 74C248 74 198 109 198 193L198 461L353 461L353 541L198 541L198 668L110 668L110 541L27 541L27 461L108 461L108 189C108 98 147 37 213 9C210-65 172-117 127-171L223-171C260-126 284-75 289-7L301-7C331-7 355-3 365-1L365 79C348 76 332 74 317 74Z"  horiz-adv-x="391" vert-adv-y="1000"  />

      
      <glyph glyph-name="uni021B" unicode="&#x021B;" d="M197 668L109 668L109 541L26 541L26 461L107 461L107 189C107 63 183-7 300-7C330-7 354-3 364-1L364 79C347 76 331 74 316 74C247 74 197 109 197 193L197 461L352 461L352 541L197 541ZM291-79L205-79C221-140 213-212 184-281L250-281C287-215 303-144 291-79Z"  horiz-adv-x="390" vert-adv-y="1000"  />

      
      <glyph glyph-name="unifa" unicode="&#xfa;" d="M338 791L222 623L298 623L437 791ZM297-12C436-12 521 78 521 208L521 541L429 541L429 206C429 123 378 74 297 74C218 74 169 123 169 206L169 541L77 541L77 208C77 78 159-12 297-12Z"  horiz-adv-x="598" vert-adv-y="1000"  />

      
      <glyph glyph-name="unifb" unicode="&#xfb;" d="M333 791L264 791L131 623L217 623L299 730L380 623L468 623ZM297-12C436-12 521 78 521 208L521 541L429 541L429 206C429 123 378 74 297 74C218 74 169 123 169 206L169 541L77 541L77 208C77 78 159-12 297-12Z"  horiz-adv-x="598" vert-adv-y="1000"  />

      
      <glyph glyph-name="unifc" unicode="&#xfc;" d="M196 645C226 645 251 669 251 698C251 727 226 750 196 750C167 750 143 727 143 698C143 669 167 645 196 645ZM402 645C432 645 455 669 455 698C455 727 432 750 402 750C372 750 348 727 348 698C348 669 372 645 402 645ZM297-12C436-12 521 78 521 208L521 541L429 541L429 206C429 123 378 74 297 74C218 74 169 123 169 206L169 541L77 541L77 208C77 78 159-12 297-12Z"  horiz-adv-x="598" vert-adv-y="1000"  />

      
      <glyph glyph-name="unif9" unicode="&#xf9;" d="M263 791L164 791L302 623L379 623ZM297-12C436-12 521 78 521 208L521 541L429 541L429 206C429 123 378 74 297 74C218 74 169 123 169 206L169 541L77 541L77 208C77 78 159-12 297-12Z"  horiz-adv-x="598" vert-adv-y="1000"  />

      
      <glyph glyph-name="uni0171" unicode="&#x0171;" d="M390 791L287 791L138 623L218 623ZM563 791L460 791L312 623L391 623ZM297-12C436-12 521 78 521 208L521 541L429 541L429 206C429 123 378 74 297 74C218 74 169 123 169 206L169 541L77 541L77 208C77 78 159-12 297-12Z"  horiz-adv-x="598" vert-adv-y="1000"  />

      
      <glyph glyph-name="uni016B" unicode="&#x016B;" d="M132 664L465 664L465 732L132 732ZM297-12C436-12 521 78 521 208L521 541L429 541L429 206C429 123 378 74 297 74C218 74 169 123 169 206L169 541L77 541L77 208C77 78 159-12 297-12Z"  horiz-adv-x="598" vert-adv-y="1000"  />

      
      <glyph glyph-name="uni0173" unicode="&#x0173;" d="M429 541L429 206C429 123 378 74 297 74C216 74 169 124 169 206L169 541L77 541L77 208C77 78 159-12 297-12L303-12C266-47 249-83 249-118C249-186 304-223 372-223C390-223 416-218 421-214L421-154C417-157 399-159 387-159C351-159 322-142 322-105C322-66 359-27 429 23C487 62 521 126 521 208L521 541Z"  horiz-adv-x="598" vert-adv-y="1000"  />

      
      <glyph glyph-name="uni016F" unicode="&#x016F;" d="M299 821C240 821 193 778 193 722C193 666 240 622 299 622C358 622 405 666 405 722C405 778 358 821 299 821ZM299 773C330 773 352 751 352 722C352 693 330 670 299 670C268 670 246 693 246 722C246 751 268 773 299 773ZM297-12C436-12 521 78 521 208L521 541L429 541L429 206C429 123 378 74 297 74C218 74 169 123 169 206L169 541L77 541L77 208C77 78 159-12 297-12Z"  horiz-adv-x="598" vert-adv-y="1000"  />

      
      <glyph glyph-name="uni1E83" unicode="&#x1E83;" d="M467 791L351 623L427 623L566 791ZM566 0L671 0L823 541L732 541L617 103L614 103L477 541L381 541L243 103L241 103L128 541L32 541L185 0L290 0L427 424L430 424Z"  horiz-adv-x="855" vert-adv-y="1000"  />

      
      <glyph glyph-name="uni0175" unicode="&#x0175;" d="M462 791L393 791L260 623L346 623L428 730L509 623L597 623ZM566 0L671 0L823 541L732 541L617 103L614 103L477 541L381 541L243 103L241 103L128 541L32 541L185 0L290 0L427 424L430 424Z"  horiz-adv-x="855" vert-adv-y="1000"  />

      
      <glyph glyph-name="uni1E85" unicode="&#x1E85;" d="M325 645C355 645 380 669 380 698C380 727 355 750 325 750C296 750 272 727 272 698C272 669 296 645 325 645ZM531 645C561 645 584 669 584 698C584 727 561 750 531 750C501 750 477 727 477 698C477 669 501 645 531 645ZM566 0L671 0L823 541L732 541L617 103L614 103L477 541L381 541L243 103L241 103L128 541L32 541L185 0L290 0L427 424L430 424Z"  horiz-adv-x="855" vert-adv-y="1000"  />

      
      <glyph glyph-name="uni1E81" unicode="&#x1E81;" d="M392 791L293 791L431 623L508 623ZM566 0L671 0L823 541L732 541L617 103L614 103L477 541L381 541L243 103L241 103L128 541L32 541L185 0L290 0L427 424L430 424Z"  horiz-adv-x="855" vert-adv-y="1000"  />

      
      <glyph glyph-name="unifd" unicode="&#xfd;" d="M312 791L196 623L272 623L411 791ZM519 541L423 541L274 129L272 129L123 541L23 541L225 19L132-210L226-210Z"  horiz-adv-x="540" vert-adv-y="1000"  />

      
      <glyph glyph-name="uni0177" unicode="&#x0177;" d="M307 791L238 791L105 623L191 623L273 730L354 623L442 623ZM519 541L423 541L274 129L272 129L123 541L23 541L225 19L132-210L226-210Z"  horiz-adv-x="540" vert-adv-y="1000"  />

      
      <glyph glyph-name="uniff" unicode="&#xff;" d="M170 645C200 645 225 669 225 698C225 727 200 750 170 750C141 750 117 727 117 698C117 669 141 645 170 645ZM376 645C406 645 429 669 429 698C429 727 406 750 376 750C346 750 322 727 322 698C322 669 346 645 376 645ZM519 541L423 541L274 129L272 129L123 541L23 541L225 19L132-210L226-210Z"  horiz-adv-x="540" vert-adv-y="1000"  />

      
      <glyph glyph-name="uni1EF3" unicode="&#x1EF3;" d="M237 791L138 791L276 623L353 623ZM519 541L423 541L274 129L272 129L123 541L23 541L225 19L132-210L226-210Z"  horiz-adv-x="540" vert-adv-y="1000"  />

      
      <glyph glyph-name="uni017A" unicode="&#x017A;" d="M300 791L184 623L260 623L399 791ZM481 541L58 541L58 456L331 456L22 0L452 0L452 85L172 85Z"  horiz-adv-x="505" vert-adv-y="1000"  />

      
      <glyph glyph-name="uni017E" unicode="&#x017E;" d="M429 791L342 791L261 684L180 791L92 791L227 623L294 623ZM481 541L58 541L58 456L331 456L22 0L452 0L452 85L172 85Z"  horiz-adv-x="505" vert-adv-y="1000"  />

      
      <glyph glyph-name="uni017C" unicode="&#x017C;" d="M260 645C290 645 314 669 314 698C314 727 290 750 260 750C231 750 206 727 206 698C206 669 231 645 260 645ZM481 541L58 541L58 456L331 456L22 0L452 0L452 85L172 85Z"  horiz-adv-x="505" vert-adv-y="1000"  />

      
      <glyph glyph-name="uniFB01" unicode="&#xFB01;" d="M113 0L205 0L205 461L360 461L360 541L204 541L204 610C204 686 241 719 308 719C335 719 368 713 387 705L387 790C359 799 328 805 297 805C187 805 113 729 113 622L113 541L35 541L35 461L113 461ZM523 665C556 665 580 689 580 721C580 753 556 777 523 777C490 777 466 753 466 721C466 689 490 665 523 665ZM477 0L569 0L569 541L477 541Z"  horiz-adv-x="654" vert-adv-y="1000"  />

      
      <glyph glyph-name="uniFB02" unicode="&#xFB02;" d="M113 0L205 0L205 461L360 461L360 541L204 541L204 610C204 686 241 719 308 719C335 719 368 713 387 705L387 790C359 799 328 805 297 805C187 805 113 729 113 622L113 541L35 541L35 461L113 461ZM479 0L571 0L571 800L479 800Z"  horiz-adv-x="657" vert-adv-y="1000"  />

      
      <glyph glyph-name="uniba" unicode="&#xba;" d="M264 754C142 754 50 660 50 530C50 400 141 307 264 307C386 307 478 401 478 530C478 660 386 754 264 754ZM264 681C334 681 399 626 399 530C399 435 334 380 264 380C195 380 129 435 129 530C129 626 195 681 264 681Z"  horiz-adv-x="528" vert-adv-y="1000"  />

      
      <glyph glyph-name="uniaa" unicode="&#xaa;" d="M469 744L404 744L394 667C363 723 306 754 243 754C144 754 51 666 51 529C51 395 144 307 243 307C306 307 363 338 394 393L404 317L469 317ZM262 681C335 681 391 619 391 531C391 442 335 381 262 381C187 381 130 442 130 530C130 619 187 681 262 681Z"  horiz-adv-x="550" vert-adv-y="1000"  />

      
      <glyph glyph-name="uni26" unicode="&#x26;" d="M721 0L565 161L717 396L623 396L510 217L353 381C442 425 524 480 524 580C524 677 445 759 326 759C210 759 123 682 123 584C123 518 163 465 225 400C137 356 66 300 66 195C66 73 162-14 297-14C389-14 459 26 519 97L612 0ZM326 681C399 681 440 631 440 576C440 509 379 472 300 435C236 503 210 540 210 581C210 636 255 681 326 681ZM301 65C216 65 155 121 155 200C155 272 207 309 278 345L465 152C415 91 360 65 301 65Z"  horiz-adv-x="756" vert-adv-y="1000"  />

      
      <glyph glyph-name="uni2e" unicode="&#x2e;" d="M126-5C161-5 188 22 188 57C188 93 161 120 126 120C90 120 64 93 64 57C64 22 90-5 126-5Z"  horiz-adv-x="252" vert-adv-y="1000"  />

      
      <glyph glyph-name="uni2c" unicode="&#x2c;" d="M38-133L107-133C134-70 167 25 167 100L167 141L80 141L80 96C80 14 59-65 38-133Z"  horiz-adv-x="243" vert-adv-y="1000"  />

      
      <glyph glyph-name="uni3a" unicode="&#x3a;" d="M135 334C170 334 197 361 197 396C197 432 170 459 135 459C99 459 73 432 73 396C73 361 99 334 135 334ZM135-5C170-5 197 22 197 57C197 93 170 120 135 120C99 120 73 93 73 57C73 22 99-5 135-5Z"  horiz-adv-x="270" vert-adv-y="1000"  />

      
      <glyph glyph-name="uni3b" unicode="&#x3b;" d="M135 334C170 334 197 361 197 396C197 432 170 459 135 459C99 459 73 432 73 396C73 361 99 334 135 334ZM59-133L128-133C155-70 188 25 188 100L188 141L101 141L101 96C101 14 80-65 59-133Z"  horiz-adv-x="271" vert-adv-y="1000"  />

      
      <glyph glyph-name="uni2026" unicode="&#x2026;" d="M126-5C161-5 188 22 188 57C188 93 161 120 126 120C90 120 64 93 64 57C64 22 90-5 126-5ZM402-5C437-5 464 22 464 57C464 93 437 120 402 120C366 120 340 93 340 57C340 22 366-5 402-5ZM677-5C712-5 739 22 739 57C739 93 712 120 677 120C641 120 615 93 615 57C615 22 641-5 677-5Z"  horiz-adv-x="803" vert-adv-y="1000"  />

      
      <glyph glyph-name="uni21" unicode="&#x21;" d="M95 231L164 231L179 744L81 744ZM131-5C166-5 193 22 193 57C193 93 166 120 131 120C95 120 68 93 68 57C68 22 95-5 131-5Z"  horiz-adv-x="260" vert-adv-y="1000"  />

      
      <glyph glyph-name="unia1" unicode="&#xa1;" d="M193 684C193 719 166 746 131 746C95 746 68 719 68 684C68 648 95 621 131 621C166 621 193 648 193 684ZM95 510L81-3L179-3L164 510Z"  horiz-adv-x="260" vert-adv-y="1000"  />

      
      <glyph glyph-name="uni3f" unicode="&#x3f;" d="M240 759C161 759 92 723 51 682L51 578C92 627 159 669 224 669C304 669 361 615 361 533C361 452 294 390 178 257L277 257C388 380 457 452 457 549C457 667 366 759 240 759ZM232 120C197 120 170 93 170 57C170 22 197-5 232-5C268-5 295 22 295 57C295 93 268 120 232 120Z"  horiz-adv-x="512" vert-adv-y="1000"  />

      
      <glyph glyph-name="unibf" unicode="&#xbf;" d="M280 624C315 624 342 651 342 687C342 722 315 749 280 749C244 749 217 722 217 687C217 651 244 624 280 624ZM272-15C351-15 420 21 461 62L461 166C420 117 353 75 288 75C208 75 151 129 151 211C151 292 218 354 334 487L235 487C124 364 55 292 55 195C55 77 146-15 272-15Z"  horiz-adv-x="513" vert-adv-y="1000"  />

      
      <glyph glyph-name="uni27" unicode="&#x27;" d="M84 477L140 477L156 744L65 744Z"  horiz-adv-x="224" vert-adv-y="1000"  />

      
      <glyph glyph-name="uni22" unicode="&#x22;" d="M84 477L140 477L156 744L65 744ZM255 477L311 477L327 744L236 744Z"  horiz-adv-x="394" vert-adv-y="1000"  />

      
      <glyph glyph-name="uni2018" unicode="&#x2018;" d="M196 744L127 744C100 681 67 586 67 511L67 470L154 470L154 515C154 597 175 676 196 744Z"  horiz-adv-x="245" vert-adv-y="1000"  />

      
      <glyph glyph-name="uni2019" unicode="&#x2019;" d="M59 470L128 470C155 533 188 628 188 703L188 744L101 744L101 699C101 617 80 538 59 470Z"  horiz-adv-x="244" vert-adv-y="1000"  />

      
      <glyph glyph-name="uni201C" unicode="&#x201C;" d="M196 744L127 744C100 681 67 586 67 511L67 470L154 470L154 515C154 597 175 676 196 744ZM375 744L306 744C279 681 246 586 246 511L246 470L333 470L333 515C333 597 354 676 375 744Z"  horiz-adv-x="424" vert-adv-y="1000"  />

      
      <glyph glyph-name="uni201D" unicode="&#x201D;" d="M59 470L128 470C155 533 188 628 188 703L188 744L101 744L101 699C101 617 80 538 59 470ZM237 470L306 470C333 533 366 628 366 703L366 744L279 744L279 699C279 617 258 538 237 470Z"  horiz-adv-x="422" vert-adv-y="1000"  />

      
      <glyph glyph-name="uni201A" unicode="&#x201A;" d="M38-133L107-133C134-70 167 25 167 100L167 141L80 141L80 96C80 14 59-65 38-133Z"  horiz-adv-x="243" vert-adv-y="1000"  />

      
      <glyph glyph-name="uni201E" unicode="&#x201E;" d="M38-134L107-134C134-71 167 24 167 99L167 140L80 140L80 95C80 13 59-66 38-134ZM223-134L292-134C319-71 352 24 352 99L352 140L265 140L265 95C265 13 244-66 223-134Z"  horiz-adv-x="428" vert-adv-y="1000"  />

      
      <glyph glyph-name="uni2039" unicode="&#x2039;" d="M310 515L47 301L47 240L310 26L310 123L126 270L310 417Z"  horiz-adv-x="376" vert-adv-y="1000"  />

      
      <glyph glyph-name="uni203A" unicode="&#x203A;" d="M66 26L329 240L329 301L66 515L66 418L250 271L66 124Z"  horiz-adv-x="376" vert-adv-y="1000"  />

      
      <glyph glyph-name="uniab" unicode="&#xab;" d="M310 515L47 301L47 240L310 26L310 123L126 270L310 417ZM551 515L288 301L288 240L551 26L551 123L367 270L551 417Z"  horiz-adv-x="617" vert-adv-y="1000"  />

      
      <glyph glyph-name="unibb" unicode="&#xbb;" d="M66 26L329 240L329 301L66 515L66 418L250 271L66 124ZM307 26L570 240L570 301L307 515L307 418L491 271L307 124Z"  horiz-adv-x="617" vert-adv-y="1000"  />

      
      <glyph glyph-name="uni2d" unicode="&#x2d;" d="M74 279L333 279L333 359L74 359Z"  horiz-adv-x="407" vert-adv-y="1000"  />

      
      <glyph glyph-name="uniad" unicode="&#xad;" d="M74 279L333 279L333 359L74 359Z"  horiz-adv-x="407" vert-adv-y="1000"  />

      
      <glyph glyph-name="uni2013" unicode="&#x2013;" d="M74 279L443 279L443 359L74 359Z"  horiz-adv-x="517" vert-adv-y="1000"  />

      
      <glyph glyph-name="uni2014" unicode="&#x2014;" d="M74 279L739 279L739 359L74 359Z"  horiz-adv-x="813" vert-adv-y="1000"  />

      
      <glyph glyph-name="unib7" unicode="&#xb7;" d="M133 310C168 310 195 337 195 372C195 408 168 435 133 435C97 435 71 408 71 372C71 337 97 310 133 310Z"  horiz-adv-x="266" vert-adv-y="1000"  />

      
      <glyph glyph-name="uni2022" unicode="&#x2022;" d="M87 371C87 296 147 236 222 236C297 236 357 296 357 371C357 446 297 506 222 506C147 506 87 446 87 371Z"  horiz-adv-x="445" vert-adv-y="1000"  />

      
      <glyph glyph-name="uni5f" unicode="&#x5f;" d="M0-171L527-171L527-95L0-95Z"  horiz-adv-x="527" vert-adv-y="1000"  />

      
      <glyph glyph-name="uni2f" unicode="&#x2f;" d="M35-133L124-133L459 876L369 876Z"  horiz-adv-x="494" vert-adv-y="1000"  />

      
      <glyph glyph-name="uni5c" unicode="&#x5c;" d="M459-133L125 876L35 876L370-133Z"  horiz-adv-x="494" vert-adv-y="1000"  />

      
      <glyph glyph-name="uni2044" unicode="&#x2044;" d="M-193 0L-118 0L372 744L297 744Z"  horiz-adv-x="176" vert-adv-y="1000"  />

      
      <glyph glyph-name="uni7c" unicode="&#x7c;" d="M81-183L166-183L166 925L81 925Z"  horiz-adv-x="247" vert-adv-y="1000"  />

      
      <glyph glyph-name="unia6" unicode="&#xa6;" d="M88 488L168 488L168 925L88 925ZM168 254L88 254L88-183L168-183Z"  horiz-adv-x="255" vert-adv-y="1000"  />

      
      <glyph glyph-name="uni28" unicode="&#x28;" d="M331 744L229 744C124 631 53 482 53 308C53 132 124-16 229-129L331-129C223-24 141 128 141 308C141 487 222 639 331 744Z"  horiz-adv-x="340" vert-adv-y="1000"  />

      
      <glyph glyph-name="uni29" unicode="&#x29;" d="M9 744C118 639 199 487 199 308C199 128 117-24 9-129L111-129C216-16 287 132 287 308C287 482 216 631 111 744Z"  horiz-adv-x="340" vert-adv-y="1000"  />

      
      <glyph glyph-name="uni5b" unicode="&#x5b;" d="M80-210L296-210L296-133L161-133L161 722L296 722L296 800L80 800Z"  horiz-adv-x="328" vert-adv-y="1000"  />

      
      <glyph glyph-name="uni5d" unicode="&#x5d;" d="M248-210L248 800L32 800L32 722L167 722L167-133L32-133L32-210Z"  horiz-adv-x="328" vert-adv-y="1000"  />

      
      <glyph glyph-name="uni7b" unicode="&#x7b;" d="M315 772C200 785 133 724 133 627L133 425C133 378 117 327 28 314L28 244C117 232 133 181 133 135L133-66C133-163 201-224 316-211L316-135C241-143 212-109 212-55L212 133C212 195 193 258 126 278L126 280C193 301 212 363 212 426L212 616C212 669 241 703 315 696Z"  horiz-adv-x="351" vert-adv-y="1000"  />

      
      <glyph glyph-name="uni7d" unicode="&#x7d;" d="M218 627C218 724 151 785 36 772L36 696C110 703 139 669 139 616L139 426C139 363 158 301 225 280L225 278C158 258 139 195 139 133L139-55C139-109 110-143 35-135L35-211C150-224 218-163 218-66L218 135C218 181 234 232 323 244L323 314C234 327 218 378 218 425Z"  horiz-adv-x="351" vert-adv-y="1000"  />

      
      <glyph glyph-name="uni2a" unicode="&#x2a;" d="M331 800L244 800L260 620L85 689L59 607L244 569L119 432L190 381L289 537L290 537L389 381L458 432L332 569L522 607L492 690L315 620Z"  horiz-adv-x="580" vert-adv-y="1000"  />

      
      <glyph glyph-name="uni2020" unicode="&#x2020;" d="M221-210L302-210L302 456L487 456L487 534L302 534L302 744L221 744L221 534L36 534L36 456L221 456Z"  horiz-adv-x="523" vert-adv-y="1000"  />

      
      <glyph glyph-name="uni2021" unicode="&#x2021;" d="M333 744L251 744L251 534L66 534L66 456L251 456L251 78L66 78L66 0L251 0L251-210L333-210L333 0L518 0L518 78L333 78L333 456L518 456L518 534L333 534Z"  horiz-adv-x="584" vert-adv-y="1000"  />

      
      <glyph glyph-name="unia7" unicode="&#xa7;" d="M377 139C436 169 478 225 478 295C478 411 363 451 284 485C219 513 176 537 176 589C176 637 218 679 294 679C348 679 399 662 444 628L444 721C405 744 349 759 295 759C168 759 88 682 88 585C88 515 128 473 175 445C107 418 67 361 67 294C67 189 161 148 231 117C315 80 370 56 370-5C370-67 312-107 244-107C183-107 113-76 72-29L72-126C111-158 174-186 248-186C375-186 460-103 460-1C460 67 423 109 377 139ZM154 302C154 348 192 397 268 402C343 369 391 343 391 286C391 229 350 192 301 179C289 184 276 189 265 194C201 221 154 246 154 302Z"  horiz-adv-x="536" vert-adv-y="1000"  />

      
      <glyph glyph-name="unib6" unicode="&#xb6;" d="M332-210L413-210L413 665L480 665L480-210L562-210L562 744L312 744C151 744 35 649 35 494C35 342 151 248 303 248L332 248Z"  horiz-adv-x="651" vert-adv-y="1000"  />

      
      <glyph glyph-name="unia9" unicode="&#xa9;" d="M448 759C230 759 59 583 59 371C59 161 230-15 448-15C665-15 838 161 838 371C838 583 665 759 448 759ZM127 371C127 546 267 694 448 694C629 694 771 546 771 371C771 197 629 51 448 51C267 51 127 197 127 371ZM570 184L570 255C538 234 510 224 469 224C396 224 324 284 324 372C324 461 396 520 469 520C510 520 539 510 570 489L570 561C544 576 509 586 461 586C353 586 253 500 253 372C253 243 353 159 461 159C509 159 543 168 570 184Z"  horiz-adv-x="896" vert-adv-y="1000"  />

      
      <glyph glyph-name="uniae" unicode="&#xae;" d="M448 759C230 759 59 583 59 371C59 161 230-15 448-15C665-15 838 161 838 371C838 583 665 759 448 759ZM448 51C267 51 127 197 127 371C127 546 267 694 448 694C629 694 771 546 771 371C771 197 629 51 448 51ZM591 456C591 529 537 585 433 585L327 585L327 168L389 168L389 329L396 329L534 168L615 168L466 334C529 341 591 384 591 456ZM389 383L389 526L420 526C486 526 527 507 527 456C527 408 488 383 425 383Z"  horiz-adv-x="896" vert-adv-y="1000"  />

      
      <glyph glyph-name="uni2122" unicode="&#x2122;" d="M364 744L46 744L46 671L168 671L168 315L242 315L242 671L364 671ZM831 744L747 744L644 429L643 429L539 744L454 744L388 315L459 315L507 633L509 633L613 315L671 315L776 635L778 635L825 315L898 315Z"  horiz-adv-x="967" vert-adv-y="1000"  />

      
      <glyph glyph-name="uni40" unicode="&#x40;" d="M638 44C801 44 934 195 934 383C934 592 753 718 546 718C292 718 58 535 58 236C58-47 283-173 521-173C579-173 633-165 687-150L699-72C639-92 580-98 531-98C332-98 142-1 142 245C142 501 343 642 540 642C713 642 857 544 857 374C857 231 771 135 681 109L739 492L675 492L650 404C623 469 567 502 500 502C373 502 274 380 274 239C274 104 365 34 459 34C521 34 570 64 611 121L607 44ZM480 110C418 110 360 150 360 243C360 344 427 426 512 426C582 426 627 372 627 288C627 190 567 110 480 110Z"  horiz-adv-x="995" vert-adv-y="1000"  />

      
      <glyph glyph-name="uni23" unicode="&#x23;" d="M658 452L658 526L542 526L577 744L494 744L459 526L298 526L333 744L249 744L214 526L82 526L82 452L202 452L177 291L51 291L51 217L165 217L130 0L214 0L249 217L410 217L375 0L458 0L493 217L627 217L627 291L505 291L530 452ZM422 291L261 291L286 452L447 452Z"  horiz-adv-x="709" vert-adv-y="1000"  />

      
      <glyph glyph-name="uni30" unicode="&#x30;" d="M341 759C187 759 63 613 63 371C63 130 187-15 341-15C495-15 620 130 620 371C620 613 495 759 341 759ZM341 671C443 671 527 561 527 371C527 182 443 73 341 73C238 73 157 181 157 371C157 561 238 671 341 671Z"  horiz-adv-x="682" vert-adv-y="1000"  />

      
      <glyph glyph-name="uni31" unicode="&#x31;" d="M223 0L315 0L315 747L306 747L38 636L38 539L223 618Z"  horiz-adv-x="455" vert-adv-y="1000"  />

      
      <glyph glyph-name="uni32" unicode="&#x32;" d="M37 0L531 0L531 88L218 88C404 291 504 413 504 531C504 657 418 759 271 759C190 759 115 726 73 686L73 582C115 629 182 671 263 671C358 671 410 600 410 526C410 439 368 370 37 0Z"  horiz-adv-x="586" vert-adv-y="1000"  />

      
      <glyph glyph-name="uni33" unicode="&#x33;" d="M81 692L81 593C119 638 183 672 254 672C346 672 397 616 397 548C397 473 341 420 228 420L156 420L156 341L249 341C357 341 421 286 421 208C421 131 358 73 257 73C176 73 108 109 61 164L61 60C114 13 181-13 265-13C427-13 514 90 514 200C514 300 450 362 378 387L378 389C448 420 489 483 489 560C489 665 404 759 264 759C189 759 123 732 81 692Z"  horiz-adv-x="576" vert-adv-y="1000"  />

      
      <glyph glyph-name="uni34" unicode="&#x34;" d="M614 259L486 259L486 744L409 744L35 233L35 177L398 177L398 0L486 0L486 177L614 177ZM145 259L145 260L398 606L398 259Z"  horiz-adv-x="655" vert-adv-y="1000"  />

      
      <glyph glyph-name="uni35" unicode="&#x35;" d="M483 744L161 744L94 358L106 348C143 366 184 383 241 383C355 383 421 316 421 226C421 138 355 74 250 74C180 74 103 105 53 163L53 55C105 11 175-15 251-15C435-15 516 110 516 230C516 347 428 462 268 462C238 462 207 454 187 447L228 657L483 657Z"  horiz-adv-x="571" vert-adv-y="1000"  />

      
      <glyph glyph-name="uni36" unicode="&#x36;" d="M320 477C302 477 285 475 269 472L488 744L377 744L155 467C90 389 51 320 51 236C51 98 157-15 309-15C462-15 567 97 567 239C567 382 442 477 320 477ZM309 70C212 70 142 149 142 236C142 291 161 332 198 380C228 394 260 401 292 401C386 401 475 343 475 234C475 148 406 70 309 70Z"  horiz-adv-x="612" vert-adv-y="1000"  />

      
      <glyph glyph-name="uni37" unicode="&#x37;" d="M58 0L157 0L546 744L52 744L52 657L404 657Z"  horiz-adv-x="553" vert-adv-y="1000"  />

      
      <glyph glyph-name="uni38" unicode="&#x38;" d="M441 383L441 385C502 413 552 471 552 556C552 662 463 759 318 759C173 759 84 662 84 555C84 471 133 414 195 385L195 383C109 352 63 277 63 196C63 78 164-15 318-15C474-15 574 77 574 196C574 278 528 351 441 383ZM173 549C173 619 231 676 318 676C404 676 463 618 463 549C463 473 403 420 318 420C233 420 173 473 173 549ZM318 341C418 341 483 282 483 204C483 131 421 67 318 67C217 67 155 131 155 204C155 282 219 341 318 341Z"  horiz-adv-x="636" vert-adv-y="1000"  />

      
      <glyph glyph-name="uni39" unicode="&#x39;" d="M301 759C150 759 45 643 45 506C45 357 173 268 290 268C301 268 318 269 331 271L112 0L224 0L451 282C521 365 554 436 554 511C554 649 452 759 301 759ZM404 363C375 350 340 343 309 343C213 343 138 412 138 510C138 598 204 674 301 674C398 674 462 599 462 509C462 455 443 414 404 363Z"  horiz-adv-x="603" vert-adv-y="1000"  />

      
      <glyph glyph-name="unib9" unicode="&#xb9;" d="M138 312L211 312L211 750L201 750L33 678L33 605L138 650Z"  horiz-adv-x="299" vert-adv-y="1000"  />

      
      <glyph glyph-name="unib2" unicode="&#xb2;" d="M333 380L167 380C273 493 320 551 320 619C320 700 260 750 177 750C133 750 87 734 58 709L58 631C83 659 121 681 162 681C216 681 241 646 241 612C241 560 217 521 27 312L333 312Z"  horiz-adv-x="378" vert-adv-y="1000"  />

      
      <glyph glyph-name="unib3" unicode="&#xb3;" d="M59 712L59 640C87 667 127 685 171 684C214 684 242 658 242 626C242 595 217 563 152 563L96 563L96 501L154 501C218 501 258 480 258 435C258 394 222 371 175 371C122 371 76 394 46 427L46 349C77 324 124 306 176 306C275 306 331 366 331 432C331 485 297 520 252 537L252 538C288 557 315 587 315 635C315 698 264 750 177 750C130 750 85 733 59 712Z"  horiz-adv-x="376" vert-adv-y="1000"  />

      
      <glyph glyph-name="unibc" unicode="&#xbc;" d="M146 312L219 312L219 750L209 750L41 678L41 605L146 650ZM626 744L136 0L211 0L701 744ZM824 162L759 162L759 432L694 432L473 145L473 99L693 99L693 0L759 0L759 99L824 99ZM556 162L693 338L693 162Z"  horiz-adv-x="866" vert-adv-y="1000"  />

      
      <glyph glyph-name="unibd" unicode="&#xbd;" d="M146 312L219 312L219 750L209 750L41 678L41 605L146 650ZM136 0L211 0L701 744L626 744ZM861 68L695 68C801 181 848 239 848 307C848 388 788 438 705 438C661 438 615 422 586 397L586 319C611 347 649 369 690 369C744 369 769 334 769 300C769 248 745 209 555 0L861 0Z"  horiz-adv-x="910" vert-adv-y="1000"  />

      
      <glyph glyph-name="unibe" unicode="&#xbe;" d="M340 432C340 485 306 520 261 537L261 538C297 557 324 587 324 635C324 698 273 750 186 750C139 750 94 733 68 712L68 640C96 667 136 685 180 684C223 684 251 658 251 626C251 595 226 563 161 563L105 563L105 501L163 501C227 501 267 480 267 435C267 394 231 371 184 371C131 371 85 394 55 427L55 349C86 324 133 306 185 306C284 306 340 366 340 432ZM698 744L208 0L283 0L773 744ZM896 162L831 162L831 432L766 432L545 145L545 99L765 99L765 0L831 0L831 99L896 99ZM628 162L765 338L765 162Z"  horiz-adv-x="938" vert-adv-y="1000"  />

      
      <glyph glyph-name="uni24" unicode="&#x24;" d="M508 214C508 347 403 386 304 420C227 447 159 472 159 540C159 599 211 645 296 645C364 645 430 617 464 590L464 689C428 710 375 727 320 732L320 814L238 814L238 728C133 709 65 634 65 542C65 415 167 376 265 341C343 313 413 288 413 217C413 144 345 96 259 96C189 96 110 126 63 179L63 70C106 40 163 15 238 10L238-72L320-72L320 14C434 35 508 120 508 214Z"  horiz-adv-x="556" vert-adv-y="1000"  />

      
      <glyph glyph-name="unia2" unicode="&#xa2;" d="M332 465C383 465 431 453 477 421L477 511C445 531 402 543 356 547L356 648L286 648L286 545C154 527 58 421 58 280C58 139 153 33 285 14L285-79L354-79L354 12C402 16 443 28 477 46L477 137C431 104 379 94 336 94C241 94 152 162 152 280C152 397 241 465 332 465Z"  horiz-adv-x="549" vert-adv-y="1000"  />

      
      <glyph glyph-name="unia3" unicode="&#xa3;" d="M167 84C207 155 226 215 240 304L242 317L430 317L430 390L254 390L273 507C293 636 344 675 419 675C451 675 485 664 509 650L509 738C489 748 454 759 415 759C284 759 212 677 186 516L166 390L66 390L66 317L154 317L152 307C127 154 82 66 37 0L512 0L512 84Z"  horiz-adv-x="578" vert-adv-y="1000"  />

      
      <glyph glyph-name="unia4" unicode="&#xa4;" d="M526 626L452 552C418 577 375 591 329 591C282 591 239 577 204 552L131 626L74 570L147 497C123 462 109 419 109 373C109 326 124 283 149 248L74 173L130 117L205 192C239 168 282 154 329 154C375 154 418 168 453 192L527 117L583 173L508 248C532 283 547 326 547 373C547 419 533 461 509 496L583 570ZM329 226C246 226 182 291 182 373C182 454 246 519 329 519C410 519 474 454 474 373C474 291 410 226 329 226Z"  horiz-adv-x="657" vert-adv-y="1000"  />

      
      <glyph glyph-name="unia5" unicode="&#xa5;" d="M668 744L566 744L353 426L351 426L136 744L31 744L282 376L127 376L127 308L305 308L305 240L127 240L127 171L305 171L305 0L397 0L397 171L575 171L575 240L397 240L397 308L575 308L575 376L419 376Z"  horiz-adv-x="700" vert-adv-y="1000"  />

      
      <glyph glyph-name="uni20AC" unicode="&#x20AC;" d="M480 670C522 670 560 660 595 642L595 735C563 751 519 759 470 759C304 759 177 640 138 477L50 477L50 408L127 408C126 396 126 383 126 371C126 360 126 350 127 339L50 339L50 270L137 270C174 104 302-15 470-15C519-15 563-7 595 9L595 101C560 84 522 73 480 73C352 73 260 151 228 270L499 270L499 339L216 339C215 349 215 360 215 371C215 384 216 396 217 408L499 408L499 477L230 477C264 592 355 670 480 670Z"  horiz-adv-x="662" vert-adv-y="1000"  />

      
      <glyph glyph-name="uni0192" unicode="&#x0192;" d="M391 722C404 722 426 719 436 717L436 799C423 803 398 805 382 805C251 805 200 734 183 616L172 541L81 541L81 461L160 461L89-17C79-82 47-141-33-141C-46-141-59-140-73-138L-73-218C-57-220-39-222-23-222C115-222 160-139 178-21L251 461L404 461L404 541L263 541L273 610C282 667 304 722 391 722Z"  horiz-adv-x="460" vert-adv-y="1000"  />

      
      <glyph glyph-name="uni20B9" unicode="&#x20B9;" d="M595 744L63 744L63 664L221 664C322 664 380 622 395 553L63 553L63 482L394 482C379 417 319 373 213 373L59 373L402 0L522 0L239 303C387 312 470 383 487 482L595 482L595 553L488 553C481 600 459 641 425 673L595 673Z"  horiz-adv-x="650" vert-adv-y="1000"  />

      
      <glyph glyph-name="uni20BD" unicode="&#x20BD;" d="M344 269C517 269 623 360 623 506C623 652 517 744 344 744L154 744L154 346L60 346L60 269L154 269L154 184L60 184L60 113L154 113L154 0L247 0L247 113L392 113L392 184L247 184L247 269ZM247 660L343 660C457 660 529 603 529 503C529 404 457 346 343 346L247 346Z"  horiz-adv-x="665" vert-adv-y="1000"  />

      
      <glyph glyph-name="uni20BA" unicode="&#x20BA;" d="M636 362L542 362C550 180 447 87 291 87L255 87L255 279L439 385L439 468L255 362L255 439L439 545L439 628L255 522L255 744L162 744L162 468L64 411L64 329L162 385L162 308L64 251L64 168L162 225L162 0L313 0C523 0 648 147 636 362Z"  horiz-adv-x="679" vert-adv-y="1000"  />

      
      <glyph glyph-name="uni25" unicode="&#x25;" d="M226 380C329 380 407 460 407 570C407 680 329 759 226 759C122 759 42 680 42 570C42 459 122 380 226 380ZM154 0L243 0L732 744L644 744ZM226 449C170 449 116 494 116 570C116 647 170 690 226 690C280 690 334 647 334 570C334 494 280 449 226 449ZM662-15C766-15 844 65 844 174C844 285 766 364 662 364C558 364 479 285 479 174C479 64 558-15 662-15ZM662 54C607 54 553 98 553 174C553 251 607 295 662 295C717 295 771 251 771 174C771 98 717 54 662 54Z"  horiz-adv-x="887" vert-adv-y="1000"  />

      
      <glyph glyph-name="uni2030" unicode="&#x2030;" d="M407 570C407 680 329 759 226 759C122 759 42 680 42 570C42 459 122 380 226 380C329 380 407 460 407 570ZM154 0L243 0L732 744L644 744ZM334 570C334 494 280 449 226 449C170 449 116 494 116 570C116 647 170 690 226 690C280 690 334 647 334 570ZM844 174C844 285 766 364 662 364C558 364 479 285 479 174C479 64 558-15 662-15C766-15 844 65 844 174ZM1262 174C1262 285 1184 364 1080 364C976 364 897 285 897 174C897 64 976-15 1080-15C1184-15 1262 65 1262 174ZM771 174C771 98 717 54 662 54C607 54 553 98 553 174C553 251 607 295 662 295C717 295 771 251 771 174ZM1189 174C1189 98 1135 54 1080 54C1025 54 971 98 971 174C971 251 1025 295 1080 295C1135 295 1189 251 1189 174Z"  horiz-adv-x="1300" vert-adv-y="1000"  />

      
      <glyph glyph-name="uni2b" unicode="&#x2b;" d="M379 658L295 658L295 412L54 412L54 331L295 331L295 84L379 84L379 331L626 331L626 412L379 412Z"  horiz-adv-x="679" vert-adv-y="1000"  />

      
      <glyph glyph-name="uni2212" unicode="&#x2212;" d="M80 331L611 331L611 412L80 412Z"  horiz-adv-x="691" vert-adv-y="1000"  />

      
      <glyph glyph-name="unib1" unicode="&#xb1;" d="M396 656L312 656L312 435L75 435L75 355L312 355L312 130L396 130L396 355L639 355L639 435L396 435ZM639 80L75 80L75 0L639 0Z"  horiz-adv-x="714" vert-adv-y="1000"  />

      
      <glyph glyph-name="unif7" unicode="&#xf7;" d="M347 492C383 492 409 519 409 554C409 590 383 617 347 617C312 617 285 590 285 554C285 519 312 492 347 492ZM75 331L620 331L620 412L75 412ZM347 126C383 126 409 153 409 189C409 224 383 251 347 251C312 251 285 224 285 189C285 153 312 126 347 126Z"  horiz-adv-x="696" vert-adv-y="1000"  />

      
      <glyph glyph-name="unid7" unicode="&#xd7;" d="M578 569L522 625L325 428L128 625L72 569L269 372L72 174L128 118L325 316L523 118L578 174L381 372Z"  horiz-adv-x="650" vert-adv-y="1000"  />

      
      <glyph glyph-name="uni3d" unicode="&#x3d;" d="M80 419L611 419L611 500L80 500ZM80 242L611 242L611 323L80 323Z"  horiz-adv-x="691" vert-adv-y="1000"  />

      
      <glyph glyph-name="uni3c" unicode="&#x3c;" d="M574 541L156 371L574 202L574 110L51 325L51 416L574 633Z"  horiz-adv-x="661" vert-adv-y="1000"  />

      
      <glyph glyph-name="uni3e" unicode="&#x3e;" d="M87 541L87 633L610 416L610 325L87 110L87 202L505 371Z"  horiz-adv-x="661" vert-adv-y="1000"  />

      
      <glyph glyph-name="uni2264" unicode="&#x2264;" d="M591 551L173 381L591 212L591 120L68 335L68 426L591 643ZM68 0L590 0L590 77L68 77Z"  horiz-adv-x="663" vert-adv-y="1000"  />

      
      <glyph glyph-name="uni2265" unicode="&#x2265;" d="M72 551L72 643L595 426L595 335L72 120L72 212L490 381ZM74 0L596 0L596 77L74 77Z"  horiz-adv-x="663" vert-adv-y="1000"  />

      
      </font>
</defs>
</svg>
