<svg width="21" height="22" viewBox="0 0 21 22" fill="none" xmlns="http://www.w3.org/2000/svg">
<path d="M4.92188 8.34808C4.92188 11.4161 7.43203 13.9262 10.5 13.9262C13.568 13.9262 16.0781 11.4161 16.0781 8.34808C16.0781 5.28011 13.568 2.76996 10.5 2.76996C7.43203 2.76996 4.92188 5.28011 4.92188 8.34808ZM14.7656 8.34808C14.7656 10.6942 12.8461 12.6137 10.5 12.6137C8.15391 12.6137 6.23438 10.6942 6.23438 8.34808C6.23438 6.00199 8.15391 4.08246 10.5 4.08246C12.8461 4.08246 14.7656 6.00199 14.7656 8.34808Z" fill="black"/>
<path d="M4.00315 18.6293C5.74221 16.8903 8.03909 15.9387 10.5 15.9387C12.961 15.9387 15.2578 16.8903 16.9969 18.6293L17.9321 17.6942C15.9469 15.7254 13.3055 14.6262 10.5 14.6262C7.69456 14.6262 5.05315 15.7254 3.06799 17.6942L4.00315 18.6293Z" fill="black"/>
</svg>
