<svg width="26" height="26" viewBox="0 0 26 26" fill="none" xmlns="http://www.w3.org/2000/svg">
<path d="M25.2959 7.43361C25.1506 7.22736 24.9139 7.10392 24.6615 7.10392H8.08105L6.82559 2.77579C6.3334 1.07111 5.16387 0.887512 4.68418 0.887512H1.3373C0.908398 0.887512 0.561523 1.23517 0.561523 1.66329C0.561523 2.09142 0.90918 2.43907 1.3373 2.43907H4.6834C4.78965 2.43907 5.1123 2.43907 5.33262 3.20001L9.65059 19.068C9.74434 19.4024 10.0498 19.6336 10.3975 19.6336H20.9436C21.2709 19.6336 21.5631 19.4289 21.6732 19.1203L25.3904 8.14142C25.4764 7.90392 25.4404 7.63907 25.2951 7.43282L25.2959 7.43361ZM20.3982 18.0828H10.9873L8.51777 8.65626H23.5592L20.3982 18.0828ZM18.8592 21.2063C17.7803 21.2063 16.9061 22.0805 16.9061 23.1594C16.9061 24.2383 17.7803 25.1125 18.8592 25.1125C19.9381 25.1125 20.8123 24.2383 20.8123 23.1594C20.8123 22.0805 19.9381 21.2063 18.8592 21.2063ZM11.8279 21.2063C10.749 21.2063 9.8748 22.0805 9.8748 23.1594C9.8748 24.2383 10.749 25.1125 11.8279 25.1125C12.9068 25.1125 13.7811 24.2383 13.7811 23.1594C13.7811 22.0805 12.9068 21.2063 11.8279 21.2063Z" fill="#141313"/>
</svg>
