<svg width="130" height="87" viewBox="0 0 130 87" fill="none" xmlns="http://www.w3.org/2000/svg">
<path d="M66.34 32C65.8417 32.0153 65.3625 32.2223 65.0098 32.5827L54.8975 42.6643L48.6683 36.4543C46.9242 34.6373 44.1067 37.4433 45.9275 39.1837L53.529 46.766C54.2842 47.5212 55.5108 47.5212 56.2698 46.766L67.7507 35.3158C69.0157 34.0892 68.0842 32 66.3438 32H66.34ZM8.91667 47.3333H20.4167C21.4785 47.3333 22.3333 48.1882 22.3333 49.25C22.3333 50.3118 21.4785 51.1667 20.4167 51.1667H8.91667C7.85483 51.1667 7 50.3118 7 49.25C7 48.1882 7.85483 47.3333 8.91667 47.3333ZM8.91667 32H20.4167C21.4785 32 22.3333 32.8548 22.3333 33.9167C22.3333 34.9785 21.4785 35.8333 20.4167 35.8333H8.91667C7.85483 35.8333 7 34.9785 7 33.9167C7 32.8548 7.85483 32 8.91667 32ZM8.91667 16.6667H20.4167C21.4785 16.6667 22.3333 17.5215 22.3333 18.5833C22.3333 19.6452 21.4785 20.5 20.4167 20.5H8.91667C7.85483 20.5 7 19.6452 7 18.5833C7 17.5215 7.85483 16.6667 8.91667 16.6667ZM100.917 58.8333C95.6458 58.8333 91.3333 63.1458 91.3333 68.4167C91.3333 73.6875 95.6458 78 100.917 78C106.188 78 110.5 73.6875 110.5 68.4167C110.5 63.1458 106.188 58.8333 100.917 58.8333ZM100.917 62.6667C104.114 62.6667 106.667 65.2197 106.667 68.4167C106.667 71.6137 104.114 74.1667 100.917 74.1667C97.7197 74.1667 95.1667 71.6137 95.1667 68.4167C95.1667 65.2197 97.7197 62.6667 100.917 62.6667ZM51.0833 58.8333C45.8125 58.8333 41.5 63.1458 41.5 68.4167C41.5 73.6875 45.8125 78 51.0833 78C56.3542 78 60.6667 73.6875 60.6667 68.4167C60.6667 63.1458 56.3542 58.8333 51.0833 58.8333ZM51.0833 62.6667C54.2803 62.6667 56.8333 65.2197 56.8333 68.4167C56.8333 71.6137 54.2803 74.1667 51.0833 74.1667C47.8863 74.1667 45.3333 71.6137 45.3333 68.4167C45.3333 65.2197 47.8863 62.6667 51.0833 62.6667ZM31.9167 9C28.7657 9 26.1667 11.599 26.1667 14.75V56.9167C26.1667 60.0677 28.7657 62.6667 31.9167 62.6667H39.5833C42.1747 62.705 42.1747 58.795 39.5833 58.8333H31.9167C30.8203 58.8333 30 58.013 30 56.9167V14.75C30 13.6537 30.8203 12.8333 31.9167 12.8333H81.75C82.8463 12.8333 83.6667 13.6537 83.6667 14.75V58.8333H62.5833C60.0533 58.8333 60.0993 62.705 62.5833 62.6667H89.4167C91.9467 62.6667 91.9237 58.8333 89.4167 58.8333H87.5V24.3333H103.703L118.167 46.9347V56.9167C118.167 58.013 117.346 58.8333 116.25 58.8333H112.417C109.91 58.8333 109.91 62.6667 112.417 62.6667H116.25C119.401 62.6667 122 60.0677 122 56.9167V46.375C122 46.0108 121.896 45.6467 121.701 45.34L106.368 21.3817C106.015 20.8335 105.409 20.5 104.75 20.5H87.5V14.75C87.5 11.599 84.901 9 81.75 9H31.9167Z" fill="#AB922A"/>
</svg>
