<svg width="203" height="56" viewBox="0 0 203 56" fill="none" xmlns="http://www.w3.org/2000/svg">
<path d="M65.4075 54.1179C65.5382 54.1179 65.6595 53.9966 65.7715 53.7539C65.9022 53.4926 65.9675 53.0539 65.9675 52.4379V38.9979C65.9675 38.4006 65.9022 37.9712 65.7715 37.7099C65.6595 37.4486 65.5382 37.3179 65.4075 37.3179H70.8115C70.6809 37.3179 70.5502 37.4486 70.4195 37.7099C70.2889 37.9526 70.2235 38.3912 70.2235 39.0259V52.4379C70.2235 53.0352 70.2889 53.4646 70.4195 53.7259C70.5502 53.9872 70.6809 54.1179 70.8115 54.1179H65.4075ZM73.6106 54.1179C73.7413 54.1179 73.872 53.9872 74.0026 53.7259C74.1333 53.4646 74.1986 53.0352 74.1986 52.4379V38.9979C74.1986 38.4006 74.1333 37.9806 74.0026 37.7379C73.872 37.4766 73.7413 37.3366 73.6106 37.3179H80.2186C80.1066 37.3366 80.0506 37.4859 80.0506 37.7659C80.0693 38.0272 80.228 38.4566 80.5266 39.0539C80.6573 39.2966 80.844 39.6792 81.0866 40.2019C81.348 40.7246 81.6373 41.3312 81.9546 42.0219C82.2906 42.7126 82.636 43.4499 82.9906 44.2339C83.364 45.0179 83.7373 45.8019 84.1106 46.5859C84.484 47.3699 84.8293 48.1072 85.1466 48.7979H85.1746C85.5106 48.1072 85.8653 47.3792 86.2386 46.6139C86.6306 45.8299 87.0133 45.0459 87.3867 44.2619C87.76 43.4779 88.1146 42.7406 88.4506 42.0499C88.7866 41.3406 89.076 40.7246 89.3186 40.2019C89.5613 39.6606 89.7386 39.2592 89.8506 38.9979C90.112 38.4006 90.252 37.9712 90.2706 37.7099C90.2893 37.4486 90.252 37.3179 90.1586 37.3179H96.7666C96.636 37.3179 96.5053 37.4486 96.3746 37.7099C96.244 37.9712 96.1786 38.4099 96.1786 39.0259V52.4379C96.1786 53.0352 96.244 53.4646 96.3746 53.7259C96.5053 53.9872 96.636 54.1179 96.7666 54.1179H91.3626C91.4933 54.1179 91.6146 53.9872 91.7266 53.7259C91.8573 53.4646 91.9226 53.0352 91.9226 52.4379V43.3659H91.8666C91.568 43.9259 91.2507 44.5419 90.9146 45.2139C90.5786 45.8859 90.2333 46.5672 89.8786 47.2579C89.5426 47.9486 89.216 48.6206 88.8986 49.2739C88.5813 49.9272 88.292 50.5246 88.0306 51.0659C87.7693 51.6072 87.5546 52.0646 87.3867 52.4379C87.1254 53.0166 86.9853 53.4366 86.9666 53.6979C86.9666 53.9592 87.0133 54.0992 87.1066 54.1179H83.1866C83.28 54.0992 83.3173 53.9592 83.2986 53.6979C83.2986 53.4366 83.168 53.0166 82.9066 52.4379C82.7573 52.1019 82.552 51.6632 82.2906 51.1219C82.048 50.5806 81.768 49.9926 81.4506 49.3579C81.152 48.7046 80.8347 48.0326 80.4986 47.3419C80.1626 46.6326 79.8266 45.9419 79.4906 45.2699C79.1733 44.5792 78.8747 43.9446 78.5947 43.3659H78.5106V52.4379C78.5106 53.0352 78.576 53.4646 78.7066 53.7259C78.8373 53.9872 78.968 54.1179 79.0986 54.1179H73.6106ZM99.5879 54.1179C99.7185 54.1179 99.8401 53.9872 99.9521 53.7259C100.082 53.4646 100.148 53.0352 100.148 52.4379V38.9979C100.148 38.4006 100.082 37.9806 99.9521 37.7379C99.8211 37.4766 99.6905 37.3366 99.5599 37.3179H108.744C110.33 37.3179 111.609 37.5512 112.58 38.0179C113.569 38.4659 114.297 39.1192 114.764 39.9779C115.23 40.8179 115.464 41.8259 115.464 43.0019C115.464 44.1966 115.23 45.2326 114.764 46.1099C114.297 46.9686 113.569 47.6312 112.58 48.0979C111.609 48.5459 110.33 48.7699 108.744 48.7699H104.46V52.4379C104.46 53.0352 104.525 53.4646 104.656 53.7259C104.786 53.9872 104.917 54.1179 105.048 54.1179H99.5879ZM105.608 45.6899H107.008C108.109 45.6899 108.958 45.5966 109.556 45.4099C110.172 45.2232 110.601 44.9339 110.844 44.5419C111.086 44.1499 111.208 43.6366 111.208 43.0019C111.208 42.3859 111.077 41.8912 110.816 41.5179C110.573 41.1446 110.162 40.8832 109.584 40.7339C109.024 40.5659 108.258 40.4819 107.288 40.4819H105.608C105.029 40.4819 104.693 40.5192 104.6 40.5939C104.506 40.6499 104.46 40.8646 104.46 41.2379V44.9059C104.46 45.2792 104.506 45.5032 104.6 45.5779C104.693 45.6526 105.029 45.6899 105.608 45.6899ZM126.673 54.3979C123.462 54.3979 121.138 53.6326 119.701 52.1019C118.282 50.5526 117.573 48.3966 117.573 45.6339C117.573 43.8606 117.881 42.3392 118.497 41.0699C119.131 39.7819 120.111 38.7926 121.437 38.1019C122.781 37.3926 124.526 37.0379 126.673 37.0379H127.541C129.65 37.0379 131.358 37.3832 132.665 38.0739C133.99 38.7646 134.961 39.7539 135.577 41.0419C136.193 42.3299 136.501 43.8606 136.501 45.6339C136.501 48.3966 135.791 50.5526 134.373 52.1019C132.954 53.6326 130.677 54.3979 127.541 54.3979H126.673ZM126.953 51.2899H127.261C128.399 51.2899 129.333 51.1032 130.061 50.7299C130.807 50.3566 131.358 49.7592 131.713 48.9379C132.067 48.0979 132.245 46.9966 132.245 45.6339C132.245 44.3086 132.058 43.2446 131.685 42.4419C131.33 41.6206 130.779 41.0326 130.033 40.6779C129.305 40.3046 128.381 40.1179 127.261 40.1179H126.953C125.795 40.1179 124.834 40.3139 124.069 40.7059C123.303 41.0792 122.734 41.6672 122.361 42.4699C122.006 43.2726 121.829 44.3272 121.829 45.6339C121.829 46.9966 122.015 48.0979 122.389 48.9379C122.781 49.7592 123.35 50.3566 124.097 50.7299C124.862 51.1032 125.814 51.2899 126.953 51.2899ZM139.045 54.1179C139.175 54.1179 139.297 53.9872 139.409 53.7259C139.539 53.4646 139.605 53.0352 139.605 52.4379V38.9979C139.605 38.4006 139.539 37.9806 139.409 37.7379C139.278 37.4766 139.147 37.3366 139.017 37.3179H148.201C149.843 37.3179 151.15 37.5232 152.121 37.9339C153.11 38.3446 153.819 38.9512 154.249 39.7539C154.697 40.5379 154.921 41.5179 154.921 42.6939C154.921 43.5339 154.762 44.2806 154.445 44.9339C154.146 45.5872 153.726 46.1192 153.185 46.5299C152.643 46.9406 152.037 47.2392 151.365 47.4259V47.5099C152.111 47.8086 152.895 48.3966 153.717 49.2739C154.538 50.1326 155.275 51.0939 155.929 52.1579C156.358 52.8486 156.75 53.3432 157.105 53.6419C157.459 53.9406 157.73 54.0992 157.917 54.1179H150.861C151.085 54.0992 151.262 53.9779 151.393 53.7539C151.542 53.5112 151.495 53.1192 151.253 52.5779C150.861 51.6819 150.385 50.9072 149.825 50.2539C149.265 49.6006 148.611 49.1059 147.865 48.7699C147.137 48.4152 146.297 48.2379 145.345 48.2379H145.037C144.458 48.2379 144.122 48.2846 144.029 48.3779C143.935 48.4712 143.889 48.7046 143.889 49.0779V52.4379C143.889 53.0352 143.954 53.4646 144.085 53.7259C144.215 53.9872 144.346 54.1179 144.477 54.1179H139.045ZM145.037 45.4099H147.333C148.509 45.4099 149.358 45.2046 149.881 44.7939C150.403 44.3646 150.665 43.6646 150.665 42.6939C150.665 42.2646 150.571 41.8819 150.385 41.5459C150.198 41.2099 149.881 40.9486 149.433 40.7619C149.003 40.5752 148.397 40.4819 147.613 40.4819H145.037C144.458 40.4819 144.122 40.5099 144.029 40.5659C143.935 40.6219 143.889 40.8366 143.889 41.2099V44.6539C143.889 45.0272 143.935 45.2512 144.029 45.3259C144.122 45.3819 144.458 45.4099 145.037 45.4099ZM163.287 54.1179C163.418 54.1179 163.549 53.9872 163.679 53.7259C163.81 53.4646 163.875 53.0352 163.875 52.4379V41.2379C163.875 40.8272 163.829 40.5846 163.735 40.5099C163.642 40.4352 163.315 40.3979 162.755 40.3979H160.711C159.629 40.3979 158.751 40.5192 158.079 40.7619C157.426 40.9859 156.997 41.2006 156.791 41.4059L157.351 38.1579V37.3179H174.711V38.1579L175.271 41.4059C175.066 41.2006 174.627 40.9859 173.955 40.7619C173.302 40.5192 172.434 40.3979 171.351 40.3979H169.335C168.757 40.3979 168.421 40.4352 168.327 40.5099C168.234 40.5846 168.187 40.8272 168.187 41.2379V52.4379C168.187 53.0352 168.253 53.4646 168.383 53.7259C168.514 53.9872 168.645 54.1179 168.775 54.1179H163.287Z" fill="#FFFEFA"/>
<path d="M65.6136 28.1179C65.7443 28.1179 65.8749 27.9872 66.0056 27.7259C66.1363 27.4646 66.2016 27.0352 66.2016 26.4379V15.2379C66.2016 14.8272 66.1549 14.5846 66.0616 14.5099C65.9683 14.4352 65.6416 14.3979 65.0816 14.3979H63.0376C61.9549 14.3979 61.0776 14.5192 60.4056 14.7619C59.7523 14.9859 59.3229 15.2006 59.1176 15.4059L59.6776 12.1579V11.3179H77.0376V12.1579L77.5976 15.4059C77.3923 15.2006 76.9536 14.9859 76.2816 14.7619C75.6283 14.5192 74.7603 14.3979 73.6776 14.3979H71.6616C71.0829 14.3979 70.7469 14.4352 70.6536 14.5099C70.5603 14.5846 70.5136 14.8272 70.5136 15.2379V26.4379C70.5136 27.0352 70.5789 27.4646 70.7096 27.7259C70.8403 27.9872 70.9709 28.1179 71.1016 28.1179H65.6136ZM79.2969 28.1179C79.4275 28.1179 79.549 27.9872 79.6609 27.7259C79.7915 27.4646 79.8569 27.0352 79.8569 26.4379V12.9979C79.8569 12.4006 79.7915 11.9806 79.6609 11.7379C79.5303 11.4766 79.3995 11.3366 79.2689 11.3179H88.4529C90.0956 11.3179 91.4022 11.5232 92.3729 11.9339C93.3622 12.3446 94.0715 12.9512 94.5009 13.7539C94.9489 14.5379 95.1729 15.5179 95.1729 16.6939C95.1729 17.5339 95.0142 18.2806 94.6969 18.9339C94.3982 19.5872 93.9782 20.1192 93.4369 20.5299C92.8955 20.9406 92.2889 21.2392 91.6169 21.4259V21.5099C92.3635 21.8086 93.1475 22.3966 93.9689 23.2739C94.7902 24.1326 95.5275 25.0939 96.1809 26.1579C96.6102 26.8486 97.0023 27.3432 97.3569 27.6419C97.7115 27.9406 97.9822 28.0992 98.1689 28.1179H91.1129C91.3369 28.0992 91.5142 27.9779 91.6449 27.7539C91.7942 27.5112 91.7475 27.1192 91.5049 26.5779C91.1129 25.6819 90.6369 24.9072 90.077 24.2539C89.517 23.6006 88.8635 23.1059 88.1169 22.7699C87.3889 22.4152 86.5489 22.2379 85.5969 22.2379H85.2889C84.7102 22.2379 84.3742 22.2846 84.2809 22.3779C84.1875 22.4712 84.1409 22.7046 84.1409 23.0779V26.4379C84.1409 27.0352 84.2062 27.4646 84.3369 27.7259C84.4675 27.9872 84.5982 28.1179 84.7289 28.1179H79.2969ZM85.2889 19.4099H87.5849C88.7609 19.4099 89.6103 19.2046 90.1329 18.7939C90.6556 18.3646 90.9169 17.6646 90.9169 16.6939C90.9169 16.2646 90.8235 15.8819 90.6369 15.5459C90.4502 15.2099 90.1329 14.9486 89.6849 14.7619C89.2555 14.5752 88.6489 14.4819 87.8649 14.4819H85.2889C84.7102 14.4819 84.3742 14.5099 84.2809 14.5659C84.1875 14.6219 84.1409 14.8366 84.1409 15.2099V18.6539C84.1409 19.0272 84.1875 19.2512 84.2809 19.3259C84.3742 19.3819 84.7102 19.4099 85.2889 19.4099ZM107.228 28.3979C105.343 28.3979 103.793 28.0992 102.58 27.5019C101.367 26.9046 100.471 26.0459 99.8921 24.9259C99.3135 23.7872 99.0242 22.4339 99.0242 20.8659V12.9699C99.0242 12.3726 98.9588 11.9526 98.8282 11.7099C98.7162 11.4486 98.5948 11.3179 98.4642 11.3179H103.84C103.709 11.3366 103.579 11.4672 103.448 11.7099C103.336 11.9526 103.28 12.3726 103.28 12.9699V20.8099C103.28 22.0046 103.448 22.9286 103.784 23.5819C104.12 24.2352 104.587 24.6832 105.184 24.9259C105.781 25.1686 106.472 25.2899 107.256 25.2899H107.564C108.18 25.2899 108.721 25.2246 109.188 25.0939C109.673 24.9632 110.075 24.7392 110.392 24.4219C110.728 24.1046 110.98 23.6566 111.148 23.0779C111.335 22.4806 111.428 21.7246 111.428 20.8099V12.9699C111.428 12.3726 111.363 11.9526 111.232 11.7099C111.12 11.4486 110.999 11.3179 110.868 11.3179H116.244C116.113 11.3366 115.983 11.4766 115.852 11.7379C115.74 11.9806 115.684 12.4006 115.684 12.9979V20.8659C115.684 22.4339 115.385 23.7872 114.788 24.9259C114.209 26.0459 113.313 26.9046 112.1 27.5019C110.905 28.0992 109.375 28.3979 107.508 28.3979H107.228ZM128.378 28.3979C125.167 28.3979 122.759 27.7072 121.154 26.3259C119.567 24.9259 118.774 22.7232 118.774 19.7179C118.774 17.9819 119.101 16.4699 119.754 15.1819C120.407 13.8752 121.443 12.8579 122.862 12.1299C124.281 11.4019 126.119 11.0379 128.378 11.0379C130.151 11.0379 131.626 11.1312 132.802 11.3179C133.978 11.5046 134.771 11.6912 135.182 11.8779V12.7179L135.742 15.7979C135.387 15.5552 134.855 15.3032 134.146 15.0419C133.455 14.7806 132.625 14.5659 131.654 14.3979C130.683 14.2112 129.61 14.1179 128.434 14.1179C127.146 14.1179 126.101 14.3232 125.298 14.7339C124.514 15.1446 123.935 15.7699 123.562 16.6099C123.207 17.4312 123.03 18.4672 123.03 19.7179C123.03 20.9686 123.207 22.0046 123.562 22.8259C123.935 23.6472 124.57 24.2632 125.466 24.6739C126.381 25.0846 127.641 25.2899 129.246 25.2899C130.851 25.2899 132.186 25.0659 133.25 24.6179C134.333 24.1699 135.07 23.7406 135.462 23.3299V24.1699L135.742 26.9979C135.425 27.2966 134.65 27.6046 133.418 27.9219C132.205 28.2392 130.525 28.3979 128.378 28.3979ZM138.249 28.1179C138.38 28.1179 138.511 27.9872 138.641 27.7259C138.772 27.4646 138.837 27.0352 138.837 26.4379V12.9979C138.837 12.4006 138.772 11.9806 138.641 11.7379C138.511 11.4766 138.38 11.3366 138.249 11.3179H143.737C143.607 11.3179 143.476 11.4486 143.345 11.7099C143.215 11.9712 143.149 12.4099 143.149 13.0259V17.3099C143.149 17.7206 143.205 17.9632 143.317 18.0379C143.429 18.1126 143.756 18.1499 144.297 18.1499H144.577C145.119 18.1499 145.716 17.9632 146.369 17.5899C147.041 17.2166 147.648 16.6566 148.189 15.9099C148.731 15.1446 149.104 14.1832 149.309 13.0259C149.421 12.4099 149.431 11.9712 149.337 11.7099C149.263 11.4486 149.16 11.3179 149.029 11.3179H156.169C155.983 11.3179 155.703 11.4486 155.329 11.7099C154.956 11.9712 154.573 12.4099 154.181 13.0259C153.696 13.7912 153.267 14.4352 152.893 14.9579C152.52 15.4619 152.165 15.9006 151.829 16.2739C151.512 16.6472 151.157 17.0206 150.765 17.3939C150.261 17.8606 149.795 18.2339 149.365 18.5139C148.955 18.7752 148.591 18.9619 148.273 19.0739V19.1579C148.721 19.2512 149.216 19.4192 149.757 19.6619C150.299 19.9046 150.915 20.3059 151.605 20.8659C152.539 21.6126 153.295 22.4246 153.873 23.3019C154.471 24.1606 155.087 25.1126 155.721 26.1579C156.151 26.8486 156.543 27.3526 156.897 27.6699C157.252 27.9686 157.523 28.1179 157.709 28.1179H150.653C150.859 28.1179 151.027 27.9966 151.157 27.7539C151.288 27.5112 151.251 27.1192 151.045 26.5779C150.747 25.7379 150.383 24.9912 149.953 24.3379C149.524 23.6659 149.039 23.1059 148.497 22.6579C147.956 22.1912 147.359 21.8459 146.705 21.6219C146.052 21.3792 145.352 21.2579 144.605 21.2579H144.297C143.719 21.2579 143.383 21.3046 143.289 21.3979C143.196 21.4726 143.149 21.7339 143.149 22.1819V26.4379C143.149 27.0352 143.215 27.4646 143.345 27.7259C143.476 27.9872 143.607 28.1179 143.737 28.1179H138.249Z" fill="#FFFEFA"/>
<path d="M4.77512 46.6179C2.37512 44.2179 2.10845 38.6179 2.27512 36.1179C2.27512 37.7179 6.27514 41.6179 10.7751 43.6179C13.7751 45.1179 18.7751 49.1179 19.2751 54.6179H11.7751C11.7751 53.1179 7.77512 49.6179 4.77512 46.6179Z" fill="#BCA134"/>
<path d="M1.27516 54.6179H8.77516C7.77515 51.6179 2.27515 51.1179 0.275156 47.1179C-0.524844 49.9179 0.608489 53.2846 1.27516 54.6179Z" fill="#BCA134"/>
<path d="M12.775 39.618C21.175 44.018 22.2751 51.4514 21.7751 54.618C30.9751 47.4182 33.6084 34.6181 33.775 29.1179L35.775 28.6179C39.775 28.1179 40.9417 29.9512 42.275 30.6178L44.275 24.118C39.475 26.1182 35.9417 24.2846 34.775 23.1178C32.775 18.7178 36.6084 18.6178 38.775 19.1178C39.975 20.3178 41.275 20.2845 41.775 20.1178V22.6178L44.275 20.1178C49.875 18.5178 50.275 16.4512 49.775 15.6178L46.275 13.618L49.775 13.1178C48.175 10.7178 43.775 8.78448 41.775 8.11782C40.275 1.6179 22.7751 2.11767 19.7751 1.1179C15.7751 0.317902 13.775 3.78471 13.775 5.61805C14.575 10.418 13.4417 12.9514 12.775 13.618C9.17512 17.218 9.60842 20.118 10.275 21.118C11.475 23.918 15.775 26.9514 17.775 28.118C24.575 30.918 26.6084 38.2847 26.775 41.618C23.575 36.418 17.1084 33.118 14.275 32.118C9.77507 30.5298 7.44176 26.2847 5.7751 24.118C3.7751 31.318 9.2751 37.1179 12.775 39.618Z" fill="#BCA134"/>
<path d="M36.2751 34.1179C35.7751 44.1179 30.2751 51.2846 27.2751 54.6179H35.7751C39.7751 42.1179 38.7751 37.1179 36.2751 34.1179Z" fill="#BCA134"/>
<path d="M41.7751 38.6179C42.7751 45.1179 40.7751 52.1179 38.7751 54.6179H44.2751C46.7751 44.1179 43.5723 40.0401 41.7751 38.6179Z" fill="#BCA134"/>
<path d="M47.7751 45.1179C48.7751 49.6179 48.2751 52.6179 46.7751 54.6179H53.2751C53.2751 49.8179 49.1084 45.9512 47.7751 45.1179Z" fill="#BCA134"/>
<path d="M38.2751 8.6179C37.0751 7.4179 32.7751 7.1179 30.7751 7.1179C33.9751 11.1179 36.7751 11.4512 37.7751 11.1179C38.9751 10.3179 38.6084 9.1179 38.2751 8.6179Z" fill="#141313"/>
<path d="M26.2752 23.1179C20.6752 19.9179 18.9419 14.7846 18.7752 12.6179C15.1752 20.2179 19.6085 23.7846 22.2752 24.6179C26.2752 26.1179 29.1086 29.4512 30.7752 31.1179C30.3752 26.7179 27.6086 23.9512 26.2752 23.1179Z" fill="#161622"/>
<path d="M29.2751 15.6179C25.7751 12.6179 26.4694 9.25395 26.8692 7.11798C22.275 11.7682 24.5091 15.1228 26.8692 16.6179C27.6712 17.1179 29.3751 18.4179 29.7751 19.6179C30.0766 18.7846 30.3988 16.8179 29.2751 15.6179Z" fill="#141313"/>
<path d="M18.2751 4.6179H23.7751C21.3751 7.8179 19.1084 7.95123 18.2751 7.6179C17.4751 7.2179 17.2751 6.45123 17.2751 6.1179C17.2751 4.9179 17.9418 4.6179 18.2751 4.6179Z" fill="#141313"/>
</svg>
