<!-- <svg width="203" height="56" viewBox="0 0 203 56" fill="none" xmlns="http://www.w3.org/2000/svg">
<path d="M65.4075 54.1179C65.5382 54.1179 65.6595 53.9966 65.7715 53.7539C65.9022 53.4926 65.9675 53.0539 65.9675 52.4379V38.9979C65.9675 38.4006 65.9022 37.9712 65.7715 37.7099C65.6595 37.4486 65.5382 37.3179 65.4075 37.3179H70.8115C70.6809 37.3179 70.5502 37.4486 70.4195 37.7099C70.2889 37.9526 70.2235 38.3912 70.2235 39.0259V52.4379C70.2235 53.0352 70.2889 53.4646 70.4195 53.7259C70.5502 53.9872 70.6809 54.1179 70.8115 54.1179H65.4075ZM73.6106 54.1179C73.7413 54.1179 73.872 53.9872 74.0026 53.7259C74.1333 53.4646 74.1986 53.0352 74.1986 52.4379V38.9979C74.1986 38.4006 74.1333 37.9806 74.0026 37.7379C73.872 37.4766 73.7413 37.3366 73.6106 37.3179H80.2186C80.1066 37.3366 80.0506 37.4859 80.0506 37.7659C80.0693 38.0272 80.228 38.4566 80.5266 39.0539C80.6573 39.2966 80.844 39.6792 81.0866 40.2019C81.348 40.7246 81.6373 41.3312 81.9546 42.0219C82.2906 42.7126 82.636 43.4499 82.9906 44.2339C83.364 45.0179 83.7373 45.8019 84.1106 46.5859C84.484 47.3699 84.8293 48.1072 85.1466 48.7979H85.1746C85.5106 48.1072 85.8653 47.3792 86.2386 46.6139C86.6306 45.8299 87.0133 45.0459 87.3867 44.2619C87.76 43.4779 88.1146 42.7406 88.4506 42.0499C88.7866 41.3406 89.076 40.7246 89.3186 40.2019C89.5613 39.6606 89.7386 39.2592 89.8506 38.9979C90.112 38.4006 90.252 37.9712 90.2706 37.7099C90.2893 37.4486 90.252 37.3179 90.1586 37.3179H96.7666C96.636 37.3179 96.5053 37.4486 96.3746 37.7099C96.244 37.9712 96.1786 38.4099 96.1786 39.0259V52.4379C96.1786 53.0352 96.244 53.4646 96.3746 53.7259C96.5053 53.9872 96.636 54.1179 96.7666 54.1179H91.3626C91.4933 54.1179 91.6146 53.9872 91.7266 53.7259C91.8573 53.4646 91.9226 53.0352 91.9226 52.4379V43.3659H91.8666C91.568 43.9259 91.2507 44.5419 90.9146 45.2139C90.5786 45.8859 90.2333 46.5672 89.8786 47.2579C89.5426 47.9486 89.216 48.6206 88.8986 49.2739C88.5813 49.9272 88.292 50.5246 88.0306 51.0659C87.7693 51.6072 87.5546 52.0646 87.3867 52.4379C87.1254 53.0166 86.9853 53.4366 86.9666 53.6979C86.9666 53.9592 87.0133 54.0992 87.1066 54.1179H83.1866C83.28 54.0992 83.3173 53.9592 83.2986 53.6979C83.2986 53.4366 83.168 53.0166 82.9066 52.4379C82.7573 52.1019 82.552 51.6632 82.2906 51.1219C82.048 50.5806 81.768 49.9926 81.4506 49.3579C81.152 48.7046 80.8347 48.0326 80.4986 47.3419C80.1626 46.6326 79.8266 45.9419 79.4906 45.2699C79.1733 44.5792 78.8747 43.9446 78.5947 43.3659H78.5106V52.4379C78.5106 53.0352 78.576 53.4646 78.7066 53.7259C78.8373 53.9872 78.968 54.1179 79.0986 54.1179H73.6106ZM99.5879 54.1179C99.7185 54.1179 99.8401 53.9872 99.9521 53.7259C100.082 53.4646 100.148 53.0352 100.148 52.4379V38.9979C100.148 38.4006 100.082 37.9806 99.9521 37.7379C99.8211 37.4766 99.6905 37.3366 99.5599 37.3179H108.744C110.33 37.3179 111.609 37.5512 112.58 38.0179C113.569 38.4659 114.297 39.1192 114.764 39.9779C115.23 40.8179 115.464 41.8259 115.464 43.0019C115.464 44.1966 115.23 45.2326 114.764 46.1099C114.297 46.9686 113.569 47.6312 112.58 48.0979C111.609 48.5459 110.33 48.7699 108.744 48.7699H104.46V52.4379C104.46 53.0352 104.525 53.4646 104.656 53.7259C104.786 53.9872 104.917 54.1179 105.048 54.1179H99.5879ZM105.608 45.6899H107.008C108.109 45.6899 108.958 45.5966 109.556 45.4099C110.172 45.2232 110.601 44.9339 110.844 44.5419C111.086 44.1499 111.208 43.6366 111.208 43.0019C111.208 42.3859 111.077 41.8912 110.816 41.5179C110.573 41.1446 110.162 40.8832 109.584 40.7339C109.024 40.5659 108.258 40.4819 107.288 40.4819H105.608C105.029 40.4819 104.693 40.5192 104.6 40.5939C104.506 40.6499 104.46 40.8646 104.46 41.2379V44.9059C104.46 45.2792 104.506 45.5032 104.6 45.5779C104.693 45.6526 105.029 45.6899 105.608 45.6899ZM126.673 54.3979C123.462 54.3979 121.138 53.6326 119.701 52.1019C118.282 50.5526 117.573 48.3966 117.573 45.6339C117.573 43.8606 117.881 42.3392 118.497 41.0699C119.131 39.7819 120.111 38.7926 121.437 38.1019C122.781 37.3926 124.526 37.0379 126.673 37.0379H127.541C129.65 37.0379 131.358 37.3832 132.665 38.0739C133.99 38.7646 134.961 39.7539 135.577 41.0419C136.193 42.3299 136.501 43.8606 136.501 45.6339C136.501 48.3966 135.791 50.5526 134.373 52.1019C132.954 53.6326 130.677 54.3979 127.541 54.3979H126.673ZM126.953 51.2899H127.261C128.399 51.2899 129.333 51.1032 130.061 50.7299C130.807 50.3566 131.358 49.7592 131.713 48.9379C132.067 48.0979 132.245 46.9966 132.245 45.6339C132.245 44.3086 132.058 43.2446 131.685 42.4419C131.33 41.6206 130.779 41.0326 130.033 40.6779C129.305 40.3046 128.381 40.1179 127.261 40.1179H126.953C125.795 40.1179 124.834 40.3139 124.069 40.7059C123.303 41.0792 122.734 41.6672 122.361 42.4699C122.006 43.2726 121.829 44.3272 121.829 45.6339C121.829 46.9966 122.015 48.0979 122.389 48.9379C122.781 49.7592 123.35 50.3566 124.097 50.7299C124.862 51.1032 125.814 51.2899 126.953 51.2899ZM139.045 54.1179C139.175 54.1179 139.297 53.9872 139.409 53.7259C139.539 53.4646 139.605 53.0352 139.605 52.4379V38.9979C139.605 38.4006 139.539 37.9806 139.409 37.7379C139.278 37.4766 139.147 37.3366 139.017 37.3179H148.201C149.843 37.3179 151.15 37.5232 152.121 37.9339C153.11 38.3446 153.819 38.9512 154.249 39.7539C154.697 40.5379 154.921 41.5179 154.921 42.6939C154.921 43.5339 154.762 44.2806 154.445 44.9339C154.146 45.5872 153.726 46.1192 153.185 46.5299C152.643 46.9406 152.037 47.2392 151.365 47.4259V47.5099C152.111 47.8086 152.895 48.3966 153.717 49.2739C154.538 50.1326 155.275 51.0939 155.929 52.1579C156.358 52.8486 156.75 53.3432 157.105 53.6419C157.459 53.9406 157.73 54.0992 157.917 54.1179H150.861C151.085 54.0992 151.262 53.9779 151.393 53.7539C151.542 53.5112 151.495 53.1192 151.253 52.5779C150.861 51.6819 150.385 50.9072 149.825 50.2539C149.265 49.6006 148.611 49.1059 147.865 48.7699C147.137 48.4152 146.297 48.2379 145.345 48.2379H145.037C144.458 48.2379 144.122 48.2846 144.029 48.3779C143.935 48.4712 143.889 48.7046 143.889 49.0779V52.4379C143.889 53.0352 143.954 53.4646 144.085 53.7259C144.215 53.9872 144.346 54.1179 144.477 54.1179H139.045ZM145.037 45.4099H147.333C148.509 45.4099 149.358 45.2046 149.881 44.7939C150.403 44.3646 150.665 43.6646 150.665 42.6939C150.665 42.2646 150.571 41.8819 150.385 41.5459C150.198 41.2099 149.881 40.9486 149.433 40.7619C149.003 40.5752 148.397 40.4819 147.613 40.4819H145.037C144.458 40.4819 144.122 40.5099 144.029 40.5659C143.935 40.6219 143.889 40.8366 143.889 41.2099V44.6539C143.889 45.0272 143.935 45.2512 144.029 45.3259C144.122 45.3819 144.458 45.4099 145.037 45.4099ZM163.287 54.1179C163.418 54.1179 163.549 53.9872 163.679 53.7259C163.81 53.4646 163.875 53.0352 163.875 52.4379V41.2379C163.875 40.8272 163.829 40.5846 163.735 40.5099C163.642 40.4352 163.315 40.3979 162.755 40.3979H160.711C159.629 40.3979 158.751 40.5192 158.079 40.7619C157.426 40.9859 156.997 41.2006 156.791 41.4059L157.351 38.1579V37.3179H174.711V38.1579L175.271 41.4059C175.066 41.2006 174.627 40.9859 173.955 40.7619C173.302 40.5192 172.434 40.3979 171.351 40.3979H169.335C168.757 40.3979 168.421 40.4352 168.327 40.5099C168.234 40.5846 168.187 40.8272 168.187 41.2379V52.4379C168.187 53.0352 168.253 53.4646 168.383 53.7259C168.514 53.9872 168.645 54.1179 168.775 54.1179H163.287Z" fill="#FFFEFA"/>
<path d="M65.6136 28.1179C65.7443 28.1179 65.8749 27.9872 66.0056 27.7259C66.1363 27.4646 66.2016 27.0352 66.2016 26.4379V15.2379C66.2016 14.8272 66.1549 14.5846 66.0616 14.5099C65.9683 14.4352 65.6416 14.3979 65.0816 14.3979H63.0376C61.9549 14.3979 61.0776 14.5192 60.4056 14.7619C59.7523 14.9859 59.3229 15.2006 59.1176 15.4059L59.6776 12.1579V11.3179H77.0376V12.1579L77.5976 15.4059C77.3923 15.2006 76.9536 14.9859 76.2816 14.7619C75.6283 14.5192 74.7603 14.3979 73.6776 14.3979H71.6616C71.0829 14.3979 70.7469 14.4352 70.6536 14.5099C70.5603 14.5846 70.5136 14.8272 70.5136 15.2379V26.4379C70.5136 27.0352 70.5789 27.4646 70.7096 27.7259C70.8403 27.9872 70.9709 28.1179 71.1016 28.1179H65.6136ZM79.2969 28.1179C79.4275 28.1179 79.549 27.9872 79.6609 27.7259C79.7915 27.4646 79.8569 27.0352 79.8569 26.4379V12.9979C79.8569 12.4006 79.7915 11.9806 79.6609 11.7379C79.5303 11.4766 79.3995 11.3366 79.2689 11.3179H88.4529C90.0956 11.3179 91.4022 11.5232 92.3729 11.9339C93.3622 12.3446 94.0715 12.9512 94.5009 13.7539C94.9489 14.5379 95.1729 15.5179 95.1729 16.6939C95.1729 17.5339 95.0142 18.2806 94.6969 18.9339C94.3982 19.5872 93.9782 20.1192 93.4369 20.5299C92.8955 20.9406 92.2889 21.2392 91.6169 21.4259V21.5099C92.3635 21.8086 93.1475 22.3966 93.9689 23.2739C94.7902 24.1326 95.5275 25.0939 96.1809 26.1579C96.6102 26.8486 97.0023 27.3432 97.3569 27.6419C97.7115 27.9406 97.9822 28.0992 98.1689 28.1179H91.1129C91.3369 28.0992 91.5142 27.9779 91.6449 27.7539C91.7942 27.5112 91.7475 27.1192 91.5049 26.5779C91.1129 25.6819 90.6369 24.9072 90.077 24.2539C89.517 23.6006 88.8635 23.1059 88.1169 22.7699C87.3889 22.4152 86.5489 22.2379 85.5969 22.2379H85.2889C84.7102 22.2379 84.3742 22.2846 84.2809 22.3779C84.1875 22.4712 84.1409 22.7046 84.1409 23.0779V26.4379C84.1409 27.0352 84.2062 27.4646 84.3369 27.7259C84.4675 27.9872 84.5982 28.1179 84.7289 28.1179H79.2969ZM85.2889 19.4099H87.5849C88.7609 19.4099 89.6103 19.2046 90.1329 18.7939C90.6556 18.3646 90.9169 17.6646 90.9169 16.6939C90.9169 16.2646 90.8235 15.8819 90.6369 15.5459C90.4502 15.2099 90.1329 14.9486 89.6849 14.7619C89.2555 14.5752 88.6489 14.4819 87.8649 14.4819H85.2889C84.7102 14.4819 84.3742 14.5099 84.2809 14.5659C84.1875 14.6219 84.1409 14.8366 84.1409 15.2099V18.6539C84.1409 19.0272 84.1875 19.2512 84.2809 19.3259C84.3742 19.3819 84.7102 19.4099 85.2889 19.4099ZM107.228 28.3979C105.343 28.3979 103.793 28.0992 102.58 27.5019C101.367 26.9046 100.471 26.0459 99.8921 24.9259C99.3135 23.7872 99.0242 22.4339 99.0242 20.8659V12.9699C99.0242 12.3726 98.9588 11.9526 98.8282 11.7099C98.7162 11.4486 98.5948 11.3179 98.4642 11.3179H103.84C103.709 11.3366 103.579 11.4672 103.448 11.7099C103.336 11.9526 103.28 12.3726 103.28 12.9699V20.8099C103.28 22.0046 103.448 22.9286 103.784 23.5819C104.12 24.2352 104.587 24.6832 105.184 24.9259C105.781 25.1686 106.472 25.2899 107.256 25.2899H107.564C108.18 25.2899 108.721 25.2246 109.188 25.0939C109.673 24.9632 110.075 24.7392 110.392 24.4219C110.728 24.1046 110.98 23.6566 111.148 23.0779C111.335 22.4806 111.428 21.7246 111.428 20.8099V12.9699C111.428 12.3726 111.363 11.9526 111.232 11.7099C111.12 11.4486 110.999 11.3179 110.868 11.3179H116.244C116.113 11.3366 115.983 11.4766 115.852 11.7379C115.74 11.9806 115.684 12.4006 115.684 12.9979V20.8659C115.684 22.4339 115.385 23.7872 114.788 24.9259C114.209 26.0459 113.313 26.9046 112.1 27.5019C110.905 28.0992 109.375 28.3979 107.508 28.3979H107.228ZM128.378 28.3979C125.167 28.3979 122.759 27.7072 121.154 26.3259C119.567 24.9259 118.774 22.7232 118.774 19.7179C118.774 17.9819 119.101 16.4699 119.754 15.1819C120.407 13.8752 121.443 12.8579 122.862 12.1299C124.281 11.4019 126.119 11.0379 128.378 11.0379C130.151 11.0379 131.626 11.1312 132.802 11.3179C133.978 11.5046 134.771 11.6912 135.182 11.8779V12.7179L135.742 15.7979C135.387 15.5552 134.855 15.3032 134.146 15.0419C133.455 14.7806 132.625 14.5659 131.654 14.3979C130.683 14.2112 129.61 14.1179 128.434 14.1179C127.146 14.1179 126.101 14.3232 125.298 14.7339C124.514 15.1446 123.935 15.7699 123.562 16.6099C123.207 17.4312 123.03 18.4672 123.03 19.7179C123.03 20.9686 123.207 22.0046 123.562 22.8259C123.935 23.6472 124.57 24.2632 125.466 24.6739C126.381 25.0846 127.641 25.2899 129.246 25.2899C130.851 25.2899 132.186 25.0659 133.25 24.6179C134.333 24.1699 135.07 23.7406 135.462 23.3299V24.1699L135.742 26.9979C135.425 27.2966 134.65 27.6046 133.418 27.9219C132.205 28.2392 130.525 28.3979 128.378 28.3979ZM138.249 28.1179C138.38 28.1179 138.511 27.9872 138.641 27.7259C138.772 27.4646 138.837 27.0352 138.837 26.4379V12.9979C138.837 12.4006 138.772 11.9806 138.641 11.7379C138.511 11.4766 138.38 11.3366 138.249 11.3179H143.737C143.607 11.3179 143.476 11.4486 143.345 11.7099C143.215 11.9712 143.149 12.4099 143.149 13.0259V17.3099C143.149 17.7206 143.205 17.9632 143.317 18.0379C143.429 18.1126 143.756 18.1499 144.297 18.1499H144.577C145.119 18.1499 145.716 17.9632 146.369 17.5899C147.041 17.2166 147.648 16.6566 148.189 15.9099C148.731 15.1446 149.104 14.1832 149.309 13.0259C149.421 12.4099 149.431 11.9712 149.337 11.7099C149.263 11.4486 149.16 11.3179 149.029 11.3179H156.169C155.983 11.3179 155.703 11.4486 155.329 11.7099C154.956 11.9712 154.573 12.4099 154.181 13.0259C153.696 13.7912 153.267 14.4352 152.893 14.9579C152.52 15.4619 152.165 15.9006 151.829 16.2739C151.512 16.6472 151.157 17.0206 150.765 17.3939C150.261 17.8606 149.795 18.2339 149.365 18.5139C148.955 18.7752 148.591 18.9619 148.273 19.0739V19.1579C148.721 19.2512 149.216 19.4192 149.757 19.6619C150.299 19.9046 150.915 20.3059 151.605 20.8659C152.539 21.6126 153.295 22.4246 153.873 23.3019C154.471 24.1606 155.087 25.1126 155.721 26.1579C156.151 26.8486 156.543 27.3526 156.897 27.6699C157.252 27.9686 157.523 28.1179 157.709 28.1179H150.653C150.859 28.1179 151.027 27.9966 151.157 27.7539C151.288 27.5112 151.251 27.1192 151.045 26.5779C150.747 25.7379 150.383 24.9912 149.953 24.3379C149.524 23.6659 149.039 23.1059 148.497 22.6579C147.956 22.1912 147.359 21.8459 146.705 21.6219C146.052 21.3792 145.352 21.2579 144.605 21.2579H144.297C143.719 21.2579 143.383 21.3046 143.289 21.3979C143.196 21.4726 143.149 21.7339 143.149 22.1819V26.4379C143.149 27.0352 143.215 27.4646 143.345 27.7259C143.476 27.9872 143.607 28.1179 143.737 28.1179H138.249Z" fill="#FFFEFA"/>
<path d="M4.77512 46.6179C2.37512 44.2179 2.10845 38.6179 2.27512 36.1179C2.27512 37.7179 6.27514 41.6179 10.7751 43.6179C13.7751 45.1179 18.7751 49.1179 19.2751 54.6179H11.7751C11.7751 53.1179 7.77512 49.6179 4.77512 46.6179Z" fill="#BCA134"/>
<path d="M1.27516 54.6179H8.77516C7.77515 51.6179 2.27515 51.1179 0.275156 47.1179C-0.524844 49.9179 0.608489 53.2846 1.27516 54.6179Z" fill="#BCA134"/>
<path d="M12.775 39.618C21.175 44.018 22.2751 51.4514 21.7751 54.618C30.9751 47.4182 33.6084 34.6181 33.775 29.1179L35.775 28.6179C39.775 28.1179 40.9417 29.9512 42.275 30.6178L44.275 24.118C39.475 26.1182 35.9417 24.2846 34.775 23.1178C32.775 18.7178 36.6084 18.6178 38.775 19.1178C39.975 20.3178 41.275 20.2845 41.775 20.1178V22.6178L44.275 20.1178C49.875 18.5178 50.275 16.4512 49.775 15.6178L46.275 13.618L49.775 13.1178C48.175 10.7178 43.775 8.78448 41.775 8.11782C40.275 1.6179 22.7751 2.11767 19.7751 1.1179C15.7751 0.317902 13.775 3.78471 13.775 5.61805C14.575 10.418 13.4417 12.9514 12.775 13.618C9.17512 17.218 9.60842 20.118 10.275 21.118C11.475 23.918 15.775 26.9514 17.775 28.118C24.575 30.918 26.6084 38.2847 26.775 41.618C23.575 36.418 17.1084 33.118 14.275 32.118C9.77507 30.5298 7.44176 26.2847 5.7751 24.118C3.7751 31.318 9.2751 37.1179 12.775 39.618Z" fill="#BCA134"/>
<path d="M36.2751 34.1179C35.7751 44.1179 30.2751 51.2846 27.2751 54.6179H35.7751C39.7751 42.1179 38.7751 37.1179 36.2751 34.1179Z" fill="#BCA134"/>
<path d="M41.7751 38.6179C42.7751 45.1179 40.7751 52.1179 38.7751 54.6179H44.2751C46.7751 44.1179 43.5723 40.0401 41.7751 38.6179Z" fill="#BCA134"/>
<path d="M47.7751 45.1179C48.7751 49.6179 48.2751 52.6179 46.7751 54.6179H53.2751C53.2751 49.8179 49.1084 45.9512 47.7751 45.1179Z" fill="#BCA134"/>
<path d="M38.2751 8.6179C37.0751 7.4179 32.7751 7.1179 30.7751 7.1179C33.9751 11.1179 36.7751 11.4512 37.7751 11.1179C38.9751 10.3179 38.6084 9.1179 38.2751 8.6179Z" fill="#141313"/>
<path d="M26.2752 23.1179C20.6752 19.9179 18.9419 14.7846 18.7752 12.6179C15.1752 20.2179 19.6085 23.7846 22.2752 24.6179C26.2752 26.1179 29.1086 29.4512 30.7752 31.1179C30.3752 26.7179 27.6086 23.9512 26.2752 23.1179Z" fill="#161622"/>
<path d="M29.2751 15.6179C25.7751 12.6179 26.4694 9.25395 26.8692 7.11798C22.275 11.7682 24.5091 15.1228 26.8692 16.6179C27.6712 17.1179 29.3751 18.4179 29.7751 19.6179C30.0766 18.7846 30.3988 16.8179 29.2751 15.6179Z" fill="#141313"/>
<path d="M18.2751 4.6179H23.7751C21.3751 7.8179 19.1084 7.95123 18.2751 7.6179C17.4751 7.2179 17.2751 6.45123 17.2751 6.1179C17.2751 4.9179 17.9418 4.6179 18.2751 4.6179Z" fill="#141313"/>
</svg> -->

<svg width="145" height="45" viewBox="0 0 145 45" fill="none" xmlns="http://www.w3.org/2000/svg">
    <path d="M54.111 43.9439C54.2191 43.9439 54.3194 43.8435 54.4121 43.6427C54.5202 43.4265 54.5742 43.0636 54.5742 42.554V31.4352C54.5742 30.9411 54.5202 30.5859 54.4121 30.3697C54.3194 30.1535 54.2191 30.0454 54.111 30.0454H58.5816C58.4736 30.0454 58.3655 30.1535 58.2573 30.3697C58.1493 30.5705 58.0952 30.9333 58.0952 31.4584V42.554C58.0952 43.0481 58.1493 43.4034 58.2573 43.6196C58.3655 43.8357 58.4736 43.9439 58.5816 43.9439H54.111ZM60.8973 43.9439C61.0054 43.9439 61.1136 43.8357 61.2216 43.6196C61.3297 43.4034 61.3837 43.0481 61.3837 42.554V31.4352C61.3837 30.9411 61.3297 30.5936 61.2216 30.3929C61.1136 30.1767 61.0054 30.0609 60.8973 30.0454H66.364C66.2714 30.0609 66.225 30.1844 66.225 30.416C66.2405 30.6322 66.3718 30.9874 66.6188 31.4816C66.727 31.6824 66.8814 31.9989 67.0821 32.4313C67.2984 32.8637 67.5377 33.3656 67.8002 33.937C68.0782 34.5084 68.3639 35.1183 68.6573 35.7669C68.9662 36.4155 69.275 37.0641 69.5838 37.7127C69.8927 38.3613 70.1784 38.9713 70.4409 39.5427H70.4641C70.742 38.9713 71.0355 38.369 71.3443 37.7359C71.6686 37.0873 71.9852 36.4387 72.294 35.7901C72.6029 35.1415 72.8963 34.5315 73.1743 33.9601C73.4522 33.3733 73.6917 32.8637 73.8924 32.4313C74.0931 31.9835 74.2398 31.6514 74.3325 31.4352C74.5487 30.9411 74.6645 30.5859 74.6799 30.3697C74.6954 30.1535 74.6645 30.0454 74.5873 30.0454H80.054C79.946 30.0454 79.8378 30.1535 79.7297 30.3697C79.6217 30.5859 79.5676 30.9488 79.5676 31.4584V42.554C79.5676 43.0481 79.6217 43.4034 79.7297 43.6196C79.8378 43.8357 79.946 43.9439 80.054 43.9439H75.5833C75.6915 43.9439 75.7918 43.8357 75.8845 43.6196C75.9926 43.4034 76.0466 43.0481 76.0466 42.554V35.0488H76.0003C75.7533 35.5121 75.4907 36.0217 75.2127 36.5777C74.9347 37.1336 74.6491 37.6972 74.3556 38.2686C74.0777 38.8401 73.8075 39.396 73.5449 39.9365C73.2824 40.4769 73.0431 40.9712 72.8268 41.419C72.6106 41.8668 72.433 42.2452 72.294 42.554C72.0779 43.0328 71.962 43.3802 71.9466 43.5964C71.9466 43.8126 71.9852 43.9284 72.0624 43.9439H68.8194C68.8967 43.9284 68.9275 43.8126 68.9121 43.5964C68.9121 43.3802 68.804 43.0328 68.5878 42.554C68.4643 42.276 68.2944 41.9131 68.0782 41.4653C67.8775 41.0175 67.6458 40.531 67.3832 40.006C67.1362 39.4655 66.8736 38.9095 66.5957 38.3381C66.3177 37.7513 66.0397 37.1799 65.7618 36.624C65.4993 36.0526 65.2522 35.5276 65.0205 35.0488H64.951V42.554C64.951 43.0481 65.0051 43.4034 65.1132 43.6196C65.2213 43.8357 65.3294 43.9439 65.4375 43.9439H60.8973ZM82.388 43.9439C82.4961 43.9439 82.5967 43.8357 82.6893 43.6196C82.7969 43.4034 82.8515 43.0481 82.8515 42.554V31.4352C82.8515 30.9411 82.7969 30.5936 82.6893 30.3929C82.581 30.1767 82.4729 30.0609 82.3649 30.0454H89.9629C91.2749 30.0454 92.333 30.2384 93.1363 30.6245C93.9545 30.9951 94.5568 31.5356 94.9431 32.246C95.3287 32.9409 95.5223 33.7748 95.5223 34.7477C95.5223 35.7361 95.3287 36.5931 94.9431 37.3189C94.5568 38.0293 93.9545 38.5775 93.1363 38.9636C92.333 39.3342 91.2749 39.5195 89.9629 39.5195H86.4188V42.554C86.4188 43.0481 86.4725 43.4034 86.5809 43.6196C86.6885 43.8357 86.7968 43.9439 86.9052 43.9439H82.388ZM87.3685 36.9715H88.5267C89.4375 36.9715 90.1399 36.8943 90.6346 36.7398C91.1442 36.5854 91.4991 36.346 91.7002 36.0217C91.9004 35.6974 92.0013 35.2728 92.0013 34.7477C92.0013 34.2381 91.8929 33.8288 91.677 33.52C91.476 33.2112 91.136 32.9949 90.6578 32.8714C90.1945 32.7324 89.5608 32.6629 88.7583 32.6629H87.3685C86.8895 32.6629 86.6115 32.6938 86.5346 32.7556C86.4568 32.8019 86.4188 32.9795 86.4188 33.2884V36.3229C86.4188 36.6317 86.4568 36.817 86.5346 36.8788C86.6115 36.9406 86.8895 36.9715 87.3685 36.9715ZM104.795 44.1755C102.139 44.1755 100.216 43.5424 99.0275 42.276C97.8536 40.9943 97.267 39.2107 97.267 36.9251C97.267 35.4581 97.5218 34.1995 98.0314 33.1494C98.5559 32.0838 99.3667 31.2654 100.464 30.694C101.576 30.1072 103.019 29.8138 104.795 29.8138H105.513C107.258 29.8138 108.671 30.0994 109.752 30.6708C110.849 31.2422 111.652 32.0607 112.162 33.1262C112.671 34.1918 112.926 35.4581 112.926 36.9251C112.926 39.2107 112.339 40.9943 111.165 42.276C109.992 43.5424 108.108 44.1755 105.513 44.1755H104.795ZM105.027 41.6043H105.282C106.223 41.6043 106.996 41.4498 107.598 41.141C108.215 40.8322 108.671 40.3379 108.965 39.6585C109.258 38.9636 109.405 38.0525 109.405 36.9251C109.405 35.8287 109.25 34.9485 108.942 34.2844C108.648 33.605 108.192 33.1185 107.575 32.8251C106.973 32.5163 106.208 32.3618 105.282 32.3618H105.027C104.069 32.3618 103.274 32.524 102.641 32.8483C102.007 33.1571 101.537 33.6435 101.228 34.3076C100.934 34.9717 100.788 35.8441 100.788 36.9251C100.788 38.0525 100.942 38.9636 101.251 39.6585C101.576 40.3379 102.046 40.8322 102.664 41.141C103.297 41.4498 104.085 41.6043 105.027 41.6043ZM115.031 43.9439C115.138 43.9439 115.239 43.8357 115.332 43.6196C115.439 43.4034 115.494 43.0481 115.494 42.554V31.4352C115.494 30.9411 115.439 30.5936 115.332 30.3929C115.223 30.1767 115.115 30.0609 115.007 30.0454H122.605C123.964 30.0454 125.045 30.2152 125.848 30.555C126.666 30.8948 127.253 31.3966 127.609 32.0607C127.979 32.7093 128.165 33.52 128.165 34.4929C128.165 35.1878 128.033 35.8056 127.771 36.346C127.523 36.8865 127.176 37.3266 126.728 37.6664C126.28 38.0061 125.779 38.2532 125.223 38.4076V38.4771C125.84 38.7242 126.489 39.2107 127.169 39.9365C127.848 40.6469 128.457 41.4421 128.999 42.3224C129.353 42.8938 129.678 43.3029 129.971 43.5501C130.264 43.7972 130.488 43.9284 130.643 43.9439H124.806C124.991 43.9284 125.138 43.828 125.246 43.6427C125.369 43.4419 125.33 43.1176 125.13 42.6698C124.806 41.9286 124.412 41.2877 123.949 40.7472C123.485 40.2067 122.944 39.7975 122.327 39.5195C121.725 39.2261 121.03 39.0794 120.242 39.0794H119.988C119.509 39.0794 119.231 39.118 119.154 39.1952C119.076 39.2724 119.038 39.4655 119.038 39.7743V42.554C119.038 43.0481 119.092 43.4034 119.2 43.6196C119.308 43.8357 119.416 43.9439 119.524 43.9439H115.031ZM119.988 36.7398H121.887C122.86 36.7398 123.562 36.57 123.995 36.2302C124.427 35.8751 124.644 35.296 124.644 34.4929C124.644 34.1377 124.566 33.8211 124.412 33.5432C124.257 33.2652 123.995 33.049 123.624 32.8946C123.269 32.7401 122.767 32.6629 122.119 32.6629H119.988C119.509 32.6629 119.231 32.6861 119.154 32.7324C119.076 32.7788 119.038 32.9564 119.038 33.2652V36.1144C119.038 36.4232 119.076 36.6085 119.154 36.6703C119.231 36.7167 119.509 36.7398 119.988 36.7398ZM135.086 43.9439C135.194 43.9439 135.302 43.8357 135.41 43.6196C135.518 43.4034 135.572 43.0481 135.572 42.554V33.2884C135.572 32.9486 135.534 32.7479 135.456 32.6861C135.379 32.6243 135.109 32.5934 134.646 32.5934H132.955C132.059 32.5934 131.333 32.6938 130.777 32.8946C130.237 33.0799 129.882 33.2575 129.712 33.4274L130.175 30.7403V30.0454H144.537V30.7403L145 33.4274C144.83 33.2575 144.467 33.0799 143.911 32.8946C143.371 32.6938 142.653 32.5934 141.757 32.5934H140.089C139.611 32.5934 139.333 32.6243 139.255 32.6861C139.178 32.7479 139.139 32.9486 139.139 33.2884V42.554C139.139 43.0481 139.194 43.4034 139.302 43.6196C139.41 43.8357 139.518 43.9439 139.626 43.9439H135.086Z" fill="#FFFEFA"/>
    <path d="M54.2815 22.4343C54.3896 22.4343 54.4976 22.3262 54.6058 22.11C54.7139 21.8939 54.7679 21.5386 54.7679 21.0445V11.7788C54.7679 11.4391 54.7293 11.2384 54.6521 11.1766C54.5749 11.1148 54.3046 11.0839 53.8414 11.0839H52.1504C51.2547 11.0839 50.5289 11.1843 49.9729 11.3851C49.4325 11.5704 49.0772 11.748 48.9074 11.9178L49.3707 9.23079V8.53587H63.7324V9.23079L64.1957 11.9178C64.0259 11.748 63.6629 11.5704 63.107 11.3851C62.5665 11.1843 61.8484 11.0839 60.9527 11.0839H59.2849C58.8062 11.0839 58.5282 11.1148 58.451 11.1766C58.3738 11.2384 58.3352 11.4391 58.3352 11.7788V21.0445C58.3352 21.5386 58.3892 21.8939 58.4973 22.11C58.6055 22.3262 58.7135 22.4343 58.8216 22.4343H54.2815ZM65.6015 22.4343C65.7096 22.4343 65.81 22.3262 65.9026 22.11C66.0107 21.8939 66.0648 21.5386 66.0648 21.0445V9.92572C66.0648 9.43158 66.0107 9.08412 65.9026 8.88333C65.7945 8.66716 65.6864 8.55134 65.5783 8.53587H73.1762C74.5351 8.53587 75.6161 8.70571 76.4191 9.04548C77.2376 9.38525 77.8244 9.88708 78.1796 10.5511C78.5502 11.1997 78.7356 12.0105 78.7356 12.9834C78.7356 13.6783 78.6043 14.296 78.3418 14.8365C78.0947 15.377 77.7472 15.8171 77.2994 16.1569C76.8515 16.4966 76.3497 16.7437 75.7937 16.8981V16.9676C76.4114 17.2147 77.06 17.7012 77.7395 18.4269C78.419 19.1373 79.0289 19.9326 79.5695 20.8128C79.9246 21.3843 80.2489 21.7934 80.5424 22.0405C80.8357 22.2877 81.0597 22.4189 81.2141 22.4343H75.3768C75.5621 22.4189 75.7088 22.3185 75.8169 22.1332C75.9404 21.9324 75.9018 21.6081 75.7011 21.1603C75.3768 20.4191 74.983 19.7782 74.5197 19.2377C74.0564 18.6972 73.5159 18.288 72.8982 18.01C72.2959 17.7165 71.601 17.5699 70.8134 17.5699H70.5586C70.0799 17.5699 69.8019 17.6085 69.7247 17.6857C69.6475 17.7629 69.6089 17.956 69.6089 18.2648V21.0445C69.6089 21.5386 69.6629 21.8939 69.771 22.11C69.8791 22.3262 69.9872 22.4343 70.0953 22.4343H65.6015ZM70.5586 15.2303H72.4581C73.431 15.2303 74.1336 15.0605 74.566 14.7207C74.9984 14.3655 75.2146 13.7864 75.2146 12.9834C75.2146 12.6282 75.1373 12.3116 74.983 12.0336C74.8285 11.7557 74.566 11.5395 74.1954 11.3851C73.8402 11.2306 73.3383 11.1534 72.6897 11.1534H70.5586C70.0799 11.1534 69.8019 11.1766 69.7247 11.2229C69.6475 11.2692 69.6089 11.4469 69.6089 11.7557V14.6049C69.6089 14.9137 69.6475 15.099 69.7247 15.1608C69.8019 15.2071 70.0799 15.2303 70.5586 15.2303ZM88.7087 22.666C87.1493 22.666 85.867 22.4189 84.8635 21.9247C83.86 21.4306 83.1187 20.7202 82.6397 19.7936C82.161 18.8516 81.9217 17.732 81.9217 16.4348V9.90255C81.9217 9.40841 81.8676 9.06095 81.7595 8.86017C81.6669 8.644 81.5665 8.53587 81.4584 8.53587H85.9058C85.7975 8.55134 85.6899 8.65938 85.5815 8.86017C85.4889 9.06095 85.4426 9.40841 85.4426 9.90255V16.3885C85.4426 17.3769 85.5815 18.1413 85.8595 18.6817C86.1375 19.2222 86.5238 19.5928 87.0177 19.7936C87.5116 19.9944 88.0833 20.0948 88.7319 20.0948H88.9867C89.4963 20.0948 89.9438 20.0407 90.3302 19.9326C90.7314 19.8245 91.064 19.6392 91.3262 19.3767C91.6042 19.1142 91.8127 18.7435 91.9517 18.2648C92.1064 17.7707 92.1833 17.1452 92.1833 16.3885V9.90255C92.1833 9.40841 92.1295 9.06095 92.0212 8.86017C91.9285 8.644 91.8284 8.53587 91.72 8.53587H96.1675C96.0592 8.55134 95.9516 8.66716 95.8432 8.88333C95.7506 9.08412 95.7043 9.43158 95.7043 9.92572V16.4348C95.7043 17.732 95.4569 18.8516 94.963 19.7936C94.484 20.7202 93.7427 21.4306 92.7392 21.9247C91.7506 22.4189 90.4849 22.666 88.9403 22.666H88.7087ZM106.206 22.666C103.549 22.666 101.557 22.0946 100.23 20.9518C98.9166 19.7936 98.2606 17.9714 98.2606 15.4851C98.2606 14.0489 98.5311 12.7981 99.0713 11.7325C99.6115 10.6515 100.469 9.8099 101.643 9.20763C102.816 8.60536 104.337 8.30423 106.206 8.30423C107.673 8.30423 108.893 8.38142 109.866 8.53587C110.839 8.69033 111.495 8.8447 111.835 8.99915V9.69408L112.298 12.2421C112.004 12.0413 111.564 11.8329 110.978 11.6167C110.406 11.4005 109.719 11.2229 108.916 11.0839C108.113 10.9295 107.225 10.8523 106.252 10.8523C105.187 10.8523 104.322 11.0221 103.658 11.3619C103.009 11.7017 102.53 12.219 102.222 12.9139C101.928 13.5933 101.782 14.4504 101.782 15.4851C101.782 16.5198 101.928 17.3769 102.222 18.0563C102.53 18.7358 103.056 19.2454 103.797 19.5851C104.554 19.9249 105.596 20.0948 106.924 20.0948C108.252 20.0948 109.356 19.9094 110.236 19.5388C111.132 19.1682 111.742 18.813 112.066 18.4733V19.1682L112.298 21.5078C112.036 21.7549 111.395 22.0097 110.375 22.2722C109.372 22.5347 107.982 22.666 106.206 22.666ZM114.372 22.4343C114.48 22.4343 114.589 22.3262 114.696 22.11C114.805 21.8939 114.858 21.5386 114.858 21.0445V9.92572C114.858 9.43158 114.805 9.08412 114.696 8.88333C114.589 8.66716 114.48 8.55134 114.372 8.53587H118.912C118.805 8.53587 118.696 8.644 118.588 8.86017C118.48 9.07634 118.426 9.43927 118.426 9.94888V13.493C118.426 13.8328 118.472 14.0335 118.565 14.0953C118.657 14.1571 118.928 14.1879 119.375 14.1879H119.607C120.056 14.1879 120.549 14.0335 121.09 13.7246C121.646 13.4158 122.148 12.9525 122.595 12.3348C123.044 11.7017 123.352 10.9063 123.522 9.94888C123.615 9.43927 123.623 9.07634 123.545 8.86017C123.484 8.644 123.399 8.53587 123.29 8.53587H129.197C129.043 8.53587 128.812 8.644 128.502 8.86017C128.194 9.07634 127.877 9.43927 127.552 9.94888C127.151 10.582 126.796 11.1148 126.487 11.5472C126.178 11.9642 125.885 12.3271 125.607 12.6359C125.344 12.9447 125.051 13.2537 124.726 13.5625C124.309 13.9486 123.924 14.2574 123.568 14.489C123.229 14.7052 122.928 14.8597 122.665 14.9523V15.0218C123.035 15.099 123.445 15.238 123.892 15.4388C124.341 15.6396 124.85 15.9715 125.421 16.4348C126.194 17.0526 126.819 17.7243 127.298 18.4501C127.792 19.1605 128.302 19.9481 128.826 20.8128C129.182 21.3843 129.506 21.8012 129.799 22.0637C130.093 22.3108 130.317 22.4343 130.471 22.4343H124.634C124.804 22.4343 124.943 22.334 125.051 22.1332C125.159 21.9324 125.128 21.6081 124.958 21.1603C124.711 20.4654 124.41 19.8476 124.055 19.3072C123.7 18.7512 123.298 18.288 122.85 17.9173C122.403 17.5312 121.909 17.2456 121.368 17.0603C120.827 16.8595 120.248 16.7591 119.63 16.7591H119.375C118.897 16.7591 118.619 16.7978 118.542 16.8749C118.465 16.9367 118.426 17.1529 118.426 17.5235V21.0445C118.426 21.5386 118.48 21.8939 118.588 22.11C118.696 22.3262 118.805 22.4343 118.912 22.4343H114.372Z" fill="#FFFEFA"/>
    <path d="M3.95041 37.7392C1.96492 35.7537 1.7443 31.1209 1.88219 29.0526C1.88219 30.3763 5.19136 33.6027 8.91416 35.2573C11.396 36.4982 15.5325 39.8074 15.9461 44.3575H9.74145C9.74145 43.1166 6.43228 40.221 3.95041 37.7392Z" fill="#BCA134"/>
    <path d="M1.05492 44.3575H7.25959C6.43229 41.8756 1.8822 41.462 0.227633 38.1528C-0.434198 40.4692 0.503396 43.2545 1.05492 44.3575Z" fill="#BCA134"/>
    <path d="M10.5687 31.9483C17.518 35.5883 18.4281 41.7379 18.0144 44.3576C25.6255 38.4013 27.804 27.8119 27.9418 23.2616L29.5964 22.848C32.9055 22.4343 33.8707 23.951 34.9738 24.5025L36.6283 19.1253C32.6574 20.78 29.7343 19.2631 28.7691 18.2978C27.1145 14.6577 30.2858 14.575 32.0782 14.9887C33.071 15.9814 34.1465 15.9539 34.5601 15.816V17.8842L36.6283 15.816C41.2612 14.4923 41.5921 12.7826 41.1784 12.0932L38.2829 10.4387L41.1784 10.0249C39.8548 8.03943 36.2147 6.44002 34.5601 5.8885C33.3192 0.511184 18.8417 0.924638 16.3598 0.0975394C13.0507 -0.564292 11.396 2.30376 11.396 3.82046C12.0578 7.79141 11.1203 9.88727 10.5687 10.4387C7.59054 13.417 7.94901 15.8161 8.5005 16.6434C9.49325 18.9598 13.0506 21.4693 14.7052 22.4344C20.3307 24.7508 22.013 30.8452 22.1508 33.6028C19.5035 29.3009 14.1537 26.5709 11.8097 25.7436C8.08687 24.4297 6.15655 20.9178 4.77774 19.1253C3.12316 25.0818 7.67326 29.8799 10.5687 31.9483Z" fill="#BCA134"/>
    <path d="M30.0099 27.3981C29.5963 35.671 25.0462 41.5999 22.5643 44.3575H29.5963C32.9055 34.0164 32.0782 29.88 30.0099 27.3981Z" fill="#BCA134"/>
    <path d="M34.5602 31.1209C35.3875 36.4983 33.7329 42.2893 32.0784 44.3575H36.6284C38.6967 35.671 36.047 32.2975 34.5602 31.1209Z" fill="#BCA134"/>
    <path d="M39.5239 36.4983C40.3512 40.2211 39.9375 42.7029 38.6966 44.3575H44.074C44.074 40.3865 40.6269 37.1877 39.5239 36.4983Z" fill="#BCA134"/>
    <path d="M31.6646 6.30223C30.6719 5.30948 27.1145 5.06129 25.46 5.06129C28.1073 8.37045 30.4237 8.64619 31.251 8.37045C32.2437 7.70862 31.9404 6.71587 31.6646 6.30223Z" fill="#141313"/>
    <path d="M21.7371 18.2979C17.1043 15.6506 15.6703 11.4038 15.5324 9.61136C12.5542 15.8988 16.2218 18.8494 18.4279 19.5388C21.7371 20.7798 24.0811 23.5374 25.4599 24.9162C25.129 21.2761 22.8402 18.9873 21.7371 18.2979Z" fill="#161622"/>
    <path d="M24.2191 12.0932C21.3236 9.61137 21.898 6.82841 22.2287 5.06134C18.428 8.90843 20.2762 11.6836 22.2287 12.9205C22.8922 13.3342 24.3018 14.4096 24.6327 15.4024C24.8822 14.713 25.1487 13.086 24.2191 12.0932Z" fill="#141313"/>
    <path d="M15.1189 2.99307H19.669C17.6835 5.6404 15.8082 5.7507 15.1189 5.47494C14.457 5.14402 14.2916 4.50977 14.2916 4.23401C14.2916 3.24126 14.8431 2.99307 15.1189 2.99307Z" fill="#141313"/>
    </svg>
