<svg width="87" height="87" viewBox="0 0 87 87" fill="none" xmlns="http://www.w3.org/2000/svg">
    <g clip-path="url(#clip0_2060_155)">
    <path d="M46.2188 38.0625V13.5938C46.2188 10.6031 43.7719 8.15625 40.7812 8.15625H13.5938C10.6031 8.15625 8.15625 10.6031 8.15625 13.5938V67.9688C8.15625 70.9594 10.6031 73.4062 13.5938 73.4062H19.0312" stroke="#AB922A" stroke-width="3" stroke-miterlimit="10" stroke-linecap="round" stroke-linejoin="round"/>
    <path d="M35.3438 8.15625V11.6906C35.3438 14.1375 33.1688 16.3125 30.7219 16.3125H23.6531C21.2062 16.3125 19.0312 14.1375 19.0312 11.6906V8.15625" stroke="#AB922A" stroke-width="3" stroke-miterlimit="10" stroke-linecap="round" stroke-linejoin="round"/>
    <path d="M76.125 78.8438H24.4688C21.4781 78.8438 19.0312 76.3969 19.0312 73.4062V43.5C19.0312 40.5094 21.4781 38.0625 24.4688 38.0625H76.125C79.1156 38.0625 81.5625 40.5094 81.5625 43.5V73.4062C81.5625 76.3969 79.1156 78.8438 76.125 78.8438Z" stroke="#AB922A" stroke-width="3" stroke-miterlimit="10" stroke-linecap="round" stroke-linejoin="round"/>
    <path d="M19.0312 48.9375H81.5625" stroke="#AB922A" stroke-width="3" stroke-miterlimit="10" stroke-linecap="round" stroke-linejoin="round"/>
    <path d="M59.8125 67.9688C61.314 67.9688 62.5312 66.7515 62.5312 65.25C62.5312 63.7485 61.314 62.5312 59.8125 62.5312C58.311 62.5312 57.0938 63.7485 57.0938 65.25C57.0938 66.7515 58.311 67.9688 59.8125 67.9688Z" stroke="#AB922A" stroke-width="3" stroke-miterlimit="10" stroke-linecap="round" stroke-linejoin="round"/>
    <path d="M67.4248 67.9688C68.9263 67.9688 70.1436 66.7515 70.1436 65.25C70.1436 63.7485 68.9263 62.5312 67.4248 62.5312C65.9233 62.5312 64.7061 63.7485 64.7061 65.25C64.7061 66.7515 65.9233 67.9688 67.4248 67.9688Z" stroke="#AB922A" stroke-width="3" stroke-miterlimit="10" stroke-linecap="round" stroke-linejoin="round"/>
    </g>
    <defs>
    <clipPath id="clip0_2060_155">
    <rect width="87" height="87" fill="white"/>
    </clipPath>
    </defs>
    </svg>
