<svg width="88" height="87" viewBox="0 0 88 87" fill="none" xmlns="http://www.w3.org/2000/svg">
<g clip-path="url(#clip0_23_1884)">
<path d="M40.375 68.875V58C40.375 55.1158 39.2292 52.3497 37.1898 50.3102C35.1503 48.2708 32.3842 47.125 29.5 47.125H18.625C15.7408 47.125 12.9747 48.2708 10.9352 50.3102C8.89576 52.3497 7.75 55.1158 7.75 58V68.875C7.75 71.7592 8.89576 74.5253 10.9352 76.5648C12.9747 78.6042 15.7408 79.75 18.625 79.75H29.5C32.3842 79.75 35.1503 78.6042 37.1898 76.5648C39.2292 74.5253 40.375 71.7592 40.375 68.875ZM11.375 68.875V58C11.375 56.0772 12.1388 54.2331 13.4985 52.8735C14.8581 51.5138 16.7022 50.75 18.625 50.75H29.5C31.4228 50.75 33.2669 51.5138 34.6265 52.8735C35.9862 54.2331 36.75 56.0772 36.75 58V68.875C36.75 70.7978 35.9862 72.6419 34.6265 74.0015C33.2669 75.3612 31.4228 76.125 29.5 76.125H18.625C16.7022 76.125 14.8581 75.3612 13.4985 74.0015C12.1388 72.6419 11.375 70.7978 11.375 68.875ZM80.25 58C80.25 55.1158 79.1042 52.3497 77.0648 50.3102C75.0253 48.2708 72.2592 47.125 69.375 47.125H58.5C55.6158 47.125 52.8497 48.2708 50.8102 50.3102C48.7708 52.3497 47.625 55.1158 47.625 58V68.875C47.625 71.7592 48.7708 74.5253 50.8102 76.5648C52.8497 78.6042 55.6158 79.75 58.5 79.75H69.375C72.2592 79.75 75.0253 78.6042 77.0648 76.5648C79.1042 74.5253 80.25 71.7592 80.25 68.875V58ZM76.625 68.875C76.625 70.7978 75.8612 72.6419 74.5015 74.0015C73.1419 75.3612 71.2978 76.125 69.375 76.125H58.5C56.5772 76.125 54.7331 75.3612 53.3735 74.0015C52.0138 72.6419 51.25 70.7978 51.25 68.875V58C51.25 56.0772 52.0138 54.2331 53.3735 52.8735C54.7331 51.5138 56.5772 50.75 58.5 50.75H69.375C71.2978 50.75 73.1419 51.5138 74.5015 52.8735C75.8612 54.2331 76.625 56.0772 76.625 58V68.875ZM80.25 18.125C80.25 15.2408 79.1042 12.4747 77.0648 10.4352C75.0253 8.39576 72.2592 7.25 69.375 7.25H58.5C55.6158 7.25 52.8497 8.39576 50.8102 10.4352C48.7708 12.4747 47.625 15.2408 47.625 18.125V29C47.625 31.8842 48.7708 34.6503 50.8102 36.6898C52.8497 38.7292 55.6158 39.875 58.5 39.875H69.375C72.2592 39.875 75.0253 38.7292 77.0648 36.6898C79.1042 34.6503 80.25 31.8842 80.25 29V18.125ZM76.625 29C76.625 30.9228 75.8612 32.7669 74.5015 34.1265C73.1419 35.4862 71.2978 36.25 69.375 36.25H58.5C56.5772 36.25 54.7331 35.4862 53.3735 34.1265C52.0138 32.7669 51.25 30.9228 51.25 29V18.125C51.25 16.2022 52.0138 14.3581 53.3735 12.9985C54.7331 11.6388 56.5772 10.875 58.5 10.875H69.375C71.2978 10.875 73.1419 11.6388 74.5015 12.9985C75.8612 14.3581 76.625 16.2022 76.625 18.125V29ZM7.75 18.125V29C7.75 31.8842 8.89576 34.6503 10.9352 36.6898C12.9747 38.7292 15.7408 39.875 18.625 39.875H29.5C32.3842 39.875 35.1503 38.7292 37.1898 36.6898C39.2292 34.6503 40.375 31.8842 40.375 29V18.125C40.375 15.2408 39.2292 12.4747 37.1898 10.4352C35.1503 8.39576 32.3842 7.25 29.5 7.25H18.625C15.7408 7.25 12.9747 8.39576 10.9352 10.4352C8.89576 12.4747 7.75 15.2408 7.75 18.125ZM11.375 18.125C11.375 16.2022 12.1388 14.3581 13.4985 12.9985C14.8581 11.6388 16.7022 10.875 18.625 10.875H29.5C31.4228 10.875 33.2669 11.6388 34.6265 12.9985C35.9862 14.3581 36.75 16.2022 36.75 18.125V29C36.75 30.9228 35.9862 32.7669 34.6265 34.1265C33.2669 35.4862 31.4228 36.25 29.5 36.25H18.625C16.7022 36.25 14.8581 35.4862 13.4985 34.1265C12.1388 32.7669 11.375 30.9228 11.375 29V18.125ZM34.9375 58.8628L22.4566 71.2965L15.8519 64.6918L18.5271 62.0165L22.4566 65.9605L32.2623 56.1875L34.9375 58.8628Z" fill="#AB922A"/>
</g>
<defs>
<clipPath id="clip0_23_1884">
<rect width="87" height="87" fill="white" transform="translate(0.5)"/>
</clipPath>
</defs>
</svg>
