<svg width="84" height="87" viewBox="0 0 84 87" fill="none" xmlns="http://www.w3.org/2000/svg">
    <path d="M22.7183 19.4452C23.0408 16.2123 24.1714 13.1125 26.006 10.4312C27.8406 7.74988 30.3202 5.57314 33.2166 4.10134C36.113 2.62956 39.333 1.91003 42.5807 2.00899C45.828 2.10795 48.9982 3.02222 51.7996 4.66763C54.601 6.31308 56.9435 8.63676 58.6114 11.4249C60.2793 14.2129 61.2191 17.3758 61.3442 20.6223C61.4692 23.8687 60.7758 27.0945 59.3273 30.0027C57.9062 32.8562 55.803 35.3138 53.2056 37.1586" stroke="#AB922A" stroke-width="3.6" stroke-linecap="round" stroke-linejoin="round"/>
    <path d="M25.3618 11.5997C28.3591 14.6941 31.9482 17.154 35.9154 18.8332C39.8827 20.5123 44.1472 21.3765 48.4553 21.3741C52.6923 21.3783 56.8871 20.544 60.7984 18.9203" stroke="#AB922A" stroke-width="3.6" stroke-linecap="round" stroke-linejoin="round"/>
    <path d="M37.8426 35.2059C36.7486 35.2059 35.6789 35.5304 34.769 36.1384C33.8591 36.7463 33.15 37.6105 32.7312 38.6215C32.3124 39.6321 32.2029 40.7446 32.4164 41.8179C32.6298 42.8912 33.1568 43.8772 33.9305 44.6506C34.7043 45.4245 35.69 45.9516 36.7633 46.1651C37.8367 46.3783 38.9491 46.2688 39.9601 45.8501C40.9711 45.4315 41.8349 44.7222 42.4428 43.8123C43.051 42.9027 43.3752 41.8327 43.3752 40.7387C43.3752 39.2714 42.7925 37.8639 41.7549 36.8263C40.7173 35.7888 39.3102 35.2059 37.8426 35.2059Z" stroke="#AB922A" stroke-width="3.6" stroke-linecap="round" stroke-linejoin="round"/>
    <path d="M15.7124 25.697V29.6732C15.7124 32.6079 16.8782 35.4224 18.9534 37.4976C21.0285 39.5727 23.843 40.7386 26.7777 40.7386H32.0273" stroke="#AB922A" stroke-width="3.6" stroke-linecap="round" stroke-linejoin="round"/>
    <path d="M77.9625 85C77.9628 78.422 76.157 71.9705 72.7422 66.3486C69.3415 60.7492 64.4749 56.1866 58.6689 53.1539" stroke="#AB922A" stroke-width="3.6" stroke-linecap="round" stroke-linejoin="round"/>
    <path d="M6.03711 84.9998C6.03637 78.4225 7.84098 71.9718 11.2542 66.3495C14.6504 60.7556 19.5097 56.196 25.3068 53.1622" stroke="#AB922A" stroke-width="3.6" stroke-linecap="round" stroke-linejoin="round"/>
    </svg>
