<svg width="32" height="32" viewBox="0 0 32 32" fill="none" xmlns="http://www.w3.org/2000/svg">
<path d="M16 1.27979C24.1299 1.27979 30.72 7.86986 30.72 15.9998C30.72 24.1297 24.1299 30.7198 16 30.7198C7.87011 30.7198 1.28003 24.1297 1.28003 15.9998C1.28003 7.86986 7.87011 1.27979 16 1.27979ZM21.0778 21.9998C21.3485 21.1691 22.617 12.89 22.7738 11.2587C22.8211 10.7646 22.665 10.4363 22.3591 10.2897C21.9891 10.1118 21.4413 10.2007 20.8058 10.4299C19.9341 10.7441 8.79043 15.4756 8.14659 15.7495C7.53603 16.0087 6.95875 16.2916 6.95875 16.7012C6.95875 16.9892 7.12963 17.1511 7.60067 17.3195C8.09091 17.4942 9.32547 17.8686 10.0544 18.0695C10.7565 18.2635 11.5559 18.0951 12.0039 17.8167C12.4787 17.5217 17.9591 13.8545 18.3527 13.5332C18.7456 13.2119 19.0592 13.6235 18.7379 13.9454C18.4167 14.2667 14.6547 17.9179 14.1587 18.4235C13.5565 19.0372 13.984 19.6734 14.3879 19.9281C14.8493 20.2187 18.1677 22.4446 18.6675 22.8017C19.1674 23.1588 19.6743 23.3207 20.1383 23.3207C20.6023 23.3207 20.8467 22.7095 21.0778 21.9998Z" fill="#BCA134"/>
</svg>
