<svg width="96" height="87" viewBox="0 0 96 87" fill="none" xmlns="http://www.w3.org/2000/svg">
<g clip-path="url(#clip0_4_91)">
<path d="M94.4842 4.04651H20.7158C19.8787 4.04651 19.2 4.72589 19.2 5.56395C19.2 6.40201 19.8787 7.08139 20.7158 7.08139H94.4842C95.3214 7.08139 96 6.40201 96 5.56395C96 4.72589 95.3214 4.04651 94.4842 4.04651Z" fill="#FF314A"/>
<path d="M94.4842 4.04651H20.7158C19.8787 4.04651 19.2 4.72589 19.2 5.56395C19.2 6.40201 19.8787 7.08139 20.7158 7.08139H94.4842C95.3214 7.08139 96 6.40201 96 5.56395C96 4.72589 95.3214 4.04651 94.4842 4.04651Z" fill="#AB922A"/>
<path d="M53.0526 28.3256H20.7158C19.8787 28.3256 19.2 29.0049 19.2 29.843C19.2 30.6811 19.8787 31.3604 20.7158 31.3604H53.0526C53.8898 31.3604 54.5684 30.6811 54.5684 29.843C54.5684 29.0049 53.8898 28.3256 53.0526 28.3256Z" fill="#AB922A"/>
<path d="M61.1369 54.6279H20.7158C19.8787 54.6279 19.2 55.3073 19.2 56.1454C19.2 56.9834 19.8787 57.6628 20.7158 57.6628H61.1369C61.974 57.6628 62.6526 56.9834 62.6526 56.1454C62.6526 55.3073 61.974 54.6279 61.1369 54.6279Z" fill="#AB922A"/>
<path d="M83.3684 80.9302H20.7158C19.8787 80.9302 19.2 81.6096 19.2 82.4476C19.2 83.2857 19.8787 83.9651 20.7158 83.9651H83.3684C84.2056 83.9651 84.8842 83.2857 84.8842 82.4476C84.8842 81.6096 84.2056 80.9302 83.3684 80.9302Z" fill="#AB922A"/>
<path d="M5.05266 8.85174C7.14553 8.85174 8.84213 7.15328 8.84213 5.05813C8.84213 2.96298 7.14553 1.26453 5.05266 1.26453C2.95979 1.26453 1.26318 2.96298 1.26318 5.05813C1.26318 7.15328 2.95979 8.85174 5.05266 8.85174Z" stroke="#AB922A" strokeWidth="2.5"/>
<path d="M5.05266 33.1308C7.14553 33.1308 8.84213 31.4323 8.84213 29.3372C8.84213 27.242 7.14553 25.5436 5.05266 25.5436C2.95979 25.5436 1.26318 27.242 1.26318 29.3372C1.26318 31.4323 2.95979 33.1308 5.05266 33.1308Z" stroke="#AB922A" strokeWidth="2.5"/>
<path d="M5.05266 59.4332C7.14553 59.4332 8.84213 57.7347 8.84213 55.6396C8.84213 53.5444 7.14553 51.8459 5.05266 51.8459C2.95979 51.8459 1.26318 53.5444 1.26318 55.6396C1.26318 57.7347 2.95979 59.4332 5.05266 59.4332Z" stroke="#AB922A" strokeWidth="2.5"/>
<path d="M5.05266 85.7354C7.14553 85.7354 8.84213 84.0369 8.84213 81.9418C8.84213 79.8466 7.14553 78.1482 5.05266 78.1482C2.95979 78.1482 1.26318 79.8466 1.26318 81.9418C1.26318 84.0369 2.95979 85.7354 5.05266 85.7354Z" stroke="#AB922A" strokeWidth="2.5"/>
</g>
<defs>
<clipPath id="clip0_4_91">
<rect width="96" height="87" fill="white"/>
</clipPath>
</defs>
</svg>
