<svg width="96" height="87" viewBox="0 0 96 87" fill="none" xmlns="http://www.w3.org/2000/svg">
<g clip-path="url(#clip0_4_89)">
<path fill-rule="evenodd" clip-rule="evenodd" d="M19.9681 34.9919C28.7635 34.9919 35.8936 27.846 35.8936 19.0313C35.8936 10.2164 28.7635 3.07059 19.9681 3.07059C11.1727 3.07059 4.04255 10.2164 4.04255 19.0313C4.04255 27.846 11.1727 34.9919 19.9681 34.9919ZM19.9681 38.0625C30.4556 38.0625 38.9574 29.5419 38.9574 19.0313C38.9574 8.52059 30.4556 0 19.9681 0C9.48056 0 0.978729 8.52059 0.978729 19.0313C0.978729 29.5419 9.48056 38.0625 19.9681 38.0625ZM76.0319 83.9294C84.8273 83.9294 91.9575 76.7835 91.9575 67.9687C91.9575 59.154 84.8273 52.0081 76.0319 52.0081C67.2365 52.0081 60.1064 59.154 60.1064 67.9687C60.1064 76.7835 67.2365 83.9294 76.0319 83.9294ZM76.0319 87C86.5195 87 95.0213 78.4794 95.0213 67.9687C95.0213 57.4581 86.5195 48.9375 76.0319 48.9375C65.5444 48.9375 57.0426 57.4581 57.0426 67.9687C57.0426 78.4794 65.5444 87 76.0319 87ZM72.1888 1.17972C71.5401 0.804337 70.7105 1.0271 70.336 1.67728L22.4105 84.8698C22.0359 85.52 22.2582 86.3514 22.9069 86.7268C23.5557 87.1021 24.3852 86.8794 24.7598 86.2292L72.6854 3.03666C73.0599 2.38648 72.8376 1.5551 72.1888 1.17972Z" fill="#AB922A"/>
</g>
<defs>
<clipPath id="clip0_4_89">
<rect width="96" height="87" fill="white"/>
</clipPath>
</defs>
</svg>
