<svg width="68" height="87" viewBox="0 0 68 87" fill="none" xmlns="http://www.w3.org/2000/svg">
<g clip-path="url(#clip0_4_87)">
<path fill-rule="evenodd" clip-rule="evenodd" d="M7.5 0C3.91015 0 1 2.91015 1 6.5V18.5H4V6.5C4 4.567 5.567 3 7.5 3H61C62.933 3 64.5 4.567 64.5 6.5V80C64.5 81.933 62.933 83.5 61 83.5H7.5C5.567 83.5 4 81.933 4 80V33.5H1V80C1 83.5899 3.91015 86.5 7.5 86.5H61C64.5899 86.5 67.5 83.5899 67.5 80V6.5C67.5 2.91015 64.5898 0 61 0H7.5ZM45.5 28.5C45.5 34.8513 40.3513 40 34 40C27.6487 40 22.5 34.8513 22.5 28.5C22.5 22.1487 27.6487 17 34 17C40.3513 17 45.5 22.1487 45.5 28.5ZM48.5 28.5C48.5 36.5081 42.0081 43 34 43C25.9919 43 19.5 36.5081 19.5 28.5C19.5 20.4919 25.9919 14 34 14C42.0081 14 48.5 20.4919 48.5 28.5ZM19.5 57.5C19.5 56.6716 20.1716 56 21 56H48C48.8284 56 49.5 56.6716 49.5 57.5C49.5 58.3284 48.8284 59 48 59H21C20.1716 59 19.5 58.3284 19.5 57.5ZM31.1086 28.3741L32.724 29.9895L37.6525 25.061C38.2383 24.4752 39.1881 24.4752 39.7739 25.061C40.3596 25.6468 40.3596 26.5965 39.7739 27.1823L33.7954 33.1608C33.4984 33.4578 33.1078 33.6042 32.7185 33.6C32.3329 33.6014 31.9468 33.4549 31.6525 33.1607L28.9873 30.4955C28.4015 29.9097 28.4015 28.9599 28.9873 28.3741C29.5731 27.7884 30.5228 27.7884 31.1086 28.3741ZM21 67C20.1716 67 19.5 67.6716 19.5 68.5C19.5 69.3284 20.1716 70 21 70H48C48.8284 70 49.5 69.3284 49.5 68.5C49.5 67.6716 48.8284 67 48 67H21Z" fill="#AB922A"/>
</g>
<defs>
<clipPath id="clip0_4_87">
<rect width="67" height="87" fill="white" transform="translate(0.5)"/>
</clipPath>
</defs>
</svg>
