<svg width="32" height="32" viewBox="0 0 32 32" fill="none" xmlns="http://www.w3.org/2000/svg">
<path d="M16 1.27979C7.88352 1.27979 1.28 7.8833 1.28 15.9998C1.28 18.5342 1.93472 21.0263 3.17632 23.2254L1.30368 29.907C1.24224 30.1265 1.30176 30.362 1.46048 30.5252C1.58272 30.6513 1.74912 30.7198 1.92 30.7198C1.9712 30.7198 2.02304 30.7134 2.0736 30.7012L9.04704 28.9739C11.1763 30.1169 13.5744 30.7198 16 30.7198C24.1165 30.7198 30.72 24.1163 30.72 15.9998C30.72 7.8833 24.1165 1.27979 16 1.27979ZM23.4048 21.194C23.0899 22.0657 21.5795 22.8612 20.8538 22.9681C20.2022 23.0635 19.3779 23.1044 18.473 22.8203C17.9245 22.6475 17.2205 22.4183 16.3187 22.0337C12.528 20.4171 10.0525 16.6481 9.86304 16.3991C9.67424 16.1502 8.32 14.3761 8.32 12.5399C8.32 10.7038 9.296 9.80074 9.64288 9.42698C9.98976 9.05322 10.3987 8.95978 10.6509 8.95978C10.903 8.95978 11.1546 8.96298 11.3754 8.97322C11.6077 8.98474 11.9194 8.88554 12.2259 9.61386C12.5408 10.3614 13.2966 12.1975 13.3901 12.3851C13.4848 12.5719 13.5475 12.7902 13.4221 13.0391C13.2966 13.2881 13.2339 13.4436 13.0445 13.6619C12.855 13.8801 12.6477 14.1483 12.4774 14.3159C12.288 14.5022 12.0915 14.7038 12.3117 15.0775C12.5318 15.4513 13.2902 16.6731 14.4141 17.6625C15.8573 18.9335 17.0752 19.3278 17.4528 19.5147C17.8304 19.7015 18.0512 19.6702 18.2714 19.4212C18.4915 19.1716 19.216 18.3313 19.4675 17.9582C19.719 17.5851 19.9712 17.6465 20.3181 17.7713C20.665 17.8955 22.5229 18.7979 22.9005 18.9847C23.2781 19.1716 23.5302 19.2651 23.625 19.4206C23.7197 19.5755 23.7197 20.323 23.4048 21.194Z" fill="#BCA134"/>
</svg>
