<svg width="71" height="71" viewBox="0 0 71 71" fill="none" xmlns="http://www.w3.org/2000/svg">
<rect width="71" height="71" rx="5" fill="#141313"/>
<path d="M16.9504 50.7391C14.965 48.7537 14.7443 44.1208 14.8822 42.0526C14.8822 43.3763 18.1914 46.6027 21.9142 48.2573C24.3961 49.4982 28.5325 52.8074 28.9462 57.3575H22.7415C22.7415 56.1165 19.4323 53.221 16.9504 50.7391Z" fill="#BCA134"/>
<path d="M14.0549 57.3575H20.2596C19.4323 54.8756 14.8822 54.462 13.2276 51.1528C12.5658 53.4692 13.5034 56.2545 14.0549 57.3575Z" fill="#BCA134"/>
<path d="M23.5687 44.9483C30.5179 48.5883 31.428 54.7379 31.0144 57.3576C38.6254 51.4013 40.8039 40.8119 40.9418 36.2616L42.5963 35.848C45.9055 35.4343 46.8707 36.951 47.9737 37.5025L49.6283 32.1253C45.6573 33.78 42.7342 32.2631 41.769 31.2978C40.1145 27.6577 43.2858 27.575 45.0782 27.9887C46.0709 28.9814 47.1464 28.9539 47.5601 28.816V30.8842L49.6283 28.816C54.2611 27.4923 54.592 25.7826 54.1784 25.0932L51.2829 23.4387L54.1784 23.0249C52.8547 21.0394 49.2146 19.44 47.5601 18.8885C46.3191 13.5112 31.8417 13.9246 29.3598 13.0975C26.0506 12.4357 24.396 15.3038 24.396 16.8205C25.0578 20.7914 24.1202 22.8873 23.5687 23.4387C20.5905 26.417 20.949 28.8161 21.5005 29.6434C22.4932 31.9598 26.0505 34.4693 27.7051 35.4344C33.3307 37.7508 35.0129 43.8452 35.1507 46.6028C32.5034 42.3009 27.1537 39.5709 24.8096 38.7436C21.0868 37.4297 19.1565 33.9178 17.7777 32.1253C16.1231 38.0818 20.6732 42.8799 23.5687 44.9483Z" fill="#BCA134"/>
<path d="M43.0099 40.3981C42.5963 48.671 38.0462 54.5999 35.5643 57.3575H42.5963C45.9054 47.0164 45.0782 42.8799 43.0099 40.3981Z" fill="#BCA134"/>
<path d="M47.5602 44.1208C48.3875 49.4982 46.7329 55.2893 45.0784 57.3575H49.6285C51.6967 48.6709 49.047 45.2974 47.5602 44.1208Z" fill="#BCA134"/>
<path d="M52.5239 49.4983C53.3512 53.2211 52.9376 55.703 51.6967 57.3575H57.074C57.074 53.3865 53.627 50.1877 52.5239 49.4983Z" fill="#BCA134"/>
<path d="M44.6646 19.3022C43.6719 18.3095 40.1145 18.0613 38.46 18.0613C41.1073 21.3704 43.4237 21.6462 44.251 21.3704C45.2437 20.7086 44.9404 19.7159 44.6646 19.3022Z" fill="#141313"/>
<path d="M34.7371 31.2979C30.1042 28.6505 28.6703 24.4038 28.5324 22.6113C25.5541 28.8987 29.2218 31.8494 31.4279 32.5388C34.7371 33.7797 37.0811 36.5373 38.4599 37.9162C38.1289 34.2761 35.8402 31.9872 34.7371 31.2979Z" fill="#161622"/>
<path d="M37.2191 25.0932C34.3236 22.6114 34.898 19.8284 35.2287 18.0613C31.428 21.9084 33.2762 24.6836 35.2287 25.9205C35.8922 26.3342 37.3018 27.4096 37.6327 28.4024C37.8822 27.713 38.1487 26.086 37.2191 25.0932Z" fill="#141313"/>
<path d="M28.1189 15.993H32.669C30.6835 18.6404 28.8083 18.7507 28.1189 18.4749C27.4571 18.144 27.2916 17.5097 27.2916 17.234C27.2916 16.2412 27.8432 15.993 28.1189 15.993Z" fill="#141313"/>
</svg>
