<svg width="88" height="87" viewBox="0 0 88 87" fill="none" xmlns="http://www.w3.org/2000/svg">
<g clip-path="url(#clip0_569_1263)">
<path d="M83.7438 61.9562C82.5998 60.9358 81.1637 60.4655 79.7008 60.6335C77.2443 60.9145 74.0277 61.5779 70.6221 62.2803C66.0235 63.2288 61.2685 64.2095 57.6278 64.437C54.483 64.633 48.7559 63.8137 47.0592 62.9249C45.9147 62.3254 45.2744 61.5902 44.9158 60.9401H51.9738C54.8856 60.9401 57.2544 58.5713 57.2544 55.6597V51.513C57.2544 48.6013 54.8856 46.2327 51.9738 46.2327H32.6266C31.8046 46.2074 21.9334 46.0216 15.0977 51.8524C13.8879 52.8843 12.9256 53.8594 12.1583 54.7455C11.3466 53.7311 10.0992 53.0794 8.70182 53.0794H2.39489C1.34837 53.0794 0.5 53.9278 0.5 54.9743V81.7439C0.5 82.2465 0.699776 82.7285 1.05493 83.0839C1.41045 83.4392 1.89248 83.6388 2.39489 83.6388L8.70164 83.6386C11.1424 83.6386 13.1281 81.653 13.1281 79.2123V77.756C15.0142 77.8744 19.2885 78.341 28.3344 80.0394C39.0169 82.0453 45.6826 82.7251 50.9343 82.7249C54.6981 82.7249 57.7363 82.3759 61.0045 81.9155C65.0446 81.3469 70.126 79.9095 74.6091 78.6413C76.6845 78.0543 78.6447 77.4999 80.3793 77.0624C85.0536 75.8835 85.7516 72.9361 85.7516 71.2839V66.4566C85.7516 64.7602 85.0009 63.0778 83.7438 61.9562ZM9.33851 79.2123C9.33851 79.5633 9.05283 79.8488 8.70182 79.8488L4.28979 79.849V56.8694H8.70164C9.05265 56.8694 9.33833 57.1549 9.33833 57.5059V79.2123H9.33851ZM81.9619 71.2841C81.9619 71.6865 81.9619 72.7549 79.4528 73.3876C77.6657 73.8384 75.68 74.4 73.5778 74.9947C69.2108 76.23 64.2612 77.63 60.4763 78.1627C53.02 79.2127 46.8031 79.6512 29.0337 76.315C19.8951 74.5991 15.3592 74.0804 13.1281 73.9615V59.8922C13.1958 59.8075 13.2584 59.7175 13.3124 59.6191C13.7978 58.7334 14.9949 56.9213 17.5571 54.7359C23.3993 49.7527 32.4311 50.0182 32.5201 50.0212C32.5446 50.0221 32.5692 50.0227 32.5937 50.0227H51.974C52.796 50.0227 53.4648 50.6913 53.4648 51.5131V55.6599C53.4648 56.4819 52.796 57.1505 51.974 57.1505H32.5937C31.5472 57.1505 30.6988 57.9989 30.6988 59.0454C30.6988 60.092 31.5472 60.9403 32.5937 60.9403H40.891C41.2806 62.4941 42.3557 64.7395 45.3007 66.2821C47.9942 67.6932 54.6748 68.4199 57.864 68.2196C61.7719 67.9756 66.6603 66.9673 71.3878 65.9921C74.7077 65.3072 77.8434 64.6604 80.1316 64.3988C80.6138 64.3443 80.9899 64.578 81.221 64.7844C81.678 65.1921 81.962 65.8331 81.962 66.457V71.2841H81.9619Z" fill="#AB922A"/>
<path d="M82.6412 3.36121H16.0862C13.4066 3.36121 11.2266 5.54124 11.2266 8.2208V39.4228C11.2266 42.1026 13.4066 44.2828 16.0862 44.2828H82.6412C85.3207 44.2828 87.5007 42.1026 87.5007 39.4228V8.22062C87.5007 5.54124 85.3207 3.36121 82.6412 3.36121ZM73.2407 40.4928H25.4906C24.9885 34.8432 20.596 30.2983 15.0165 29.5596V17.5671C20.4246 16.851 24.7168 12.5588 25.4327 7.15081H73.2986C74.0145 12.5578 78.3047 16.8492 83.711 17.5668V29.56C78.1335 30.3003 73.7427 34.8446 73.2407 40.4928ZM83.711 8.22062V13.7299C80.3978 13.0818 77.7819 10.4647 77.1351 7.15081H82.6412C83.2311 7.15099 83.711 7.63085 83.711 8.22062ZM16.0862 7.15099H21.596C20.9492 10.4662 18.3315 13.0838 15.0164 13.7308V8.22062C15.0165 7.63085 15.4964 7.15099 16.0862 7.15099ZM15.0165 39.4228V33.3962C18.5021 34.0764 21.2159 36.9353 21.6792 40.4928H16.0862C15.4964 40.4928 15.0165 40.0128 15.0165 39.4228ZM82.6412 40.4928H77.0521C77.5152 36.9366 80.2271 34.0782 83.7108 33.3969V39.4228C83.711 40.0128 83.2311 40.4928 82.6412 40.4928Z" fill="#AB922A"/>
<path d="M49.4646 10.2656C41.9896 10.2656 35.9082 16.3468 35.9082 23.8217C35.9082 31.2968 41.9896 37.3781 49.4646 37.3781C56.9395 37.3781 63.0209 31.2968 63.0209 23.8217C63.0209 16.347 56.9395 10.2656 49.4646 10.2656ZM49.4646 33.5885C44.0792 33.5885 39.698 29.2073 39.698 23.8219C39.698 18.4368 44.0792 14.0556 49.4646 14.0556C54.8499 14.0556 59.2311 18.4368 59.2311 23.8219C59.2311 29.2072 54.8499 33.5885 49.4646 33.5885Z" fill="#AB922A"/>
<path d="M27.649 17.9934C24.4349 17.9934 21.8203 20.608 21.8203 23.8221C21.8203 27.036 24.4349 29.6506 27.649 29.6506C30.8629 29.6506 33.4775 27.036 33.4775 23.8221C33.4775 20.608 30.8629 17.9934 27.649 17.9934ZM27.649 25.8606C26.5249 25.8606 25.6101 24.9462 25.6101 23.8219C25.6101 22.6976 26.5247 21.783 27.649 21.783C28.7733 21.783 29.6877 22.6976 29.6877 23.8219C29.6877 24.9462 28.7733 25.8606 27.649 25.8606Z" fill="#AB922A"/>
<path d="M71.2797 17.9934C68.0658 17.9934 65.4512 20.608 65.4512 23.8221C65.4512 27.036 68.0658 29.6506 71.2797 29.6506C74.4938 29.6506 77.1086 27.036 77.1086 23.8221C77.1086 20.608 74.4938 17.9934 71.2797 17.9934ZM71.2797 25.8606C70.1554 25.8606 69.241 24.9462 69.241 23.8219C69.241 22.6976 70.1554 21.783 71.2797 21.783C72.404 21.783 73.3188 22.6976 73.3188 23.8219C73.3188 24.9462 72.4042 25.8606 71.2797 25.8606Z" fill="#AB922A"/>
</g>
<defs>
<clipPath id="clip0_569_1263">
<rect width="87" height="87" fill="white" transform="translate(0.5)"/>
</clipPath>
</defs>
</svg>
