<svg width="88" height="87" viewBox="0 0 88 87" fill="none" xmlns="http://www.w3.org/2000/svg">
<path d="M67.6361 49.1074C67.1604 47.748 65.9369 46.8984 64.5096 46.8984H62.3516V7.81641C62.3516 3.83752 59.1937 0.679688 55.2148 0.679688H16.8125C12.5882 0.679688 8.99609 4.27184 8.99609 8.49609V70.6875C8.99609 74.7316 12.7174 78.1641 16.7275 78.1641H55.5421C55.9523 78.1641 56.3136 78.4985 56.283 78.9076C56.2507 79.3379 55.8911 79.5234 55.4697 79.5234H40.0068L51.8164 86.3203H79.0039L67.6361 49.1074ZM36.2006 74.8336C35.1134 74.8336 34.2978 74.0183 34.2975 72.9312C34.2971 71.8963 35.1664 71.0273 36.2013 71.0273C37.2884 71.0277 38.1037 71.8433 38.1037 72.9305C38.0697 74.018 37.2881 74.8336 36.2006 74.8336ZM57.2539 46.8984H50.576C48.7748 46.8984 47.2455 48.4957 47.2455 50.2969C47.2455 52.098 48.7748 53.6953 50.576 53.6953H57.3049V67.9688H14.4336V10.5352H57.2539V46.8984ZM49.7287 17.7296H22.2507C20.7285 17.7296 19.5017 18.8657 19.5017 20.2628V38.8693C19.5017 40.2664 20.7285 41.4025 22.2507 41.4025H49.7175C51.2397 41.4025 52.4665 40.2664 52.4665 38.8693V20.2628C52.4777 18.8657 51.2509 17.7296 49.7287 17.7296ZM49.9901 38.5512C49.9901 38.7215 49.831 38.8693 49.6492 38.8693H22.3302C22.1372 38.8693 21.9893 38.7215 21.9893 38.5512V29.5661H49.9901V38.5512ZM49.9901 22.796H21.9893V20.5809C21.9893 20.4107 22.1484 20.2628 22.3302 20.2628H49.638C49.831 20.2628 49.9789 20.4107 49.9789 20.5809V22.796H49.9901ZM24.3635 34.5074H30.1113V36.7565H24.3635V34.5074ZM32.3491 34.5074H40.6641V36.7565H32.3491V34.5074Z" fill="#AB922A"/>
</svg>
