<svg width="87" height="87" viewBox="0 0 87 87" fill="none" xmlns="http://www.w3.org/2000/svg">
<path d="M69.4765 38.5704C68.6278 37.9022 61.134 29.6501 56.8906 25.8039C56.8725 25.7858 56.8725 25.7858 56.8725 25.7677V7.99938C56.8725 3.5934 53.2791 0 48.8731 0H22.672C18.573 0 15.2324 3.35865 15.2324 7.4396V49.1158C15.2324 53.5218 18.8258 57.1152 23.2318 57.1152H30.852H32.7841C33.1091 57.1152 33.38 56.8263 33.3439 56.5012L32.9286 52.962C32.8924 52.6731 32.6577 52.4745 32.3688 52.4745H31.6646H31.2312C30.9242 52.4745 30.6714 52.2217 30.6714 51.9147V4.56849C30.6714 4.26152 30.9242 4.00872 31.2312 4.00872H48.9273C50.715 4.00872 52.1776 5.47136 52.1776 7.25903V45.9377V49.7478C52.1776 50.9757 51.3289 52.023 50.1913 52.3481C50.1733 52.3481 50.1733 52.3481 50.1552 52.3481C48.2231 51.3007 45.9479 46.8225 45.6048 46.1183C45.5687 46.0641 45.5506 45.9919 45.5506 45.9377C45.4242 44.8001 44.1421 33.7852 38.2735 33.7852C38.111 33.7852 37.9485 33.7852 37.786 33.8032C37.786 33.8032 33.0911 34.2005 36.9734 47.5809C36.9734 47.6171 36.9914 47.6351 36.9914 47.6712L38.7069 62.4963C38.7069 62.5143 38.7069 62.5324 38.725 62.5685C38.8694 63.1283 40.8196 70.6943 45.8576 76.0573C45.9479 76.1656 46.002 76.292 46.002 76.4365V77.7186C46.002 77.7547 45.984 77.7727 45.9479 77.7727H45.4964C44.3949 77.7727 43.4921 78.6756 43.4921 79.7771V84.9956C43.4921 86.0971 44.3949 87 45.4964 87H66.7499C67.8513 87 68.7542 86.0971 68.7542 84.9956V79.8132C68.7542 78.7117 67.8513 77.8088 66.7499 77.8088C66.7137 77.8088 66.6957 77.7908 66.6957 77.7547C67.3999 71.2179 69.9279 48.863 71.2822 47.1115C71.3183 47.0573 71.3545 47.0031 71.3725 46.9309C71.6073 46.1183 72.781 41.1525 69.4765 38.5704ZM23.5929 51.9508C23.5929 52.2397 23.3582 52.4564 23.0873 52.4564C21.3177 52.4564 19.8731 51.0118 19.8731 49.2422V7.22291C19.8731 5.4533 21.3177 4.00872 23.0873 4.00872C23.3763 4.00872 23.5929 4.24346 23.5929 4.51432V51.9508Z" fill="#AB922A"/>
</svg>
