<svg width="87" height="87" viewBox="0 0 87 87" fill="none" xmlns="http://www.w3.org/2000/svg">
<path d="M78.5055 10.6256H8.49454C3.81072 10.6256 0 14.4361 0 19.1202V33.7109C0 38.3949 3.81072 42.2054 8.49454 42.2054H11.2575V67.6602C11.2575 72.4653 15.1666 76.3743 19.9716 76.3743H67.0284C71.8334 76.3743 75.7425 72.4651 75.7425 67.6602V42.2054H78.5052C83.1891 42.2054 86.9998 38.3949 86.9998 33.7109V19.1202C87 14.4361 83.1895 10.6256 78.5055 10.6256ZM17.2186 67.6602V28.4027H44.9267V70.4135H19.9718C18.4537 70.4135 17.2186 69.1783 17.2186 67.6602ZM61.8025 28.4027V70.4135H48.9007V28.4027H61.8025ZM67.0286 70.4135H65.7766V28.4027H69.7816V67.6602C69.7816 69.1783 68.5465 70.4135 67.0286 70.4135ZM81.0389 33.7109C81.0389 35.1078 79.9023 36.2443 78.5055 36.2443H73.7028V28.4027H76.8821C77.9793 28.4027 78.8691 27.5132 78.8691 26.4157C78.8691 25.3183 77.9793 24.4287 76.8821 24.4287H71.7158H15.2842H10.1179C9.02051 24.4287 8.13091 25.3183 8.13091 26.4157C8.13091 27.5132 9.02051 28.4027 10.1179 28.4027H13.2972V36.2443H8.49454C7.09766 36.2443 5.96108 35.1078 5.96108 33.7109V19.1202C5.96108 17.7231 7.09766 16.5867 8.49454 16.5867H78.5055C79.9023 16.5867 81.0389 17.7231 81.0389 19.1202V33.7109Z" fill="#AB922A"/>
</svg>
