<svg width="250" height="100" viewBox="0 0 250 100" fill="none" xmlns="http://www.w3.org/2000/svg">
<g clip-path="url(#clip0_2062_362)">
<path fill-rule="evenodd" clip-rule="evenodd" d="M62.734 49.3492H93.1002V59.6704H50.6641V7.38421H93.0986V17.6612H62.734V27.641H93.1002V37.918H62.734V49.3492ZM131.441 59.7985V38.6026H111.098V59.7985H98.9849V7.38421H111.098V27.301H131.441V7.38421H143.552V59.7985H131.441ZM151.655 7H181.294C189.44 7 196.092 13.8239 196.092 22.1404C196.094 24.5181 195.539 26.8633 194.473 28.9887C193.407 31.1141 191.859 32.9607 189.952 34.3811C192.852 36.5551 194.683 39.5844 194.683 42.911V59.7985H182.785V41.9719C182.777 41.4091 182.549 40.8718 182.152 40.4737C181.754 40.0756 181.217 39.848 180.654 39.839H162.996V59.7985H151.654V28.7936H180.184C183.041 28.7936 185.345 26.4473 185.345 23.5476C185.345 20.6479 183.041 18.2589 180.184 18.2589H151.654V7H151.655ZM23.5407 17.6628H0V7.38579H32.6666C39.2344 7.38579 44.6069 13.6121 44.6069 21.2044C44.6069 26.0219 42.4741 30.2877 39.2344 32.7621C43.2852 35.0214 46.0584 39.8833 46.0584 45.4281C46.0584 53.1896 40.727 59.5013 34.1592 59.5013H0V27.301H28.8721C31.5156 27.301 33.6485 25.1271 33.6485 22.4819C33.6485 19.8384 31.5156 17.6628 28.8721 17.6628H23.5407ZM23.5407 38.2611H30.0231C32.7536 38.2611 34.9703 40.6485 34.9703 43.5482C34.9703 46.4906 32.7536 48.8796 30.0231 48.8796H12.1111V38.2611H23.5407Z" fill="#DB812E"/>
<path fill-rule="evenodd" clip-rule="evenodd" d="M142.272 91.6572V73.4448H151.143V76.3461H145.001V80.6529H150.204V83.5953H145.001V88.7133H151.569V91.6556L142.272 91.6572ZM165.985 81.2917C166.284 81.1636 166.538 80.9944 166.837 80.6956C167.563 79.8007 167.689 78.6908 167.476 77.5809C167.262 76.686 166.711 76.4283 165.985 76.3872C165.686 76.3461 165.346 76.3461 165.046 76.3461H164.407V81.5067C165.003 81.5067 165.515 81.464 165.985 81.2917ZM165.985 73.4448C167.776 73.4875 168.972 73.7863 169.95 75.5777C170.633 77.3263 170.549 79.2031 169.95 80.9091C169.497 81.8864 168.826 82.7473 167.99 83.4261L172.211 91.6572H168.972L165.985 85.8151L165.259 84.4491H164.407V91.6588H161.634V73.4464H165.428L165.985 73.4448ZM184.452 91.6572L179.631 73.4448H182.534L185.903 85.8563L189.399 73.4448H191.916L186.969 91.6572H184.452ZM200.914 91.6572V88.7148H204.07V76.3476H200.914V73.4464H209.999V76.3476H206.843V88.7148H209.999V91.6572H200.914ZM230.553 90.9315C228.379 91.9972 226.162 92.6375 223.901 91.4011C220.872 89.7378 219.977 85.7709 219.977 82.615C219.977 79.2458 221.002 74.7682 224.497 73.4037C226.545 72.5926 228.463 73.1475 230.384 73.9144V77.5398C228.637 76.3872 226.289 74.8946 224.497 76.8568C223.218 78.3066 222.833 80.5233 222.833 82.4427C222.833 83.8941 223.049 85.4294 223.772 86.7511C225.563 89.907 227.954 89.0959 230.553 87.646V90.9315ZM240.703 91.6572V73.4448H249.575V76.3461H243.432V80.6529H248.636V83.5953H243.432V88.7133H250V91.6556L240.703 91.6572ZM130.8 73.9571V77.369C129.095 76.4741 124.957 74.2986 124.787 77.8813C124.66 81.5478 132.763 80.2687 131.694 87.5195C130.885 92.9363 125.982 92.4667 122.142 90.9758V87.1369C123.591 88.1172 127.729 90.7197 128.837 87.733C130.502 83.3835 120.777 84.2783 122.399 76.6449C123.296 72.1673 127.43 72.678 130.8 73.9571Z" fill="black"/>
</g>
<defs>
<clipPath id="clip0_2062_362">
<rect width="250" height="100" fill="white"/>
</clipPath>
</defs>
</svg>
