<svg width="250" height="100" viewBox="0 0 250 100" fill="none" xmlns="http://www.w3.org/2000/svg">
<path fill-rule="evenodd" clip-rule="evenodd" d="M32.3967 51.7045H27.7144V63.2146H37.3663C44.4379 63.2146 44.5341 51.7045 37.1752 51.7045H32.3967ZM222.666 22.8774C231.746 24.3993 240.92 26.303 250 28.2054V73.683C240.92 75.5854 231.746 77.1073 222.666 78.6305C207.281 80.9147 192.086 82.8158 176.701 84.1488C160.838 85.386 144.879 86.2401 129.012 86.3372C112.176 86.5246 95.34 85.9533 78.5557 84.625C63.1061 83.4872 47.7077 81.7414 32.3967 79.3915C21.5582 77.6475 10.757 75.6809 0 73.4928V27.5402C10.7364 25.167 21.5399 23.1049 32.3967 21.3568C47.7041 18.9132 63.1024 17.0724 78.5557 15.8386C95.3741 14.5069 112.29 13.8418 129.012 14.032C144.878 14.3167 160.837 15.079 176.701 16.5051C192.113 17.926 207.451 20.0524 222.666 22.8774ZM222.666 66.736H238.819V54.1789H236.141C235.473 59.3154 233.373 63.0257 228.209 63.2159H220.375V38.7656H226.109V34.2944H206.516V38.7656H212.441V63.2159H206.516V66.736H222.666ZM176.7 56.0813H182.434L185.97 63.2159H179.661V66.736H199.922V63.2159H194.569L182.813 38.7656H189.695V34.2944H162.745V38.7656H170.009L158.35 63.2159H153.572V66.736H170.009V63.2159H162.745L166.281 56.0813H176.7ZM176.7 51.9905H180.714L176.7 43.8076L174.216 38.7656L168.098 51.9905H176.7ZM129.012 51.7045H131.212C134.364 51.4185 136.275 52.9417 136.562 56.08V63.2146C136.658 65.6877 138.092 66.8318 140.864 66.7347H148.986V63.2146H146.598C144.59 63.0243 143.826 61.9774 143.922 60.1721V56.08C143.922 51.7045 141.055 49.991 136.562 49.991C145.929 50.0855 147.362 34.293 136.562 34.293H109.231V38.288H114.774V63.2146H109.231V66.7347H128.728V63.2146H122.324V51.7045H129.012ZM129.012 47.9942H130.926C138.092 47.8984 137.996 38.0991 131.117 38.2894H122.325V47.8984C124.617 47.8984 126.72 47.9942 129.012 47.9942ZM78.5557 66.736H96.2346V56.08H93.2721C93.2721 59.9805 91.5523 62.6465 87.4419 63.2146H74.7326V51.7045H83.4291V57.2201H87.4419V44.1881H83.4291V47.9929H74.7313V38.288H87.4406C91.3599 39.049 93.2708 41.2374 92.9835 45.0435H96.2333V34.293H60.7792V38.288H66.8954V63.2146H60.7792V66.7347L78.5557 66.736ZM32.3967 66.736H14.2394V63.2159H19.9733V38.2894H14.2394V34.2944H40.1377C52.8484 34.6748 50.6502 49.8021 40.1377 49.9924C57.2434 51.2282 49.9808 66.8331 42.813 66.7373L32.3967 66.736ZM32.3967 47.9942H35.6465C41.1894 47.8984 41.1894 38.2894 35.8376 38.2894H27.7144V47.9942H32.3967Z" fill="black"/>
</svg>
