<svg width="250" height="100" viewBox="0 0 250 100" fill="none" xmlns="http://www.w3.org/2000/svg">
<path fill-rule="evenodd" clip-rule="evenodd" d="M106.928 48.9867C108.439 48.4017 109.735 47.3688 110.643 46.0262C111.551 44.6836 112.028 43.0955 112.009 41.4744C112.009 34.7132 107.217 31.3616 100.635 31.3616H83.3718V68.1259H102.136C107.91 68.1259 113.568 64.0808 113.568 57.8976C113.568 50.547 106.928 49.0561 106.928 48.9867ZM92.3788 38.9895H99.0762C99.5051 38.9629 99.935 39.0212 100.341 39.1611C100.748 39.301 101.122 39.5197 101.444 39.8047C101.766 40.0897 102.028 40.4354 102.216 40.8221C102.405 41.2087 102.515 41.6287 102.54 42.058C102.54 42.189 102.54 42.3219 102.54 42.4568C102.522 43.3606 102.148 44.2206 101.499 44.8494C100.85 45.4783 99.9794 45.8251 99.0762 45.8142H92.321L92.3788 38.9895ZM99.134 60.4287H92.4365V53.2052H98.9607C102.252 53.2052 103.811 54.6499 103.811 56.788C103.811 59.4578 101.848 60.4287 99.134 60.4287Z" fill="#ED0007"/>
<path fill-rule="evenodd" clip-rule="evenodd" d="M133.429 30.437C122.806 30.437 116.57 38.9317 116.57 49.6802C116.57 60.4286 122.806 68.9234 133.429 68.9234C144.053 68.9234 150.289 60.4864 150.289 49.6802C150.289 38.8739 144.111 30.437 133.429 30.437ZM133.429 60.1397C128.233 60.1397 125.635 55.4589 125.635 49.6802C125.635 43.9014 128.233 39.2784 133.429 39.2784C138.626 39.2784 141.282 43.9592 141.282 49.6802C141.282 55.5167 138.626 60.1397 133.429 60.1397Z" fill="#ED0007"/>
<path fill-rule="evenodd" clip-rule="evenodd" d="M169.861 45.8084L168.591 45.5195C165.473 44.8838 162.991 44.0748 162.991 41.8211C162.991 39.394 165.358 38.4116 167.436 38.4116C168.855 38.4328 170.253 38.7465 171.544 39.3331C172.836 39.9198 173.993 40.7667 174.942 41.8211L180.658 36.1579C178.06 33.2108 173.845 30.3792 167.263 30.3792C159.527 30.3792 153.637 34.7132 153.637 41.9367C153.637 48.5244 158.372 51.7605 164.145 52.9741L165.416 53.263C170.208 54.2454 171.998 54.9966 171.998 57.3081C171.998 59.504 170.035 60.9487 167.032 60.9487C163.453 60.9487 160.219 59.3885 157.737 56.2102L151.905 61.9889C155.139 65.8607 159.238 68.8656 167.148 68.8656C174.018 68.8656 181.351 64.9361 181.351 56.9036C181.466 48.5244 175.115 46.9064 169.861 45.8084Z" fill="#ED0007"/>
<path fill-rule="evenodd" clip-rule="evenodd" d="M201.905 60.1397C197.864 60.1397 193.649 56.788 193.649 49.449C193.649 42.919 197.575 39.2784 201.674 39.2784C204.908 39.2784 206.813 40.7809 208.314 43.3813L215.704 38.4694C212.009 32.864 207.621 30.4948 201.559 30.4948C190.473 30.4948 184.469 39.1051 184.469 49.5068C184.469 60.4286 191.108 68.9812 201.443 68.9812C208.718 68.9812 212.182 66.4385 215.935 61.0065L208.487 55.9906C206.986 58.4061 205.369 60.1397 201.905 60.1397Z" fill="#ED0007"/>
<path fill-rule="evenodd" clip-rule="evenodd" d="M240.358 31.3616V44.8838H229.215V31.3616H219.573V68.1144H229.215V53.6097H240.358V68.1144H250V31.3616H240.358Z" fill="#ED0007"/>
<path d="M27.8291 22C22.325 22 16.9446 23.6336 12.3681 26.6942C7.79162 29.7548 4.22469 34.1049 2.11838 39.1945C0.0120579 44.284 -0.539051 49.8844 0.534741 55.2875C1.60853 60.6906 4.259 65.6536 8.15097 69.549C12.0429 73.4444 17.0016 76.0971 22.3999 77.1719C27.7982 78.2466 33.3937 77.695 38.4788 75.5869C43.5639 73.4787 47.9103 69.9086 50.9682 65.3281C54.0261 60.7476 55.6582 55.3625 55.6582 49.8535C55.6582 42.4663 52.7262 35.3817 47.5073 30.1581C42.2883 24.9346 35.2098 22 27.8291 22ZM27.8291 75.1066C22.8389 75.1066 17.9608 73.6256 13.8115 70.8507C9.66234 68.0759 6.42843 64.1319 4.51876 59.5175C2.60909 54.9031 2.10943 49.8255 3.08297 44.9269C4.05651 40.0283 6.45953 35.5286 9.98814 31.9969C13.5167 28.4652 18.0125 26.0601 22.9068 25.0857C27.8011 24.1113 32.8742 24.6114 37.4846 26.5227C42.0949 28.4341 46.0355 31.6708 48.8079 35.8237C51.5803 39.9765 53.0601 44.8589 53.0601 49.8535C53.0585 56.5506 50.3998 62.9729 45.6684 67.7085C40.937 72.444 34.5203 75.1051 27.8291 75.1066Z" fill="black"/>
<path d="M39.3187 32.4595H37.4134V41.9944H18.3026V32.4595H16.3395C13.4643 34.358 11.1046 36.9408 9.47192 39.9765C7.83925 43.0122 6.98462 46.406 6.98462 49.8535C6.98462 53.3011 7.83925 56.6948 9.47192 59.7305C11.1046 62.7662 13.4643 65.3491 16.3395 67.2476H18.3026V57.7242H37.4134V67.2591H39.3187C42.1952 65.3615 44.5561 62.779 46.1896 59.7432C47.8232 56.7074 48.6783 53.3132 48.6783 49.8651C48.6783 46.417 47.8232 43.0228 46.1896 39.987C44.5561 36.9512 42.1952 34.3686 39.3187 32.4711V32.4595ZM15.6467 63.5029C13.856 61.9105 12.3963 59.9806 11.3509 57.8236C10.3055 55.6665 9.6949 53.3244 9.55389 50.9311C9.41289 48.5378 9.74428 46.1402 10.5291 43.8751C11.314 41.6099 12.537 39.5218 14.1282 37.7297C14.6051 37.1965 15.1121 36.691 15.6467 36.2157V63.5029ZM37.4134 55.066H18.3026V44.5949H37.4134V55.066ZM40.0116 63.4451V57.6664V41.9944V36.2157C41.7978 37.8211 43.2505 39.763 44.2866 41.9305C45.3227 44.0979 45.922 46.4485 46.0502 48.8479C46.1783 51.2473 45.8328 53.6484 45.0335 55.9141C44.2341 58.1798 42.9965 60.2657 41.3915 62.0525C40.9549 62.5357 40.4943 62.9966 40.0116 63.4336V63.4451Z" fill="black"/>
</svg>
