<svg width="250" height="100" viewBox="0 0 250 100" fill="none" xmlns="http://www.w3.org/2000/svg">
<path fill-rule="evenodd" clip-rule="evenodd" d="M29.0337 27.5137C25.7769 27.6035 22.6115 28.237 19.6273 29.594L23.5159 36.4701C25.2349 35.7468 27.2249 35.2944 29.0337 35.2944C29.6671 35.2944 30.2091 35.3843 30.8425 35.4741C38.2589 36.0178 44.2289 43.7088 43.6869 51.0356C43.0535 59.0875 36.6313 64.1544 29.0337 64.5169C28.5815 64.5169 28.0379 64.5169 27.5857 64.5169C22.6115 63.431 18.4519 61.3507 16.0097 56.6447L7.86857 42.5315C6.78298 45.7891 6.42218 48.8655 6.69318 52.2129C7.95998 62.8889 16.0995 71.0305 26.7727 72.2977C27.4959 72.3875 28.3105 72.3875 29.0337 72.3875C41.4259 72.2062 51.3742 62.3451 51.5554 50.0412C51.3742 37.8271 42.0577 28.4183 30.2091 27.5137C29.8483 27.5137 29.3961 27.5137 29.0337 27.5137ZM29.0337 78.9011C13.1154 78.9011 0 65.8738 0 50.0412C0 42.2604 3.07399 35.203 8.13957 29.9565L21.9797 53.841C22.6115 54.9252 23.5159 55.9213 24.6015 56.7361C25.8683 57.4595 27.3147 58.0016 28.8525 58.0016C28.9439 58.0016 29.0337 58.0016 29.0337 58.0016C34.6413 58.1829 38.5299 52.1215 36.6313 47.1461C35.5457 43.9798 32.3803 41.8995 29.0337 41.8995C28.5815 41.8995 28.1293 41.8995 27.6771 41.9893C25.2349 42.2604 22.7927 44.3407 21.7071 46.5125L10.763 27.5137C15.7371 23.4428 22.1593 21 29.0337 21C45.0435 21 58.0674 34.0273 58.0674 50.0412C58.0674 65.8738 45.0435 78.9011 29.0337 78.9011Z" fill="#C7070F"/>
<path fill-rule="evenodd" clip-rule="evenodd" d="M102.931 53.4785L98.4991 45.9688C98.3179 46.6937 98.2281 47.4171 98.2281 48.2319V68.9502H106.187V59.1789L102.931 53.4785ZM150.055 51.9403L154.306 59.2687V68.8588H154.214V68.9502H145.26V43.7088L150.055 51.9403ZM150.055 47.9609L154.306 55.1979V50.4935C154.306 47.0562 160.094 46.7852 160.094 50.4935V68.8588H165.431V68.9502H170.043V50.4935C170.043 47.0562 175.833 46.7852 175.833 50.4935V68.9502H184.787V50.0412C184.787 39.8176 171.943 37.9185 167.24 44.3407C164.345 40.3613 158.375 39.5465 154.214 41.8995V40.6324H145.804L150.055 47.9609ZM199.982 56.8259L190.214 39.909C190.214 49.5889 190.214 59.2687 190.214 68.8588H198.174V67.6831C199.982 68.5877 202.062 69.1299 204.323 69.1299C212.012 69.1299 218.343 62.7974 218.343 55.0167C218.343 47.3273 212.012 40.9949 204.323 40.9949C202.062 40.9949 199.982 41.537 198.174 42.4417V30.7713H190.214C190.214 34.0273 190.214 32.5789 190.214 35.8366L200.164 52.9363C200.887 51.488 202.514 50.4037 204.323 50.4037C206.857 50.4037 208.937 52.484 208.937 55.0167C208.937 57.5493 206.857 59.6312 204.323 59.6312C202.333 59.6312 200.706 58.5454 199.982 56.8259ZM231.819 57.097L225.309 45.8789C223.138 48.3218 221.871 51.488 221.871 55.0167C221.871 62.7974 228.203 69.1299 235.98 69.1299C243.669 69.1299 250 62.7974 250 55.0167C250 47.3273 243.669 40.9949 235.98 40.9949C232.453 40.9949 229.287 42.2604 226.755 44.4322L231.819 53.0262C232.544 51.488 234.172 50.4037 235.98 50.4037C238.514 50.4037 240.594 52.484 240.594 55.0167C240.594 57.5493 238.514 59.6312 235.98 59.6312C234.172 59.6312 232.544 58.6352 231.819 57.097ZM129.25 61.6217C130.698 61.078 131.692 59.7211 131.965 58.1829H141.19C139.834 63.8833 135.13 68.2252 129.25 69.04C128.708 69.04 128.075 69.1299 127.441 69.1299C119.754 69.1299 113.423 62.7974 113.423 55.0167C113.423 51.9403 114.417 49.2264 116.047 46.875L123.282 59.2687C124.005 60.8968 125.543 61.9826 127.441 61.9826C128.075 61.9826 128.708 61.8928 129.25 61.6217ZM129.25 52.5738H132.055C131.874 50.856 130.788 49.4975 129.25 48.8655C128.708 48.5928 128.075 48.503 127.441 48.503C125.001 48.503 123.101 50.2224 122.919 52.5738H129.25ZM129.25 41.0847C128.708 41.0847 128.075 40.9949 127.441 40.9949C123.644 40.9949 120.025 42.6229 117.493 45.2454L124.186 56.8259V56.1924H141.461C141.461 55.74 141.553 55.3792 141.553 55.0167C141.553 47.9609 136.125 41.9893 129.25 41.0847ZM102.931 49.4975L99.5847 43.7986C100.489 42.7127 101.665 41.9893 102.931 41.6268C103.655 41.3558 104.468 41.266 105.192 41.266H111.614V48.6843H109.804C107.724 48.6843 106.187 50.131 106.187 52.3028V55.1081L102.931 49.4975ZM75.2542 56.8259L65.394 39.909C65.394 49.5889 65.394 59.2687 65.394 68.8588H73.354V67.6831C75.2542 68.5877 77.334 69.1299 79.5036 69.1299C87.1926 69.1299 93.6148 62.7974 93.6148 55.0167C93.6148 47.3273 87.1926 40.9949 79.5036 40.9949C77.334 40.9949 75.2542 41.537 73.354 42.4417V30.7713H65.394C65.394 34.0273 65.394 32.5789 65.394 35.8366L75.344 52.9363C76.0672 51.488 77.6948 50.4037 79.5036 50.4037C82.0372 50.4037 84.117 52.484 84.117 55.0167C84.117 57.5493 82.0372 59.6312 79.5036 59.6312C77.605 59.6312 75.9774 58.5454 75.2542 56.8259Z" fill="#C7070F"/>
</svg>
