<svg width="250" height="100" viewBox="0 0 250 100" fill="none" xmlns="http://www.w3.org/2000/svg">
<g clip-path="url(#clip0_2025_219)">
<path d="M0 68.1951H249.228V84.306H0V68.1951Z" fill="#EC1C2E"/>
<path d="M0.0366211 58.3373V16.184H52.0143C68.8868 16.184 80.9071 23.8716 80.9071 36.9664C80.9071 49.4358 71.3864 58.3373 51.5364 58.3373H0.0366211ZM41.7952 47.5599C48.2648 47.5599 52.051 42.0424 52.051 37.8124C52.051 33.5088 48.6692 28.4695 41.979 28.4695H27.8267V47.5599H41.7952Z" fill="#00529B"/>
<path d="M126.452 26.6303L107.374 58.4108H80.834L105.977 16H146.854L172.107 58.4108H116.233L122.887 47.3759H138.877L126.452 26.6303Z" fill="#00529B"/>
<path d="M204.676 58.3004H177.143V16H250V28.3223H204.676V35.8628H249.228V47.8173H204.676V58.3004Z" fill="#00529B"/>
</g>
<defs>
<clipPath id="clip0_2025_219">
<rect width="250" height="100" fill="white"/>
</clipPath>
</defs>
</svg>
