<svg width="250" height="100" viewBox="0 0 250 100" fill="none" xmlns="http://www.w3.org/2000/svg">
<path d="M22.9235 34.197C22.6395 34.4784 22.6963 40.9796 22.9803 41.1485C23.1224 41.2329 32.2123 41.3173 43.2053 41.3173H63.203L63.1746 40.5575C63.0894 39.1503 62.2941 37.5461 61.1294 36.5329C59.8796 35.4353 57.8343 34.7317 54.6245 34.2814C52.3804 33.9719 23.236 33.8874 22.9235 34.197ZM80.6442 34.4784C80.417 34.7599 80.1045 35.2383 79.9341 35.5479C79.7637 35.8575 79.0819 37.1239 78.4002 38.3623C77.7468 39.6006 77.0651 40.7826 76.9231 40.9515C76.6958 41.2329 78.9399 41.3173 87.3196 41.3736C93.1996 41.4299 98.0002 41.4299 98.0002 41.3736C98.0002 41.3173 97.6025 40.5575 97.1196 39.6287C96.9776 39.4036 96.6083 38.6718 96.2391 37.9964C94.4779 34.6192 92.8588 34 85.8709 34C81.61 34 80.9851 34.0563 80.6442 34.4784ZM99.7046 34.3659C99.7046 34.5629 100.273 35.3509 100.983 36.1671C101.693 36.9551 102.261 37.6587 102.261 37.7431C102.261 37.8838 102.914 38.6718 104.534 40.5293L105.244 41.3455L110.442 41.2611L115.64 41.1766L112.743 37.5742L109.845 34H104.761C100.869 34 99.7046 34.0844 99.7046 34.3659ZM131.633 34.9287C131.178 35.4353 130.411 36.3641 129.928 36.9551C129.446 37.5742 128.451 38.8126 127.713 39.685C127.003 40.5856 126.406 41.3455 126.406 41.3736C126.406 41.5143 137.144 41.1766 137.257 41.0359C137.314 40.9515 137.825 40.3323 138.337 39.6287C138.876 38.9251 139.473 38.2215 139.643 38.0808C140.098 37.6868 142.597 34.3659 142.597 34.1689C142.597 34.0844 140.297 34 137.513 34H132.428L131.633 34.9287ZM150.409 34.4222C147.37 34.9006 146.205 35.3228 144.898 36.4204C143.847 37.3209 142.825 39.0377 142.427 40.5856L142.257 41.3173H180.945V34L166.828 34.0281C156.971 34.0563 152 34.1689 150.409 34.4222ZM190.603 34.394C189.893 34.5629 189.013 34.8725 188.615 35.0976C187.706 35.576 185.774 37.4054 185.774 37.7712C185.774 37.912 185.604 38.2497 185.377 38.4748C185.149 38.7281 184.894 39.4599 184.78 40.1072L184.581 41.3173H205.488C216.992 41.3173 226.48 41.3455 226.622 41.3736C227.048 41.5425 226.963 40.0227 226.452 39.0659C225.003 36.3078 223.213 34.8443 220.6 34.3377C218.327 33.8874 192.421 33.9156 190.603 34.394ZM0 43.203V44.2724H20.7363V42.1617H0V43.203ZM229.178 42.3024C229.093 42.3868 229.093 42.8371 229.207 43.2874L229.377 44.1317L239.603 44.188L249.83 44.2161L249.915 43.203L250 42.1617H239.66C233.979 42.1617 229.264 42.2179 229.178 42.3024ZM22.9803 45.567C22.8383 45.6515 22.7531 50.0982 22.7815 56.2616L22.8667 66.7873L37.4957 66.8718C49.9943 66.9562 52.5224 66.8999 54.8233 66.5059C56.3004 66.2526 57.948 65.8586 58.4593 65.6334C58.9706 65.4083 59.5671 65.2394 59.7659 65.2394C60.4193 65.2394 62.3225 63.1005 62.8054 61.8059C63.828 59.1041 64.2257 55.7269 64.1404 50.5203L64.0552 45.5107H59.8227C57.5219 45.5107 55.5335 45.567 55.4482 45.6796C55.363 45.764 55.3062 47.6497 55.3346 49.8449C55.3914 52.8562 55.2778 54.2071 54.9369 55.3047C54.3404 57.1903 52.7497 58.7382 51.0737 59.076C49.0001 59.47 32.8656 59.3856 32.2975 58.9634C31.8714 58.682 31.8146 57.8377 31.7578 52.0682L31.6725 45.5107L27.4685 45.4545C25.1392 45.4263 23.1224 45.4826 22.9803 45.567ZM79.1103 45.4826L74.2813 45.567L73.2019 47.7341C72.6054 48.9161 71.668 50.661 71.1567 51.5898C70.617 52.5185 69.8784 53.8975 69.4523 54.6856C69.0547 55.4454 68.2877 56.8526 67.748 57.7814C67.2367 58.7101 66.4697 60.0891 66.072 60.8772C65.646 61.637 65.2199 62.4814 65.0778 62.7065C64.9358 62.9317 64.737 63.3257 64.6233 63.5508C64.3677 64.17 63.7996 65.0987 63.3735 65.6334C63.1746 65.8867 63.061 66.2526 63.1462 66.4777C63.2883 66.8155 64.1972 66.8718 67.9468 66.8999C70.5034 66.928 72.7474 66.8155 72.9463 66.6748C73.1735 66.5622 73.7132 65.746 74.1393 64.9298C74.5938 64.0855 75.2755 62.7628 75.6732 62.0029C76.0993 61.2149 77.0651 59.4418 77.8321 58.0628C78.599 56.6556 79.5648 54.8826 79.9625 54.1227C80.3886 53.3347 80.9567 52.3215 81.2408 51.8712C81.5248 51.3928 82.235 50.07 82.8315 48.9161C83.3996 47.7622 84.0814 46.5802 84.3086 46.3269C84.6779 45.8766 84.5643 45.173 84.1382 45.3137C84.0245 45.3419 81.7805 45.4263 79.1103 45.4826ZM90.4159 45.764C90.3306 45.961 90.3875 46.2706 90.5295 46.4676C90.7851 46.7491 91.9214 48.7754 93.8246 52.3496C94.8472 54.2071 94.7051 54.2634 88.7683 54.2634C85.8709 54.2634 83.5132 54.376 83.5132 54.4886C83.5132 54.6293 83.8257 55.3047 84.2234 55.9802C84.6211 56.6556 84.9903 57.4155 85.104 57.6406C85.1892 57.8658 85.388 58.2598 85.5301 58.485C85.6721 58.7101 85.8993 59.1885 86.0698 59.5263C86.3254 60.1736 86.4106 60.1736 92.035 60.1736C97.3469 60.1736 97.7446 60.2017 98.2843 60.7364C98.5968 61.046 98.8524 61.4963 98.8524 61.7215C98.8524 61.9466 98.966 62.1436 99.0796 62.1436C99.1933 62.1436 99.6478 62.8754 100.102 63.776C100.528 64.6484 101.068 65.7179 101.295 66.14L101.693 66.8718L106.806 66.8999C109.618 66.8999 111.919 66.8155 111.919 66.7029C111.891 66.5903 111.578 65.9993 111.209 65.3801C110.84 64.761 110.186 63.6071 109.789 62.8472C109.363 62.0592 108.624 60.6802 108.084 59.7514C107.573 58.8227 106.806 57.4155 106.408 56.6556C106.011 55.8676 105.045 54.0946 104.25 52.7155C103.483 51.3083 102.517 49.5353 102.091 48.7754C100.954 46.6365 100.642 46.0736 100.358 45.7922C99.9034 45.3419 90.5863 45.3137 90.4159 45.764ZM108.993 45.5952C108.794 45.7078 109.164 46.3551 109.959 47.2838C110.669 48.1 111.436 49.085 111.692 49.479C111.919 49.873 112.43 50.5203 112.8 50.9143C113.538 51.7305 114.106 52.3496 115.669 54.2916L116.748 55.5862L116.805 61.1867L116.89 66.7873H125.412L125.554 60.9616C125.696 55.2766 125.696 55.1359 126.406 54.3478C126.804 53.9257 127.571 52.9969 128.11 52.2934C128.65 51.5898 129.218 50.8862 129.389 50.7173C129.758 50.267 130.326 49.5916 131.519 48.0718C132.059 47.3682 132.599 46.7491 132.741 46.7209C132.854 46.6646 133.081 46.3832 133.223 46.0736C133.508 45.567 133.366 45.5389 128.196 45.5389H122.855L122.287 46.3832C121.577 47.4527 120.668 47.4808 119.873 46.4395L119.248 45.6796L114.277 45.5389C111.55 45.4545 109.164 45.4826 108.993 45.5952ZM145.722 45.5389L141.603 45.6796V50.1826C141.575 54.1227 141.717 55.6987 142.399 59.7514C142.825 62.2843 144.245 64.3107 146.205 65.2394C146.944 65.6053 148.904 66.1119 150.551 66.3933C153.193 66.8718 155.068 66.928 167.254 66.8999H180.974L180.889 63.1005L180.803 59.3011L168.844 59.3293C154.13 59.3574 154.017 59.3293 152.454 57.7814C150.864 56.2335 150.523 54.6293 150.579 49.5916C150.608 46.5802 150.523 45.7077 150.239 45.567C150.011 45.4826 147.995 45.4545 145.722 45.5389ZM218.271 45.5107C218.214 45.567 218.157 47.9592 218.157 50.7736C218.157 56.5149 218.015 57.0778 216.112 58.485L215.174 59.1885H196.398L195.205 58.2598C193.472 56.8808 193.131 55.5017 193.188 50.0419L193.245 45.6796L188.785 45.5952L184.354 45.5107V53.4754C184.354 59.0197 184.468 61.8059 184.723 62.6221C185.235 64.367 186.541 65.7179 188.274 66.3652C189.694 66.8999 190.518 66.928 205.63 66.928C222.986 66.928 223.327 66.8999 225.145 65.2957C226.991 63.6352 226.934 63.8604 226.963 54.4041C226.991 49.6479 226.934 45.7077 226.878 45.6233C226.707 45.4826 218.441 45.37 218.271 45.5107ZM235.683 61.2993C236.223 61.9185 236.507 61.834 236.252 61.1586C236.138 60.9335 235.882 60.7364 235.627 60.7364C235.257 60.7364 235.286 60.8209 235.683 61.2993ZM238.694 62.5658C238.694 63.3257 238.751 63.6352 238.808 63.1849C238.865 62.7628 238.865 62.1436 238.808 61.7778C238.751 61.44 238.694 61.7778 238.694 62.5658ZM233.525 63.0161C233.553 63.6915 233.638 64.0011 233.695 63.6915C233.78 63.3819 233.951 62.9879 234.093 62.8191C234.263 62.6221 234.206 62.3688 233.922 62.1436C233.553 61.834 233.496 61.9466 233.525 63.0161Z" fill="#368AB1"/>
</svg>
