<svg width="250" height="100" viewBox="0 0 250 100" fill="none" xmlns="http://www.w3.org/2000/svg">
<path fill-rule="evenodd" clip-rule="evenodd" d="M249.998 50.3856C249.729 78.0286 194.038 96.7727 124.999 96.7727C55.9589 96.7727 0 79.3772 0 48.6331C0 23.148 55.9589 4 124.999 4C194.038 4 250.403 23.0128 249.998 50.3856Z" fill="#C82E37"/>
<path fill-rule="evenodd" clip-rule="evenodd" d="M107.74 38.3842H114.616V57.6659H133.763V60.902H107.74V38.3842ZM169.092 38.3842H175.834V47.8237H196.6V38.3842H203.342V61.3088H196.6V51.0599H175.834V61.3088H169.092V38.3842ZM207.927 61.1723H215.208V38.3842H207.927V61.1723ZM45.8466 38.3842C76.0515 38.3842 76.9946 61.1723 45.9817 61.1723H30.4739V38.3842H45.8466Z" fill="white"/>
<path fill-rule="evenodd" clip-rule="evenodd" d="M46.5206 41.6203C66.4766 41.2163 66.4766 58.2078 46.3855 57.9376H37.3513V41.6203H46.5206Z" fill="#C82E37"/>
<path fill-rule="evenodd" clip-rule="evenodd" d="M152.238 38.3842C170.981 38.3842 170.981 52.1395 151.966 52.1395H143.204V61.1723H136.328V38.3842H152.238Z" fill="white"/>
<path fill-rule="evenodd" clip-rule="evenodd" d="M151.025 41.6203C161.271 41.6203 161.407 49.0371 151.025 49.0371H143.338V41.6203H151.025Z" fill="#C82E37"/>
<path fill-rule="evenodd" clip-rule="evenodd" d="M103.963 42.2946C94.6591 39.8664 80.0971 40.1367 78.0744 47.6886H96.413V50.5193H78.0744C80.7714 61.8465 104.099 57.1267 104.099 57.1267L104.638 60.4994C104.638 60.4994 71.467 65.4867 70.3873 49.1722C71.8709 35.8223 97.3561 36.9019 104.638 38.9247L103.963 42.2946ZM218.715 57.6659V58.0713H219.928V61.1723H220.467V58.0713H221.682V57.6659H218.715ZM222.356 57.6659V61.1723H222.896V58.2078L223.974 61.1723H224.379L225.457 58.2078V61.1723H225.997V57.6659H225.189L224.107 60.6332L223.166 57.6659H222.356ZM124.999 9.93315V21.1252C124.999 21.1252 -9.43796 18.0242 9.97888 59.8252C9.97888 59.8252 -22.1137 16.8094 124.999 9.93315Z" fill="white"/>
<path fill-rule="evenodd" clip-rule="evenodd" d="M125.538 91.2449V80.0514C125.538 80.0514 259.977 83.1553 240.56 41.3515C240.56 41.3515 272.516 84.3658 125.538 91.2449Z" fill="white"/>
</svg>
