<svg width="250" height="100" viewBox="0 0 250 100" fill="none" xmlns="http://www.w3.org/2000/svg">
<g clip-path="url(#clip0_2025_230)">
<path fill-rule="evenodd" clip-rule="evenodd" d="M66.0432 0C38.4054 0 16 22.3871 16 50.0003C16 77.6139 38.4054 100 66.0432 100C93.6811 100 116.086 77.6139 116.086 50.0003C116.086 22.3871 93.6811 0 66.0432 0ZM98.0343 61.1455C96.2475 61.146 94.6078 61.7678 93.3122 62.8014C94.7514 59.7458 95.6922 56.4099 96.0278 52.8967C96.1724 53.2778 96.3397 53.6544 96.5503 54.0189C98.6435 57.6409 103.281 58.8829 106.907 56.7915C108.131 56.0846 109.076 55.0853 109.72 53.9369C109.244 59.2721 107.821 64.3344 105.603 68.9472C105.606 68.8722 105.615 68.7982 105.615 68.7216C105.615 64.5373 102.221 61.1465 98.0343 61.1455ZM104.831 35.4667C105.54 34.2372 105.858 32.8935 105.837 31.5704C107.988 36.1982 109.35 41.2631 109.761 46.5973C109.732 46.546 109.711 46.4936 109.682 46.4438C107.589 42.8208 102.952 41.5793 99.3258 43.6707C97.7723 44.5663 96.6607 45.9302 96.057 47.4799C95.7642 43.9546 94.8648 40.6041 93.4609 37.5289C93.7758 37.7867 94.1099 38.0288 94.4742 38.2393C98.0993 40.3307 102.737 39.0896 104.831 35.4667ZM102.221 25.2257C102.164 25.1914 102.113 25.1527 102.056 25.1194C98.4298 23.0275 93.793 24.2686 91.6983 27.892C90.8028 29.4417 90.5227 31.1766 90.7736 32.819C88.7973 29.9849 86.3468 27.5089 83.5361 25.5011C83.9417 25.568 84.3549 25.6113 84.7797 25.6113C88.9651 25.6118 92.3609 22.2195 92.3614 18.0372C92.3609 16.6255 91.9668 15.3089 91.2941 14.1771C95.5586 17.1838 99.2643 20.9251 102.221 25.2257ZM80.5888 88.7551C81.8193 89.464 83.1647 89.7811 84.4885 89.761C79.8561 91.9098 74.7864 93.2697 69.4481 93.68C69.499 93.6528 69.5514 93.6301 69.6023 93.6019C73.2283 91.509 74.471 86.8771 72.3778 83.2542C71.4808 81.7025 70.1163 80.5914 68.5653 79.9887C72.0936 79.6957 75.4475 78.797 78.5248 77.3944C78.2668 77.71 78.025 78.0428 77.8143 78.4073C75.7201 82.0293 76.9632 86.6627 80.5888 88.7551ZM53.2316 77.2463C56.2898 78.6847 59.6286 79.6247 63.1448 79.9605C62.7634 80.1045 62.3859 80.2717 62.0216 80.4831C58.3961 82.574 57.1529 87.2064 59.2456 90.8294C59.9531 92.0533 60.9539 92.9968 62.1038 93.6407C56.7639 93.1659 51.6967 91.7431 47.08 89.5279C47.1556 89.5309 47.2297 89.539 47.3057 89.539C51.4931 89.539 54.8879 86.1476 54.8879 81.9648C54.8874 80.1785 54.2656 78.5403 53.2316 77.2463ZM66.0432 74.2688C52.6284 74.2688 41.7538 63.403 41.7538 50.0003C41.7538 36.598 52.6289 25.7317 66.0432 25.7317C79.458 25.7317 90.3327 36.598 90.3327 50.0003C90.3327 63.4035 79.4575 74.2688 66.0432 74.2688ZM51.4972 11.2454C50.2667 10.5365 48.9207 10.2194 47.5965 10.2405C52.2293 8.09121 57.2986 6.73034 62.6374 6.32052C62.586 6.34871 62.5336 6.37036 62.4832 6.39956C58.8571 8.49046 57.615 13.1234 59.7077 16.7473C60.6047 18.299 61.9692 19.4091 63.5197 20.0128C59.9919 20.3048 56.6385 21.2045 53.5606 22.6066C53.8186 22.2915 54.061 21.9577 54.2716 21.5937C56.3643 17.9717 55.1222 13.3373 51.4972 11.2454ZM78.8539 22.7547C75.7957 21.3163 72.4579 20.3763 68.9422 20.0405C69.3231 19.8965 69.7 19.7293 70.0649 19.5189C73.6899 17.428 74.933 12.7941 72.8403 9.17115C72.1324 7.94873 71.1321 7.00422 69.9812 6.36029C75.322 6.83556 80.3898 8.25785 85.007 10.4736C84.9309 10.4721 84.8568 10.4625 84.7802 10.4625C80.5928 10.4625 77.1991 13.8534 77.1976 18.0372C77.1981 19.821 77.8199 21.4592 78.8539 22.7547ZM41.2469 13.8539C41.2126 13.9098 41.1738 13.9616 41.1405 14.018C39.0463 17.6415 40.2895 22.2739 43.9155 24.3673C45.467 25.2614 47.203 25.5413 48.8457 25.2911C46.0092 27.2652 43.5315 29.7136 41.522 32.5224C41.5895 32.1176 41.6328 31.7043 41.6328 31.2799C41.6328 27.0966 38.2386 23.7052 34.0522 23.7052C32.6388 23.7052 31.3216 24.0979 30.1893 24.7705C33.1981 20.5097 36.9426 16.8072 41.2469 13.8539ZM27.2551 64.5338C26.5456 65.7623 26.2276 67.1075 26.2483 68.4296C24.0977 63.8013 22.7356 58.7364 22.3254 53.4037C22.3532 53.4535 22.3753 53.5064 22.4041 53.5577C24.4983 57.1812 29.1346 58.4222 32.7602 56.3298C34.3137 55.4337 35.4253 54.0703 36.029 52.5206C36.3223 56.0459 37.2217 59.3975 38.6256 62.4726C38.3096 62.2149 37.9766 61.9727 37.6117 61.7612C33.9862 59.6698 29.3488 60.9114 27.2551 64.5338ZM34.0517 38.8545C35.8385 38.8545 37.4777 38.2332 38.7737 37.2006C37.3341 40.2562 36.3933 43.5916 36.0572 47.1048C35.9131 46.7237 35.7453 46.3471 35.5347 45.9826C33.4415 42.3596 28.8051 41.1181 25.1785 43.2095C23.954 43.9164 23.0097 44.9162 22.3653 46.0647C22.8409 40.7294 24.2645 35.6671 26.4816 31.0538C26.4796 31.1293 26.47 31.2033 26.47 31.2799C26.4705 35.4637 29.8648 38.8545 34.0517 38.8545ZM29.8653 74.7748C29.9217 74.8086 29.9726 74.8478 30.0301 74.8811C33.6561 76.973 38.293 75.7319 40.3862 72.109C41.2816 70.5583 41.5628 68.8244 41.3114 67.1831C43.2882 70.0166 45.7386 72.4926 48.5499 74.5004C48.1442 74.4335 47.7305 74.3897 47.3057 74.3897C43.1194 74.3892 39.7251 77.7805 39.7236 81.9643C39.7241 83.3755 40.1181 84.6921 40.7908 85.8234C36.5268 82.8162 32.8207 79.0754 29.8653 74.7748ZM90.8376 86.1476C90.8719 86.0912 90.9112 86.0399 90.9444 85.9825C93.0381 82.359 91.796 77.7272 88.17 75.6342C86.6184 74.7401 84.8825 74.4596 83.2393 74.7104C86.0758 72.7358 88.5534 70.2869 90.563 67.4786C90.496 67.8834 90.4526 68.2962 90.4526 68.7211C90.4526 72.9039 93.8464 76.2958 98.0338 76.2958C99.4462 76.2958 100.764 75.9016 101.896 75.2294C98.8874 79.4913 95.1429 83.1938 90.8376 86.1476Z" fill="#D1232A"/>
<path fill-rule="evenodd" clip-rule="evenodd" d="M160.403 31.5436H127.127V69.6117H142.484V52.4314H160.403V45.7751H142.714V37.7408H160.403V31.5436Z" fill="#D1232A"/>
<path fill-rule="evenodd" clip-rule="evenodd" d="M184.56 69.7044H197.355L185.903 31.5436H173.372L161.586 69.5438L168.248 69.578L170.703 62.0376H182.145L184.56 69.7044ZM172.668 56.001L176.519 44.1686L180.245 56.001H172.668Z" fill="#D1232A"/>
<path fill-rule="evenodd" clip-rule="evenodd" d="M222.006 41.5747V37.6724H214.034V63.2192H221.546V53.5789H217.446V46.5313H236.478C236.478 46.5313 236.478 63.3808 236.478 65.2165C236.478 67.0526 237.168 69.6707 233.492 69.6707C229.816 69.6707 204.971 69.6707 202.903 69.6707C200.836 69.6707 199.458 68.5222 199.458 66.228C199.458 63.9321 199.458 36.1343 199.458 34.5282C199.458 32.9206 199.918 31.1993 202.789 31.1993C205.66 31.1993 230.012 31.1993 232.309 31.1993C234.606 31.1993 236.501 32.5763 236.501 35.3881C236.501 38.2005 236.501 41.5747 236.501 41.5747H222.006Z" fill="#D1232A"/>
</g>
<defs>
<clipPath id="clip0_2025_230">
<rect width="250" height="100" fill="white"/>
</clipPath>
</defs>
</svg>
