<svg width="250" height="100" viewBox="0 0 250 100" fill="none" xmlns="http://www.w3.org/2000/svg">
<path d="M68 100V36.7467C68 14.7314 84.396 0.00402832 105.815 0.00402832H168.363V100H68Z" fill="white"/>
<path d="M126.802 47.9628C126.802 42.6349 128.678 37.162 134.997 37.162C141.333 37.162 143.047 42.636 143.047 47.9628C143.047 53.1572 141.333 59.1829 134.997 59.1829C128.678 59.1829 126.802 53.1572 126.802 47.9628ZM159.309 15.7059C156.281 15.7059 153.699 18.2267 153.699 21.1754C153.699 24.2575 156.281 26.7823 159.309 26.7823C162.337 26.7823 164.772 24.2575 164.772 21.1754C164.772 18.2284 162.333 15.7059 159.309 15.7059ZM117.607 47.9628C117.607 59.1829 124.075 67.0402 134.997 67.0402C145.784 67.0402 151.399 59.6035 151.399 47.9628C151.399 36.3221 146.941 28.8888 134.997 29.0332C132.845 29.0332 129.97 29.311 126.802 30.9965C126.802 30.9965 126.665 14.0216 126.665 13.7409H117.607V47.9628ZM68 99.9943V50.9035H72.4585V95.6494H164.193V29.0332H154.412V70.6873H81.5124V50.9035H84.2477C84.9687 61.8526 93.4545 67.455 101.649 67.0413C106.536 66.7549 111.139 64.8025 114.586 60.3052L108.69 55.399C101.646 61.993 92.7306 57.3651 92.7306 50.9046H114.586C116.166 20.756 85.5374 25.1054 84.2454 43.6208H81.5124V36.7461C81.5124 33.5201 81.5124 13.7438 105.815 13.7438V4.76191C88.1352 4.76191 72.4608 16.4054 72.4608 36.7432V43.618H68V36.7432C68 14.7268 84.3943 0 105.813 0H168.361V99.9943H68ZM105.962 43.6214H92.7306C93.0135 34.3645 106.107 34.3645 105.962 43.6214ZM125.942 85.1288H133.135C132.847 83.4479 131.41 82.0455 129.685 82.0455C127.954 82.0455 126.087 83.4479 125.939 85.1288H125.942ZM87.4142 82.0455C85.105 82.0455 83.5226 84.1457 83.5226 86.3949C83.5226 88.6441 84.9664 90.8818 87.4142 90.8818C89.9953 90.8818 91.434 88.7816 91.434 86.3949C91.434 84.0082 89.8585 82.0455 87.4142 82.0455ZM81.5124 92.42V73.4904H83.6732V82.1898C84.6852 81.0664 86.2607 80.2191 87.6982 80.2191C91.2931 80.2191 93.4533 83.0297 93.4533 86.545C93.4533 89.7675 91.2931 92.8468 87.6982 92.8468C86.2607 92.8468 84.6841 92.0013 83.6732 90.7426V92.4206L81.5124 92.42ZM98.768 80.5038V92.42H96.7578V80.5038H98.768ZM97.7675 74.7491C98.4817 74.7491 99.205 75.3036 99.205 76.1601C99.205 76.8522 98.4817 77.5557 97.7675 77.5557C97.043 77.5557 96.3249 76.8522 96.3249 76.1601C96.3249 75.3008 97.043 74.7491 97.7675 74.7491ZM104.809 73.4887V92.4183H102.796V73.4904L104.809 73.4887ZM115.164 82.3193L113.58 83.299C113.292 82.6058 112.572 82.0443 111.855 82.0443C111.138 82.0443 110.558 82.6058 110.558 83.4468C110.558 84.5696 112.001 84.9844 113.149 85.4107C114.587 85.9744 116.018 86.9575 116.018 88.9214C116.018 91.1608 114.152 92.8457 112.001 92.8457C109.988 92.8457 108.403 91.5813 107.684 89.767L109.546 89.0537C110.131 90.176 110.558 90.8807 112.001 90.8807C113.001 90.8807 113.866 90.176 113.866 89.0537C113.866 86.3937 108.541 87.3728 108.541 83.5906C108.541 81.6284 110.131 80.2185 112.001 80.2185C113.438 80.2185 114.584 81.2033 115.163 82.3187L115.164 82.3193ZM120.914 82.3193V92.42H118.902V82.3193H117.607V80.5067H118.902V76.2896H120.915V80.5067H123.068V82.3193H120.914ZM135.283 86.9598H125.942C125.942 89.0554 127.525 90.8824 129.833 90.8824C131.55 90.8824 132.554 89.905 133.42 88.3473L135.151 89.4874C133.854 91.4507 131.985 92.8474 129.689 92.8474C125.943 92.8474 123.791 90.1777 123.791 86.6728C123.791 83.0309 125.943 80.2202 129.537 80.2202C133.422 80.2202 135.434 83.4485 135.287 86.9598H135.283ZM140.469 80.5078V92.424H138.312V80.5078H140.469ZM139.46 74.7531C140.177 74.7531 140.894 75.3077 140.894 76.1641C140.894 76.8562 140.177 77.5597 139.46 77.5597C139.085 77.5626 138.723 77.4177 138.454 77.1564C138.185 76.8951 138.03 76.5385 138.023 76.1641C138.023 75.3048 138.598 74.7531 139.46 74.7531ZM146.648 80.5078V82.046H146.792C147.511 80.7805 148.658 80.2202 150.103 80.2202C153.405 80.2202 154.132 82.6075 154.132 85.2743V92.4212H152.115V85.6839C152.115 83.8724 151.968 82.0449 149.666 82.0449C146.791 82.0449 146.648 84.7209 146.648 86.812V92.42H144.635V80.5038L146.648 80.5078Z" fill="#ED1C24"/>
<path d="M177.556 10.8203C180.596 10.8203 182.999 8.425 182.999 5.40985C182.999 2.3947 180.596 0 177.556 0C174.516 0 172.112 2.39585 172.112 5.40985C172.112 8.42385 174.515 10.8203 177.556 10.8203ZM177.556 0.881113C180.043 0.881113 182.116 2.84901 182.116 5.40985C182.116 6.6149 181.635 7.77059 180.78 8.62268C179.925 9.47478 178.765 9.95348 177.556 9.95348C176.346 9.95348 175.186 9.47478 174.331 8.62268C173.476 7.77059 172.995 6.6149 172.995 5.40985C172.995 2.84901 175.065 0.881113 177.556 0.881113ZM178.496 5.68599C179.309 5.65791 180.125 5.21736 180.125 4.02001C180.125 2.73958 179.131 2.40845 178.025 2.40845H175.455V8.49374H176.341V5.68656H177.473L179.034 8.49374H180.043L178.496 5.68656V5.68599ZM177.863 3.29071C178.593 3.29071 179.243 3.348 179.243 4.11683C179.243 4.94294 178.11 4.8043 177.281 4.8043H176.341V3.29071H177.863Z" fill="#ED1C24"/>
</svg>
