<svg width="250" height="100" viewBox="0 0 250 100" fill="none" xmlns="http://www.w3.org/2000/svg">
<path fill-rule="evenodd" clip-rule="evenodd" d="M250 86.1161V80.4972H0V86.1161H250ZM250 18.6245V13H0V18.6245H250Z" fill="#CC262D"/>
<path fill-rule="evenodd" clip-rule="evenodd" d="M250 77.3549V21.7668H0V77.3549H250Z" fill="black"/>
<path fill-rule="evenodd" clip-rule="evenodd" d="M48.1528 47.7088V47.3517V67.4459H72.1915L73.3565 59.1086H61.0491L61.5526 54.6918H72.5556L72.0478 45.713L61.261 45.5765V42.723H73.7206L72.2612 31.7456H48.0788C48.1528 33.8111 48.1528 35.8068 48.1528 39.1554V47.7088ZM238.781 38.5124H239.072L240.09 35.5195V38.5124H240.603V34.8068H239.872L238.852 37.9448L238.779 37.8751L237.759 34.8068H236.961V38.5124H237.542V35.5209L238.565 38.5138L238.781 38.5124ZM238.781 40.649C239.142 40.5096 239.439 40.373 239.806 40.1511C241.981 38.3744 242.284 36.1567 240.818 33.8793C240.168 33.0955 239.509 32.5948 238.781 32.3174C237.617 31.7428 236.233 31.8139 234.846 32.5209C234.706 32.6612 234.53 32.7618 234.338 32.8125C232.441 34.3146 232.152 36.0913 232.663 37.8751C232.811 38.3019 233.027 38.73 233.318 39.1525C233.826 39.73 234.338 40.1511 234.846 40.5096C236.089 41.1539 237.395 41.2165 238.781 40.649ZM238.781 31.8139C239.653 32.1695 240.459 32.7413 241.182 33.592C242.785 36.0899 242.424 38.5807 240.021 40.5081C239.582 40.7941 239.219 41.0046 238.782 41.1525C237.395 41.6547 236.089 41.5807 234.848 40.932C234.631 40.8666 234.34 40.649 234.119 40.5096C233.663 40.2053 233.268 39.819 232.953 39.3702C232.474 38.69 232.151 37.913 232.006 37.0942C231.939 36.62 231.939 36.1387 232.006 35.6646C232.23 34.5223 232.88 33.454 234.119 32.4497C234.338 32.3189 234.63 32.1723 234.848 32.0329C236.233 31.3843 237.545 31.3174 238.781 31.8139ZM234.848 34.8068H236.454V35.3075H235.142V38.5138H234.556V35.3075H233.242V34.8068H234.848ZM232.006 48.9904C232.084 49.6348 232.084 50.2053 232.006 50.9137C231.939 51.7728 231.641 52.6306 231.061 53.6961C230.393 54.804 229.664 55.874 228.877 56.9009C227.693 58.2824 226.48 59.6383 225.237 60.9678C224.212 62.0333 223.782 62.4586 223.267 62.8882C221.737 64.1713 220.572 64.9551 218.606 65.884C217.722 66.299 216.794 66.6103 215.839 66.8114C214.67 67.0874 213.288 67.1628 211.974 67.2353C210.963 67.2353 209.934 67.2353 209.21 67.1628C208.332 67.0874 207.968 67.0148 207.534 66.8754C207.173 66.8114 206.806 66.6678 206.368 66.5241C205.421 66.1628 204.695 65.9508 203.381 65.0945C202.728 64.6009 201.708 63.8825 200.908 63.1684C200.107 62.5853 199.351 61.9419 198.647 61.2438C197.955 60.642 197.298 60.0008 196.679 59.3234C195.767 58.3747 194.938 57.3491 194.201 56.258C193.615 55.3988 193.327 54.9023 192.814 53.6207C192.669 53.0502 192.456 52.1982 192.309 51.6278C192.24 50.9834 192.164 50.5623 192.164 50.127C192.095 49.2764 192.164 48.2778 192.381 47.3489C192.739 45.4982 193.473 43.7187 195.076 41.6532C195.51 41.0786 195.878 40.5736 196.755 39.6518C197.836 38.5223 198.953 37.4278 200.105 36.3701C201.153 35.4834 202.246 34.6515 203.381 33.8779C204.403 33.2349 205.492 32.6688 206.439 32.316C208.189 31.5322 209.934 31.242 211.974 31.1709H212.193C214.307 31.1709 216.271 31.5322 218.387 32.4469C220.426 33.2349 222.61 34.8054 224.213 36.2307C224.939 36.942 225.527 37.5863 226.18 38.2265C227.933 40.08 229.095 41.4356 230.404 43.6433C230.846 44.4314 231.279 45.356 231.567 46.2806C231.785 47.1478 231.932 48.0312 232.007 48.9222L232.006 48.9904ZM211.974 43.5011H213.069C214.384 43.861 215.256 44.2151 216.418 45.4314C217.59 46.7799 218.024 48.42 217.876 49.5623C217.801 50.1284 217.948 50.275 217.515 51.2721C217.15 52.2693 216.418 53.2679 215.839 53.6221C214.787 54.592 213.405 55.1259 211.974 55.1157C211.396 55.1157 210.808 55.0446 210.226 54.8312C209.573 54.6904 208.623 54.1242 207.82 53.3419C207.022 52.4827 206.587 51.6292 206.512 51.339C206.298 50.9137 206.229 50.4172 206.147 49.7757C206.072 49.137 206.147 48.4186 206.297 47.9222C206.367 47.4926 206.586 46.8553 206.947 46.2834C207.603 45.218 208.769 44.1497 210.011 43.7898C210.736 43.5011 211.322 43.4342 211.974 43.5011ZM172.929 54.9052C173.658 54.6918 174.166 54.4784 174.824 53.982C175.624 53.4101 176.644 52.1285 176.861 51.0588C177.011 50.0602 176.942 49.3461 176.861 48.494C176.716 47.1384 175.92 45.3574 174.319 44.4342C173.949 44.218 173.444 44.0046 172.929 43.7898C172.346 43.5693 171.693 43.4356 171.038 43.292C170.317 43.1511 169.577 43.1511 168.857 43.292C168.779 46.2109 168.857 51.1996 168.857 55.403C170.015 55.403 171.326 55.3362 172.71 54.9791C172.789 54.9777 172.857 54.9052 172.929 54.9052ZM172.929 31.4597H174.244C175.339 31.5336 176.861 31.9604 177.811 32.4483C178.534 32.8125 178.762 32.8125 179.854 33.8082C180.358 34.3146 181.163 35.0927 181.894 35.804C182.622 36.5892 183.422 37.3744 184.369 38.5124C185.379 39.6738 186.327 40.888 187.208 42.1497C187.814 42.9423 188.328 43.8014 188.739 44.7102C189.025 45.3574 189.176 45.7771 189.325 46.2095C189.467 46.7116 189.541 47.1384 189.617 47.632C189.686 49.5623 189.759 51.1285 189.174 53.1185C188.738 54.2707 188.452 55.1157 187.499 56.6207C186.753 57.712 185.975 58.7803 185.164 59.8241C184.223 61.0361 183.127 62.3917 182.183 63.3192C181.23 64.315 180.433 64.9551 179.924 65.3135C179.338 65.7446 179.049 65.884 178.682 66.0987C177.957 66.4558 177.082 66.7389 176.134 66.9508C175.551 67.0902 174.968 67.1642 174.097 67.2367C173.733 67.2367 173.369 67.3079 172.928 67.3079H170.744C169.506 67.3079 168.272 67.3079 165.716 67.2367H155.522C156.251 61.9607 156.251 56.9749 156.251 51.1996C156.251 48.2806 156.323 45.0018 156.251 41.6561C156.177 38.2499 155.957 34.8485 155.592 31.4611H172.201L172.929 31.4597ZM134.181 55.1925H134.62C136.004 54.9052 137.535 54.6221 138.985 52.6306C140.157 51.0588 140.377 49.3447 139.787 47.5651C139.35 46.282 137.822 44.5068 136.517 44.0743C135.563 43.6447 134.905 43.5011 134.179 43.5011C133.888 43.5011 133.596 43.5011 133.302 43.5679C132.141 43.7884 130.967 44.2166 130.026 45.0672C128.495 46.6433 128.125 48.3475 128.206 50.1299C128.276 50.8425 128.64 51.9208 129.515 52.9862C131.266 54.9777 132.723 55.1925 134.181 55.1925ZM134.181 31.3174C135.784 31.3174 137.315 31.5336 138.839 31.8878C139.935 32.2477 140.662 32.5209 142.195 33.3872C142.921 33.8082 144.012 34.4526 145.032 35.3075C146.054 36.0927 147.002 37.0174 148.09 38.0885C149.107 39.1539 150.201 40.373 150.999 41.5124C151.877 42.6433 152.535 43.6462 152.972 44.6376C153.409 45.5765 153.697 46.4243 153.841 47.2123C154.352 49.3475 154.283 51.6975 152.827 54.2722C152.313 55.1939 151.588 56.2622 150.498 57.5453C149.401 58.827 148.015 60.4003 147.07 61.3249C146.125 62.3206 145.683 62.6762 145.175 63.1044C143.575 64.4643 142.336 65.3164 140.374 66.1002C139.569 66.4572 138.619 66.8143 137.602 66.9523C136.435 67.1656 135.268 67.3093 134.179 67.3093C133.257 67.3833 132.33 67.3833 131.407 67.3093C128.568 67.0191 125.659 65.6692 122.306 62.6762C121.087 61.6425 119.92 60.5492 118.809 59.4002C116.189 56.6221 114.582 54.0545 114.361 51.0602C114.215 49.4897 114.361 47.9236 114.511 47.2792C114.659 46.568 114.944 45.713 115.31 44.861C115.75 44.0032 116.327 43.0003 117.063 42.0772C117.788 40.9335 118.957 39.7329 120.265 38.3772C120.948 37.6885 121.651 37.0202 122.374 36.373C123.69 35.3075 124.562 34.5934 126.165 33.5934C126.977 33.097 127.829 32.6706 128.713 32.3189C129.444 32.0315 129.882 31.8893 130.388 31.7442C130.864 31.5841 131.351 31.4642 131.846 31.3857C132.645 31.3174 133.378 31.3174 134.181 31.3174ZM94.4079 51.6292C94.9158 51.4883 95.3496 51.2721 95.7949 51.0588C96.3724 50.7003 96.8831 50.275 97.1747 49.9905C97.8347 49.4158 97.8347 49.2038 98.0523 48.7045C98.2686 47.632 98.4122 46.6448 97.6156 45.2194C97.3212 44.7842 96.9641 44.3602 96.4464 44.0758C95.8685 43.715 95.2242 43.4737 94.5516 43.3659H94.4079C93.6042 43.218 92.6597 43.1511 92.0068 43.0743H90.5516V52.201C91.6369 52.201 92.728 52.0531 93.6042 51.8468C93.9015 51.8454 94.1206 51.7728 94.4079 51.6292ZM94.4079 31.6773H98.6398C100.087 31.7427 100.894 31.8878 101.545 32.0941C102.203 32.3174 102.714 32.5948 103.148 32.8864C103.583 33.1709 103.949 33.4526 104.247 33.7414C104.535 34.0244 104.825 34.3146 105.408 34.9505C105.913 35.5949 106.718 36.5892 107.519 37.5878C110.07 40.5764 112.327 44.2834 112.617 46.5011C112.768 47.2109 112.768 47.7102 112.695 48.2138C112.468 49.4158 111.963 50.5637 111.236 51.8468C110.432 53.4827 108.394 55.4799 107.159 56.5496L113.93 67.3818H100.236L96.0111 61.5383H90.4747V67.4473H77.7292C77.8032 64.3164 77.8757 61.1115 77.8757 56.9763V44.5082C77.8757 41.3659 77.8757 40.0828 77.9469 38.73V34.592C77.8757 33.3872 77.8032 32.5208 77.5784 31.7427C82.6809 31.7427 87.7094 31.7427 91.351 31.6773H94.4079ZM17.5578 58.4714C17.5578 61.7474 17.491 64.6037 17.491 67.3818L30.1639 67.4473V64.6692V56.1171H42.5425L41.3774 46.9947H30.09L30.5281 42.7215C35.2622 42.7215 39.9905 42.7215 44.652 42.6433L42.9095 31.7427H17.5578V58.4714Z" fill="white"/>
</svg>
