<svg width="250" height="100" viewBox="0 0 250 100" fill="none" xmlns="http://www.w3.org/2000/svg">
<path d="M238.687 91.1081H240.075V81.0552L248.057 91.1081H249.167V78.8519H247.779V88.6981L240.006 78.8519H238.687V91.1081ZM225.708 90.0064C222.862 90.0064 220.849 87.7342 220.849 84.9111V84.8423C220.849 82.0192 222.862 79.8158 225.708 79.8158C228.554 79.8158 230.566 82.0881 230.566 84.9111V84.98C230.566 87.803 228.554 90.0064 225.708 90.0064ZM225.638 91.3146C229.386 91.3146 231.954 88.3539 231.954 84.98V84.9111C231.954 81.5372 229.456 78.5764 225.638 78.5764C221.891 78.5764 219.323 81.5372 219.323 84.9111V84.98C219.392 88.3539 221.891 91.3146 225.638 91.3146ZM211.202 91.1081H212.59V78.8519H211.202V91.1081ZM199.195 91.1081H200.583V80.0913H204.747V78.783H195.03V80.0913H199.195V91.1081ZM183.787 90.0064C180.941 90.0064 178.928 87.7342 178.928 84.9111V84.8423C178.928 82.0192 180.941 79.8158 183.787 79.8158C186.632 79.8158 188.645 82.0881 188.645 84.9111V84.98C188.645 87.803 186.632 90.0064 183.787 90.0064ZM183.717 91.3146C187.465 91.3146 190.033 88.3539 190.033 84.98V84.9111C190.033 81.5372 187.535 78.5764 183.717 78.5764C179.969 78.5764 177.401 81.5372 177.401 84.9111V84.98C177.471 88.3539 179.969 91.3146 183.717 91.3146ZM159.633 91.1081H161.022V81.1929L165.533 87.7342H165.602L170.114 81.1241V91.0392H171.502V78.783H170.114L165.602 85.462L161.091 78.783H159.703V91.1081H159.633ZM138.812 91.3146C140.894 91.3146 142.629 90.4884 143.809 89.4555V84.5668H138.673V85.8062H142.421V88.8358C141.588 89.5244 140.269 90.0752 138.881 90.0752C135.897 90.0752 133.953 87.8719 133.953 84.98V84.9111C133.953 82.1569 135.897 79.8847 138.673 79.8847C140.408 79.8847 141.519 80.4355 142.421 81.2618L143.323 80.229C142.074 79.1961 140.824 78.5764 138.742 78.5764C135.064 78.5764 132.565 81.5372 132.565 84.9111V84.98C132.496 88.4916 134.925 91.3146 138.812 91.3146ZM115.353 91.1081H116.741V81.0552L124.722 91.1081H125.833V78.8519H124.445V88.6981L116.671 78.8519H115.353V91.1081ZM106.677 91.1081H108.065V78.8519H106.677V91.1081ZM95.433 91.3146C97.654 91.3146 99.1116 90.4884 100.361 89.1801L99.4586 88.285C98.2787 89.3867 97.1682 90.0752 95.433 90.0752C92.7262 90.0752 90.644 87.8719 90.644 84.98V84.9111C90.644 82.0881 92.7262 79.8847 95.433 79.8847C97.0988 79.8847 98.2787 80.5732 99.3198 81.5372L100.291 80.5044C99.0421 79.3339 97.7234 78.5764 95.433 78.5764C91.8239 78.5764 89.1865 81.4684 89.1865 84.9111V84.98C89.1865 88.4916 91.8239 91.3146 95.433 91.3146ZM72.0433 91.1081H73.4314V81.0552L81.4131 91.1081H82.5235V78.8519H81.1354V88.6981L73.362 78.8519H72.0433V91.1081ZM56.774 86.6325L59.6196 80.3667L62.4652 86.6325H56.774ZM53.3037 91.1081H54.7612L56.2187 87.8719H62.9511L64.4086 91.1081H65.9355L60.3137 78.7142H58.995L53.3037 91.1081ZM43.448 91.1769H44.6973L50.0416 78.783H48.5147L44.0727 89.3867L39.7001 78.783H38.1732L43.448 91.1769ZM23.8756 89.7998V80.0913H26.7906C29.9139 80.0913 31.9267 82.2258 31.9267 84.98V85.0488C31.9267 87.7342 29.9139 89.8687 26.7906 89.8687H23.8756V89.7998ZM22.4181 91.1081H26.7212C30.608 91.1081 33.3148 88.4227 33.3148 84.98V84.9111C33.3148 81.4684 30.608 78.783 26.7212 78.783H22.4181V91.1081ZM7.14876 86.6325L9.9944 80.3667L12.84 86.6325H7.14876ZM3.67847 91.1081H5.13599L6.59351 87.8719H13.3259L14.7834 91.1081H16.3103L10.6885 78.7142H9.36975L3.67847 91.1081Z" fill="#53575A"/>
<path d="M80.5108 45.9391L74.6807 46.0768C69.1283 46.2145 66.6296 48.1425 66.6296 51.5164C66.6296 54.8214 68.92 57.0936 73.2232 57.0936C76.8323 57.0936 79.1227 55.7165 80.5108 54.546V45.9391ZM82.8012 64.3234L81.3437 60.743C78.7063 63.084 75.0278 65.1497 69.6835 65.1497C62.2571 65.1497 56.427 60.1233 56.427 52.2738C56.427 44.0112 63.0205 39.4668 73.2926 39.1225L80.4414 38.8471V37.8142C80.4414 32.9944 77.0405 31.0664 72.7374 31.0664C68.2954 31.0664 61.563 33.5452 58.995 35.06V27.6237C64.3393 24.0432 69.4059 23.217 74.7501 23.217C84.7446 23.217 90.7829 27.2794 90.7829 37.8142V53.6509C90.7829 59.4347 90.9217 62.3955 91.5464 64.2546H82.8012V64.3234ZM175.319 30.9287C170.391 30.9287 167.407 35.3355 167.407 39.7422H183.093C182.884 35.4043 180.525 30.9287 175.319 30.9287ZM167.615 46.972C167.754 52.8935 172.751 57.0248 178.998 57.0248C182.815 57.0248 188.437 55.0968 191.977 53.2378V60.743C187.465 63.9103 182.052 65.1497 177.332 65.1497C163.243 65.1497 157.274 54.9591 157.274 44.2178C157.274 32.7878 164.076 23.2858 175.597 23.2858C186.494 23.2858 193.573 31.4796 193.573 43.9423V46.9031H167.615V46.972ZM125.486 24.0432C124.375 23.6989 123.265 23.4235 122.154 23.4235C118.337 23.4235 115.144 24.8006 110.98 28.4499L110.147 24.2498H101.263V64.3234H111.535L111.466 36.4371C114.173 33.9584 116.88 32.4435 119.239 31.9616C121.321 31.5484 123.542 31.273 125.555 31.8927V24.0432H125.486ZM155.608 24.0432C154.497 23.6989 153.387 23.4235 152.277 23.4235C148.459 23.4235 145.267 24.8006 141.102 28.4499L140.269 24.2498H131.385V64.3234H141.588L141.519 36.4371C144.225 33.9584 146.932 32.4435 149.292 31.9616C151.374 31.5484 153.595 31.273 155.608 31.8927V24.0432ZM250 32.1681V24.5252H242.157V13.1641L231.885 13.0264V24.5252H215.505V13.1641L205.233 13.0264V24.5252H197.46V32.1681H205.233V53.5132C205.233 61.3627 212.937 65.494 222.723 65.494V56.6805C218.49 56.6805 215.505 54.6837 215.505 51.5852V32.1681H231.885V53.5132C231.885 61.3627 239.45 65.494 249.237 65.494V56.6805C245.003 56.6805 242.088 54.6837 242.088 51.5852V32.1681H250ZM48.3759 42.0832V34.3715H28.387L38.5203 43.3915V55.51C35.9522 56.4051 33.3842 56.6805 31.2326 56.6805C18.9478 56.6805 11.2438 47.8671 11.2438 36.1617C11.2438 25.4203 17.8373 16.4003 32.6208 16.4003C38.5203 16.4003 44.0727 18.1217 48.3759 20.3251V10.9608C44.281 9.51481 38.7285 8 31.5797 8C12.8401 8 0 20.4628 0 37.0568C0 52.8935 11.1049 65.1497 28.6646 65.1497C36.5769 65.1497 43.3093 63.2906 48.3065 60.9495V42.0832H48.3759Z" fill="#ED1C24"/>
</svg>
