<svg width="250" height="100" viewBox="0 0 250 100" fill="none" xmlns="http://www.w3.org/2000/svg">
<path d="M17.5146 23.597H33.2928V41.4859H50.2708V56.3046H33.2928V74.2991H17.5146V56.3046H0V41.4859H17.5146V23.597ZM96.3192 59.6672V43.4305H136.875C136.909 43.9593 136.935 44.5409 136.952 45.1757C136.97 45.8104 136.978 46.7447 136.978 47.9786C136.978 61.3065 133.538 71.6462 126.658 78.9976C119.778 86.3491 110.096 90.0248 97.6123 90.0248C91.4737 90.0248 86.0166 89.0817 81.2402 87.1953C76.4639 85.309 72.1963 82.4267 68.4371 78.5481C64.8506 74.8461 62.0661 70.465 60.0829 65.4052C58.1003 60.3457 57.1084 55.0483 57.1084 49.5124C57.1084 43.7302 58.0741 38.4148 60.0055 33.5669C61.9369 28.7186 64.8161 24.3553 68.644 20.4767C72.4377 16.704 76.7917 13.8483 81.7058 11.9088C86.62 9.96972 91.9224 9 97.6123 9C105.027 9 111.588 10.4986 117.295 13.4954C123.003 16.4926 127.805 20.9531 131.702 26.8764L113.804 35.6554C111.665 32.6586 109.26 30.4283 106.588 28.9649C103.915 27.5018 100.923 26.7702 97.6123 26.7702C91.4395 26.7702 86.5772 28.8769 83.0245 33.0905C79.4729 37.304 77.6966 43.0596 77.6966 50.3583C77.6966 57.7274 79.4729 63.5275 83.0249 67.7586C86.5768 71.9898 91.4395 74.1052 97.6126 74.1052C102.854 74.1052 107.225 72.7918 110.726 70.1652C114.226 67.5385 116.269 64.0387 116.856 59.6668L96.3192 59.6672ZM145.803 88.174V10.7452H192.204V27.7226H165.926V41.156H190.704V57.7632H165.926V88.174H145.803ZM217.244 23.4153H233.022V41.3042H250V56.1229H233.022V74.1173H217.244V56.1229H199.729V41.3042H217.244V23.4153Z" fill="#0564A5"/>
</svg>
