<svg width="250" height="100" viewBox="0 0 250 100" fill="none" xmlns="http://www.w3.org/2000/svg">
<path d="M124.123 0.00901442C143.126 -0.247627 160.496 4.99189 173.192 13.6535C186.22 22.5435 194.39 35.0503 194.58 49.0462C194.768 63.0384 186.939 75.7682 174.152 85.014C161.697 94.0204 144.472 99.7344 125.46 99.991C106.46 100.248 89.0919 95.0014 76.3978 86.3338C63.3658 77.4349 55.1928 64.9169 55.0033 50.9188C54.8146 36.9348 62.6474 24.2154 75.4369 14.974C87.8945 5.97294 105.119 0.26491 124.123 0.00901442Z" fill="#2360A5"/>
<path fill-rule="evenodd" clip-rule="evenodd" d="M124.161 3.25583C148.498 2.92757 169.967 11.8839 181.755 25.4747L185.282 25.3285C186.681 26.9347 188.19 28.8222 188.85 30.6143L185.633 30.6575C189.213 36.288 191.246 42.5182 191.335 49.085C191.428 56.071 189.316 62.737 185.457 68.7531L188.453 68.9337C187.244 70.9995 186.589 72.1738 184.92 74.0687L181.781 73.689C170.226 87.2022 149.329 96.4234 125.425 96.7449C88.7613 97.2403 58.5978 76.6284 58.2501 50.8815C57.9024 25.133 87.4998 3.75046 124.161 3.25583ZM171.785 72.4804L163.419 71.4695L73.3994 65.8197C61.946 65.0811 119.863 114.199 171.785 72.4804ZM74.4849 31.602L171.366 25.6336C121.577 -12.4276 67.9338 31.9848 74.4849 31.602Z" fill="#F6D43C"/>
<path fill-rule="evenodd" clip-rule="evenodd" d="M189.306 30.565C192.812 35.016 194.515 42.8286 194.316 50.5227C194.129 57.7504 192.242 64.8729 189.223 69.0046L183.657 68.7084C184.983 65.3056 185.802 61.4351 186.199 58.0637L176.196 58.3211C175.482 61.4625 174.438 64.5198 173.082 67.4423L164.165 66.8321C166.284 60.601 167.235 54.8154 167.462 48.6098C167.621 44.6475 167.146 40.6226 166.365 36.6282L165.937 34.5698C165.674 33.3821 165.392 32.1974 165.094 31.0201H165.198L165.191 30.9881L189.306 30.565ZM177.278 49.1992L186.315 49.0425C186.005 45.4465 185.294 41.855 184.287 38.2643L176.214 38.3941C176.971 42.0468 177.333 45.6487 177.278 49.1992ZM73.7195 45.4995L79.6469 45.4197C80.0931 42.5071 81.0495 39.5602 82.517 36.5424L90.3781 36.0828C86.145 44.5356 85.7533 53.0107 89.9193 61.7283L82.6274 61.7515C81.1569 58.9135 80.1871 56.1061 79.7074 53.2965L73.5778 53.3793C73.9195 55.9263 74.6491 58.4256 75.7704 60.9039L69.3096 61.1434C65.1027 52.8488 65.4123 45.1018 69.4469 37.2273L76.2979 36.8819C75.0289 39.8638 74.1694 42.7242 73.7195 45.4995ZM119.933 34.4244L128.128 33.1538C130.024 39.9675 130.155 50.3249 129.332 58.6337L136.489 58.9791C136.884 60.9845 136.616 63.2458 135.861 65.2676L120.362 63.9068L120.39 63.8001L119.962 63.7695C121.751 54.9467 121.725 42.7451 119.933 34.4244ZM140.534 33.1203L148.906 32.3518C151.401 39.2006 151.728 50.8352 150.586 59.6379L159.236 59.6968C160.492 60.7592 159.477 63.962 158.358 66.2583L149.429 65.7227V65.7242L141.519 65.2758C144.321 56.4649 143.375 41.4268 140.534 33.1203ZM100.863 56.3366C105.401 56.4612 114.625 56.7999 114.476 57.1095L113.912 63.0779L113.771 62.9086L96.53 62.0618C96.53 62.0618 97.0344 62.0297 97.5447 61.9954L96.2204 61.9231C91.483 53.5151 92.0679 44.0037 96.6658 35.2943L102.252 35.0675C102.249 35.0795 102.246 35.0914 102.243 35.1033L114.22 34.5519L115.007 40.06L101 40.8934C100.717 42.6615 100.523 44.4429 100.419 46.2306L114.342 46.0426H114.377L114.452 51.588L114.417 51.5888L100.406 51.7775C100.487 53.3002 100.639 54.8199 100.863 56.3366Z" fill="#2360A5"/>
</svg>
