<svg width="250" height="100" viewBox="0 0 250 100" fill="none" xmlns="http://www.w3.org/2000/svg">
<g clip-path="url(#clip0_2025_234)">
<path d="M34 -0.162628H216.898V99.8374H34V-0.162628Z" fill="#FBC427"/>
<path fill-rule="evenodd" clip-rule="evenodd" d="M198.236 15.649C198.236 17.6566 199.845 19.162 201.763 19.162C203.673 19.162 205.273 17.6566 205.273 15.649C205.273 13.6783 203.673 12.1739 201.763 12.1739C199.845 12.1739 198.236 13.6783 198.236 15.649ZM198.872 15.649C198.872 13.9778 200.126 12.6884 201.763 12.6884C203.382 12.6884 204.636 13.9778 204.636 15.649C204.636 17.3582 203.382 18.6476 201.763 18.6476C200.126 18.6476 198.872 17.3582 198.872 15.649ZM200.397 17.7037H201.034V15.9485H201.708L202.821 17.7037H203.504L202.335 15.9014C202.943 15.8364 203.411 15.5277 203.411 14.7896C203.411 14.0054 202.952 13.6225 201.979 13.6225H200.397V17.7037ZM201.034 14.1359H201.876C202.307 14.1359 202.774 14.2199 202.774 14.7614C202.774 15.4069 202.259 15.4351 201.698 15.4351H201.034V14.1359Z" fill="#0F1D52"/>
<path fill-rule="evenodd" clip-rule="evenodd" d="M109.015 51.9375V56.2085L106.026 59.1925H93.0716L90.0823 56.2085V38.3048L93.0716 35.3217H106.026L109.015 38.3048V50.2404H97.5559V41.1442H101.542V45.3246H97.5559V54.2001H101.542V51.9375H109.015Z" fill="#0F1D52"/>
<path d="M112.752 35.3217V59.1925H120.226V41.8664H124.212V59.1925H131.685V38.3048L128.696 35.3217H122.717L120.226 37.8083V35.3217H112.752Z" fill="#0F1D52"/>
<path fill-rule="evenodd" clip-rule="evenodd" d="M154.355 35.3217H148.376V37.8084L145.885 35.3217H138.411L135.422 38.3049V56.2085L138.411 59.1926H146.882V41.2891H142.896V53.6236H146.882V63.2331H90.0823V69.7778H151.366L154.355 66.7938V35.3217Z" fill="#0F1D52"/>
<path d="M177.025 35.3217H161.082L158.092 38.3048V47.2569L161.082 50.2404H169.552V53.2252H158.092V59.1925H174.036L177.025 56.2085V47.2569L174.036 44.2732H165.566V41.289H177.025V35.3217Z" fill="#0F1D52"/>
<path d="M188.236 59.1925V31.8404H198.2V25.2266H188.236V19.1497H180.762V25.2266H90.0823V31.8404H180.762V59.1925H188.236Z" fill="#0F1D52"/>
<path d="M46.2451 25.2405L46.2497 37.6861H50.6095V56.6884H46.2497V69.7827H62.853V54.237H69.3486V69.7827H86.0483V56.6452H82.1635V37.6861H86.0719V25.2267H69.3486V38.9586H62.853L62.8484 25.2405H46.2451Z" fill="#0F1D52"/>
<path d="M150.889 75.6635H143.767L141.478 87.6653H144.391L145.293 82.8873H149.294L149.733 80.6022H145.732L146.241 77.9941H150.449L150.889 75.6635Z" fill="#0F1D52"/>
<path d="M157.101 75.6635H154.188L151.899 87.6653H154.813L157.101 75.6635Z" fill="#0F1D52"/>
<path d="M166.296 85.0331H162.48L164.284 75.6635H161.37L159.081 87.6653H165.787L166.296 85.0331Z" fill="#0F1D52"/>
<path d="M177.388 75.6635H168.3L167.838 78.2021H170.913L169.087 87.6653H172.023L173.827 78.2021H176.925L177.388 75.6635Z" fill="#0F1D52"/>
<path d="M187.347 75.6635H180.086L177.797 87.6653H185.058L185.497 85.2874H181.173L181.659 82.6561H185.798L186.214 80.3951H182.098L182.561 77.9941H186.908L187.347 75.6635Z" fill="#0F1D52"/>
<path fill-rule="evenodd" clip-rule="evenodd" d="M199.344 78.5252C199.344 76.7936 198.118 75.5939 195.297 75.5939C193.863 75.5939 192.06 75.6172 191.112 75.6635L188.823 87.6653H191.736L192.638 82.8873H192.754L194.789 87.6653H198.234L196.338 83.8334C196.06 83.3256 195.875 82.8873 195.667 82.5178C197.332 82.2634 199.344 80.995 199.344 78.5252ZM196.176 79.0331C196.176 80.164 195.228 81.0181 193.933 81.0181C193.447 81.0181 193.216 80.995 193.008 80.9718L193.609 77.9021C193.863 77.879 194.164 77.8558 194.58 77.8558C195.713 77.8558 196.176 78.3405 196.176 79.0331Z" fill="#0F1D52"/>
</g>
<defs>
<clipPath id="clip0_2025_234">
<rect width="250" height="100" fill="white"/>
</clipPath>
</defs>
</svg>
