<svg width="250" height="100" viewBox="0 0 250 100" fill="none" xmlns="http://www.w3.org/2000/svg">
<path d="M26.7556 2.07016C26.434 2.12882 25.4399 2.33411 24.5628 2.51008C18.4522 3.74184 14.1543 6.64527 10.7628 11.8949C9.21317 14.2411 8.30682 16.6167 7.63436 20.0187C7.42969 20.9865 7.31274 26.9107 7.31274 35.8556C7.31274 50.6074 7.37122 51.6339 8.59919 55.5638C8.97928 56.8542 9.94411 58.7018 11.3183 60.9014C12.2246 62.3971 15.8208 65.8284 17.2535 66.591C17.8967 66.9429 18.5691 67.3535 18.7738 67.5294C18.9785 67.6761 20.3526 68.2333 21.8437 68.7319L24.5336 69.641H224.693L226.886 68.9372C230.745 67.7347 233.084 66.2977 235.978 63.2476C238.025 61.136 238.814 59.9922 239.779 58.0566C241.884 53.6575 241.884 53.7161 242.001 36.5888C242.118 21.8663 242.089 21.1624 241.504 18.7576C240.481 14.5637 238.873 11.4843 236.183 8.63955C233.201 5.53082 230.277 3.82982 225.57 2.56873C223.962 2.12882 215.278 2.07016 125.578 2.01151C71.5473 1.98218 27.0772 2.01151 26.7556 2.07016ZM223.669 6.02939C229.692 6.76258 234.838 10.8391 237.148 16.7046C238.522 20.0773 238.581 21.0451 238.581 35.8849C238.581 48.7304 238.522 50.1675 238.025 52.2497C237.323 55.1532 236.797 56.3556 235.16 58.8485C233.055 62.0452 229.488 64.4794 225.307 65.5645C223.319 66.0924 219.284 66.1217 124.555 66.1217C15.6162 66.1217 24.4751 66.2683 20.4988 64.2741C18.2183 63.1303 14.4467 59.5816 13.3356 57.4994C11.0844 53.3935 10.8505 51.2526 10.8505 36.0609C10.8505 18.083 11.2598 16.0888 16.0547 10.8684C18.2183 8.55157 22.2531 6.41065 25.206 6.05872C28.3637 5.64813 220.541 5.6188 223.669 6.02939Z" fill="black"/>
<path d="M73.2429 18.5816C66.7522 19.0802 61.9573 22.5702 60.1738 28.1424C59.209 31.0752 59.0628 32.0723 59.0628 35.357C59.0628 40.8706 60.1446 44.9178 62.3374 47.7333C63.6823 49.4343 64.5009 50.1088 66.5183 51.106C69.6467 52.6603 71.5764 53.0122 76.7514 53.0416C81.8095 53.0416 83.5345 52.6896 86.9553 50.9886C89.5574 49.6689 92.218 46.6481 93.2413 43.8034C94.6154 39.9028 95.171 34.5652 94.4108 32.1016C94.2646 31.5444 94.0015 30.4886 93.8553 29.7554C92.9489 24.975 89.762 21.2798 85.2887 19.7547C84.2947 19.4321 83.3006 19.0509 83.0374 18.9042C82.4235 18.5816 76.0205 18.3763 73.2429 18.5816ZM79.6751 24.5644C82.5989 25.2683 84.2947 26.9107 85.5519 30.1954C86.0197 31.4271 86.1074 32.3656 86.0781 35.9142C86.0197 40.7533 85.6688 42.0437 83.7976 44.2726C81.9557 46.5015 80.8446 46.9121 76.7514 46.9121C73.6522 46.8828 73.0967 46.8241 71.9857 46.2082C70.5238 45.4164 68.4187 43.0995 68.4187 42.3077C68.4187 42.0144 68.2141 41.3398 67.9217 40.812C67.5416 40.0788 67.4539 38.9936 67.4539 35.621C67.4539 31.8964 67.5416 31.1632 68.0971 29.7554C68.7696 28.1131 69.9099 26.7054 71.4594 25.5616C73.1844 24.3298 76.8684 23.8899 79.6751 24.5644ZM25.3813 35.181C25.3228 44.1553 25.3813 51.7512 25.4983 52.0738C25.7029 52.5723 26.0245 52.631 28.8898 52.631C30.9657 52.631 32.1644 52.5137 32.3983 52.2791C32.6614 52.0151 32.7491 50.1088 32.7491 45.563C32.7491 40.5187 32.8368 39.1403 33.1585 38.8763C33.4216 38.6417 35.4682 38.5537 39.9415 38.6124L46.3445 38.7004L46.4907 45.5924L46.6369 52.4843L49.97 52.5723C52.1628 52.631 53.42 52.543 53.6831 52.3084C54.034 52.0151 54.0924 49.2583 54.0924 35.7969C54.0924 26.9107 53.9755 19.4614 53.8585 19.2561C53.6539 18.9922 52.7183 18.9042 50.1161 18.9629L46.6369 19.0509L46.5492 25.4736C46.5199 29.6088 46.3738 32.043 46.1691 32.3069C45.7013 32.8348 33.9771 32.8642 33.2462 32.3069C32.8076 32.0137 32.7491 31.1632 32.6907 25.5029L32.6029 19.0509L29.036 18.9629L25.4398 18.8749L25.3813 35.181ZM98.8549 19.4614C98.3578 20.3413 98.4455 38.9643 98.9426 42.073C99.6735 46.6775 101.515 49.4343 104.936 51.0766C107.071 52.1031 111.164 52.6017 117.567 52.6017C121.397 52.631 122.508 52.543 122.771 52.2204C123.005 51.9565 123.093 50.9007 123.034 49.3463L122.946 46.9121L116.953 46.7655C110.579 46.6188 109.527 46.3842 107.918 44.9178C106.34 43.4514 106.281 43.1288 106.135 30.6353L105.989 19.0509L102.568 18.9629C99.4104 18.9042 99.118 18.9335 98.8549 19.4614ZM134.291 19.2268C130.197 19.6667 127.332 21.4557 125.958 24.4471C125.402 25.5909 125.315 26.3241 125.315 29.1689C125.344 31.9843 125.432 32.7762 125.958 33.8906C126.777 35.6796 128.443 37.146 130.577 37.9965C132.215 38.6417 132.77 38.7004 140.489 38.847C144.991 38.935 148.88 39.1109 149.114 39.2576C150.605 40.1374 150.868 40.6653 150.868 42.6596C150.868 46.2962 150.225 46.4722 136.922 46.4722C129.613 46.4722 126.923 46.5602 126.66 46.8241C126.221 47.264 126.192 51.2819 126.601 52.0738C126.894 52.6017 127.332 52.631 136.542 52.631C147.944 52.631 151.424 52.3377 153.938 51.1353C156.131 50.0795 157.067 49.229 158.002 47.3227C158.704 45.9736 158.762 45.5044 158.762 42.337C158.762 38.5244 158.411 37.2926 156.745 35.533C154.961 33.5974 153.236 33.2748 143.705 33.0108C135.489 32.8055 134.7 32.6589 133.618 31.3978C133.033 30.6646 133.18 27.7612 133.852 26.852C134.992 25.2976 136.337 25.1217 146.95 25.0923C154.026 25.063 156.686 24.975 156.95 24.7111C157.33 24.3298 157.447 20.7519 157.125 19.5494L156.95 18.9042L146.804 18.9335C141.249 18.9629 135.606 19.1095 134.291 19.2268ZM175.135 19.3441C167.914 20.3999 164.464 23.4793 162.826 30.43C162.037 33.6853 162.066 39.1989 162.856 41.7504C164.376 46.5308 166.393 49.141 170.019 50.9007C172.621 52.1617 174.053 52.3377 182.883 52.543C189.783 52.6896 190.836 52.6603 191.157 52.2497C191.42 51.9565 191.508 51.018 191.45 49.3463L191.362 46.9121L184.199 46.7068C179.696 46.5895 176.539 46.3842 175.691 46.1203C173.966 45.6217 172.358 44.3899 171.656 43.0115C171.071 41.8384 170.779 39.5215 171.159 38.9057C171.305 38.6417 173.82 38.5537 181.1 38.5537C189.111 38.5537 190.923 38.4657 191.187 38.1431C191.42 37.8792 191.508 36.8234 191.45 35.269L191.362 32.8348L181.275 32.6882L171.188 32.5416L171.1 31.1045C171.013 29.8434 171.13 29.4622 172.065 28.1424C172.621 27.2919 173.469 26.4414 173.907 26.2361C176.363 25.0337 176.685 24.975 184.053 24.7991L191.362 24.6231L191.45 22.4235C191.508 21.2211 191.45 19.9307 191.362 19.5788L191.216 18.9042L184.403 18.9335C180.69 18.9629 176.509 19.1388 175.135 19.3441ZM194.344 19.4028C194.227 19.4908 194.14 20.7519 194.14 22.1596C194.14 24.6818 194.14 24.7111 194.9 24.8871C195.338 25.0044 197.794 25.063 200.338 25.0337C204.051 25.0044 205.074 25.063 205.279 25.3856C205.425 25.6202 205.542 31.7497 205.542 39.023C205.542 50.842 205.601 52.3084 206.01 52.455C206.273 52.543 207.881 52.631 209.635 52.631C211.916 52.631 212.881 52.5137 213.115 52.2497C213.319 51.9565 213.465 47.7626 213.495 38.5244L213.582 25.2097L218.991 25.063C221.974 24.975 224.576 24.7991 224.78 24.6818C225.248 24.3592 225.277 20.048 224.78 19.5494C224.517 19.2855 220.716 19.1975 209.489 19.1975C201.244 19.1975 194.432 19.2855 194.344 19.4028ZM82.0141 83.3957C80.3768 84.1582 78.5056 86.2111 77.804 88.0588C76.9853 90.141 76.9561 93.5724 77.7455 95.0974C78.301 96.1825 79.3535 97.297 80.6985 98.1768C81.1663 98.5287 82.0434 98.6754 83.2713 98.6754C85.1133 98.6754 86.0197 98.3528 87.6569 97.1503C88.5341 96.5051 90.3468 94.1296 90.3468 93.631C90.3468 93.4257 90.5515 92.7219 90.7854 92.0766C92.8027 86.4457 87.2476 80.9615 82.0141 83.3957ZM86.4875 85.0087C87.7447 85.6539 88.3586 86.5044 88.7387 88.2347C89.4989 91.4314 87.8908 95.244 85.3472 96.3878C83.8269 97.0624 83.0082 97.0623 81.6341 96.3585C78.4764 94.7455 78.3887 89.3492 81.4586 86.1525C82.7743 84.7447 85.0256 84.2462 86.4875 85.0087ZM103.416 83.3663C102.1 84.0115 100.434 85.5952 99.8197 86.7977C98.621 89.1146 98.2409 92.3113 98.9133 94.4229C99.4689 96.1825 99.9074 96.8571 101.223 97.7955C102.217 98.5287 102.685 98.6754 104.147 98.6754C106.281 98.6754 107.714 97.9715 109.205 96.2705C110.901 94.2762 111.135 93.1031 109.79 93.1031C109.293 93.1031 108.913 93.455 108.357 94.3935C107.041 96.6224 104.907 97.4436 102.86 96.4465C101.165 95.6253 100.814 94.8334 100.814 91.93C100.814 89.3198 101.34 87.6775 102.597 86.2405C103.357 85.3606 105.141 84.5981 106.398 84.5981C107.363 84.5981 107.772 84.8034 108.62 85.6246C109.176 86.2111 109.643 86.915 109.643 87.2083C109.643 87.8241 110.111 88.0881 110.901 87.8828C112.333 87.5015 110.784 84.3342 108.649 83.3077C107.334 82.6918 104.819 82.7211 103.416 83.3663ZM182.649 83.3957C181.334 84.0115 179.375 85.8592 178.731 87.0616C178.088 88.2641 177.474 90.9035 177.474 92.3113C177.474 93.8656 178.205 95.9772 179.024 96.8571C179.375 97.2383 180.193 97.8249 180.807 98.1475C182.415 98.9686 185.514 98.7927 187.707 97.7076L189.315 96.945L189.842 94.6575C190.105 93.3964 190.339 92.018 190.339 91.5488V90.7569H187.298C184.433 90.7569 184.257 90.7862 184.111 91.4021C183.848 92.3699 184.082 92.5166 185.953 92.5166C186.889 92.5166 187.737 92.6339 187.824 92.7805C187.912 92.8978 187.883 93.6017 187.766 94.3056C187.561 95.4493 187.415 95.6546 186.245 96.2412C183.965 97.3556 181.772 97.0037 180.427 95.2734C179.93 94.6282 179.813 94.0709 179.813 92.0766C179.813 88.528 180.866 86.4164 183.234 85.214C184.959 84.3635 186.567 84.3928 187.678 85.3606C188.175 85.7712 188.584 86.2698 188.584 86.4751C188.584 87.003 189.549 87.8241 190.134 87.8241C191.303 87.8241 191.07 86.0645 189.725 84.4221C188.467 82.8971 184.842 82.3692 182.649 83.3957ZM242.118 83.337C241.007 83.8942 239.457 85.8592 239.457 86.7097C239.457 87.6189 240.539 89.4665 241.416 90.053C241.855 90.3463 243.141 91.0795 244.252 91.6367C246.708 92.8685 247.352 93.7483 246.796 95.0681C246.065 96.8277 242.878 97.5023 241.182 96.2705C240.685 95.8892 240.218 95.1854 240.013 94.4815C239.75 93.4551 239.633 93.3671 238.785 93.455C237.996 93.543 237.849 93.6603 237.908 94.3056C237.996 95.7133 238.96 97.297 240.188 97.9715C241.738 98.8807 244.808 98.9393 246.445 98.1181C249.106 96.7397 249.954 93.807 248.229 91.842C247.761 91.2848 246.474 90.405 245.393 89.8477C242.293 88.3227 241.796 87.9121 241.796 86.9443C241.796 85.6832 243.083 84.5981 244.574 84.5981C246.007 84.5981 247.527 85.4779 248.024 86.5631C248.463 87.6189 248.813 87.8535 249.457 87.5015C250.743 86.7977 249.603 84.3048 247.527 83.3077C246.241 82.6918 243.405 82.7211 242.118 83.337ZM0.295629 83.5716C-0.435305 84.4515 0.17868 84.8621 2.25453 84.95C4.12573 85.038 4.24268 85.0673 4.35963 85.7712C4.38886 86.1818 4.24268 87.5602 3.97954 88.8506C2.81004 94.4229 2.63462 95.3907 2.4592 96.8277C2.28377 98.1475 2.34225 98.4114 2.78081 98.5581C3.54098 98.8513 4.24268 98.2941 4.33039 97.3263C4.35963 96.8571 4.59353 95.5373 4.85666 94.4229C5.1198 93.2791 5.49988 91.5781 5.70455 90.6103C5.93845 89.6425 6.17234 88.2641 6.28929 87.5309C6.58167 85.302 7.02023 84.8914 9.1838 84.8914C11.1427 84.8914 11.9321 84.4515 11.5813 83.5716C11.3474 82.9264 0.85114 82.9264 0.295629 83.5716ZM19.4754 83.4837C19.4169 83.6889 19.1537 84.9207 18.8906 86.2111C18.5982 87.5015 18.1889 89.3199 17.955 90.229C17.341 92.6925 17.4287 95.3907 18.1304 96.4465C20.0016 99.3206 25.0305 99.4672 27.194 96.7104C28.3343 95.2734 28.8898 93.6603 29.5623 89.8771C29.7377 88.9972 30.0593 87.5309 30.2932 86.6217C30.5271 85.7419 30.7025 84.5688 30.7025 84.0702C30.7025 83.2197 30.6148 83.1317 29.8546 83.1317C28.919 83.1317 29.036 82.7211 27.5741 89.8771C26.697 94.1882 25.9661 95.7133 24.4165 96.4465C23.0716 97.0917 21.6389 97.033 20.7326 96.2412C19.3876 95.1267 19.2415 94.5108 19.7093 92.4579C20.411 89.4958 21.0249 86.3284 21.2296 84.6568L21.4343 83.1317H20.4987C20.0016 83.1317 19.5338 83.3077 19.4754 83.4837ZM39.6199 83.9236C39.503 84.3928 39.2691 85.5952 39.0352 86.651C38.8305 87.7068 38.4504 89.5545 38.1873 90.7569C37.9534 91.9593 37.5441 93.9536 37.2809 95.1561C36.6669 97.8835 36.7547 98.5287 37.7195 98.5287C38.6258 98.5287 39.0352 97.7076 39.4737 95.0974C40 91.754 40.0877 91.6367 41.9881 91.6367C43.4793 91.6367 43.7424 91.7247 44.561 92.6339C45.0581 93.1618 45.7013 94.2469 45.9937 95.0387C47.0755 98.0008 47.4555 98.5287 48.3911 98.5287C49.1513 98.5287 49.2683 98.4407 49.1805 97.7955C49.0928 96.7691 48.011 94.3055 47.1924 93.1911C46.8123 92.6925 46.4907 92.1353 46.4907 91.9593C46.4907 91.8127 47.0755 91.4021 47.7771 91.1088C50.2623 89.9944 51.4318 87.3842 50.4378 85.1553C49.6483 83.425 48.7127 83.1317 43.8301 83.1317H39.7661L39.6199 83.9236ZM47.6894 85.214C49.1513 85.9765 48.8882 88.2641 47.2216 89.2905C46.3738 89.8184 45.8475 89.8771 43.5085 89.8184C40.8187 89.7304 40.7894 89.7304 40.8479 88.9972C40.9356 87.4722 41.3157 85.6246 41.6081 85.2433C41.9589 84.8034 46.8708 84.7447 47.6894 85.214ZM59.9984 83.4837C59.7937 83.6889 59.6475 84.1582 59.6475 84.5688C59.6475 85.0087 59.4721 86.1818 59.209 87.2376C58.9751 88.2934 58.595 90.1997 58.3318 91.4901C58.0687 92.7805 57.6594 94.7161 57.3963 95.8013C57.1624 96.8864 57.0162 97.9715 57.1331 98.2355C57.367 98.8807 63.8285 98.8513 65.5535 98.2061C68.8865 96.9157 70.3192 93.2791 68.2726 91.3435C67.3662 90.493 67.3662 90.2583 68.2726 89.5251C69.5882 88.4987 69.8514 85.7712 68.7404 84.4808C67.7755 83.3957 66.7815 83.1317 63.5069 83.1317C61.431 83.1317 60.2323 83.249 59.9984 83.4837ZM66.7815 85.5073C68.1264 86.5631 67.5416 88.6453 65.7289 89.2612C64.384 89.7304 61.4895 89.6718 61.3141 89.1732C61.0509 88.4693 61.5772 85.4486 62.0158 85.1553C62.2497 85.0087 63.2437 84.8914 64.2086 84.8914C65.5827 84.8914 66.1675 85.038 66.7815 85.5073ZM66.1967 91.8127C66.8107 92.0473 67.1031 93.807 66.6645 94.8334C66.1382 96.0945 64.6179 96.6811 61.9865 96.5638L59.7937 96.4758L59.706 95.508C59.6475 94.9801 59.823 93.895 60.0861 93.1031L60.5831 91.6367H63.156C64.5887 91.6367 65.9336 91.7247 66.1967 91.8127ZM120.607 84.6568C120.374 85.4779 120.169 86.4164 120.169 86.739C120.169 87.0323 119.994 88.0881 119.76 89.0852C119.35 90.7569 118.912 92.8685 118.152 96.7691C117.859 98.4114 118.064 98.734 119.292 98.6167C119.935 98.5287 120.052 98.3528 120.227 97.0623C120.315 96.2412 120.549 95.1267 120.724 94.5695C120.9 94.0123 121.046 93.1911 121.046 92.7512C121.046 91.5487 121.835 91.2848 125.285 91.4021C126.952 91.4314 128.385 91.5781 128.502 91.6954C128.706 91.9007 128.443 93.2791 127.595 96.5931C127.157 98.3234 127.244 98.6754 128.063 98.6754C129.086 98.6754 129.525 98.3234 129.671 97.2676C129.847 96.2119 130.227 94.3055 131.191 89.5838C131.425 88.3814 131.835 86.563 132.069 85.5659C132.566 83.5423 132.449 83.1317 131.455 83.1317C130.46 83.1317 130.11 83.7183 129.788 85.9472C129.32 89.2025 129.233 89.2905 125.402 89.2905C121.631 89.2905 121.602 89.2612 122.332 86.6217C122.596 85.6832 122.8 84.5101 122.8 84.0115C122.8 83.2197 122.713 83.1317 121.923 83.1317C121.134 83.1317 121.017 83.2784 120.607 84.6568ZM143.091 84.6568C142.623 85.5073 142.097 86.4751 141.892 86.7977C141.717 87.1203 141.161 88.1761 140.664 89.1439C139.787 90.8449 138.939 92.4579 136.863 96.1239C135.84 98.0008 135.84 98.6754 136.922 98.6754C137.77 98.6754 138.238 98.1475 139.261 95.9479L140.08 94.2762H142.974C144.582 94.2762 145.956 94.3935 146.044 94.5695C146.132 94.7455 146.307 95.6839 146.424 96.7104C146.629 98.4114 146.687 98.5287 147.447 98.6167C147.915 98.6754 148.295 98.5581 148.383 98.3234C148.558 97.8835 148.178 94.2469 147.681 91.6367C147.506 90.7569 147.155 88.704 146.921 87.0909C146.249 82.9558 146.336 83.1317 145.05 83.1317C144.027 83.1317 143.88 83.249 143.091 84.6568ZM144.845 87.1496C145.489 90.493 145.664 91.6661 145.518 92.0766C145.372 92.3993 144.875 92.5166 143.442 92.5166C141.541 92.5166 140.927 92.2233 141.454 91.5488C141.629 91.3435 142.302 90.1117 142.945 88.7626C143.617 87.4429 144.29 86.3578 144.407 86.3578C144.553 86.3578 144.758 86.7097 144.845 87.1496ZM159.376 83.513C159.201 83.7476 158.996 84.3635 158.908 84.9207C158.821 85.4779 158.528 86.915 158.294 88.1174C158.031 89.3198 157.651 91.3141 157.388 92.5166C157.154 93.719 156.774 95.508 156.54 96.4465C156.072 98.3528 156.219 98.7927 157.33 98.6167C158.09 98.5287 158.411 97.7369 159.055 94.2762C159.23 93.2204 159.522 92.194 159.698 91.9887C159.873 91.7834 160.663 91.6367 161.598 91.6367C162.972 91.6367 163.294 91.754 163.967 92.5166C164.405 92.9858 164.99 94.0123 165.282 94.7748C166.422 97.7955 166.92 98.6754 167.504 98.6754C168.615 98.6754 168.966 98.3821 168.703 97.7076C167.533 94.6868 167.095 93.719 166.481 92.8978C166.101 92.3992 165.779 91.9007 165.779 91.842C165.779 91.754 166.452 91.4314 167.241 91.0795C170.691 89.5838 171.247 84.862 168.147 83.5423C166.803 82.9851 159.844 82.9558 159.376 83.513ZM167.446 85.5366C168.206 86.2405 168.294 87.0323 167.767 88.2054C167.153 89.4665 165.721 89.9064 162.709 89.8184C159.727 89.7304 159.932 89.9357 160.458 86.9736C160.604 86.1231 160.926 85.302 161.13 85.1553C161.364 85.0087 162.709 84.8914 164.142 84.8914C166.422 84.8914 166.861 84.9794 167.446 85.5366ZM200.923 83.6303C200.63 84.1875 200.279 85.6832 199.548 89.5838C199.285 90.9622 198.876 92.8685 198.642 93.8363C198.437 94.8041 198.204 96.2412 198.174 97.0623L198.087 98.5287L203.262 98.6167C207.706 98.6754 208.466 98.6167 208.904 98.2061C209.168 97.9422 209.343 97.5023 209.284 97.2383C209.197 96.8277 208.583 96.7691 204.899 96.6811C200.25 96.5931 200.016 96.5051 200.572 94.9801C200.747 94.5695 200.864 93.807 200.864 93.2791C200.864 92.7219 201.04 92.1646 201.244 91.9887C201.478 91.7834 203.262 91.6074 205.571 91.5781L209.489 91.4901L209.577 90.5223L209.665 89.5838H205.893C202.881 89.5838 202.063 89.4958 201.946 89.1732C201.858 88.9386 202.004 87.9121 202.268 86.8857L202.765 85.038L207.004 84.8914L211.243 84.7447V83.2784L206.215 83.1904C201.654 83.1317 201.156 83.1611 200.923 83.6303ZM220.19 83.7769C219.927 84.4808 219.635 85.8592 218.845 89.8771C218.582 91.2555 218.173 93.1618 217.968 94.1296C217.734 95.0974 217.5 96.4758 217.471 97.209C217.383 98.4994 217.412 98.5287 218.26 98.5287C219.079 98.5287 219.137 98.4407 219.342 97.121C219.43 96.3292 219.664 95.3027 219.839 94.8041C220.015 94.3055 220.161 93.543 220.161 93.1324C220.161 92.6925 220.307 92.194 220.512 91.9887C221.038 91.4608 223.699 91.5488 224.517 92.106C225.19 92.5752 226.885 95.9479 227.295 97.5609C227.412 98.0888 227.733 98.4407 228.201 98.5581C229.195 98.822 229.897 98.4994 229.721 97.8542C229.283 96.4171 228.698 95.1561 227.85 93.7483C227.324 92.8978 226.885 92.0766 226.885 91.9007C226.885 91.754 227.47 91.3435 228.172 91.0209C231.271 89.6425 232.06 85.5073 229.546 83.8063C228.64 83.1904 228.23 83.1317 224.488 83.1317C220.57 83.1317 220.424 83.1611 220.19 83.7769ZM228.289 85.3606C229.254 86.0352 229.195 87.9121 228.143 88.8799C227.119 89.8184 226.651 89.9064 223.669 89.8184L221.184 89.7304L221.213 88.4107C221.213 87.6775 221.447 86.5924 221.71 85.9765L222.178 84.8914H224.897C226.915 84.8914 227.821 85.0087 228.289 85.3606Z" fill="black"/>
</svg>
