<svg width="250" height="100" viewBox="0 0 250 100" fill="none" xmlns="http://www.w3.org/2000/svg">
<g clip-path="url(#clip0_2025_217)">
<path fill-rule="evenodd" clip-rule="evenodd" d="M124.912 98.9169L75.4077 49.4109L124.912 -0.0924072L174.418 49.4125L124.912 98.9169Z" fill="#33A457"/>
<path fill-rule="evenodd" clip-rule="evenodd" d="M96.4237 38.1988H110.097V42.0021H106.092V53.6925H110.091V57.3268H96.3989V53.6925H100.685V41.9987H96.4175L96.4237 38.1988ZM118.131 16.3503H131.803V20.1531H127.801V31.8435H131.8V35.4783H118.106V31.8435H122.391V20.1497H118.126L118.131 16.3503ZM112.335 38.1329H119.084L126.383 48.687V41.9587H124.586V38.1329H133.344V41.9852H131.66V57.333H126.383L119.309 47.6763V53.6857H120.769V57.333H112.123V53.6857H113.695V41.9497H112.347L112.335 38.1329ZM153.33 53.7398L149.624 42.01H151.307V38.1335H137.384V41.9722H139.294L135.028 53.719H133.681V57.333H142.551V53.7308H140.754L141.764 51.1573H146.93L148.053 53.7398H146.256V57.333H155.126V53.7398H153.33ZM142.639 48.5169L144.26 42.8595L146.184 48.4797L142.639 48.5169ZM133.872 75.1849L130.166 63.232H131.849V59.2805H117.927V63.1925H119.837L115.57 75.1641H114.223V78.8462H123.093V75.1759H121.297L122.306 72.5529H127.472L128.595 75.1849H126.798V78.8462H135.668V75.1849H133.872ZM123.181 69.8639L124.803 64.0984L126.726 69.8251L123.181 69.8639Z" fill="white"/>
</g>
<defs>
<clipPath id="clip0_2025_217">
<rect width="250" height="100" fill="white"/>
</clipPath>
</defs>
</svg>
