<svg width="250" height="100" viewBox="0 0 250 100" fill="none" xmlns="http://www.w3.org/2000/svg">
<g clip-path="url(#clip0_2062_366)">
<path fill-rule="evenodd" clip-rule="evenodd" d="M165.486 55.38V0H84.627V55.38H165.486Z" fill="#1C4882"/>
<path fill-rule="evenodd" clip-rule="evenodd" d="M106.673 27.6907C106.673 17.4952 114.899 9.23122 125.051 9.23122C135.201 9.23122 143.427 17.4967 143.427 27.6907C143.427 37.8848 135.201 46.1488 125.051 46.1488C114.899 46.1488 106.673 37.8848 106.673 27.6907ZM124.993 41.7125C132.707 41.7125 138.962 35.4329 138.962 27.6848C138.962 19.9368 132.709 13.6557 124.993 13.6557C117.281 13.6557 111.028 19.9368 111.028 27.6848C111.028 35.4329 117.281 41.7125 124.993 41.7125Z" fill="white"/>
<path fill-rule="evenodd" clip-rule="evenodd" d="M146.968 17.3468C148.478 20.5819 149.258 24.1119 149.252 27.6848C149.252 31.3861 148.431 34.8934 146.964 38.0362L141.965 38.0303C143.854 34.9134 144.851 31.3338 144.846 27.6848C144.846 23.8983 143.794 20.366 141.971 17.3497L146.968 17.3468ZM108.021 17.3453C106.135 20.461 105.141 24.0385 105.147 27.6848C105.147 31.4626 106.195 34.9949 108.012 38.0068L103.02 38.0156C101.557 34.8773 100.738 31.3773 100.738 27.6848C100.738 23.9821 101.56 20.4836 103.031 17.3409L108.021 17.3453ZM122.589 38.0215V17.3453H116.708V38.0215H122.589ZM133.554 38.0215L128.55 27.7187L133.554 17.3453H127.674L122.667 27.6466L127.674 38.0215H133.554Z" fill="white"/>
<path fill-rule="evenodd" clip-rule="evenodd" d="M99.2653 27.6834C99.2653 24.0085 100.031 20.5116 101.409 17.3482V17.3453H96.9868L91.979 27.6466L96.9868 38.02H101.409V38.0171C99.9915 34.7583 99.2615 31.2397 99.2653 27.6834ZM150.723 27.6834C150.723 24.0085 149.958 20.5116 148.582 17.3482V17.3453H153.003L158.011 27.6466L153.003 38.02H148.582V38.0171C149.998 34.7579 150.727 31.2395 150.723 27.6834Z" fill="white"/>
<path fill-rule="evenodd" clip-rule="evenodd" d="M2 67.2233H8.94679V79.559H9.02143L14.177 67.2233H21.5731L14.8487 81.27L22.394 99.3694H14.4755L10.4043 88.1582L8.94679 90.8599V99.3694H2V67.2233ZM23.0292 67.2233H30.7984L35.2808 87.0322H35.3554V67.2233H41.8544V99.3694H34.2345L29.6028 79.5164H29.5281V99.3694H23.0292V67.2233ZM53.8807 66.5912C60.9797 66.5912 63.406 71.2744 63.406 83.2941C63.406 95.3183 60.9782 100 53.8807 100C46.7846 100 44.3569 95.3168 44.3569 83.2941C44.3569 71.2744 46.7846 66.5912 53.8807 66.5912ZM53.8807 94.3246C56.01 94.3246 56.2339 91.9844 56.2339 83.2941C56.2339 74.6068 56.01 72.2637 53.8807 72.2637C51.7514 72.2637 51.5275 74.6068 51.5275 83.2941C51.5275 91.9844 51.7529 94.3246 53.8807 94.3246ZM65.9099 67.2233H76.7801C82.0849 67.2233 84.1001 70.8261 84.1001 75.7783C84.1001 80.0529 82.7186 82.8473 79.543 83.4323V83.522C82.9045 83.8806 83.9127 86.4472 83.9127 90.7247V93.472C83.9127 95.1375 83.9127 97.2997 84.2479 97.9274C84.4352 98.289 84.5844 98.6477 85.0322 98.9181V99.3694H77.6362C76.963 97.6584 76.963 94.598 76.963 93.2456V91.0863C76.963 87.4379 76.3674 86.4927 74.6845 86.4927H72.8552V99.3694H65.907V67.2233H65.9099ZM72.8567 80.8202H74.2382C76.2181 80.8202 77.1533 79.29 77.1533 76.9925C77.1533 74.3804 76.2942 73.2545 74.2016 73.2545H72.8582L72.8567 80.8202ZM87.3488 67.2233H98.219C103.524 67.2233 105.54 70.8261 105.54 75.7783C105.54 80.0529 104.159 82.8473 100.983 83.4323V83.522C104.345 83.8806 105.353 86.4472 105.353 90.7247V93.472C105.353 95.1375 105.353 97.2997 105.688 97.9274C105.876 98.289 106.025 98.6477 106.474 98.9181V99.3694H99.078C98.4063 97.6584 98.4063 94.598 98.4063 93.2456V91.0863C98.4063 87.4379 97.8092 86.4927 96.1278 86.4927H94.2971V99.3694H87.3488V67.2233ZM94.2956 80.8202H95.6785C97.6585 80.8202 98.5907 79.29 98.5907 76.9925C98.5907 74.3804 97.7332 73.2545 95.6405 73.2545H94.2956V80.8202ZM108.191 82.9355H119.845V89.7766H108.191V82.9355ZM122.759 67.2233H133.254C138.223 67.2233 140.541 70.4189 140.541 75.2359C140.541 78.6579 139.306 81.7213 136.357 82.4386V82.5298C139.869 82.934 141.287 86.5383 141.287 89.8677C141.287 95.452 139.047 99.3679 133.256 99.3679H122.76V67.2233H122.759ZM129.707 79.8295H131.387C132.808 79.8295 133.591 78.2993 133.591 76.5883C133.591 74.7876 132.808 73.2545 131.387 73.2545H129.707V79.8295ZM129.707 93.3368H131.648C132.919 93.3368 134.115 91.9844 134.115 89.3723C134.115 86.897 132.921 85.502 131.648 85.502H129.707V93.3368ZM143.975 67.2233H154.846C160.147 67.2233 162.166 70.8261 162.166 75.7783C162.166 80.0529 160.786 82.8473 157.61 83.4323V83.522C160.971 83.8806 161.98 86.4472 161.98 90.7247V93.472C161.98 95.1375 161.98 97.2997 162.315 97.9274C162.504 98.289 162.651 98.6477 163.101 98.9181V99.3694H155.703C155.031 97.6584 155.031 94.598 155.031 93.2456V91.0863C155.031 87.4379 154.434 86.4927 152.753 86.4927H150.921V99.3694H143.975V67.2233ZM150.921 80.8202H152.304C154.285 80.8202 155.216 79.29 155.216 76.9925C155.216 74.3804 154.358 73.2545 152.266 73.2545H150.919V80.8202H150.921ZM165.414 67.2233H181.215V74.0644H172.363V79.559H180.654V86.1311H172.363V92.5254H181.553V99.3694H165.414V67.2233ZM183.827 67.2233H193.765L196.566 86.2693H196.64L199.441 67.2233H209.379V99.3694H202.88V75.4167H202.803L199.108 99.3694H194.1L190.403 75.4167H190.327V99.3694H183.827V67.2233ZM222.787 76.4957V75.7313C222.787 73.8395 222.152 72.2637 220.806 72.2637C219.312 72.2637 218.64 73.6616 218.64 75.1007C218.64 81.4479 229.996 78.3419 229.996 90.0926C229.996 96.9367 226.672 100 220.547 100C214.793 100 211.58 97.6114 211.58 90.9511V89.8251H218.306V90.5894C218.306 93.3368 219.238 94.3246 220.585 94.3246C222.006 94.3246 222.825 92.9752 222.825 91.2215C222.825 84.8743 211.918 88.0229 211.918 76.6309C211.918 70.1485 214.794 66.5912 220.659 66.5912C226.711 66.5912 229.288 69.609 229.288 76.4957H222.787ZM232.463 67.2233H248.262V74.0644H239.409V79.559H247.7V86.1311H239.409V92.5254H248.597V99.3694H232.463V67.2233Z" fill="#1C4882"/>
</g>
<defs>
<clipPath id="clip0_2062_366">
<rect width="250" height="100" fill="white"/>
</clipPath>
</defs>
</svg>
