<svg width="250" height="100" viewBox="0 0 250 100" fill="none" xmlns="http://www.w3.org/2000/svg">
<g clip-path="url(#clip0_2025_236)">
<path d="M45.5173 39.8962V14.6389C45.5272 14.3018 45.2611 14.0195 44.923 14.0096C44.9135 14.009 44.9047 14.009 44.8952 14.0096C44.8287 13.9968 44.7605 13.9968 44.694 14.0096L4.14613 32.0152C0.815372 33.484 0.000976562 35.6818 0.000976562 37.2326V63.4291C0.000976562 61.9421 0.751616 59.8629 3.73477 58.4031C17.6837 52.2309 31.6332 46.0588 45.5821 39.8867" fill="#017EC0"/>
<path d="M45.5169 62.8459V39.8967C33.1386 45.3725 20.7608 50.8482 8.3824 56.3244C6.83899 57.0175 5.29557 57.7111 3.75216 58.4042C0.750709 59.8635 6.80559e-05 61.9432 6.80559e-05 63.4303V85.449C-0.00492143 85.7867 0.265065 86.0645 0.603796 86.0694C0.609894 86.0694 0.615993 86.0694 0.622091 86.0694C0.688618 86.0828 0.756807 86.0828 0.823333 86.0694L41.3801 68.0638C44.702 66.595 45.5252 64.4149 45.5252 62.8464" fill="#0E406C"/>
<path d="M13.8025 37.0502V42.1001C13.7504 42.0923 13.374 42.0408 13.0807 42.3091C12.89 42.4838 12.8379 42.6983 12.8229 42.7787C12.8229 42.7787 12.8229 45.643 12.8229 47.0751C12.8911 47.1589 13.0186 47.2936 13.2187 47.3956C13.4638 47.5204 13.69 47.5303 13.8031 47.5276C13.8031 49.2109 13.8031 50.8942 13.8031 52.5775H11.7308C11.3327 52.522 10.3875 52.3352 9.50767 51.5789C8.41386 50.6386 8.14387 49.4399 8.07568 49.0728C8.07568 46.3277 8.07568 43.5832 8.07568 40.8382C8.09176 40.5177 8.18989 39.3251 9.14953 38.2944C10.0803 37.2947 11.2174 37.0962 11.5423 37.0507C12.2951 37.0502 13.0491 37.0502 13.8025 37.0502Z" fill="white"/>
<path d="M13.8027 57.8525V63.1391H8.80376C8.71117 63.1314 8.57369 63.1042 8.43952 63.0155C8.06476 62.7665 8.07363 62.2675 8.07529 62.2243C8.07529 61.091 8.07529 59.9577 8.07529 58.8239C8.09858 58.6941 8.15568 58.4868 8.31368 58.2922C8.69787 57.8187 9.32876 57.8475 9.40638 57.8525C10.8716 57.8525 12.3374 57.8525 13.8027 57.8525Z" fill="white"/>
<path d="M20.9622 37.0502H27.0416L24.5296 42.125H20.9622V37.0502Z" fill="white"/>
<path d="M35.0302 37.0502L32.5183 42.125H36.8392C36.9063 42.1228 37.184 42.1067 37.4202 41.8833C37.6542 41.6621 37.6874 41.3887 37.6935 41.3211C37.6935 40.2028 37.6935 39.0844 37.6935 37.9661C37.6869 37.878 37.653 37.5603 37.3919 37.3041C37.2228 37.1383 37.0355 37.0746 36.9395 37.0496C36.3031 37.0502 35.6667 37.0502 35.0302 37.0502Z" fill="white"/>
<path d="M28.2727 49.3733L30.1194 52.5769H32.3425C32.4173 52.5775 32.6562 52.5886 32.8702 52.7654C33.1696 53.0127 33.1724 53.3798 33.1718 53.4308C33.1718 54.5153 33.1718 55.6003 33.1718 56.6848C33.1868 56.8123 33.1995 57.0707 33.0837 57.3635C32.9878 57.6052 32.8458 57.7654 32.7571 57.8514C33.6741 59.6145 34.5911 61.3771 35.508 63.1402C35.8307 62.9783 36.4028 62.6385 36.9023 61.9986C37.4378 61.3128 37.623 60.6247 37.6934 60.2649C37.6934 56.9487 37.6934 53.632 37.6934 50.3159C37.6141 49.9998 37.3447 49.1044 36.4876 48.3942C35.7863 47.8131 35.0506 47.654 34.7163 47.603C32.9329 47.603 31.1489 47.603 29.3654 47.603L28.2727 49.3733Z" fill="white"/>
<path d="M20.9622 57.8508V63.1397H27.3432L24.7303 57.8508H20.9622Z" fill="white"/>
<path d="M22.6202 47.0369C22.7677 46.9897 23.0094 46.8905 23.2423 46.6787C23.3964 46.539 23.4978 46.3937 23.5627 46.2828C25.2331 43.1047 26.904 39.9266 28.5743 36.748C28.7113 36.5168 28.9574 36.1697 29.3655 35.8625C29.6432 35.6535 29.9121 35.5266 30.1189 35.4484C31.0735 35.4484 32.0282 35.4484 32.9828 35.4484C33.0344 35.4506 33.5544 35.4827 33.8493 35.9379C34.0639 36.2684 34.0777 36.6959 33.887 37.0496C31.6052 41.1697 29.3233 45.2904 27.0415 49.4105L34.7159 63.5051C34.7247 63.5533 34.8339 64.2136 34.3766 64.6167C34.1853 64.7853 33.9719 64.8413 33.8488 64.8618C32.6302 64.8618 31.4123 64.8618 30.1937 64.8618C30.0213 64.7764 29.809 64.6506 29.5905 64.4659C29.3 64.2203 29.1082 63.9619 28.9874 63.7684C27.0659 60.1379 25.1438 56.5074 23.2223 52.8774C23.1585 52.781 23.0504 52.644 22.883 52.5193C22.6784 52.3668 22.4772 52.303 22.3552 52.2742C21.5641 52.2742 20.7725 52.2742 19.9814 52.2742V63.7684C19.9791 63.8272 19.9498 64.4155 19.4724 64.7104C19.2584 64.8424 19.0439 64.8612 18.9264 64.8612C17.9091 64.8612 16.8918 64.8612 15.8739 64.8612C15.8251 64.8651 15.3877 64.8901 15.0828 64.5408C14.8139 64.2331 14.8499 63.866 14.8566 63.8061C14.8566 54.7864 14.8566 45.7672 14.8566 36.7474C14.8499 36.6576 14.8289 36.2324 15.1393 35.862C15.3993 35.552 15.7325 35.4694 15.8368 35.4478C16.9045 35.4478 17.9723 35.4478 19.0394 35.4478C19.1337 35.47 19.3771 35.5415 19.5766 35.7677C19.8494 36.0771 19.8355 36.4447 19.8311 36.5212C19.8311 40.0137 19.8311 43.5056 19.8311 46.9981L22.6202 47.0369Z" fill="white"/>
<path d="M61.612 57.5969C61.612 57.7726 61.5555 57.924 61.444 58.0515C61.3315 58.179 61.1874 58.2428 61.0116 58.2428H59.4255C59.2492 58.2428 59.1089 58.1835 59.0047 58.0637C58.9005 57.944 58.8484 57.7887 58.8484 57.5969V41.8983C58.8484 41.707 58.9005 41.5517 59.0047 41.4314C59.1089 41.3117 59.257 41.2523 59.4493 41.2523H61.0598C61.428 41.2523 61.6126 41.4597 61.6126 41.8744V48.24H63.2946C63.7908 48.24 64.1517 48.0887 64.3762 47.7854L68.365 41.7552C68.589 41.4048 68.8617 41.2285 69.1822 41.2285C69.8707 41.2285 70.4157 41.2523 70.8165 41.3006C71.1048 41.3166 71.2489 41.4603 71.2489 41.7314C71.2489 41.9227 71.1685 42.13 71.0089 42.3535C68.6378 45.9114 67.0517 48.2406 66.2506 49.3412C66.8271 50.139 68.5574 52.6995 71.4413 57.023C71.6492 57.3263 71.754 57.5736 71.754 57.7649C71.754 57.8602 71.7135 57.9528 71.6337 58.0399C71.5533 58.1275 71.4574 58.1796 71.3454 58.1957C70.9446 58.2273 70.2959 58.2434 69.3989 58.2434C69.0946 58.2434 68.8379 58.0842 68.63 57.7649L64.1605 51.0644C63.9842 50.7933 63.6716 50.658 63.2231 50.658H61.6131V57.5969H61.612Z" fill="#3C3C3B"/>
<path d="M87.4929 49.6278C87.4929 50.9047 87.3965 52.1128 87.2041 53.2533C87.0123 54.3944 86.6597 55.3513 86.1469 56.1254C85.6341 56.8994 84.9211 57.4893 84.0081 57.8963C83.095 58.3032 81.8454 58.5067 80.2593 58.5067C79.0413 58.5067 77.9963 58.367 77.1231 58.0875C76.2494 57.8087 75.5248 57.3418 74.9483 56.6876C74.3717 56.0339 73.9393 55.1285 73.6504 53.9719C73.3622 52.8153 73.218 51.3754 73.218 49.6522C73.218 47.5309 73.4863 45.8393 74.023 44.579C74.5596 43.3193 75.3408 42.4056 76.3664 41.8389C77.3914 41.2728 78.753 40.9895 80.4517 40.9895C82.0378 40.9895 83.2635 41.1569 84.1284 41.4918C84.9932 41.8273 85.6623 42.3379 86.1352 43.0232C86.6076 43.7096 86.9524 44.5829 87.1686 45.6435C87.3848 46.7042 87.4929 48.0326 87.4929 49.6278ZM84.6334 49.676C84.6334 48.6869 84.5813 47.7737 84.4771 46.936C84.3723 46.0987 84.1766 45.4129 83.8883 44.8784C83.5995 44.3439 83.1953 43.953 82.6748 43.7057C82.1542 43.4585 81.3808 43.3348 80.3558 43.3348C79.0579 43.3348 78.121 43.6065 77.5445 44.1488C76.9679 44.6916 76.5748 45.429 76.3669 46.3627C76.1585 47.2958 76.0543 48.393 76.0543 49.6527C76.0543 50.9928 76.1541 52.1455 76.3547 53.1108C76.5549 54.0761 76.9313 54.8257 77.484 55.3602C78.0368 55.8953 78.9775 56.162 80.3075 56.162C81.429 56.162 82.2817 55.9707 82.8666 55.5875C83.4515 55.2044 83.8916 54.5463 84.1882 53.6137C84.4848 52.6789 84.6334 51.3671 84.6334 49.676Z" fill="#3C3C3B"/>
<path d="M101.047 58.1946H93.6212C92.8201 58.1946 92.2153 58.0072 91.8067 57.6324C91.3981 57.2576 91.1941 56.6715 91.1941 55.8737V41.8983C91.1941 41.707 91.2462 41.5517 91.3504 41.4314C91.4547 41.3117 91.6027 41.2523 91.795 41.2523H93.4055C93.7737 41.2523 93.9583 41.4597 93.9583 41.8744V54.8446C93.9583 55.4512 94.2549 55.7539 94.8475 55.7539H101.048C101.24 55.7539 101.388 55.7938 101.492 55.8742C101.597 55.954 101.649 56.1137 101.649 56.3527V57.6689C101.647 58.0194 101.447 58.1946 101.047 58.1946Z" fill="#3C3C3B"/>
<path d="M109.073 58.1946H106.477C105.66 58.1946 105.055 58.0033 104.663 57.6202C104.27 57.2371 104.075 56.6238 104.075 55.7777V43.8128C104.075 42.1383 104.868 41.3 106.454 41.3H109.193C110.074 41.3 110.931 41.3477 111.765 41.4436C113.094 41.5867 114.075 41.9903 114.708 42.6523C115.341 43.3143 115.658 44.2597 115.658 45.4878C115.658 46.5251 115.453 47.3546 115.045 47.9767C114.636 48.5988 114.008 49.054 113.158 49.3406C114.12 49.5646 114.865 49.9871 115.393 50.6092C115.922 51.2313 116.186 52.1245 116.186 53.2888C116.186 54.3584 115.994 55.2715 115.61 56.0295C115.225 56.7874 114.609 57.3335 113.759 57.6684C112.862 58.0194 111.299 58.1946 109.073 58.1946ZM106.838 48.3354H109.505C110.627 48.3354 111.356 48.2556 111.693 48.0959C112.045 47.9528 112.33 47.6933 112.546 47.318C112.762 46.9437 112.87 46.4924 112.87 45.9662C112.87 45.4562 112.774 45.0087 112.582 44.6256C112.389 44.2425 111.989 43.9481 111.38 43.7407C110.996 43.6292 110.363 43.5727 109.482 43.5727H107.583C107.391 43.5727 107.219 43.6248 107.067 43.7285C106.914 43.8327 106.838 44.0756 106.838 44.4587V48.3354ZM106.838 50.5848V54.9161C106.838 55.1712 106.89 55.3907 106.995 55.5743C107.099 55.7578 107.351 55.8493 107.751 55.8493H109.722C110.843 55.8493 111.62 55.7617 112.052 55.5859C112.933 55.2194 113.374 54.3739 113.374 53.0493C113.374 51.9648 112.917 51.239 112.004 50.8714C111.54 50.6802 110.746 50.5842 109.625 50.5842L106.838 50.5848Z" fill="#3C3C3B"/>
<path d="M129.571 58.1946H122.097C121.264 58.1946 120.644 58.0072 120.234 57.6324C119.826 57.2576 119.622 56.631 119.622 55.7533V43.8128C119.622 42.9512 119.818 42.3174 120.211 41.9105C120.603 41.5035 121.223 41.3 122.073 41.3H129.186C129.378 41.3 129.526 41.3399 129.631 41.4198C129.735 41.4996 129.787 41.6515 129.787 41.8744V43.2384C129.787 43.5732 129.586 43.7407 129.186 43.7407H123.154C122.642 43.7407 122.385 44.0357 122.385 44.6256V48.2151H128.537C128.954 48.2151 129.162 48.4064 129.162 48.7895V50.1296C129.162 50.4806 128.954 50.6563 128.537 50.6563H122.385V54.8202C122.385 55.0592 122.438 55.2749 122.542 55.4661C122.646 55.6574 122.898 55.7533 123.299 55.7533H129.57C129.987 55.7533 130.195 55.9529 130.195 56.3521V57.6684C130.196 58.0194 129.987 58.1946 129.571 58.1946Z" fill="#3C3C3B"/>
<path d="M136.204 57.5969C136.204 57.7882 136.147 57.944 136.036 58.0637C135.923 58.1835 135.771 58.2428 135.579 58.2428H134.089C133.913 58.2428 133.773 58.1835 133.668 58.0637C133.564 57.944 133.512 57.7887 133.512 57.5969V43.143C133.512 42.4887 133.66 42.0025 133.957 41.6837C134.253 41.3649 134.722 41.2052 135.362 41.2052H136.108C136.508 41.2052 136.837 41.2767 137.093 41.4203C137.349 41.5639 137.637 41.9554 137.958 42.593C138.07 42.8003 138.266 43.1757 138.546 43.718C138.826 44.2608 139.607 45.76 140.889 48.2167C142.171 50.6735 143.244 52.8674 144.11 54.7975C144.077 53.4258 144.061 49.166 144.061 42.0186C144.061 41.8118 144.114 41.6321 144.218 41.4808C144.322 41.3294 144.486 41.2534 144.711 41.2534H146.129C146.513 41.2534 146.705 41.493 146.705 41.9709V56.7841C146.705 57.247 146.597 57.6257 146.381 57.9207C146.164 58.2156 145.752 58.3631 145.143 58.3631H144.518C144.101 58.3631 143.745 58.2872 143.449 58.1358C143.152 57.985 142.812 57.5342 142.428 56.7841C142.315 56.5606 142.099 56.1459 141.778 55.5399C141.458 54.9339 140.633 53.3504 139.304 50.7894C137.974 48.2289 136.925 46.1193 136.156 44.4598C136.187 46.916 136.204 51.295 136.204 57.5969Z" fill="#3C3C3B"/>
<path d="M157.566 48.7185C159.088 49.1493 160.133 49.6921 160.702 50.3458C161.271 51.0001 161.556 52.013 161.556 53.3847C161.556 54.6134 161.323 55.5942 160.859 56.3278C160.394 57.0619 159.713 57.608 158.816 57.9667C157.919 58.3254 156.765 58.5051 155.356 58.5051C154.587 58.5051 153.758 58.4491 152.869 58.3376C151.98 58.2256 151.175 58.0504 150.454 57.8109C150.085 57.6834 149.901 57.476 149.901 57.1888C149.901 56.9177 149.989 56.5035 150.166 55.9446C150.278 55.5781 150.502 55.3941 150.839 55.3941C150.983 55.3941 151.247 55.4584 151.632 55.5853C152.817 55.9685 154.074 56.1598 155.404 56.1598C156.573 56.1598 157.419 55.9607 157.939 55.5615C158.46 55.1629 158.72 54.5485 158.72 53.7185C158.72 53.0166 158.524 52.4943 158.131 52.1511C157.739 51.8079 157.054 51.5096 156.077 51.2535L153.914 50.7029C152.664 50.3841 151.731 49.8413 151.115 49.0756C150.498 48.3099 150.19 47.2892 150.19 46.0128C150.19 44.8163 150.421 43.8593 150.887 43.1408C151.351 42.4233 152.02 41.8844 152.893 41.5257C153.767 41.167 154.876 40.9873 156.222 40.9873C156.878 40.9873 157.603 41.0272 158.396 41.1071C159.19 41.1869 159.866 41.3144 160.427 41.4902C160.779 41.6022 160.955 41.8173 160.955 42.1367C160.955 42.4078 160.875 42.8065 160.715 43.3326C160.634 43.652 160.459 43.8111 160.186 43.8111C160.042 43.8111 159.786 43.7717 159.417 43.6913C158.2 43.4685 157.071 43.3565 156.029 43.3565C155.02 43.3565 154.267 43.54 153.77 43.907C153.274 44.2741 153.025 44.8878 153.025 45.7495C153.025 46.4675 153.238 46.9981 153.662 47.3407C154.086 47.6839 154.684 47.9595 155.452 48.1663L157.566 48.7185Z" fill="#3C3C3B"/>
<path d="M166.842 49.6516C166.842 50.7522 166.906 51.6981 167.034 52.4876C167.162 53.2772 167.39 53.9469 167.719 54.4975C168.047 55.0481 168.504 55.4634 169.089 55.7417C169.674 56.0211 170.406 56.1608 171.287 56.1608C171.832 56.1608 172.357 56.1331 172.861 56.0771C173.366 56.0211 173.979 55.9058 174.7 55.73C175.036 55.6341 175.301 55.5864 175.493 55.5864C175.701 55.5864 175.845 55.6984 175.925 55.9219C176.102 56.4164 176.19 56.8395 176.19 57.1899C176.19 57.4616 176.006 57.6606 175.637 57.7887C174.259 58.2672 172.601 58.5062 170.663 58.5062C169.589 58.5062 168.644 58.3626 167.827 58.0753C167.01 57.7881 166.317 57.3219 165.749 56.6754C165.18 56.0294 164.748 55.1523 164.451 54.0434C164.155 52.9345 164.007 51.5905 164.007 50.0109C164.007 48.4158 164.13 47.0518 164.379 45.9185C164.627 44.7858 165.032 43.8565 165.592 43.1308C166.153 42.405 166.898 41.8666 167.827 41.5157C168.756 41.1647 169.902 40.989 171.264 40.989C172.962 40.989 174.292 41.1087 175.253 41.3477C175.653 41.4436 175.854 41.6432 175.854 41.9465C175.854 42.0895 175.826 42.3213 175.77 42.6401C175.714 42.9595 175.646 43.2145 175.566 43.4058C175.549 43.4379 175.51 43.4934 175.446 43.5732C175.382 43.6531 175.27 43.693 175.109 43.693C174.949 43.693 174.685 43.6536 174.316 43.5732C173.563 43.4141 172.61 43.3337 171.456 43.3337C170.303 43.3337 169.394 43.5411 168.729 43.9558C168.064 44.3711 167.584 45.0087 167.287 45.8703C166.99 46.7319 166.842 47.9927 166.842 49.6516Z" fill="#3C3C3B"/>
<path d="M181.453 57.5969C181.453 57.7726 181.397 57.924 181.285 58.0515C181.172 58.179 181.029 58.2428 180.852 58.2428H179.266C179.09 58.2428 178.95 58.1835 178.845 58.0637C178.741 57.944 178.69 57.7887 178.69 57.5969V41.8983C178.69 41.707 178.741 41.5517 178.845 41.4314C178.95 41.3117 179.098 41.2523 179.29 41.2523H180.9C181.269 41.2523 181.453 41.4597 181.453 41.8744V48.2156H188.734V41.8983C188.734 41.4674 188.942 41.2523 189.359 41.2523H190.969C191.321 41.2523 191.498 41.4597 191.498 41.8744V57.5963C191.498 57.7721 191.442 57.9235 191.33 58.051C191.217 58.1785 191.073 58.2423 190.897 58.2423H189.334C189.158 58.2423 189.014 58.1829 188.902 58.0632C188.79 57.9434 188.734 57.7882 188.734 57.5963V50.6563H181.453V57.5969Z" fill="#3C3C3B"/>
<path d="M198.587 57.5969C198.587 58.0277 198.394 58.2428 198.01 58.2428H196.399C196.239 58.2428 196.111 58.1835 196.015 58.0637C195.919 57.9439 195.871 57.7887 195.871 57.5969V43.3104C195.871 42.848 195.938 42.4532 196.075 42.1256C196.21 41.799 196.435 41.5633 196.748 41.4197C197.06 41.2761 197.424 41.2046 197.841 41.2046H198.466C198.962 41.2046 199.335 41.2806 199.583 41.4314C199.831 41.5833 200.031 41.8145 200.184 42.1256C200.336 42.4366 200.516 42.8397 200.725 43.3343C202.422 47.3706 203.48 50.0031 203.896 51.2312C204.457 49.6838 205.507 47.0513 207.045 43.3343C207.3 42.68 207.509 42.2298 207.669 41.9825C207.829 41.7352 208.042 41.5434 208.306 41.4081C208.571 41.2728 208.927 41.2046 209.375 41.2046H210.072C210.633 41.2046 211.066 41.3244 211.37 41.5633C211.675 41.8023 211.827 42.385 211.827 43.3104V57.5248C211.827 57.7482 211.775 57.9234 211.671 58.051C211.566 58.1785 211.418 58.2422 211.227 58.2422H209.64C209.272 58.2422 209.088 58.011 209.088 57.5481C209.088 50.21 209.112 45.6951 209.16 44.0035C209.095 44.1792 209 44.4548 208.871 44.8296C208.742 45.2044 208.518 45.8104 208.199 46.6482C207.878 47.486 206.925 49.8668 205.338 53.7911C205.162 54.238 204.986 54.5535 204.81 54.7365C204.634 54.92 204.385 55.0115 204.065 55.0115H203.705C203.464 55.0115 203.236 54.9483 203.019 54.8202C202.803 54.6921 202.599 54.3733 202.407 53.8627C202.278 53.5599 202.063 53.0254 201.758 52.2592C201.453 51.4929 200.968 50.2809 200.304 48.622C199.639 46.9626 199.042 45.4234 198.514 44.0035C198.563 45.7272 198.587 50.2582 198.587 57.5969Z" fill="#3C3C3B"/>
<path d="M218.965 57.5969C218.965 57.7726 218.908 57.924 218.796 58.0515C218.683 58.179 218.54 58.2428 218.364 58.2428H216.777C216.601 58.2428 216.461 58.1835 216.357 58.0637C216.252 57.944 216.201 57.7887 216.201 57.5969V41.8983C216.201 41.707 216.252 41.5517 216.357 41.4314C216.461 41.3117 216.609 41.2523 216.801 41.2523H218.411C218.78 41.2523 218.965 41.4597 218.965 41.8744V57.5969Z" fill="#3C3C3B"/>
<path d="M227.785 58.1946H225.718C224.901 58.1946 224.3 58.0033 223.915 57.6202C223.531 57.237 223.339 56.6316 223.339 55.8016V43.7884C223.339 42.9428 223.539 42.3163 223.94 41.9099C224.34 41.5029 224.949 41.2994 225.766 41.2994H228.025C229.979 41.2994 231.469 41.4514 232.494 41.7541C235.33 42.568 236.747 45.1678 236.747 49.5552C236.747 50.3209 236.703 51.0982 236.615 51.8877C236.527 52.6778 236.343 53.4313 236.062 54.1493C235.782 54.8673 235.357 55.5299 234.789 56.1353C234.219 56.7419 233.43 57.2359 232.421 57.619C232.004 57.7787 231.391 57.9146 230.583 58.026C229.775 58.1391 228.841 58.1946 227.785 58.1946ZM226.102 54.8207C226.102 55.0597 226.154 55.2754 226.258 55.4667C226.362 55.658 226.607 55.7539 226.991 55.7539H228.553C229.77 55.7539 230.724 55.5948 231.413 55.2754C232.342 54.8446 232.987 54.1709 233.347 53.2533C233.708 52.3363 233.888 51.1115 233.888 49.5801C233.888 48.1607 233.724 47.0075 233.395 46.1226C233.067 45.2371 232.454 44.5951 231.557 44.1959C230.868 43.8771 229.827 43.7174 228.433 43.7174H226.895C226.367 43.7174 226.102 44.0207 226.102 44.6267V54.8207Z" fill="#3C3C3B"/>
<path d="M245.279 57.5969C245.279 57.7882 245.219 57.944 245.101 58.0637C244.983 58.1835 244.83 58.2428 244.644 58.2428H242.966C242.779 58.2428 242.627 58.1829 242.508 58.0637C242.39 57.944 242.33 57.7887 242.33 57.5969V43.9226C242.33 43.8228 242.244 43.7418 242.139 43.7418H238.368C238.236 43.7418 238.129 43.6403 238.13 43.5156C238.136 42.8514 238.141 42.1871 238.146 41.5235C238.148 41.4004 238.253 41.3006 238.384 41.3006H249.809C249.948 41.3006 250.04 41.437 249.983 41.5567L248.981 43.6359C248.95 43.7002 248.882 43.7418 248.807 43.7418H245.472C245.366 43.7418 245.28 43.8227 245.28 43.9231V57.5969H245.279Z" fill="#3C3C3B"/>
</g>
<defs>
<clipPath id="clip0_2025_236">
<rect width="250" height="100" fill="white"/>
</clipPath>
</defs>
</svg>
