<svg width="250" height="100" viewBox="0 0 250 100" fill="none" xmlns="http://www.w3.org/2000/svg">
<path fill-rule="evenodd" clip-rule="evenodd" d="M250 79.5981H0V21H250V79.5981Z" fill="#295BA7"/>
<path fill-rule="evenodd" clip-rule="evenodd" d="M225.713 41.9206L225.205 40.6859L224.986 42.0031C224.569 44.5024 221.943 45.7257 221.916 45.7371L220.852 46.2222L222 46.4569C222.105 46.4782 224.62 46.9718 225.731 45.629C226.395 44.821 226.39 43.5735 225.713 41.9206ZM218.286 45.8751C215.949 44.0571 215.224 42.0514 215.216 42.0315L214.774 40.7712L214.485 42.0742C214.465 42.1709 213.981 44.4455 215.173 45.7471C215.818 46.4512 216.803 46.7215 218.102 46.5508L219.008 46.4327L218.286 45.8751ZM7.51801 48.1112C8.6688 48.2066 9.62187 48.2549 10.3786 48.2549C11.188 48.2549 11.9974 48.2066 12.8068 48.1112C12.565 50.9889 12.4441 55.5765 12.4441 61.8667L12.4797 67.1285L12.5038 67.9763L13.2876 67.9963C15.097 67.9963 17.0956 67.8938 19.2792 67.6933L20.127 67.6264C19.9847 68.1897 19.9136 68.6961 19.9136 69.1428C19.9136 69.5155 19.9847 69.9095 20.127 70.3263C17.0259 70.1656 14.6347 70.0873 12.9519 70.0873C10.9818 70.0873 9.10693 70.1343 7.32739 70.2296C7.56779 67.2452 7.68871 63.6093 7.68871 59.3219C7.68728 54.3005 7.63038 50.5636 7.51801 48.1112ZM22.7956 48.1112C24.1583 48.3019 25.5908 48.3972 27.0929 48.3972C30.4585 48.3972 33.2395 48.3019 35.4344 48.1112C35.3109 48.5601 35.2449 49.0228 35.2381 49.4882C35.2381 49.979 35.3035 50.4541 35.4344 50.9121L33.2936 50.767C31.11 50.6191 29.5012 50.5451 28.467 50.5451L27.9236 50.5281L27.908 50.9747L27.7629 56.9293V57.5537H28.4813C29.4087 57.5537 30.3888 57.5253 31.4216 57.4727L34.4102 57.3276C34.7943 57.3077 35.0645 57.2977 35.2253 57.2977C35.0731 57.7643 34.9977 58.2095 34.9977 58.6235C34.9977 59.0516 35.0731 59.504 35.2253 59.9819C32.4016 59.7743 30.1114 59.6704 28.3532 59.6704L27.7615 59.696L27.7401 60.302L27.7188 62.5879L27.7601 67.1613V67.8953L28.6548 67.8981C30.689 67.8981 32.8782 67.7701 35.2224 67.5126C35.1655 68.046 35.1371 68.5041 35.1371 68.8882C35.1371 69.369 35.1655 69.8156 35.2224 70.2296L34.4387 70.2153L32.0901 70.1343L29.3589 70.0873C27.0047 70.0873 24.7828 70.1343 22.6946 70.2296L22.7401 69.285C22.888 65.726 22.962 61.5083 22.962 56.6348C22.9663 53.5238 22.9079 50.6803 22.7956 48.1112ZM51.7859 63.5808C52.7347 61.8639 54.0036 59.3717 55.5968 56.1014C57.1886 52.8339 58.4375 50.1696 59.3436 48.1112C59.9937 48.3019 60.4944 48.3972 60.8458 48.3972C61.1217 48.3972 61.5428 48.3346 62.1075 48.2066L62.2356 49.2635L62.907 55.4101L63.8017 62.9564C64.1645 66.0261 64.5158 68.4074 64.8572 70.1016V70.3263C63.9279 70.1696 62.9873 70.0897 62.0449 70.0873C61.2242 70.0873 60.3991 70.1343 59.5684 70.2296C59.5684 69.2182 59.4162 66.982 59.1132 63.5225C58.8102 60.0659 58.5243 57.3518 58.2583 55.3788L56.5797 58.7984C55.877 60.2067 54.9865 61.9905 53.9126 64.1555C52.7191 66.5539 51.7774 68.5781 51.0832 70.2296C50.6489 70.1654 50.2075 70.1654 49.7731 70.2296L49.2624 69.1741L47.1358 64.6975L44.9139 60.1911L43.1884 56.6263L42.773 55.7785L42.645 56.6562C42.4293 58.2139 42.2429 59.7756 42.086 61.3404L41.7019 65.258C41.4572 67.7416 41.3335 69.3974 41.3335 70.2281C40.7632 70.1333 40.1861 70.0857 39.608 70.0859C39.1812 70.0859 38.7545 70.1328 38.3292 70.2281V70.1001C39.1912 65.9664 40.1941 59.5566 41.3335 50.8766L41.6848 48.2051C42.0789 48.3317 42.4473 48.3958 42.7887 48.3958C43.2894 48.3958 43.7887 48.3004 44.2908 48.1098C45.2595 50.2535 47.0391 53.9392 49.628 59.164C50.228 60.3589 50.8193 61.5581 51.4019 62.7615L51.7859 63.5808ZM68.8174 48.1112C71.267 48.3019 73.5799 48.3972 75.7521 48.3972C77.7023 48.3972 79.5985 48.3346 81.4406 48.2066C81.3524 48.7613 81.3069 49.2052 81.3069 49.5352C81.3069 50.006 81.351 50.4584 81.4406 50.8979C78.6924 50.6262 76.4704 50.4897 74.7777 50.4897L73.9782 50.4811L73.9441 51.0558C73.8101 52.9524 73.7432 54.853 73.7435 56.7543L73.7535 57.4101L76.0067 57.4357C77.2955 57.4357 78.9726 57.3688 81.0395 57.2351C80.9677 57.6845 80.9292 58.1385 80.9242 58.5936C80.9242 59.0488 80.9627 59.4969 81.0395 59.935C78.6155 59.7323 76.1845 59.6256 73.7521 59.6149L73.7421 61.1185C73.7421 64.7075 73.8203 67.7445 73.9768 70.2281C73.0846 70.1405 72.189 70.093 71.2926 70.0859C70.5557 70.0859 69.6667 70.1328 68.624 70.2281L68.7036 68.9636C68.8928 65.9052 68.9867 62.5794 68.9867 58.9834V55.1768L68.8786 49.4043C68.8621 48.9731 68.8417 48.5421 68.8174 48.1112ZM100.831 52.0672C102.051 53.7201 102.663 55.999 102.663 58.8994C102.663 61.9194 102.004 64.339 100.687 66.1641C99.3697 67.9863 97.6243 68.8981 95.4479 68.8981C93.3141 68.8981 91.6527 68.0845 90.4635 66.45C89.2743 64.8198 88.6797 62.5467 88.6797 59.6349C88.6797 56.457 89.3027 53.9861 90.5503 52.2279C91.7978 50.4669 93.5417 49.5878 95.7822 49.5878C97.9273 49.5878 99.6101 50.4143 100.831 52.0672ZM86.7437 50.9676C84.4506 53.127 83.3041 55.952 83.3041 59.4442C83.3041 62.9478 84.3838 65.7089 86.5459 67.726C88.7067 69.7459 91.6655 70.7545 95.4223 70.7545C99.1492 70.7545 102.182 69.6591 104.525 67.4699C106.866 65.2836 108.037 62.4528 108.037 58.9791C108.037 55.4755 106.949 52.7258 104.772 50.7272C102.594 48.73 99.5944 47.7314 95.7736 47.7314C92.0467 47.7329 89.0367 48.8111 86.7437 50.9676ZM90.1818 42.1468C89.972 42.3507 89.8062 42.5956 89.6949 42.8662C89.5835 43.1368 89.529 43.4274 89.5346 43.72C89.5346 44.3274 89.7494 44.8466 90.1818 45.2776C90.3832 45.4862 90.6251 45.6513 90.8928 45.7626C91.1605 45.8739 91.4482 45.9292 91.738 45.9249C92.3554 45.9249 92.8803 45.7101 93.3113 45.2776C93.7423 44.8466 93.9571 44.3274 93.9571 43.72C93.9571 43.1012 93.7423 42.5778 93.3113 42.1468C93.1072 41.9371 92.8622 41.7716 92.5917 41.6603C92.3211 41.549 92.0306 41.4942 91.738 41.4995C91.4482 41.4952 91.1605 41.5505 90.8928 41.6618C90.6251 41.7731 90.3832 41.9382 90.1818 42.1468ZM98.0283 42.1468C97.8187 42.3509 97.6531 42.5958 97.5418 42.8664C97.4305 43.137 97.3758 43.4275 97.381 43.72C97.381 44.3274 97.5973 44.8466 98.0283 45.2776C98.4593 45.7087 98.9785 45.9249 99.5859 45.9249C100.203 45.9249 100.728 45.7101 101.159 45.2776C101.59 44.8452 101.806 44.3274 101.806 43.72C101.812 43.4274 101.758 43.1367 101.646 42.8661C101.535 42.5954 101.369 42.3506 101.159 42.1468C100.955 41.9371 100.71 41.7716 100.44 41.6603C100.169 41.549 99.8785 41.4942 99.5859 41.4995C98.9785 41.4995 98.4607 41.7157 98.0283 42.1468ZM116.36 57.824L116.471 49.9832L117.478 49.9192C120.141 49.9192 121.471 51.2863 121.471 54.0203C121.471 57.1853 119.959 58.7657 116.935 58.7657C116.817 58.7657 116.62 58.7572 116.344 58.7373L116.36 57.824ZM111.57 49.6945L111.72 56.0772L111.704 61.4983C111.704 64.6989 111.589 67.6079 111.358 70.231C112.243 70.1371 113.084 70.0887 113.882 70.0887C114.788 70.0887 115.683 70.167 116.566 70.3277C116.445 68.6691 116.386 67.497 116.386 66.8156L116.336 63.5282L116.286 61.0886C116.286 60.4073 116.36 60.0772 116.509 60.1C116.595 60.1085 116.723 60.2693 116.893 60.578C116.969 60.7174 117.149 61.036 117.437 61.5339C117.693 61.9621 118.151 62.77 118.814 63.9592C119.411 65.046 120.003 66.093 120.59 67.1015C121.413 68.5183 122.01 69.5937 122.384 70.3277C123.241 70.2669 124.099 70.2346 124.957 70.231L128.218 70.3277C127.407 69.0389 126.929 68.2722 126.778 68.0247L123.903 63.5496C123.011 62.1825 122.148 60.7967 121.314 59.393C124.781 58.4684 126.515 56.568 126.515 53.6888C126.515 51.8581 125.929 50.4697 124.755 49.5281C123.583 48.5849 121.846 48.1141 119.545 48.1141L117.499 48.171L114.398 48.2578C113.886 48.2578 112.916 48.2094 111.489 48.1141C111.542 49.1355 111.57 49.6632 111.57 49.6945ZM135.968 67.3846L135.879 59.7714C135.879 55.7728 135.946 52.5594 136.08 50.1284L136.625 50.0899C137.339 50.0443 138.054 50.0191 138.77 50.0145C141.32 50.0145 143.192 50.6091 144.387 51.8012C146.008 53.4157 146.818 55.7571 146.818 58.8269C146.818 62.2807 145.885 64.8582 144.017 66.5595C142.706 67.7374 140.828 68.3263 138.386 68.3263C137.596 68.3263 136.797 68.312 135.985 68.2793L135.968 67.3846ZM131.169 57.7543C131.169 62.8298 131.081 66.9891 130.902 70.2296C131.861 70.1357 132.738 70.0873 133.539 70.0873L135.362 70.1172L137.629 70.1983L140.06 70.2281C142.852 70.2281 145.161 69.6108 146.98 68.3746C150.359 66.0887 152.05 62.8298 152.05 58.6036C152.05 56.5281 151.595 54.6533 150.683 52.9804C149.771 51.3104 148.53 50.08 146.966 49.2933C145.41 48.5053 143.084 48.1112 139.996 48.1112L137.629 48.1425L135.985 48.2066L133.443 48.2549C132.699 48.2549 131.851 48.2066 130.903 48.1112C131.08 51.2251 131.169 54.4399 131.169 57.7543ZM155.48 48.1112C156.904 48.3059 158.34 48.4015 159.777 48.3972C163.144 48.3972 165.922 48.3019 168.117 48.1112C167.993 48.56 167.927 49.0227 167.92 49.4882C167.92 49.979 167.986 50.4541 168.117 50.9121L165.978 50.767C163.794 50.6191 162.185 50.5451 161.151 50.5451L160.607 50.5281L160.592 50.9747L160.447 56.9293V57.5537H161.167C162.092 57.5537 163.073 57.5253 164.106 57.4727L167.093 57.3276C167.477 57.3077 167.749 57.2977 167.91 57.2977C167.757 57.7643 167.682 58.2095 167.682 58.6235C167.682 59.0516 167.757 59.504 167.91 59.9819C165.087 59.7743 162.794 59.6704 161.036 59.6704L160.447 59.696L160.424 60.302L160.405 62.5879L160.446 67.1613V67.8953L161.341 67.8981C163.375 67.8981 165.564 67.7701 167.908 67.5126C167.855 67.9692 167.826 68.4284 167.821 68.8882C167.821 69.369 167.85 69.8156 167.908 70.2296L167.124 70.2153L164.774 70.1343L162.043 70.0873C159.69 70.0873 157.467 70.1343 155.38 70.2296L155.424 69.285C155.572 65.726 155.646 61.5083 155.646 56.6348C155.652 53.5238 155.594 50.6803 155.48 48.1112ZM176.445 57.824L176.558 49.9832L177.564 49.9192C180.226 49.9192 181.557 51.2863 181.557 54.0203C181.557 57.1853 180.046 58.7657 177.021 58.7657C176.904 58.7657 176.706 58.7572 176.432 58.7373L176.445 57.824ZM171.658 49.6945L171.807 56.0772L171.79 61.4983C171.79 64.6989 171.673 67.6079 171.443 70.231C172.329 70.1371 173.169 70.0887 173.968 70.0887C174.874 70.0887 175.769 70.167 176.652 70.3277C176.53 68.6691 176.472 67.497 176.472 66.8156L176.422 63.5282L176.372 61.0886C176.372 60.4073 176.447 60.0772 176.597 60.1C176.681 60.1085 176.807 60.2693 176.981 60.578C177.056 60.7174 177.237 61.036 177.526 61.5339C177.782 61.9621 178.24 62.77 178.901 63.9592C179.499 65.046 180.09 66.093 180.676 67.1015C181.301 68.1622 181.9 69.2379 182.472 70.3277C183.419 70.2637 184.278 70.231 185.045 70.231L188.304 70.3277C187.493 69.0389 187.015 68.2722 186.864 68.0247L183.989 63.5496C183.097 62.1825 182.234 60.7967 181.4 59.393C184.869 58.4684 186.601 56.568 186.601 53.6888C186.601 51.8581 186.015 50.4697 184.843 49.5281C183.671 48.5864 181.934 48.1141 179.631 48.1141L177.585 48.171L174.484 48.2578C173.971 48.2578 173.001 48.2094 171.573 48.1141C171.627 49.1355 171.658 49.6632 171.658 49.6945Z" fill="white"/>
<path fill-rule="evenodd" clip-rule="evenodd" d="M219.973 25.8109L193.945 69.7346H216.422V72.379H218.766V67.487L218.714 67.103C218.62 66.6805 218.378 66.0062 217.781 66.0062C216.964 66.0062 216.789 67.4756 216.789 67.4899L216.034 67.4145C216.084 66.9095 216.281 66.1869 216.719 65.7175H198.694L213.933 39.6403C214.755 39.8623 216.405 40.4142 217.702 41.5422C219.133 42.7855 219.872 45.427 219.877 45.4541L220.617 45.4327C220.626 45.4057 221.22 42.6873 222.783 41.4839C223.848 40.6631 225.5 40.4341 226.445 40.3701L241.707 65.7189H223.401C223.84 66.1883 224.04 66.9109 224.089 67.4159L223.334 67.4913C223.331 67.4771 223.156 66.0076 222.343 66.0076C221.628 66.0688 221.357 67.6976 221.357 67.6976V72.3818H223.823V69.7374H246.548L219.973 25.8109ZM220.064 39.0358C217.913 39.0358 216.155 37.8096 215.379 37.1652L219.88 29.4624L224.739 37.5365C223.792 38.1339 222.034 39.0358 220.064 39.0358Z" fill="white"/>
<path fill-rule="evenodd" clip-rule="evenodd" d="M218.891 65.7174C219.489 66.3006 219.594 67.376 219.606 67.4344L219.608 67.4429H220.364C220.466 67.0759 220.749 66.1868 221.227 65.7174H218.891ZM229.222 53.1781C228.963 50.272 228.064 48.3474 226.546 47.4612C224.867 46.4825 223.123 47.1909 223.051 47.2222L222.515 47.4455L222.598 48.0088C222.604 48.0401 223.065 51.2621 222.893 54.7201C222.671 59.1953 221.791 64.2778 221.779 64.3276L221.66 65.019H223.032C223.876 64.4813 229.86 60.3745 229.222 53.1781ZM218.606 65.0204L218.483 64.3291C218.475 64.2793 217.591 59.1754 217.369 54.686C217.276 52.4369 217.375 50.184 217.667 47.9519L217.748 47.3872L217.212 47.1624C217.139 47.1311 215.395 46.4213 213.719 47.4028C212.2 48.2919 211.3 50.2236 211.041 53.1397C210.402 60.3603 216.389 64.4813 217.231 65.0232H218.606V65.0204ZM221.408 44.9604C222.219 44.6997 222.931 44.1975 223.449 43.5211C223.967 42.8446 224.266 42.0261 224.305 41.1752C223.495 41.4364 222.783 41.9387 222.265 42.6151C221.748 43.2914 221.448 44.1096 221.408 44.9604ZM219.044 45.0159C219.012 44.1218 218.694 43.2615 218.138 42.561C217.581 41.8606 216.815 41.3569 215.951 41.124C215.983 42.0182 216.3 42.8787 216.856 43.5793C217.413 44.2798 218.18 44.7833 219.044 45.0159ZM220.13 36.7911C219.148 36.7898 218.196 37.1359 217.443 37.7683C218.186 38.3678 219.112 38.6941 220.066 38.6929C221.089 38.6929 222.025 38.3245 222.751 37.7157C222.009 37.116 221.084 36.7896 220.13 36.7911Z" fill="white"/>
</svg>
