<svg width="250" height="100" viewBox="0 0 250 100" fill="none" xmlns="http://www.w3.org/2000/svg">
<path d="M60.2207 98.7007V1.22452H189.718V98.7007H60.2207Z" fill="#F9F400"/>
<path d="M59 0V100H190.891V0H59ZM61.3734 2.38095H188.518V97.449H61.3734V2.38095ZM70.6973 13.4354V86.3946H130.54V73.2993H85.2766V13.4354H70.6973ZM92.3967 13.4354V51.0204C92.3967 58.8912 101.198 64.966 107.315 64.966H115.113C121.23 64.966 129.862 58.8912 129.862 51.0204V49.3197V13.4354H115.283V49.3197C115.283 50.7415 114.164 51.3605 113.248 51.3605C112.326 51.3605 109.18 51.3605 109.18 51.3605C108.108 51.3605 106.962 50.7007 106.976 49.3197V13.4354H92.3967ZM138.338 13.4354V86.3946H152.918V57.6531L166.649 86.3946H182.924L165.462 49.6599L180.72 13.4354H164.445L152.918 40.6463V13.4354H138.338Z" fill="black"/>
</svg>
