<svg width="250" height="100" viewBox="0 0 250 100" fill="none" xmlns="http://www.w3.org/2000/svg">
<path d="M0 49.8889V22.0026H32.6923H65.3846L65.3359 49.8386L65.2872 77.6746H57.6912H50.0952L49.999 57.5788L49.9029 37.4831H45.1914H40.48L40.3838 57.5788L40.2877 77.6746H32.6917H25.0957L24.9995 57.5788L24.9033 37.4831H20.1919H15.4805L15.3843 57.5788L15.2882 77.6746L7.64408 77.7248L0 77.7751V49.8889Z" fill="#1E2A63"/>
<path d="M73.0747 22V49.7579C73.0747 65.0236 73.1352 77.5702 73.2069 77.6419C73.2786 77.7136 76.7185 77.7537 80.851 77.7261L88.3629 77.672L88.459 70.076L88.5552 62.48H94.2281H99.9011L99.9972 70.076L100.093 77.672H107.689H115.285L115.333 49.836L115.382 22H94.2281H73.0747ZM88.5552 37.4805H94.2281H99.9011V43.1534V48.8264L94.2702 48.8805C89.8407 48.9206 88.6234 48.8814 88.5492 48.6882C88.4973 48.553 88.479 45.9741 88.5071 42.9611L88.5552 37.4805Z" fill="#1E2A63"/>
<path d="M123.205 77.6447C123.133 77.573 123.074 65.0242 123.074 49.7585V22.0026H130.765H138.455L138.505 32.5312L138.555 43.0599H145.189H151.824L151.874 32.5312L151.923 22.0026H159.614H167.306L167.257 49.8386L167.208 77.6746H159.612H152.016L151.92 67.194L151.824 56.7134H145.189H138.555L138.459 67.194L138.363 77.6746L130.849 77.7248C126.716 77.7525 123.277 77.7164 123.205 77.6447Z" fill="#1E2A63"/>
<path d="M175.126 77.6436C175.055 77.5725 174.997 65.0242 174.997 49.7585V22.0026H182.688H190.379L190.428 43.1079L190.477 64.2133L199.035 64.3094L207.592 64.4056V71.0401V77.6746L191.424 77.7237C182.531 77.7508 175.197 77.7147 175.126 77.6436Z" fill="#1E2A63"/>
<path d="M215.51 77.6435C215.439 77.5725 215.38 65.0242 215.38 49.7584V22.0026H232.69H250L249.95 28.6852L249.899 35.3677L240.38 35.4639L230.861 35.56V39.3099V43.0599L240.38 43.156L249.899 43.2522V49.8867V56.5211L240.38 56.6173L230.861 56.7134V60.4634V64.2133L240.38 64.3094L249.899 64.4056V71.0401V77.6746L232.769 77.7237C223.347 77.7507 215.581 77.7146 215.51 77.6435Z" fill="#1E2A63"/>
</svg>
