<svg width="250" height="100" viewBox="0 0 250 100" fill="none" xmlns="http://www.w3.org/2000/svg">
<path d="M0.885742 26V73.4852H25.991V56.0388L39.6577 69.7055L53.3443 56.0388V73.4852H78.4397V26H55.1844L39.6478 41.5168L24.141 26H0.885742ZM112.029 26L81.1252 73.4852H107.225L110.567 68.303H139.532L142.894 73.4852H169.004L138.1 26H112.029ZM171.5 26V73.4852H196.606V53.2041L224.009 73.4852H248.696V26H223.581V46.4801L196.009 26H171.5ZM125.05 45.8037L130.858 54.7955H119.221L125.05 45.8037Z" fill="#231F20"/>
<path d="M2.09937 27.2035L4.25779 29.3719V70.1232H22.6392L24.7976 72.2916V53.1244L22.6392 47.9422L39.6678 64.9808L56.7163 47.9422V70.1232H75.1077L77.2661 72.2916V27.2134H55.6918L56.587 29.3818L39.6778 46.2811V43.2176L23.6736 27.2134H2.09937V27.2035ZM112.676 27.2035L113.84 29.3719L87.3122 70.1232H105.385L108.727 64.951H141.362L144.714 70.1232H162.787L166.756 72.2916L137.413 27.2134H112.676V27.2035ZM172.694 27.2035L174.862 29.3719V70.1232H193.244L195.402 72.2916V50.8168L193.244 46.5298L225.123 70.1232H245.334L247.493 72.2916V27.2134H224.805L226.953 29.3818V53.1543L224.805 48.8872L195.601 27.2134H172.694V27.2035ZM125.05 39.6269L137.045 58.1574L133.097 55.999H117.023L125.06 43.5757V39.6269H125.05Z" fill="white"/>
<path d="M125.06 39.6171V43.576L117.023 55.999L113.064 58.1572L125.06 39.6171Z" fill="#ACAAAA"/>
<path d="M4.2478 29.3718V70.1233H22.6391V47.9224L39.6678 64.9709L56.7064 47.9224V70.1233H75.0957L75.0977 70.1221V29.3718H56.577L39.6678 46.2612L22.7586 29.3718H4.2478Z" fill="url(#paint0_linear_2025_216)"/>
<path d="M113.85 29.3718L87.322 70.1329L105.385 70.1331L108.737 64.951H141.352L144.704 70.1331H162.787L136.249 29.3718H113.85ZM125.059 39.6169L137.065 58.1574H113.064L125.059 39.6169Z" fill="url(#paint1_linear_2025_216)"/>
<path d="M174.852 29.3718V70.1233H174.862H193.244V46.5297L225.123 70.1233H245.344V29.3718H226.943V53.1443L194.895 29.3718H174.852Z" fill="url(#paint2_linear_2025_216)"/>
<defs>
<linearGradient id="paint0_linear_2025_216" x1="4.03879" y1="70.2722" x2="74.8897" y2="29.5049" gradientUnits="userSpaceOnUse">
<stop stop-color="#7C7978"/>
<stop offset="0.3382" stop-color="#9E9C9B"/>
<stop offset="1" stop-color="#EAE9EA"/>
</linearGradient>
<linearGradient id="paint1_linear_2025_216" x1="125.17" y1="70.1272" x2="125.17" y2="29.3619" gradientUnits="userSpaceOnUse">
<stop stop-color="#ACABAB"/>
<stop offset="1" stop-color="#EAE9EA"/>
</linearGradient>
<linearGradient id="paint2_linear_2025_216" x1="245.282" y1="70.3045" x2="174.805" y2="29.5422" gradientUnits="userSpaceOnUse">
<stop stop-color="#7C7978"/>
<stop offset="0.3382" stop-color="#9E9C9B"/>
<stop offset="1" stop-color="#EAE9EA"/>
</linearGradient>
</defs>
</svg>
