<svg width="250" height="100" viewBox="0 0 250 100" fill="none" xmlns="http://www.w3.org/2000/svg">
<g clip-path="url(#clip0_2062_136)">
<path fill-rule="evenodd" clip-rule="evenodd" d="M84.4135 31.3929C74.1228 31.3929 65.7805 39.6994 65.7805 49.943C65.7805 60.1879 74.1228 68.4931 84.4135 68.4931C94.7041 68.4931 103.046 60.1879 103.046 49.943C103.046 39.6994 94.7041 31.3929 84.4135 31.3929ZM84.4135 61.4051C82.8869 61.4283 81.371 61.1489 79.9539 60.5834C78.5369 60.0178 77.2469 59.1773 76.1592 58.1108C75.0714 57.0442 74.2076 55.773 73.618 54.371C73.0284 52.969 72.7248 51.4642 72.7248 49.9443C72.7248 48.4244 73.0284 46.9196 73.618 45.5176C74.2076 44.1156 75.0714 42.8444 76.1592 41.7779C77.2469 40.7113 78.5369 39.8708 79.9539 39.3053C81.371 38.7397 82.8869 38.4604 84.4135 38.4835C87.4362 38.5294 90.3196 39.757 92.441 41.9013C94.5623 44.0457 95.7513 46.9346 95.7513 49.9443C95.7513 52.954 94.5623 55.843 92.441 57.9873C90.3196 60.1316 87.4362 61.3593 84.4135 61.4051ZM174.629 31.3929C164.338 31.3929 155.997 39.6994 155.997 49.943C155.997 60.1879 164.338 68.4931 174.629 68.4931C184.92 68.4931 193.263 60.1879 193.263 49.943C193.263 39.6994 184.92 31.3929 174.629 31.3929ZM174.629 61.4051C171.597 61.3726 168.701 60.1507 166.568 58.0048C164.436 55.8589 163.24 52.9622 163.24 49.9436C163.24 46.9251 164.436 44.0284 166.568 41.8825C168.701 39.7366 171.597 38.5147 174.629 38.4822C176.151 38.4659 177.662 38.7503 179.073 39.3189C180.484 39.8876 181.768 40.7292 182.85 41.7952C183.932 42.8611 184.792 44.1301 185.378 45.5288C185.964 46.9275 186.266 48.428 186.266 49.9436C186.266 51.4593 185.964 52.9598 185.378 54.3585C184.792 55.7572 183.932 57.0262 182.85 58.0921C181.768 59.1581 180.484 59.9997 179.073 60.5684C177.662 61.137 176.151 61.4214 174.629 61.4051ZM201.675 60.7133V52.9296H214.531L212.603 45.6779H201.675V38.9598H210.674L208.638 31.7081H194.608V67.9663H218.814L216.78 60.7133H201.675ZM211.221 31.6363L213.472 39.742H245.501L250 31.6363H211.221ZM240.565 48.9599L244.85 41.1748H213.894L216.037 48.9599H240.565ZM216.457 50.394L218.707 58.497H235.419L239.811 50.394H216.457ZM221.38 68.0368H230.271L234.661 59.9324H219.129L221.38 68.0368ZM120.029 48.4517L104.603 30.9632V67.9676H112.316V51.864L127.742 69.2461V31.7095H120.029V48.4517Z" fill="black"/>
<path fill-rule="evenodd" clip-rule="evenodd" d="M147.791 53.8449C152.332 52.4467 155.409 48.0233 155.456 43.6519C155.524 37.0295 150.064 31.7148 143.411 31.7148L130.558 31.7068V67.965H138.055V52.3961L148.66 67.965H157.338L147.791 53.8449ZM142.556 49.0051H138.057V38.2973H142.556C145.526 38.2973 147.932 40.6945 147.932 43.6519C147.932 46.6092 145.525 49.0051 142.556 49.0051ZM38.7772 31.6363H0L4.49922 39.742H36.5269L38.7772 31.6363ZM36.106 41.1748H5.14865L9.43406 48.9599H33.9626L36.106 41.1748ZM10.1891 50.394L14.5814 58.497H31.2914L33.5404 50.394H10.1891ZM19.7287 68.0368H28.6189L30.8692 59.9324H15.3377L19.7287 68.0368ZM49.9631 49.4082L42.0364 30L31.4317 67.9636H39.3598L43.537 53.0347L49.9631 68.9228L56.3906 53.1411L60.5678 67.9636H68.4945L57.8899 30L49.9631 49.4082ZM241.175 60.3036C240.537 60.3036 239.906 60.4287 239.316 60.6717C238.727 60.9147 238.192 61.2709 237.741 61.72C237.29 62.169 236.932 62.7021 236.688 63.2888C236.444 63.8755 236.318 64.5043 236.318 65.1394C236.318 65.7744 236.444 66.4032 236.688 66.9899C236.932 67.5766 237.29 68.1097 237.741 68.5588C238.192 69.0078 238.727 69.364 239.316 69.607C239.906 69.85 240.537 69.9751 241.175 69.9751C242.464 69.9751 243.699 69.4656 244.61 68.5588C245.521 67.6519 246.033 66.4219 246.033 65.1394C246.033 63.8568 245.521 62.6268 244.61 61.72C243.699 60.8131 242.464 60.3036 241.175 60.3036ZM241.175 69.2102C240.632 69.2199 240.092 69.1217 239.587 68.9213C239.082 68.7209 238.622 68.4224 238.235 68.0432C237.847 67.6639 237.539 67.2116 237.329 66.7126C237.118 66.2135 237.01 65.6778 237.01 65.1367C237.01 64.5956 237.119 64.0599 237.329 63.5609C237.54 63.0619 237.848 62.6097 238.236 62.2306C238.623 61.8515 239.083 61.5531 239.588 61.3529C240.093 61.1527 240.633 61.0547 241.177 61.0646C242.249 61.084 243.27 61.5218 244.022 62.2836C244.773 63.0454 245.194 64.0704 245.194 65.138C245.193 66.2056 244.772 67.2305 244.021 67.9921C243.269 68.7536 242.247 69.1911 241.175 69.2102Z" fill="black"/>
<path fill-rule="evenodd" clip-rule="evenodd" d="M242.382 65.3189C242.744 65.2365 243.031 65.0662 243.244 64.8094C243.458 64.5527 243.562 64.2454 243.562 63.8888C243.562 63.3793 243.368 62.9949 242.982 62.7341C242.596 62.4734 242.018 62.343 241.254 62.343H239.137V67.7282H240.447V65.5212H241.096L242.125 67.7282H243.587L242.382 65.3189ZM241.941 64.5487C241.758 64.6711 241.476 64.7309 241.098 64.7309H240.448V63.1718H241.026C241.433 63.1718 241.732 63.237 241.924 63.366C242.117 63.4977 242.214 63.6999 242.214 63.974C242.212 64.2361 242.12 64.4263 241.941 64.5487Z" fill="black"/>
</g>
<defs>
<clipPath id="clip0_2062_136">
<rect width="250" height="100" fill="white"/>
</clipPath>
</defs>
</svg>
