<svg width="250" height="100" viewBox="0 0 250 100" fill="none" xmlns="http://www.w3.org/2000/svg">
<g clip-path="url(#clip0_2025_240)">
<path d="M1.52498 26.6492C1.07444 26.8745 0.511256 27.6628 0.285984 28.4136C0.0607125 29.3145 -0.0519235 37.1603 0.0231672 51.5754C0.135803 72.4473 0.173349 73.4609 0.849164 74.2117L1.56253 75H55.4025H109.205V72.1845V69.3691L107.816 69.3315C107.027 69.3315 96.5522 68.7685 84.5377 68.1303C64.526 67.0041 62.6488 66.8539 61.9354 66.2158C61.1845 65.5025 61.147 65.1647 61.2221 60.0218L61.3347 54.541H72.3355H83.2987V50.4868V46.47H72.2228H61.147V41.0268C61.147 35.8088 61.1845 35.5836 62.0105 35.0581C62.799 34.5325 78.7182 33.4814 102.259 32.3928C104.737 32.2426 107.328 32.0924 108.004 31.9798L109.205 31.7921V29.0142V26.1987L55.8155 26.2363C18.12 26.2363 2.12571 26.3864 1.52498 26.6492ZM49.2076 35.0956C49.8458 35.6587 49.8834 36.6347 49.8834 50.5618C49.8834 58.7454 49.7332 65.6151 49.583 65.8404C48.7946 67.0416 47.6307 67.1167 29.9843 67.1167H12.3005C12.3005 67.1167 11.5402 67.1636 10.977 66.6005C10.4138 66.0375 10.4608 65.2773 10.4608 65.2773V50.5994C10.4608 36.447 10.4983 35.9215 11.2117 35.2082C11.925 34.495 12.4507 34.4574 30.2472 34.4574C46.7296 34.4574 48.5693 34.5325 49.2076 35.0956Z" fill="#006E85"/>
<path d="M98.1291 41.7401C95.3508 42.9789 94.1118 45.6442 94.0743 50.4117C94.0367 57.4315 96.0266 60.0968 101.32 60.1344C104.587 60.1719 106.051 59.346 107.44 56.6432C108.341 54.8413 108.454 54.1656 108.454 51.0123C108.454 49.0227 108.266 46.7703 108.079 46.0196C107.553 44.2177 106.014 42.3782 104.437 41.7401C102.897 41.0643 99.5934 41.1019 98.1291 41.7401ZM103.273 44.6306C104.474 45.2688 105.075 47.2959 105.075 50.5994C105.075 54.9915 103.798 57.3565 101.433 57.3565C98.6548 57.3565 97.4909 55.3293 97.4909 50.5994C97.4909 47.1457 98.0541 45.3814 99.3306 44.6306C100.232 44.105 102.297 44.105 103.273 44.6306Z" fill="#1A3A4B"/>
<path d="M116.639 41.4773L111.082 41.6274V50.7871V59.9842H116.714H122.346V58.4826V56.9811H118.404H114.424L114.536 54.5035L114.649 52.0259H117.427C120.957 52.0259 121.22 51.9132 121.22 50.3741V49.0978H117.84H114.461V46.6577V44.2177H118.404H122.346V42.7161C122.346 41.8902 122.308 41.2521 122.271 41.2896C122.196 41.3271 119.68 41.4397 116.639 41.4773Z" fill="#1A3A4B"/>
<path d="M134.736 42.0404C132.295 43.2792 131.319 45.2688 131.056 49.4732C130.756 54.8789 131.92 57.9196 134.886 59.4962C136.125 60.1719 141.118 60.3972 143.108 59.8716L144.122 59.6088V54.9164V50.224L141.869 50.1864C140.63 50.1489 139.279 50.1114 138.866 50.1114C138.453 50.0738 138.115 50.1864 138.115 50.3366C138.115 50.4868 138.115 51.0123 138.115 51.5379C138.115 52.3637 138.265 52.4764 139.429 52.4764H140.743V54.9164V57.3565H139.016C138.077 57.3565 136.989 57.1688 136.538 56.9435C133.685 55.4044 133.685 46.1697 136.538 44.6306C136.989 44.4054 138.828 44.2177 140.706 44.2177H144.122V42.9413C144.122 41.8152 143.972 41.665 142.958 41.4398C140.255 40.9142 136.425 41.177 134.736 42.0404Z" fill="#1A3A4B"/>
<path d="M147.501 50.6744V59.9842H153.133H158.765V58.4826V56.9811H154.635H150.505V54.541C150.505 52.4763 150.617 52.1009 151.181 52.0634C151.519 52.0634 153.058 52.0259 154.56 52.0259L157.263 52.0634V50.5994V49.1353L153.997 49.0227L150.693 48.9101V46.6577V44.4054L154.747 44.2927L158.765 44.1801V42.9038V41.6274L153.133 41.5148L147.501 41.4022V50.6744Z" fill="#1A3A4B"/>
<path d="M162.895 41.4022C162.895 41.4022 162.857 45.5691 162.782 50.712L162.707 59.9842H164.284H165.861L165.974 56.4931L166.086 53.0394L167.4 52.9268C168.715 52.8142 168.752 52.8517 170.704 56.418L172.694 59.9842H174.534H176.374L174.309 56.4931C173.22 54.6161 172.281 52.8517 172.281 52.6265C172.281 52.4013 172.657 52.0259 173.145 51.7631C176.149 50.1489 176.111 44.4054 173.145 42.4533C172.356 41.9278 171.042 41.7401 167.513 41.5899C164.96 41.4773 162.895 41.4022 162.895 41.4022ZM171.155 44.9685C172.131 45.9445 172.169 48.347 171.193 49.2479C170.742 49.6609 169.766 49.9237 168.302 49.9612L166.086 50.0363L165.974 47.1082L165.861 44.2177H168.151C169.916 44.2177 170.554 44.3678 171.155 44.9685Z" fill="#1A3A4B"/>
<path d="M182.156 41.5148C180.504 41.6274 180.166 41.7401 180.166 42.3407C180.166 43.1666 179.527 53.4148 179.227 57.2438L179.002 59.9842H180.654H182.343L182.606 53.9779C182.756 50.6744 183.019 47.9716 183.132 47.9716C183.282 47.9716 184.108 50.6369 184.934 53.8653L186.398 59.7965L187.975 59.9091C189.74 60.0593 189.402 60.6975 191.241 53.0394C191.805 50.7495 192.33 48.6473 192.443 48.347C192.743 47.5587 193.194 50.4492 193.494 55.5921L193.757 59.9842H195.447H197.099L196.911 58.37C196.798 57.5066 196.535 53.8278 196.31 50.224C195.747 40.6514 195.972 41.3647 193.494 41.5148C191.542 41.665 191.429 41.7025 191.129 42.8287C190.941 43.5044 190.228 46.2823 189.514 48.9852C188.801 51.7256 188.163 53.9779 188.05 53.9779C187.937 53.9779 187.112 51.2375 186.21 47.859C185.309 44.518 184.446 41.7025 184.333 41.5899C184.221 41.4773 183.207 41.4397 182.156 41.5148Z" fill="#1A3A4B"/>
<path d="M205.133 41.665C205.058 41.9278 203.857 45.9445 202.505 50.5994C201.154 55.2543 199.952 59.271 199.877 59.4962C199.764 59.8341 200.252 59.9842 201.567 59.9842H203.406L203.819 58.37C204.645 55.1792 204.307 55.442 207.649 55.5546L210.69 55.6672L211.291 57.7319L211.929 59.7965L213.694 59.9091C214.67 59.9842 215.458 59.9091 215.458 59.759C215.458 59.6088 214.257 55.3669 212.755 50.3366L210.052 41.2145H207.686C206.11 41.2145 205.246 41.3647 205.133 41.665ZM208.85 48.835C209.376 50.7495 209.827 52.4388 209.827 52.589C209.827 52.7391 208.813 52.8517 207.536 52.8517C205.847 52.8517 205.284 52.7391 205.396 52.3637C205.509 52.1385 205.997 50.4492 206.485 48.6098C206.973 46.8079 207.461 45.3438 207.611 45.3438C207.724 45.3438 208.287 46.9205 208.85 48.835Z" fill="#1A3A4B"/>
<path d="M220.452 41.5148L218.837 41.6274V50.8246V59.9842H220.527H222.216L222.292 54.0155L222.404 48.0467L225.671 53.9404L228.9 59.7965L230.627 59.9091L232.354 60.0218V50.712V41.4022H230.852H229.35V47.7839C229.35 51.688 229.2 53.9779 229.012 53.7902C228.824 53.565 227.248 50.7871 225.558 47.5962C223.868 44.4054 222.404 41.7025 222.254 41.5899C222.141 41.4773 221.315 41.4397 220.452 41.5148Z" fill="#1A3A4B"/>
<path d="M235.958 42.0779C236.071 42.4533 237.347 45.2312 238.774 48.2719C241.327 53.7151 241.365 53.8278 241.365 56.8685V59.9842H243.092H244.781L244.706 56.6808L244.631 53.4148L247.297 47.7839C248.799 44.6681 250 41.9653 250 41.7776C250 41.5148 249.362 41.4397 248.273 41.5899L246.546 41.7776L244.969 45.4565C244.068 47.4836 243.204 49.1353 243.017 49.1729C242.829 49.1729 241.928 47.4836 241.064 45.4189L239.412 41.665L237.573 41.5148C235.958 41.4022 235.77 41.4773 235.958 42.0779Z" fill="#1A3A4B"/>
</g>
<defs>
<clipPath id="clip0_2025_240">
<rect width="250" height="100" fill="white"/>
</clipPath>
</defs>
</svg>
