<svg width="250" height="100" viewBox="0 0 250 100" fill="none" xmlns="http://www.w3.org/2000/svg">
<path fill-rule="evenodd" clip-rule="evenodd" d="M35.7541 23.1673C43.5863 23.1673 51.3659 22.2193 58.8794 20.322L59.8282 20.0846L60.5395 20.7426C65.9179 25.7212 69.6092 32.1495 71.2436 39.3424L71.4556 40.2904L70.77 41.001C59.9065 52.1989 51.9434 66.0276 47.7513 80.9406L47.4868 81.89L46.538 82.1785C43.1098 83.2331 39.4711 83.7859 35.7527 83.7859C32.114 83.7859 28.4767 83.2331 24.9432 82.1259L24.02 81.8374L23.7569 80.9136C19.5378 66.0276 11.5747 52.2245 0.685637 41.0024L0 40.2918L0.210529 39.3438C1.84496 32.1779 5.58894 25.7241 11.02 20.6915L11.7326 20.0334L12.6814 20.2694C20.3813 22.1923 28.1339 23.1673 35.7541 23.1673Z" fill="#071748"/>
<path fill-rule="evenodd" clip-rule="evenodd" d="M4.32422 47.4023C4.32422 38.9985 7.59309 31.122 13.5263 25.1954C19.4594 19.2674 27.3428 16 35.7284 16C44.1395 16 52.0244 19.2674 57.9561 25.1954C63.8893 31.122 67.1581 38.9985 67.1581 47.4023C67.1581 64.6845 53.0514 78.7804 35.7284 78.7804C27.3428 78.7804 19.4594 75.5129 13.5263 69.5864C7.59309 63.6584 4.32422 55.7819 4.32422 47.4023Z" fill="#071748"/>
<path d="M12.5195 23.102C10.2079 25.3106 8.20792 27.8432 6.59767 30.626C5.0244 33.3477 3.82241 36.3081 3.06565 39.4377C8.48531 45.0956 13.2279 51.3875 17.1582 58.1938C21.0117 64.8636 24.0928 72.0423 26.2777 79.6175C27.723 80.0425 29.2166 80.3779 30.7514 80.6138C32.3802 80.8639 34.0516 80.9975 35.7543 80.9975C37.4897 80.9975 39.1825 80.8725 40.8283 80.628C42.3262 80.4035 43.7871 80.0837 45.2053 79.6701C47.3931 72.0778 50.477 64.8722 54.3348 58.1767C58.2537 51.3761 62.9835 45.0843 68.3889 39.4363C67.6322 36.3067 66.4401 33.3463 64.8754 30.6217C63.2893 27.8603 61.322 25.3475 59.0389 23.1531C55.349 24.0599 51.5752 24.7591 47.7401 25.2353C43.807 25.7227 39.8055 25.9757 35.7529 25.9757C31.6576 25.9757 27.6191 25.7014 23.6419 25.1869C19.8509 24.6994 16.1454 23.9945 12.5195 23.102ZM4.88073 29.6326C6.68018 26.5215 8.9405 23.7074 11.5593 21.2814L11.9562 20.9133L12.4754 21.044C16.2236 21.9863 20.0288 22.7239 23.8922 23.2242C27.7514 23.7231 31.7045 23.9888 35.7543 23.9888C39.7287 23.9888 43.6505 23.7415 47.4998 23.264C51.4457 22.7737 55.3149 22.0446 59.0859 21.0966L59.6079 20.9659L60.0034 21.3354C62.6023 23.7543 64.8299 26.5513 66.6023 29.6382C68.3448 32.6726 69.6521 35.994 70.4458 39.5215L70.5639 40.0446L70.1926 40.4283C64.753 46.0464 59.9977 52.3397 56.0603 59.1744C52.1883 65.8969 49.1143 73.1281 46.9677 80.7375L46.8198 81.2562L46.302 81.414C44.6135 81.9356 42.8838 82.3321 41.1156 82.5964C39.366 82.8579 37.5765 82.9901 35.7529 82.9901C33.9534 82.9901 32.1825 82.848 30.4541 82.5822C28.6547 82.3051 26.8908 81.8915 25.1796 81.3642L24.6604 81.2036L24.5138 80.6849C22.373 73.0926 19.3004 65.8898 15.4313 59.1915C11.4839 52.3539 6.71289 46.0578 1.26194 40.4283L0.89209 40.0446L1.01016 39.5215C1.80106 35.9969 3.12112 32.6726 4.88073 29.6326Z" fill="#D9D9D9"/>
<path d="M5.12085 47.4023C5.12085 38.953 8.54761 31.3039 14.0853 25.7668C19.6273 20.2254 27.2803 16.7974 35.727 16.7974C44.1879 16.7974 51.8466 20.2211 57.39 25.7597C62.9334 31.2983 66.3602 38.9488 66.3602 47.4023C66.3602 55.843 62.9306 63.4907 57.3829 69.025C51.8409 74.5608 44.1851 77.9831 35.727 77.9831C27.2789 77.9831 19.6273 74.5579 14.0882 69.0222C8.54904 63.4879 5.12085 55.8459 5.12085 47.4023ZM15.4936 27.1653C10.3158 32.3429 7.11375 39.4974 7.11375 47.4023C7.11375 55.2959 10.3172 62.4433 15.4964 67.618C20.6757 72.7927 27.8294 75.9934 35.7284 75.9934C43.6417 75.9934 50.8025 72.7927 55.9832 67.6208C61.1653 62.4461 64.3701 55.2987 64.3701 47.4023C64.3701 39.4974 61.1653 32.3429 55.9832 27.1653C50.8011 21.9877 43.6403 18.7857 35.7284 18.7857C27.8237 18.7871 20.67 21.9891 15.4936 27.1653Z" fill="#D9D9D9"/>
<path d="M25.3245 45.8887C26.3117 45.6982 27.2975 45.7636 28.1709 46.0806C29.0258 46.3918 29.7712 46.9433 30.3103 47.7292L30.7925 48.8591L29.6645 48.4455C27.9888 47.5402 26.3003 48.0419 24.6417 48.535C22.5336 49.1604 20.4667 49.7744 18.3088 47.9523C17.8707 47.6425 17.5094 47.1735 17.2235 46.696C16.9447 46.2312 16.7384 45.7622 16.6004 45.4325L15.9062 43.7668L17.3543 44.8441C17.3643 44.8512 20.3586 47.1522 25.2961 45.8944L25.3245 45.8887Z" fill="#D9D9D9"/>
<path fill-rule="evenodd" clip-rule="evenodd" d="M35.0686 37.6569C32.9591 37.6569 31.0074 38.052 30.2435 39.1335C30.2435 39.1335 29.4 39.9223 29.2407 40.6088C29.2407 40.6088 23.8367 36.9462 22.1482 44.9023C22.1482 44.9023 25.4185 42.5573 27.2905 44.0851C27.2905 44.0851 28.2393 45.4296 29.9804 45.8759C32.3517 46.5083 32.0885 46.983 32.1952 47.4833C32.1952 47.4833 31.8794 48.2209 29.8225 49.5114C27.7926 50.8275 26.6319 50.1964 24.7599 49.591C24.7599 49.591 24.6276 52.3582 28.346 52.3056C28.346 52.3056 28.9534 52.3582 29.6902 52.2771C29.6902 52.2771 25.2336 54.1475 26.922 58.7338C26.922 58.7338 28.4512 56.8876 30.1383 56.4655C30.1383 56.4655 25.3118 61.9444 31.6945 67.2939C31.6945 67.2939 31.6945 62.3921 33.5138 60.8927C33.5138 60.8927 34.5153 64.7897 34.198 66.9244C34.198 66.9244 34.1184 68.7948 33.538 69.7697C33.538 69.7697 41.1056 69.612 38.9435 60.5232C38.9435 60.5232 41.9762 61.5507 41.3432 65.6865C41.3432 65.6865 48.1455 62.2883 43.6633 55.3072C43.6633 55.3072 46.2209 55.3072 47.0118 58.3629C47.0118 58.3629 50.6505 52.7504 44.6391 47.4023C44.6391 47.4023 46.9065 46.8494 48.1455 48.7198C48.1455 48.7198 47.9876 44.4518 43.9534 42.3711C43.0302 41.8708 44.4812 40.3942 44.1113 39.5784L35.0686 37.6569Z" fill="#D40026"/>
<path fill-rule="evenodd" clip-rule="evenodd" d="M39.7627 40.9228C39.7627 40.9228 42.2151 37.8131 45.8794 38.2353C45.8794 38.2353 44.8509 42.8187 40.8168 43.663L39.7627 40.9228Z" fill="#D40026"/>
<path fill-rule="evenodd" clip-rule="evenodd" d="M40.949 41.3705C40.949 41.3705 42.3459 40.0004 44.0343 39.7105C44.0343 39.7105 43.1908 41.6875 41.2662 42.0826L40.949 41.3705Z" fill="#D9D9D9"/>
<path fill-rule="evenodd" clip-rule="evenodd" d="M33.7228 45.7963C33.2762 45.4808 32.6944 45.3486 32.2207 45.5859C33.6702 45.6385 33.9078 47.6936 35.4896 47.2715C35.7798 47.1934 36.0429 47.0612 36.2805 46.9034C35.2534 47.3241 34.4085 46.3762 33.7228 45.7963Z" fill="#D9D9D9"/>
<path fill-rule="evenodd" clip-rule="evenodd" d="M41.9747 51.6773C41.794 50.8274 41.5039 50.185 41.097 49.6819C40.5735 49.0338 39.8552 48.6146 38.9192 48.2735C39.1269 49.1816 39.3758 50.087 39.3829 51.0264C39.3886 51.9005 39.1994 52.6537 38.8139 53.2805C38.5323 53.7296 38.1767 54.0579 37.8353 54.291C38.1624 53.4255 38.1838 52.6864 38.0785 52.098C37.8836 51.0022 37.2563 50.4281 36.5451 49.6705C36.5152 50.3456 36.5252 51.0364 36.3559 51.6944C36.1382 52.5329 35.7215 53.0403 35.2947 53.3487C35.602 52.405 35.3815 51.5139 35.1482 51.0676L34.252 51.5395C34.2663 51.5835 34.6674 52.3922 34.215 53.316C33.9135 53.93 33.3047 54.4104 32.8281 54.8865C34.6418 54.7785 36.2862 54.5866 37.1311 52.5628C37.2151 53.9172 36.3858 55.0002 35.6489 56.0434C37.2705 55.7208 38.6319 55.391 39.6304 53.8305C40.2535 52.8669 40.4782 51.6958 40.3417 50.303C41.2777 51.5594 41.161 53.1924 41.161 54.6747C42.3915 53.1838 43.3076 51.7797 43.2933 49.6876C43.2834 48.2962 42.7827 46.6788 41.1881 45.0856L40.8452 46.1388C42.6404 48.4199 42.4285 50.4323 41.9747 51.6773Z" fill="#D9D9D9"/>
<path d="M27.6188 46.9432C26.973 46.7513 26.2575 46.7229 25.532 46.8594C22.2489 47.695 19.7184 47.064 18.2375 46.4429C18.431 46.7286 18.6529 46.9858 18.8976 47.1536L18.9203 47.1706L18.936 47.182C20.6913 48.6729 22.5093 48.1342 24.3628 47.5828C25.4296 47.2672 26.5079 46.9475 27.6188 46.9432Z" fill="#D40026"/>
<path fill-rule="evenodd" clip-rule="evenodd" d="M36.7809 34.9167C37.4154 35.9698 38.4424 37.3669 39.7354 37.3669C41.0526 37.3669 41.845 36.787 42.478 35.7339C42.1095 35.7865 42.0043 35.7865 41.6344 35.6813C40.8165 35.3914 40.4211 34.5756 40.5804 33.521C40.845 32.6001 41.7667 32.0728 42.6629 32.3357C42.9787 32.4409 43.2433 32.6001 43.4282 32.809C43.2177 32.4139 43.138 31.9136 43.2703 31.4659C43.5335 30.5435 44.6145 29.8059 45.5633 29.9637L41.872 39.0525H29.6898L25.9729 30.3858C26.8961 30.228 27.9772 30.9657 28.2403 31.888C28.3726 32.3357 28.293 32.6782 28.0824 33.0463C28.2674 32.836 28.5576 32.4395 28.8477 32.3357C29.7439 32.0728 30.7724 32.863 31.0369 33.7584C31.1948 34.8129 30.852 35.471 30.0341 35.7609C29.6657 35.8405 29.3499 35.7879 28.98 35.7339C29.613 36.787 30.5618 37.3669 31.8805 37.3669C33.1721 37.3669 34.1209 35.9713 34.7553 34.9167C34.4651 35.1256 34.1223 35.2322 33.7525 35.2322C32.8022 35.2322 32.064 34.4676 32.064 33.5196C32.064 32.5717 32.8022 31.7814 33.7525 31.7814C34.0426 31.7814 34.3584 31.861 34.596 32.0188C34.2802 31.7033 34.0682 31.2542 34.0682 30.7809C34.0682 29.8329 34.8335 29.0683 35.7553 29.0683C36.7041 29.0683 37.4694 29.8329 37.4694 30.7809C37.4694 31.2542 37.2319 31.7303 36.9161 32.0458C37.1806 31.888 37.4694 31.7829 37.7852 31.7829C38.734 31.7829 39.4737 32.5731 39.4737 33.521C39.4737 34.469 38.7354 35.2336 37.7852 35.2336C37.4154 35.2336 36.7809 34.9167 36.7809 34.9167Z" fill="#E6AB19"/>
<path d="M32.7596 41.3179C32.6059 41.3051 32.4267 41.3023 32.2204 41.3179C32.1948 41.8196 31.8079 42.1891 31.2987 42.1891C30.8463 42.1891 30.4722 41.8978 30.3741 41.4828C30.1877 41.4629 30.0199 41.4274 29.8719 41.3833C29.9886 41.9262 30.2916 42.57 31.0711 42.7164C31.0739 42.7164 32.1692 42.9495 32.6387 41.6093V41.6036C32.6771 41.497 32.7155 41.4032 32.7596 41.3179ZM31.0042 39.0553C30.8634 39.1647 30.7439 39.2855 30.6486 39.4191L30.6216 39.4575L30.5874 39.4902C30.5874 39.4902 30.1265 39.9237 29.8733 40.3671C30.128 40.5021 30.6571 40.6585 31.5775 40.4282L31.6145 40.4211C32.8278 40.2165 33.586 40.4879 33.9488 40.684C34.4637 40.8418 34.8976 41.3336 34.9004 41.3364L34.1835 41.9845C34.1835 41.9845 33.7155 41.4572 33.5448 41.9291C32.7994 44.0609 30.9004 43.6615 30.8947 43.6615C29.2019 43.3418 28.8933 41.7216 28.8449 40.9427C28.1308 40.522 24.5262 38.7043 22.9302 43.8648C24.1564 43.2423 26.1806 42.5373 27.6059 43.6999L27.6614 43.7454L27.6941 43.7909C27.6969 43.7937 28.5433 44.9932 30.1038 45.394L30.1066 45.3955C32.5163 46.0364 32.5889 46.6376 32.6614 47.2402C32.6685 47.2942 32.6756 47.3482 32.6813 47.3809L32.714 47.533L32.6529 47.6765C32.6515 47.6794 32.2745 48.5577 30.0867 49.9292C28.1621 51.1756 26.9672 50.8544 25.3939 50.3257C25.6457 50.9767 26.3527 51.8351 28.3399 51.8067H28.3741C28.3741 51.8067 28.9601 51.8564 29.6372 51.7839L32.9047 51.4343L29.8847 52.7333C29.8748 52.7361 26.3812 54.2043 27.1536 57.7631C27.7923 57.1463 28.862 56.2722 30.017 55.9837L31.5277 55.6056L30.5149 56.7881C30.5035 56.8023 26.4281 61.4299 31.2446 66.2095C31.3627 64.6134 31.7709 61.6843 33.1963 60.5075L33.798 60.01L33.9929 60.7647C33.9957 60.7761 35.0085 64.7172 34.6956 66.9542C34.6899 67.0935 34.6259 68.195 34.3271 69.1699C36.0953 68.8288 40.0498 67.3152 38.4609 60.634L38.2489 59.7429L39.111 60.0513C39.1209 60.0541 42.0071 61.0333 41.9275 64.7314C43.4837 63.6015 46.4652 60.5842 43.2461 55.5715L42.7454 54.7941L43.6686 54.8055C43.6757 54.8083 45.919 54.8083 47.074 57.1036C47.7597 55.3441 48.5107 51.5096 44.3087 47.7718L43.596 47.1393L44.5235 46.9176C44.5292 46.9162 46.037 46.5495 47.3898 47.3298C47.0057 45.9924 46.0598 44.014 43.7255 42.8102L43.717 42.806C43.707 42.8003 43.697 42.7946 43.6871 42.7875C42.9573 43.4057 42.0484 43.9103 40.9175 44.1476L40.7155 43.1755C42.9616 42.7065 44.8478 40.0232 45.2262 38.6929C42.1679 38.673 40.1551 41.2255 40.1494 41.2326L39.3755 40.6101C39.3841 40.6016 41.9972 37.2873 45.936 37.7407L46.4922 37.8046L46.3642 38.3475C46.3628 38.3546 45.909 40.3785 44.4268 42.0598C48.4823 44.3167 48.6444 48.6828 48.6444 48.6941L48.7355 50.5062L47.7326 48.9926C47.1978 48.1853 46.4311 47.9139 45.8108 47.8414C50.9375 53.2151 47.4439 58.6087 47.4325 58.6258L46.8194 59.595L46.532 58.4851C46.1551 57.0283 45.3429 56.3646 44.6771 56.059C48.1978 62.8156 41.5889 66.1185 41.569 66.1299L40.7041 66.5719L40.8507 65.6111C41.1963 63.3542 40.3642 62.1391 39.6543 61.5279C41.0868 70.1051 33.5761 70.2657 33.5533 70.2657L32.6458 70.2956L33.1109 69.5153C33.6259 68.6498 33.6998 66.9087 33.6998 66.9059V66.886L33.7041 66.8505C33.9118 65.4548 33.5206 63.2391 33.2532 61.9785C32.1906 63.7905 32.1891 67.2797 32.1891 67.2939L32.182 68.3485L31.3726 67.6705C26.7339 63.782 27.6884 59.8182 28.7524 57.6991C27.9075 58.3159 27.3001 59.045 27.2987 59.0479L26.7482 59.7002L26.4523 58.8986C25.3171 55.8117 26.7126 53.8518 27.9644 52.7916C24.1123 52.6551 24.2574 49.5753 24.2588 49.5668L24.2844 48.913L24.9075 49.1148C25.1507 49.1944 25.3228 49.2527 25.4907 49.3095C26.9132 49.7913 27.9359 50.1381 29.5476 49.0921L29.5533 49.0893C31.0256 48.1654 31.5206 47.6012 31.6742 47.3852C31.6728 47.3767 31.6714 47.3653 31.6699 47.3553C31.6386 47.0867 31.6059 46.821 29.8549 46.3534V46.3548C28.1479 45.9156 27.1322 44.6962 26.9245 44.4276C25.337 43.2238 22.4395 45.2974 22.4309 45.3031L21.3982 46.0293L21.6599 44.7943C22.623 40.2492 24.7268 39.1989 26.5149 39.2315C27.3883 39.2458 28.2318 39.5201 29.0113 39.8938C29.1849 39.594 29.394 39.3154 29.6187 39.051H31.0042V39.0553Z" fill="#D9D9D9"/>
<path fill-rule="evenodd" clip-rule="evenodd" d="M239.232 36.8012H223.942L215.929 56.5749L215.954 36.7756H205.668V63.3414H223.664L225.281 59.2994H238.121L239.966 63.3414H250L239.232 36.8012ZM193.61 51.0676L182.742 36.7742H169.699V56.4953L161.51 36.7998H146.422L140.103 52.5812H130.676C129.893 55.8899 128.097 57.3552 124.837 57.3552C121.097 57.3552 118.57 54.5767 118.57 50.4352C118.57 45.0572 120.693 42.2787 124.762 42.2787C128.099 42.2787 129.995 43.7681 130.575 46.875H141.267L141.292 46.4699C141.292 40.0559 134.799 35.8391 124.915 35.8391C114.351 35.8391 109.346 39.955 108.486 49.3991C106.971 47.7576 104.493 46.4699 102.622 46.3193L98.6278 45.9654L92.7388 45.8645C90.211 45.8133 88.77 44.9293 88.77 43.4398C88.77 41.7486 90.2352 40.8134 92.9152 40.8134C95.9977 40.8134 97.2367 41.9504 97.2367 44.7531H108.484V44.3992C108.484 38.9203 103.177 35.8888 93.5482 35.8888C82.8568 35.8888 77.6249 38.8194 77.6249 44.7531C77.6249 49.8283 81.467 52.5557 88.8227 52.7575L93.1954 52.8598C96.4059 52.9593 97.8469 53.7424 97.8469 55.4337C97.8469 56.8748 95.8241 58.2378 93.7274 58.2378C90.0617 58.2378 88.1413 56.9743 88.1413 54.6008H76.4897V54.8538C76.4897 60.6112 82.302 63.7664 92.8682 63.7664C103.055 63.7664 108.059 61.545 109.676 56.2665C112.937 61.8236 117.183 63.8446 125.447 63.8446C130.705 63.8446 133.435 63.1112 136.846 60.6354L135.759 63.3386H145.691L147.51 59.1971H160.553L162.297 63.286H179.332V47.5586L191.439 63.3414H203.496V36.8012H193.614V51.0676H193.61ZM228.035 52.6352L231.549 43.8463L235.543 52.5827L228.035 52.6352ZM150.238 52.6352L153.776 43.5677L157.822 52.6352H150.238Z" fill="#071748"/>
</svg>
