<svg width="250" height="100" viewBox="0 0 250 100" fill="none" xmlns="http://www.w3.org/2000/svg">
<path d="M9.44756 50.5598C8.29664 50.5598 7.3759 49.4063 7.3759 48.2528V23.0763C7.3759 22.1535 8.29664 21 9.44756 21H64.0512C64.972 21 66.1229 22.1535 66.1229 23.0763V33.4679C66.1229 34.6214 64.972 35.7749 64.0512 35.7749H46.3171C45.1661 35.7749 44.0152 34.6214 44.0152 33.4679V29.7767C44.0152 29.0846 43.3247 28.3925 42.6341 28.3925H30.8747C30.1841 28.3925 29.2634 29.0846 29.2634 29.7767V41.5524C29.2634 42.2445 30.1841 43.1673 30.8747 43.1673H71.197C72.8083 43.1673 73.4988 43.8594 73.4988 45.2436V77.8026C73.4988 78.9561 72.3479 79.8789 71.197 79.8789H2.07166C0.930745 79.8889 0 78.9661 0 77.8226C0 77.8126 0 77.8126 0 77.8026V60.0286C0 58.8851 0.920737 57.9523 2.05164 57.9523H2.07166H19.8159C20.9568 57.9523 21.8875 58.8751 21.8875 60.0185V60.0386V71.1223C21.8875 71.8144 22.8082 72.5065 23.4988 72.5065H50C50.6906 72.5065 51.3811 71.8144 51.3811 71.1223V51.944C51.3811 51.2519 50.6906 50.5598 50 50.5598H9.44756ZM88.2506 44.5515V56.3273C88.2506 57.0194 87.5601 57.4808 86.6393 57.9422C85.2582 58.1729 84.5677 58.865 84.5677 60.0185V77.8026C84.5677 78.946 85.4884 79.8789 86.6193 79.8789H86.6393H108.066C109.207 79.8789 110.138 78.9561 110.138 77.8126C110.138 77.8026 110.138 77.8026 110.138 77.7925V58.183C110.138 57.9523 110.598 57.7216 110.829 57.9523L131.795 79.4275C132.256 79.8889 132.486 79.8889 133.177 79.8889H159.448C160.598 79.8889 161.749 78.9661 161.749 77.8126V60.0286C161.749 58.8751 160.598 57.9523 159.448 57.9523H140.322C139.862 57.9523 139.632 57.9523 139.402 57.4908L125.12 43.4081C125.12 43.1774 124.89 43.1774 125.12 42.9467L132.036 36.0156C132.266 35.7849 132.496 35.7849 132.956 35.7849H152.312C153.233 35.7849 154.384 34.6314 154.384 33.4779V23.0763C154.384 22.1535 153.233 21 152.312 21H133.187C132.496 21 132.266 21.2307 131.805 21.6921L111.069 42.9366C110.608 43.1673 110.148 43.1673 110.148 42.7059V23.0763C110.148 22.1535 109.227 21 108.076 21H86.6393C85.4884 21 84.5677 22.1535 84.5677 23.0763V40.8603C84.5677 42.0138 85.2582 42.7059 86.4091 42.9366C87.7902 43.398 88.2506 43.8594 88.2506 44.5515ZM172.808 77.8126C172.808 78.9661 173.959 79.8889 175.11 79.8889H196.307C197.458 79.8889 198.609 78.9661 198.609 77.8126V60.2593C198.609 59.1058 197.918 58.183 196.537 57.9523C195.386 57.4909 194.926 57.2601 194.926 56.3373V51.954C194.926 51.2619 195.617 50.5698 196.307 50.5698H204.374C205.294 50.5698 205.985 51.2619 205.985 51.954C205.985 53.1075 207.136 54.261 208.056 54.261H225.801C226.952 54.261 228.102 53.1075 228.102 51.954V41.5524C228.102 40.3989 226.952 39.4761 225.801 39.4761H208.066C207.146 39.4761 205.995 40.3989 205.995 41.5524C205.995 42.2445 205.304 43.1673 204.384 43.1673H196.317C195.627 43.1673 194.936 42.2445 194.936 41.5524V29.7767C194.936 29.0846 195.627 28.3925 196.317 28.3925H219.125C219.816 28.3925 220.737 29.0846 220.737 29.7767V33.4679C220.737 34.6214 221.657 35.7749 222.808 35.7749H247.928C249.079 35.7749 250 34.6214 250 33.4679V23.0763C250 22.1535 249.079 21 247.928 21H175.12C173.969 21 172.818 22.1535 172.818 23.0763V40.8603C172.818 42.0138 173.739 42.7059 174.89 42.9366C175.811 43.1673 176.501 43.8594 176.501 44.5515V56.3273C176.501 57.0194 176.041 57.7115 174.89 57.9422C173.509 58.1729 172.818 58.865 172.818 60.0185L172.808 77.8126Z" fill="#003399"/>
</svg>
