<svg width="250" height="100" viewBox="0 0 250 100" fill="none" xmlns="http://www.w3.org/2000/svg">
<path fill-rule="evenodd" clip-rule="evenodd" d="M250 91.976H0V8H250V91.976Z" fill="#FFF22D"/>
<path fill-rule="evenodd" clip-rule="evenodd" d="M16.1211 28.8163H51.672L46.9578 39.1628H35.0345L20.7086 70.6046H9.00293L23.3288 39.1628H11.4069L16.1211 28.8163ZM57.0262 28.8163H88.4334L84.3793 37.7126H64.7504L61.7162 44.3729H79.9639L76.0905 52.8741H57.8427L54.0888 61.1134H74.2996L69.9738 70.6046H37.9862L57.0262 28.8163ZM92.6966 28.8163H105.566L106.508 41.6708L118.869 28.8163H131.666L110.656 49.0547L113.717 70.6046H100.557L99.2216 57.1779L85.5813 70.6046H72.4958L95.4933 48.8267L92.6966 28.8163ZM133.939 28.8163H169.49L164.773 39.1628H152.851L138.524 70.6046H126.821L141.147 39.1628H129.222L133.939 28.8163ZM172.008 54.6557L182.999 39.64L180.274 54.6557H172.008ZM177.369 70.6046H189.647L194.476 28.8163H181.563L148.353 70.6046H160.333L165.323 63.6838H178.631L177.369 70.6046ZM220.562 37.2524H225.718C227.855 37.2524 229.143 37.6135 229.594 38.3386C230.041 39.0594 229.956 40.0975 229.341 41.4485C228.909 42.3796 228.28 43.2067 227.496 43.873C226.683 44.5796 225.852 45.0158 224.995 45.1844C223.293 45.5667 222.17 45.7565 221.626 45.7565H216.691L220.562 37.2524ZM205.366 70.6046L213.088 53.6658H214.125C215.192 53.6658 215.994 53.9901 216.542 54.6344C216.944 55.1301 217.166 56.1993 217.214 57.8506L217.631 70.6046H230.886L230.728 58.5119C230.731 57.903 230.58 57.0405 230.279 55.9175C229.973 54.7945 229.678 54.0609 229.392 53.721C229.001 53.2069 228.22 52.6943 227.051 52.1802C228.993 51.7426 230.624 51.1932 231.939 50.5261C234.004 49.469 235.885 48.087 237.509 46.4334C239.168 44.751 240.526 42.7485 241.585 40.4274C242.796 37.765 243.237 35.5063 242.91 33.6511C242.58 31.7959 241.616 30.527 240.018 29.843C238.421 29.1604 235.804 28.8163 232.178 28.8163H212.633L193.593 70.6046H205.366Z" fill="black"/>
</svg>
