<svg width="250" height="100" viewBox="0 0 250 100" fill="none" xmlns="http://www.w3.org/2000/svg">
<g clip-path="url(#clip0_2062_373)">
<path d="M6.99972 13.2398H81.2467L74.977 32.275H0L6.99972 13.2398ZM21.2191 46.484L47.9781 46.7238L33.2687 86.7127L6.50974 86.2331L21.2191 46.484ZM85.5866 13L132.355 13.4796C153.174 17.9162 156.244 51.7599 132.835 60.2133L147.294 86.9526L120.295 86.7127L101.496 46.7238H118.125C126.875 44.8553 126.475 36.2819 121.985 32.5148H78.8368L85.5866 13ZM74.017 46.7238H97.8861L82.2167 87.1924L58.3477 86.7127L74.017 46.7238ZM151.634 13L175.743 13.2398L175.503 32.7547L150.914 32.5148L151.634 13ZM188.762 13H216.731L217.211 32.5148H181.293L188.762 13ZM229.991 13.4796H250L242.77 32.7547L222.761 32.5148L229.991 13.4796ZM150.914 46.9636H191.412L176.463 86.7127H151.154L150.914 46.9636ZM195.512 47.2134H236.731L220.811 86.7227H195.262L195.512 47.2134Z" fill="#DC2B19" stroke="#DC2B19" stroke-width="4.397"/>
</g>
<defs>
<clipPath id="clip0_2062_373">
<rect width="250" height="100" fill="white"/>
</clipPath>
</defs>
</svg>
