<svg width="250" height="100" viewBox="0 0 250 100" fill="none" xmlns="http://www.w3.org/2000/svg">
    <path fill-rule="evenodd" clip-rule="evenodd" d="M0 34.476V39.0406H7.48719L22.1394 66.5191H40.1697L54.8219 38.995L62.3078 38.9478L62.3241 34.476H39.9253V38.9635H45.8903L35.5437 58.4985L24.3541 39.0316L32.5156 38.995L32.5012 34.476H0Z" fill="#0D3896"/>
    <path fill-rule="evenodd" clip-rule="evenodd" d="M144.501 34.476V39.0406H151.986L166.639 66.5191H184.67L199.322 38.995L206.809 38.9478L206.822 34.476H184.428V38.9635H190.39L180.044 58.4985L168.853 39.0316L177.017 38.995L177.002 34.476H144.501Z" fill="#0D3896"/>
    <path fill-rule="evenodd" clip-rule="evenodd" d="M107.661 34.476V39.0406H115.147L115.159 61.4744H107.267V66.4747L115.165 66.5194H152.543V51.6038H147.674C147.407 59.501 140.557 61.485 137.671 61.485C135.027 61.485 129.904 61.4747 129.904 61.4747V39.0316L137.277 38.9947L137.267 34.4756L107.661 34.476Z" fill="#0D3896"/>
    <path fill-rule="evenodd" clip-rule="evenodd" d="M82.1276 62.4156C77.6416 62.4156 74.0069 57.0422 74.0069 50.4103C74.0069 43.7769 77.6416 38.3994 82.1276 38.3994C86.6122 38.3994 90.2482 43.7769 90.2482 50.4103C90.2482 57.0422 86.6122 62.4156 82.1276 62.4156ZM82.4576 33.5553C69.7326 33.5553 59.4172 41.1325 59.4172 50.4756C59.4172 59.8194 69.7322 67.3956 82.4576 67.3956C95.1816 67.3956 105.498 59.8194 105.498 50.4756C105.498 41.1325 95.1816 33.5553 82.4576 33.5553Z" fill="#0D3896"/>
    <path fill-rule="evenodd" clip-rule="evenodd" d="M226.63 62.3303C222.145 62.3303 218.511 56.8678 218.511 50.1263C218.511 43.3872 222.146 37.9234 226.63 37.9234C231.115 37.9234 234.749 43.3872 234.749 50.1263C234.749 56.8675 231.115 62.3303 226.63 62.3303ZM226.961 33C214.234 33 203.921 40.7006 203.921 50.1962C203.921 59.6916 214.233 67.3906 226.961 67.3906C239.685 67.3906 250 59.6916 250 50.1962C250 40.7006 239.685 33 226.961 33Z" fill="#0D3896"/>
</svg>
