<svg width="250" height="100" viewBox="0 0 250 100" fill="none" xmlns="http://www.w3.org/2000/svg">
<path d="M203.614 55.7766C203.799 62.7139 204.12 71.0299 190.283 71.1235H176.47C162.417 71.1859 163.559 60.7675 163.115 55.1964V39.8744C163.115 33.8979 165.573 28.9382 176.538 29.0006H189.325C201.334 28.9382 203.7 33.8979 203.7 39.8744V42.819H187.843C187.843 39.1133 187.052 36.8051 184.717 36.4869H182.16C179.818 36.4557 179.034 39.4003 179.034 43.106V52.6386C179.256 56.3817 179.127 62.3957 182.536 62.4269H184.371C187.12 62.4893 187.59 59.5135 187.75 55.7392L203.614 55.7766ZM36.5332 44.4286L32.5982 70.7866H8.89548L0 29.3375H15.3138L20.2557 59.1891L26.4208 29.3375H46.5592L52.681 59.1891L57.66 29.3375H72.98L64.0907 70.7866H40.3571L36.5332 44.4286ZM99.1228 64.8225L100.686 70.8053H117.445L104.837 29.3375H82.0175L69.8851 70.8053H86.0699L87.5031 64.8225H99.1228ZM89.6714 56.6126L93.5384 41.8458L97.1769 56.6126H89.6714ZM149.154 70.7742H119.039V29.3499H153.008C157.086 29.1877 160.273 31.5771 160.242 37.0608V40.7416C160.242 40.7416 160.495 47.5791 154.349 48.3839C160.878 50.062 160.718 57.5172 160.718 57.5172L160.687 60.8735C160.588 70.2314 153.138 70.9052 149.154 70.7742ZM140.74 61.9653C142.235 62.0963 143.353 60.7113 143.353 59.2203V56.0012C143.345 55.2768 143.057 54.5842 142.55 54.0713C142.044 53.5584 141.359 53.2659 140.641 53.2562H135.866V61.9653H140.74ZM140.499 45.3893C141.216 45.378 141.9 45.085 142.407 44.5725C142.913 44.06 143.201 43.3683 143.211 42.6444V39.7122C143.201 38.9883 142.913 38.2966 142.407 37.7841C141.9 37.2716 141.216 36.9786 140.499 36.9673H135.817V45.3893H140.499ZM219.836 71.1235C206.659 71.0923 206.69 61.1168 206.468 55.1964V39.8744C206.468 33.8979 211.305 29.0006 217.21 29.0006H239.264C245.163 29.0006 250 33.8979 250 39.8744V55.1964C249.938 61.0232 249.839 71.0986 236.576 71.1235H219.836ZM230.152 62.3022C233.599 62.271 233.821 56.2944 233.821 52.6448V42.9189C233.914 39.2069 232.771 36.2623 230.504 36.2935H225.89C223.554 36.2623 222.764 39.2069 222.764 42.9189V52.6323C222.795 56.4067 223.171 62.2585 226.588 62.2897L230.152 62.3022Z" fill="#0038A1"/>
</svg>
