<svg width="250" height="100" viewBox="0 0 250 100" fill="none" xmlns="http://www.w3.org/2000/svg">
<path d="M2.72767 25C-7.08062 56.108 12.7165 75.6048 12.7165 75.6048C13.362 68.136 18.1912 62.6415 18.1912 62.6415C4.96556 44.2663 15.4539 25 15.4539 25H2.72767ZM53.2483 25C53.2483 25 63.7366 44.2663 50.5109 62.6415C50.5109 62.6415 55.3882 68.136 56.0336 75.6048C56.0336 75.6048 75.7827 56.108 65.9744 25H53.2483ZM104.297 27.6407V69.1231H113.662V66.0023C115.502 68.9849 119.221 70.1314 122.402 70.1314C130.499 70.1314 136.185 62.6953 136.185 53.8553C136.185 45.0767 130.731 38.0113 122.69 38.0113C119.561 38.0113 116.151 38.9715 114.094 41.6122L113.662 42.1883C113.662 42.1883 113.648 32.8721 113.662 27.6887L104.297 27.6407ZM201.977 27.7847V27.9768V29.129L201.929 32.6819V38.9235H198.759V46.1253H201.929V56.9761C201.831 68.159 204.56 71.3048 218.209 69.7953L218.112 62.2574C217.636 62.2708 214.68 62.3227 213.982 62.1614C212.559 61.8349 211.37 60.9131 211.293 58.8005V46.1253H217.68V38.9235H211.293V27.7847H201.977ZM186.609 37.6752C179.079 37.583 173.278 40.2775 173.643 48.91C173.866 54.1587 177.615 55.8718 180.846 56.736C182.504 57.1796 184.452 57.4523 185.697 57.8883C186.976 58.3358 187.906 59.0022 187.906 60.3369C187.906 62.2228 185.702 63.0736 184.352 63.0736C181.774 63.0736 176.507 62.8739 174.315 61.3932V68.547C178.105 70.0661 181.64 70.093 184.928 70.1314C191.736 70.2101 197.703 67.0144 197.703 59.2806C197.703 53.8591 193.961 51.8215 189.202 50.5905C188.845 50.4983 186.261 50.1084 185.745 49.9183C184.706 49.54 183.536 48.9004 183.536 47.7097C183.536 45.9198 184.321 44.0109 189.923 44.733C194.018 45.2573 196.406 46.0293 196.406 46.0293L196.31 39.1636C193.357 37.8576 189.846 37.7155 186.609 37.6752ZM85.664 37.7232C76.5511 37.7232 70.1525 43.8592 70.1525 54.0953C70.1525 64.6734 77.0852 70.4675 86.3844 70.4675C92.6966 70.4675 98.3787 67.0029 101.032 60.1449H91.3308C90.1744 62.194 88.5474 63.0736 86.3364 63.0736C81.9893 63.0736 79.7572 60.9649 79.7572 56.3039H101.752L101.992 54.6715C101.992 44.1722 95.3647 37.7232 85.664 37.7232ZM151.984 38.1073C142.318 38.1035 138.346 45.0768 138.346 53.8553C138.346 62.6338 143.115 70.164 152.128 70.1314C157.611 70.1122 160.869 65.9543 160.869 65.9543V69.3152H170.233V38.9715H160.869V42.2363L160.388 41.6122C158.389 38.9754 155.115 38.1073 151.984 38.1073ZM234.2 38.1553C225.739 38.1553 218.353 43.9629 218.353 54.1914C218.353 64.4179 225.789 70.1314 234.2 70.1314C242.664 70.1314 250 64.3603 250 54.1914C250 43.9629 242.662 38.1553 234.2 38.1553ZM86.1923 44.733C89.0487 44.733 91.6266 46.8705 92.1472 49.9663H79.9012C80.5371 46.6208 83.1245 44.733 86.1923 44.733ZM119.136 46.3654C119.398 46.3384 119.628 46.3654 119.905 46.3654C124.331 46.3654 126.868 49.876 126.868 53.9033C126.868 58.0631 124.317 61.4412 119.905 61.4412C115.49 61.4412 112.989 58.0631 112.989 53.9033C112.989 50.1277 115.215 46.7707 119.136 46.3654ZM153.809 46.3654C154.071 46.3384 154.301 46.3654 154.578 46.3654C159.001 46.3654 161.541 49.876 161.541 53.9033C161.541 58.0631 158.99 61.4412 154.578 61.4412C150.163 61.4412 147.662 58.0631 147.662 53.9033C147.662 50.1277 149.887 46.7707 153.809 46.3654ZM234.2 46.6535C238.494 46.6535 240.876 50.2121 240.876 54.1914C240.876 58.305 238.48 61.6332 234.2 61.6332C229.922 61.6332 227.477 58.305 227.477 54.1914C227.477 50.2121 229.909 46.6535 234.2 46.6535Z" fill="#333399"/>
<path d="M14.3186 49.805C14.3186 49.805 21.4472 42.5436 34.3981 42.5436C47.3472 42.5436 54.3163 49.7742 54.3163 49.7742C54.3163 49.7742 52.4875 57.2277 49.2047 61.1166C49.2047 61.1166 43.634 54.8923 34.3981 54.8923C25.1604 54.8923 19.4648 61.2434 19.4648 61.2434C19.4648 61.2434 15.596 55.9813 14.3186 49.805Z" fill="#ED1C24"/>
</svg>
