<svg width="250" height="100" viewBox="0 0 250 100" fill="none" xmlns="http://www.w3.org/2000/svg">
<path d="M175 0H75V100H175V0Z" fill="#036EB8"/>
<path d="M172.382 49.9346C172.384 56.1495 171.162 62.3038 168.784 68.0461C166.407 73.7884 162.922 79.0062 158.528 83.4014C154.134 87.7967 148.918 91.2832 143.176 93.6619C137.434 96.0407 131.28 97.265 125.065 97.265C118.85 97.265 112.696 96.0407 106.955 93.6619C101.213 91.2832 95.9964 87.7967 91.6024 83.4014C87.2084 79.0062 83.7233 73.7884 81.3462 68.0461C78.9691 62.3038 77.7465 56.1495 77.7483 49.9346C77.7465 43.7197 78.9691 37.5653 81.3462 31.823C83.7233 26.0807 87.2084 20.8629 91.6024 16.4677C95.9964 12.0725 101.213 8.58592 106.955 6.20718C112.696 3.82843 118.85 2.6041 125.065 2.6041C131.28 2.6041 137.434 3.82843 143.176 6.20718C148.918 8.58592 154.134 12.0725 158.528 16.4677C162.922 20.8629 166.407 26.0807 168.784 31.823C171.162 37.5653 172.384 43.7197 172.382 49.9346Z" fill="white"/>
<path d="M128.061 23.639H143.456H158.682C158.682 23.639 158.433 23.3426 158.165 23.0011C157.897 22.6568 157.604 22.2871 157.502 22.1658C153.585 17.6248 148.731 13.9136 143.236 11.3369C137.746 8.76301 131.619 7.32367 125.168 7.32367C118.409 7.32367 111.951 8.94927 106.202 11.8025C100.456 14.6586 95.4215 18.7255 91.5071 23.639H109.197H126.703L107.755 70.5924H134.786H162.421C162.54 70.3722 162.732 70.1013 162.926 69.8304C163.115 69.5594 163.307 69.2857 163.42 69.0571C164.854 66.1897 165.969 63.1389 166.734 59.9498C167.493 56.7635 167.896 53.4361 167.896 50.0155C167.896 46.2845 167.417 42.6664 166.513 39.2177C165.608 35.7689 164.284 32.4754 162.593 29.4217H151.793H140.82V36.751V44.0465H146.775H152.38V46.9562V49.8292H146.775H140.82V58.0984V66.3252H134.617H128.063V45.0004V23.639H128.061Z" fill="#036EB8"/>
<path d="M91.6654 76.361H125.247H158.834C154.917 81.3422 149.902 85.4231 144.167 88.2623C138.433 91.0986 131.97 92.6932 125.154 92.6932C113.377 92.6932 102.709 87.9124 94.9815 80.1851C87.2542 72.4607 82.4734 61.7898 82.4734 50.0127C82.4734 46.3353 82.9757 42.6974 83.8845 39.2233C84.7933 35.7463 86.1169 32.4386 87.7538 29.4217H99.4858H110.625L91.6654 76.361Z" fill="#036EB8"/>
</svg>
